<svg xmlns="http://www.w3.org/2000/svg" xmlns:xlink="http://www.w3.org/1999/xlink" viewBox="0 0 664 262" width="664" height="262"><path d="M 47.250,91.344 C 52.777,91.666 52.750,91.344 58.250,91.344" stroke-width="4.985" stroke="#53afff" fill="none" stroke-linecap="round"></path><path d="M 58.250,91.344 C 61.291,91.027 61.277,91.166 64.250,90.344" stroke-width="4.412" stroke="#53afff" fill="none" stroke-linecap="round"></path><path d="M 64.250,90.344 C 67.985,89.851 67.791,89.527 71.250,88.344" stroke-width="4.245" stroke="#53afff" fill="none" stroke-linecap="round"></path><path d="M 71.250,88.344 C 74.397,86.538 74.485,86.851 77.250,84.344" stroke-width="4.355" stroke="#53afff" fill="none" stroke-linecap="round"></path><path d="M 77.250,84.344 C 83.467,76.777 80.897,81.538 84.250,78.344" stroke-width="3.890" stroke="#53afff" fill="none" stroke-linecap="round"></path><path d="M 84.250,78.344 C 82.986,85.400 85.467,80.777 81.250,92.344" stroke-width="4.794" stroke="#53afff" fill="none" stroke-linecap="round"></path><path d="M 81.250,92.344 C 76.421,109.262 76.986,109.400 72.250,126.344" stroke-width="2.814" stroke="#53afff" fill="none" stroke-linecap="round"></path><path d="M 72.250,126.344 C 64.737,152.171 65.921,152.262 60.250,178.344" stroke-width="1.827" stroke="#53afff" fill="none" stroke-linecap="round"></path><path d="M 60.250,178.344 C 62.709,191.074 58.737,187.171 60.250,196.344" stroke-width="2.421" stroke="#53afff" fill="none" stroke-linecap="round"></path><path d="M 60.250,196.344 C 55.750,195.844 59.209,198.574 53.250,193.344" stroke-width="3.928" stroke="#53afff" fill="none" stroke-linecap="round"></path><path d="M 53.250,193.344 C 51.319,189.978 50.750,190.844 50.250,186.344" stroke-width="3.945" stroke="#53afff" fill="none" stroke-linecap="round"></path><path d="M 50.250,186.344 C 49.045,181.376 48.819,181.478 48.250,176.344" stroke-width="3.574" stroke="#53afff" fill="none" stroke-linecap="round"></path><path d="M 48.250,176.344 C 47.515,171.857 47.545,171.876 47.250,167.344" stroke-width="3.852" stroke="#53afff" fill="none" stroke-linecap="round"></path><path d="M 47.250,167.344 C 46.726,163.270 47.015,163.357 47.250,159.344" stroke-width="3.833" stroke="#53afff" fill="none" stroke-linecap="round"></path><path d="M 47.250,159.344 C 46.921,154.852 47.726,155.770 49.250,152.344" stroke-width="4.459" stroke="#53afff" fill="none" stroke-linecap="round"></path><path d="M 49.250,152.344 C 54.711,148.782 53.421,147.852 60.250,145.344" stroke-width="4.743" stroke="#53afff" fill="none" stroke-linecap="round"></path><path d="M 60.250,145.344 C 69.341,139.986 69.211,139.782 78.250,134.344" stroke-width="3.198" stroke="#53afff" fill="none" stroke-linecap="round"></path><path d="M 78.250,134.344 C 84.138,126.598 84.341,130.486 90.250,126.344" stroke-width="3.293" stroke="#53afff" fill="none" stroke-linecap="round"></path><path d="M 90.250,126.344 C 95.954,130.693 96.138,126.098 102.250,133.344" stroke-width="4.353" stroke="#53afff" fill="none" stroke-linecap="round"></path><path d="M 102.250,133.344 C 105.731,134.109 105.454,134.693 109.250,134.344" stroke-width="4.763" stroke="#53afff" fill="none" stroke-linecap="round"></path><path d="M 109.250,134.344 C 113.280,134.649 113.231,134.609 117.250,134.344" stroke-width="4.120" stroke="#53afff" fill="none" stroke-linecap="round"></path><path d="M 117.250,134.344 C 121.783,134.743 119.780,134.149 122.250,133.344" stroke-width="4.263" stroke="#53afff" fill="none" stroke-linecap="round"></path><path d="M 122.250,133.344 C 118.236,128.749 122.783,131.743 119.250,128.344" stroke-width="5.056" stroke="#53afff" fill="none" stroke-linecap="round"></path><path d="M 119.250,128.344 C 123.200,129.994 120.736,127.749 127.250,131.344" stroke-width="5.185" stroke="#53afff" fill="none" stroke-linecap="round"></path><path d="M 127.250,131.344 C 130.677,132.867 130.700,132.494 134.250,133.344" stroke-width="4.767" stroke="#53afff" fill="none" stroke-linecap="round"></path><path d="M 134.250,133.344 C 139.522,135.487 138.177,133.867 142.250,133.344" stroke-width="4.616" stroke="#53afff" fill="none" stroke-linecap="round"></path><path d="M 142.250,133.344 C 146.582,128.183 146.522,129.987 148.250,122.344" stroke-width="4.250" stroke="#53afff" fill="none" stroke-linecap="round"></path><path d="M 148.250,122.344 C 148.561,117.318 149.582,117.683 148.250,112.344" stroke-width="3.666" stroke="#53afff" fill="none" stroke-linecap="round"></path><path d="M 148.250,112.344 C 148.545,108.934 148.061,109.318 147.250,106.344" stroke-width="3.987" stroke="#53afff" fill="none" stroke-linecap="round"></path><path d="M 147.250,106.344 C 144.614,101.131 146.045,103.934 143.250,102.344" stroke-width="4.511" stroke="#53afff" fill="none" stroke-linecap="round"></path><path d="M 143.250,102.344 C 140.111,108.141 140.114,105.131 138.250,114.344" stroke-width="4.641" stroke="#53afff" fill="none" stroke-linecap="round"></path><path d="M 138.250,114.344 C 135.503,123.262 135.611,123.141 134.250,132.344" stroke-width="3.086" stroke="#53afff" fill="none" stroke-linecap="round"></path><path d="M 134.250,132.344 C 132.111,139.983 133.503,137.762 134.250,143.344" stroke-width="3.255" stroke="#53afff" fill="none" stroke-linecap="round"></path><path d="M 134.250,143.344 C 139.044,145.059 135.611,145.483 141.250,143.344" stroke-width="4.406" stroke="#53afff" fill="none" stroke-linecap="round"></path><path d="M 141.250,143.344 C 142.829,139.925 143.544,141.559 143.250,136.344" stroke-width="4.068" stroke="#53afff" fill="none" stroke-linecap="round"></path><path d="M 143.250,136.344 C 140.442,125.501 143.829,131.425 143.250,126.344" stroke-width="3.792" stroke="#53afff" fill="none" stroke-linecap="round"></path><path d="M 143.250,126.344 C 153.288,134.297 150.442,128.501 163.250,142.344" stroke-width="4.440" stroke="#53afff" fill="none" stroke-linecap="round"></path><path d="M 163.250,142.344 C 167.039,148.228 166.288,144.797 169.250,147.344" stroke-width="4.269" stroke="#53afff" fill="none" stroke-linecap="round"></path><path d="M 169.250,147.344 C 171.168,142.805 172.039,146.228 173.250,138.344" stroke-width="4.900" stroke="#53afff" fill="none" stroke-linecap="round"></path><path d="M 173.250,138.344 C 174.303,135.021 174.668,135.305 176.250,132.344" stroke-width="4.204" stroke="#53afff" fill="none" stroke-linecap="round"></path><path d="M 176.250,132.344 C 178.345,128.506 178.303,129.521 181.250,127.344" stroke-width="4.478" stroke="#53afff" fill="none" stroke-linecap="round"></path><path d="M 181.250,127.344 C 183.876,127.453 183.345,126.506 186.250,128.344" stroke-width="5.122" stroke="#53afff" fill="none" stroke-linecap="round"></path><path d="M 186.250,128.344 C 191.600,131.225 191.876,130.453 197.250,133.344" stroke-width="3.752" stroke="#53afff" fill="none" stroke-linecap="round"></path><path d="M 197.250,133.344 C 207.491,137.908 207.600,137.225 218.250,140.344" stroke-width="2.655" stroke="#53afff" fill="none" stroke-linecap="round"></path><path d="M 218.250,140.344 C 234.185,143.405 233.991,143.908 250.250,145.344" stroke-width="2.107" stroke="#53afff" fill="none" stroke-linecap="round"></path><path d="M 250.250,145.344 C 263.373,145.734 263.185,146.905 276.250,147.344" stroke-width="2.237" stroke="#53afff" fill="none" stroke-linecap="round"></path><path d="M 276.250,147.344 C 282.486,148.636 279.373,147.734 282.250,149.344" stroke-width="3.684" stroke="#53afff" fill="none" stroke-linecap="round"></path><path d="M 282.250,149.344 C 278.742,149.792 281.986,150.136 275.250,150.344" stroke-width="4.637" stroke="#53afff" fill="none" stroke-linecap="round"></path><path d="M 275.250,150.344 C 269.153,150.904 269.242,151.292 263.250,152.344" stroke-width="4.043" stroke="#53afff" fill="none" stroke-linecap="round"></path><path d="M 263.250,152.344 C 249.084,158.052 248.653,155.904 234.250,160.344" stroke-width="2.767" stroke="#53afff" fill="none" stroke-linecap="round"></path><path d="M 234.250,160.344 C 187.268,166.908 187.584,167.552 140.250,171.344" stroke-width="1.786" stroke="#53afff" fill="none" stroke-linecap="round"></path><path d="M 140.250,171.344 C 133.977,171.691 134.268,171.908 128.250,170.344" stroke-width="2.627" stroke="#53afff" fill="none" stroke-linecap="round"></path><path d="M 128.250,170.344 C 121.511,167.670 125.477,169.691 123.250,167.344" stroke-width="3.555" stroke="#53afff" fill="none" stroke-linecap="round"></path><path d="M 123.250,167.344 C 133.750,167.344 129.511,166.170 144.250,167.344" stroke-width="4.359" stroke="#53afff" fill="none" stroke-linecap="round"></path><path d="M 144.250,167.344 C 165.750,167.344 165.750,167.344 187.250,167.344" stroke-width="1.968" stroke="#53afff" fill="none" stroke-linecap="round"></path><path d="M 187.250,167.344 C 209.750,167.344 209.750,167.344 232.250,167.344" stroke-width="1.649" stroke="#53afff" fill="none" stroke-linecap="round"></path><path d="M 185.250,85.344 C 185.250,76.069 185.250,81.844 185.250,78.344" stroke-width="3.994" stroke="#53afff" fill="none" stroke-linecap="round"></path><path d="M 185.250,78.344 C 184.143,94.898 185.250,89.069 185.250,111.344" stroke-width="4.601" stroke="#53afff" fill="none" stroke-linecap="round"></path><path d="M 185.250,111.344 C 188.312,146.900 187.643,146.898 192.250,182.344" stroke-width="1.578" stroke="#53afff" fill="none" stroke-linecap="round"></path><path d="M 192.250,182.344 C 192.620,203.411 193.312,191.900 195.250,201.344" stroke-width="2.196" stroke="#53afff" fill="none" stroke-linecap="round"></path><path d="M 195.250,201.344 C 200.065,186.061 199.620,197.911 206.250,171.344" stroke-width="3.482" stroke="#53afff" fill="none" stroke-linecap="round"></path><path d="M 206.250,171.344 C 214.966,151.707 214.565,151.561 224.250,132.344" stroke-width="1.905" stroke="#53afff" fill="none" stroke-linecap="round"></path><path d="M 224.250,132.344 C 233.293,115.584 232.466,115.207 241.250,98.344" stroke-width="1.836" stroke="#53afff" fill="none" stroke-linecap="round"></path><path d="M 241.250,98.344 C 243.996,85.758 245.293,89.584 248.250,80.344" stroke-width="2.518" stroke="#53afff" fill="none" stroke-linecap="round"></path><path d="M 248.250,80.344 C 250.316,82.280 249.496,78.758 252.250,84.344" stroke-width="3.966" stroke="#53afff" fill="none" stroke-linecap="round"></path><path d="M 252.250,84.344 C 264.625,99.132 265.316,98.280 278.250,112.344" stroke-width="2.458" stroke="#53afff" fill="none" stroke-linecap="round"></path><path d="M 278.250,112.344 C 284.450,112.982 281.125,115.132 285.250,116.344" stroke-width="3.234" stroke="#53afff" fill="none" stroke-linecap="round"></path><path d="M 285.250,116.344 C 283.635,124.868 286.950,123.482 283.250,133.344" stroke-width="4.351" stroke="#53afff" fill="none" stroke-linecap="round"></path><path d="M 283.250,133.344 C 282.564,137.290 283.135,135.868 284.250,138.344" stroke-width="4.716" stroke="#53afff" fill="none" stroke-linecap="round"></path><path d="M 284.250,138.344 C 287.750,138.344 286.564,139.790 291.250,138.344" stroke-width="4.858" stroke="#53afff" fill="none" stroke-linecap="round"></path><path d="M 291.250,138.344 C 296.276,138.655 296.250,138.344 301.250,138.344" stroke-width="3.855" stroke="#53afff" fill="none" stroke-linecap="round"></path><path d="M 301.250,138.344 C 308.620,137.755 304.276,138.155 307.250,137.344" stroke-width="4.454" stroke="#53afff" fill="none" stroke-linecap="round"></path><path d="M 307.250,137.344 C 299.288,135.908 303.620,136.255 291.250,135.344" stroke-width="4.924" stroke="#53afff" fill="none" stroke-linecap="round"></path><path d="M 291.250,135.344 C 270.739,134.532 270.788,133.908 250.250,133.344" stroke-width="2.131" stroke="#53afff" fill="none" stroke-linecap="round"></path><path d="M 250.250,133.344 C 236.247,132.390 236.239,132.532 222.250,131.344" stroke-width="2.317" stroke="#53afff" fill="none" stroke-linecap="round"></path><path d="M 222.250,131.344 C 170.146,128.286 182.747,128.390 143.250,125.344" stroke-width="1.125" stroke="#53afff" fill="none" stroke-linecap="round"></path></svg>