<svg width="100" height="31" viewBox="0 0 100 31" fill="none" xmlns="http://www.w3.org/2000/svg">
<path d="M56.8951 8.8584C56.8951 8.8584 57.6678 6.38181 57.1483 6.20914C56.6289 6.03561 55.8497 8.37267 55.8497 8.37267L56.8951 8.8584Z" fill="#060606"/>
<path d="M92.122 24.995L71.8653 25.514L31.3518 25.2545L7.9789 22.398C7.9789 22.398 -0.591508 10.1916 22.0028 12.01C44.5967 13.8276 81.2145 9.93209 86.928 12.7886C92.6414 15.6451 92.122 24.995 92.122 24.995Z" fill="#090B0A"/>
<path d="M44.3367 7.94073C44.3367 7.94073 44.077 5.08383 43.2978 4.47739C42.5188 3.87183 41.9129 4.21799 41.5665 5.17059C41.2202 6.1223 40.7874 7.85398 40.7874 7.85398L44.3367 7.94073Z" fill="#753D3B"/>
<path d="M28.3225 7.1615C28.3225 7.1615 27.975 5.17105 27.4559 4.65111C26.9369 4.13205 25.6379 4.0454 25.6379 4.0454L25.5513 6.90241L28.3225 7.1615Z" fill="#753D3B"/>
<path d="M68.835 8.02715C68.835 8.02715 63.9871 5.51668 60.8706 3.87164C57.7543 2.22659 54.0318 0.92845 54.0318 0.92845L53.0797 1.27444C53.0797 1.27444 66.0648 7.59444 67.2767 7.94043C68.4887 8.28642 68.835 8.02715 68.835 8.02715Z" fill="#8A8B8D"/>
<path d="M51.868 1.70801L50.656 2.83305C50.656 2.83305 57.2351 5.68967 59.3127 6.90186C61.3903 8.11406 61.65 8.63345 61.65 8.63345C61.65 8.63345 41.2201 7.68094 37.4112 7.42125C33.6027 7.16155 25.2053 6.8156 24.2528 6.20995C23.3003 5.6034 23.0415 5.34371 23.0415 5.34371C23.0415 5.34371 13.6925 5.68966 13.5191 6.12278C13.3457 6.55591 13.3457 6.55591 13.3457 6.55591C13.3457 6.55591 12.3941 6.98903 16.462 7.76811C20.5308 8.54719 67.8828 10.4513 67.8828 10.4513C67.8828 10.4513 66.238 7.85437 64.1605 6.64217C62.0829 5.43087 51.868 1.70801 51.868 1.70801Z" fill="#18191A"/>
<path d="M66.6714 9.67243C66.6714 9.67243 19.6653 7.59507 16.9823 7.33551C14.2984 7.07505 12.8267 6.38289 12.8267 6.38289C12.8267 6.38289 6.2476 7.3355 5.46802 7.07504C4.68935 6.81549 4.34327 6.46941 3.65112 6.72896C2.95806 6.98852 1.57285 8.28722 1.8324 8.6333C2.09196 8.98028 2.87154 9.84547 2.09197 11.5768C1.3133 13.308 -0.158435 14.5202 0.0146041 14.9528C0.188544 15.3863 0.275056 19.6276 0.534614 20.2332C0.794172 20.8397 2.52546 22.6575 2.78502 22.7441C3.04458 22.8306 11.701 24.4753 11.701 24.4753C11.701 24.4753 11.3757 19.1706 15.3366 16.2515C18.6262 13.8281 24.5996 13.5685 27.5431 16.6841C30.7019 20.0295 30.0532 25.774 30.0532 25.774L74.3757 26.1201C74.3757 26.1201 74.2893 18.6758 78.0116 15.8189C81.7339 12.962 87.3607 13.308 89.9578 17.2041C92.5549 21.0993 91.6025 25.8606 91.6025 25.8606L96.7367 24.3302C96.7367 24.3302 96.71 23.6967 96.7966 23.2632C96.8832 22.8306 97.8354 20.2332 98.1817 19.9736C98.5279 19.7141 99.5667 20.1467 99.5667 20.1467L99.9996 16.5976C99.9996 16.5976 100.086 14.6067 97.7489 13.2215C95.4115 11.8363 85.9488 9.82293 82.1668 9.06679C78.2712 8.28722 67.7966 7.85462 67.7966 7.85462C67.7966 7.85462 56.7161 2.4012 53.0803 1.27554C53.0803 1.27554 51.6086 1.70814 51.8683 1.70814C52.1281 1.70814 59.7459 4.73812 62.6893 6.46941C65.6325 8.2007 66.6714 9.67243 66.6714 9.67243Z" fill="#FF6D3B"/>
<path d="M92.0353 13.2213C91.7432 13.6596 95.1517 15.9045 96.1906 16.3379C97.2293 16.7704 98.8741 16.8569 98.9606 16.5109C99.0472 16.164 98.095 14.8656 96.2771 13.9133C94.4592 12.9618 92.2084 12.9617 92.0353 13.2213Z" fill="white"/>
<path d="M92.2951 13.8268C92.2951 13.8268 94.5458 13.4808 95.5846 14.2602C96.6234 15.0395 96.1906 16.3379 96.1906 16.3379C96.1906 16.3379 94.5458 15.645 93.8533 15.0395C93.1608 14.4332 92.2951 13.8268 92.2951 13.8268Z" fill="#F9FF57"/>
<path d="M62.081 6.13003C62.4796 6.11696 62.8455 6.34792 63.0053 6.7131C63.2823 7.34671 63.5569 8.25746 63.3816 8.37425C63.1219 8.54682 60.525 8.80653 60.0921 8.37425C59.9258 8.20779 59.9266 7.6012 59.9636 7.07043C59.9981 6.57452 60.4046 6.18581 60.9014 6.16925L62.081 6.13003Z" fill="#69686A"/>
<path d="M62.4289 8.28618L62.7751 9.41132L61.6498 9.32549L61.3035 8.28618H62.4289Z" fill="#69686A"/>
<path d="M92.468 20.06C92.6412 20.406 95.4114 20.9258 95.8442 20.7528C96.277 20.579 97.4889 18.5021 97.9218 17.8957C98.3268 17.3285 99.7171 17.4441 99.894 17.4607L99.5666 20.1465C99.5666 20.1465 98.5278 19.7139 98.1815 19.9734C97.8352 20.233 96.883 22.8297 96.7964 23.2631C96.7098 23.6956 97.9114 24.5265 97.9114 24.5265L91.6024 25.8598C91.6024 25.8598 92.5546 21.0988 89.9576 17.2029C89.6781 16.7837 89.3617 16.4085 89.0182 16.0708L89.0053 15.9045C90.3039 16.5108 92.2949 19.7139 92.468 20.06Z" fill="#E84700"/>
<path d="M99.5667 20.1464L97.9115 24.5265C97.9115 24.5265 96.7965 23.8686 96.7965 23.263C96.7965 22.6567 98.0084 20.3195 98.1816 19.9734C98.3547 19.6274 99.5667 20.1464 99.5667 20.1464Z" fill="#F9FF57"/>
<path d="M44.9495 11.4387C44.928 10.9987 43.2316 9.97956 41.9347 10.0431C40.6377 10.1059 39.9997 11.2394 39.9997 11.2394C39.9997 11.2394 40.4098 12.5417 42.2362 12.6732C44.0628 12.8046 44.9495 11.4387 44.9495 11.4387Z" fill="#E84700"/>
<path d="M68.3648 12.1821C68.1065 12.2685 15.7697 10.1043 15.7697 10.1043C15.7697 10.1043 16.1136 10.5371 19.6434 10.8836C23.1723 11.23 68.623 13.0479 68.623 13.0479L68.3648 12.1821Z" fill="#E84700"/>
<path d="M2.2645 9.6723C2.2645 9.6723 3.30402 8.89287 4.86201 8.80646C6.42001 8.72004 8.15168 8.89287 8.15168 8.89287C8.15168 8.89287 9.10479 10.1052 8.41178 10.711C7.71877 11.3167 5.81512 12.5291 5.12211 12.5291C4.4291 12.5291 1.74603 12.269 1.74603 12.269C1.74603 12.269 2.43904 10.8846 2.2645 9.6723Z" fill="#FF124B"/>
<path d="M22.3475 8.74005H8.15176V8.54532H22.3475C23.2393 8.54532 23.9622 8.09902 24.4024 7.73714C24.4972 7.74145 24.592 7.74662 24.6885 7.75093C24.256 8.14726 23.428 8.74005 22.3475 8.74005Z" fill="#7F2B05"/>
<path d="M10.5979 6.68448C10.6631 6.67579 10.7273 6.66711 10.7907 6.65929L11.105 8.62146L10.9131 8.65271L10.5979 6.68448Z" fill="#7F2B05"/>
<path d="M15.3364 16.2514C11.5278 19.3671 11.7008 24.475 11.7008 24.475C11.7008 24.475 3.04388 22.8298 2.78437 22.7433C2.52486 22.6568 0.793143 20.8394 0.533635 20.233C0.274126 19.6275 0.187623 15.3855 0.013786 14.9522C-0.0369513 14.8249 0.055369 14.6303 0.229206 14.3749L17.6279 14.8324C16.8261 15.1909 16.0534 15.6642 15.3364 16.2514Z" fill="#E84700"/>
<path d="M30.0525 25.7733C30.0525 25.7733 30.5723 20.1465 27.5422 16.6839C26.945 16.001 26.2555 15.4512 25.5061 15.0295C25.9195 14.938 29.3937 14.1786 31.2643 14.2601C33.2556 14.3466 71.2588 15.5585 71.2588 15.5585L75.8821 18.6127C74.3265 21.9148 74.3752 26.1193 74.3752 26.1193L30.0525 25.7733Z" fill="#E84700"/>
<path d="M67.9695 22.6567L62.9486 20.579C62.9486 20.579 33.6892 20.4925 32.7368 20.6663C31.7844 20.8393 31.8709 21.7044 32.6503 21.9647C33.4288 22.2242 67.9695 22.6567 67.9695 22.6567Z" fill="#FF6D3B"/>
<path d="M65.1997 25.0805C65.1997 25.0805 64.5072 24.3884 61.9102 24.3884C59.3131 24.3884 43.5579 23.7821 43.4713 24.1289C43.3848 24.4749 45.4623 25.1678 45.8952 25.1678C46.328 25.1678 65.1997 25.0805 65.1997 25.0805Z" fill="#FF6D3B"/>
<path d="M99.2534 14.5439C99.2531 14.5439 99.2528 14.543 99.2526 14.543C99.2528 14.543 99.2532 14.5439 99.2534 14.5439ZM99.2287 14.5112C99.2267 14.5086 99.2246 14.5052 99.2226 14.5026C99.2245 14.5052 99.2267 14.5086 99.2287 14.5112ZM99.2217 14.5017C98.9855 14.1905 98.6778 13.8732 98.2768 13.5731C98.6776 13.8732 98.9855 14.1905 99.2217 14.5017ZM98.2414 13.5465C98.2378 13.5439 98.2341 13.5413 98.2304 13.5387C98.2342 13.5413 98.2377 13.5439 98.2414 13.5465ZM98.1943 13.5121C98.1908 13.5095 98.1872 13.5069 98.1836 13.5043C98.1872 13.5069 98.1907 13.5095 98.1943 13.5121ZM98.1707 13.4949C98.1672 13.4923 98.1636 13.4897 98.1601 13.4871C98.1636 13.4897 98.1673 13.4923 98.1707 13.4949ZM98.1584 13.4863C98.1551 13.4837 98.1518 13.482 98.1486 13.4794C98.152 13.482 98.1551 13.4837 98.1584 13.4863ZM98.1468 13.4785C98.1436 13.476 98.1404 13.4734 98.1371 13.4717C98.1403 13.4734 98.1437 13.476 98.1468 13.4785ZM98.1098 13.4519C98.1066 13.4502 98.1034 13.4476 98.1002 13.4459C98.1032 13.4476 98.1067 13.4502 98.1098 13.4519ZM98.0964 13.4433C98.0939 13.4416 98.0915 13.4398 98.089 13.4381C98.0916 13.4398 98.0939 13.4416 98.0964 13.4433ZM98.0719 13.4261C98.0693 13.4244 98.0669 13.4226 98.0642 13.4209C98.0668 13.4226 98.0694 13.4244 98.0719 13.4261ZM98.0591 13.4175C98.0569 13.4158 98.0546 13.414 98.0523 13.4132C98.0548 13.414 98.0568 13.4158 98.0591 13.4175ZM98.0334 13.4003C98.0317 13.3994 98.0297 13.3977 98.0281 13.3968C98.0299 13.3977 98.0315 13.3986 98.0334 13.4003ZM98.0228 13.3934C98.02 13.3908 98.0171 13.3891 98.0143 13.3874C98.0171 13.3891 98.0199 13.3908 98.0228 13.3934ZM98.0088 13.384C98.0069 13.3822 98.0051 13.3814 98.0032 13.3797C98.005 13.3814 98.0069 13.3822 98.0088 13.384ZM97.984 13.3676C97.9818 13.3659 97.9796 13.3642 97.9775 13.3633C97.9796 13.3642 97.9818 13.3659 97.984 13.3676ZM97.9704 13.3582C97.9681 13.3573 97.966 13.3556 97.9638 13.3539C97.9658 13.3556 97.9683 13.3573 97.9704 13.3582ZM97.9595 13.3513C97.9563 13.3496 97.9533 13.3478 97.9503 13.3453C97.9533 13.3478 97.9564 13.3496 97.9595 13.3513ZM97.9449 13.3418C97.9427 13.341 97.9407 13.3392 97.9387 13.3375C97.9408 13.3392 97.9427 13.341 97.9449 13.3418ZM97.9194 13.3255C97.9172 13.3246 97.9149 13.3229 97.9128 13.3212C97.915 13.3229 97.917 13.3238 97.9194 13.3255ZM97.8941 13.31C97.8911 13.3074 97.8882 13.3057 97.8853 13.304C97.8883 13.3057 97.8911 13.3074 97.8941 13.31ZM97.8684 13.2937C97.8652 13.2911 97.8617 13.2894 97.8585 13.2876C97.8618 13.2894 97.8651 13.2911 97.8684 13.2937ZM97.8278 13.2687C97.8248 13.267 97.8218 13.2644 97.8188 13.2627C97.8217 13.2644 97.8249 13.267 97.8278 13.2687ZM97.8139 13.2601C97.8112 13.2584 97.8083 13.2567 97.8056 13.255C97.8083 13.2567 97.8111 13.2584 97.8139 13.2601ZM97.8019 13.2524C97.7983 13.2507 97.7947 13.2481 97.791 13.2464C97.7947 13.2481 97.7982 13.2507 97.8019 13.2524ZM97.7873 13.2438C97.7843 13.2421 97.7812 13.2404 97.7781 13.2386C97.7812 13.2404 97.7843 13.2421 97.7873 13.2438ZM97.7756 13.2369C97.7716 13.2343 97.7678 13.2318 97.764 13.23C97.7678 13.2318 97.7718 13.2343 97.7756 13.2369ZM97.761 13.2283C97.7569 13.2257 97.753 13.2232 97.749 13.2206C97.753 13.2232 97.757 13.2257 97.761 13.2283ZM82.1668 9.06593C79.7132 8.57497 74.6503 8.22158 71.238 8.02726C74.6505 8.22158 79.7132 8.57497 82.1668 9.06593Z" fill="white"/>
<path d="M99.2319 15.9296L99.9092 15.9184C99.8168 15.5458 99.631 15.0579 99.2575 14.551C99.2574 14.5502 99.2573 14.5502 99.2572 14.5502C99.2558 14.5484 99.2546 14.5467 99.2532 14.545C99.253 14.545 99.2526 14.5441 99.2524 14.5441C99.2504 14.5416 99.2484 14.5381 99.2464 14.5355C99.2455 14.5347 99.2445 14.533 99.2435 14.5321C99.2427 14.5304 99.242 14.5295 99.2412 14.5286C99.2395 14.5269 99.2378 14.5243 99.2361 14.5218C99.2354 14.5209 99.2349 14.52 99.2342 14.5192C99.2325 14.5175 99.2308 14.5149 99.229 14.5123C99.2289 14.5123 99.2286 14.5123 99.2285 14.5123C99.2265 14.5089 99.2243 14.5063 99.2223 14.5037C99.222 14.5028 99.2218 14.5028 99.2215 14.5028C98.9852 14.1913 98.6774 13.8738 98.2765 13.5735C98.2765 13.5735 98.2764 13.5735 98.2762 13.5735C98.2687 13.5675 98.2611 13.5623 98.2536 13.5563C98.2535 13.5563 98.2534 13.5563 98.2533 13.5563C98.2495 13.5537 98.2458 13.5511 98.242 13.5477C98.2418 13.5477 98.2416 13.5477 98.2413 13.5477C98.2375 13.5442 98.234 13.5416 98.2301 13.5391H98.2301C98.2264 13.5365 98.2228 13.5339 98.2192 13.5313C98.2187 13.5305 98.2181 13.5305 98.2176 13.5296C98.2104 13.5244 98.2033 13.5193 98.1961 13.5141C98.1954 13.5141 98.1947 13.5132 98.1941 13.5132C98.1905 13.5107 98.187 13.5081 98.1833 13.5055C98.183 13.5046 98.1827 13.5046 98.1824 13.5046C98.179 13.5021 98.1756 13.4995 98.1722 13.4969C98.1717 13.4969 98.1711 13.4969 98.1705 13.496C98.1671 13.4934 98.1634 13.4909 98.1599 13.4883C98.1593 13.4883 98.1587 13.4874 98.1581 13.4874C98.1549 13.4848 98.1518 13.4823 98.1484 13.4805C98.1478 13.4797 98.1473 13.4797 98.1466 13.4788C98.1434 13.4771 98.1401 13.4745 98.137 13.4719C98.1358 13.4711 98.1347 13.4711 98.1336 13.4702C98.1303 13.4676 98.1271 13.4651 98.1237 13.4633C98.1228 13.4625 98.122 13.4616 98.121 13.4608C98.1183 13.459 98.1157 13.4573 98.1129 13.4556C98.1118 13.4547 98.1106 13.4539 98.1096 13.453C98.1065 13.4513 98.1031 13.4487 98.1 13.447C98.0987 13.4453 98.0975 13.4453 98.0962 13.4435C98.0937 13.4418 98.0913 13.441 98.0888 13.4384C98.0877 13.4384 98.0866 13.4375 98.0855 13.4367C98.0824 13.4341 98.0795 13.4324 98.0764 13.4306C98.0748 13.4289 98.0732 13.4281 98.0717 13.4272C98.0691 13.4255 98.0666 13.4238 98.064 13.422C98.0623 13.4203 98.0605 13.4194 98.0589 13.4186C98.0566 13.4169 98.0545 13.4151 98.0522 13.4134C98.0505 13.4126 98.0486 13.4117 98.0469 13.41C98.044 13.4083 98.0412 13.4065 98.0383 13.4048C98.0366 13.4031 98.035 13.4022 98.0332 13.4014C98.0314 13.3997 98.0297 13.3988 98.0279 13.3979C98.026 13.3962 98.0244 13.3954 98.0227 13.3936C98.0198 13.3919 98.0169 13.3902 98.0141 13.3885C98.0123 13.3867 98.0104 13.3859 98.0086 13.385C98.0068 13.3833 98.0048 13.3824 98.003 13.3807C98.0004 13.379 97.9979 13.3773 97.9954 13.3756C97.9933 13.3747 97.9911 13.373 97.9889 13.3721C97.9872 13.3704 97.9856 13.3695 97.9837 13.3687C97.9816 13.367 97.9794 13.3652 97.9772 13.3644C97.9749 13.3627 97.9725 13.3609 97.9702 13.3592C97.968 13.3584 97.9656 13.3566 97.9636 13.3549C97.9622 13.3541 97.9606 13.3532 97.9593 13.3523C97.9562 13.3506 97.9531 13.348 97.9501 13.3463C97.9482 13.3454 97.9464 13.3437 97.9446 13.3429C97.9425 13.3411 97.9406 13.3403 97.9384 13.3386C97.9366 13.3377 97.935 13.3368 97.9333 13.336C97.9304 13.3334 97.9274 13.3317 97.9246 13.33C97.9228 13.3291 97.921 13.3274 97.9192 13.3265C97.9168 13.3248 97.9149 13.3239 97.9126 13.3222C97.9104 13.3205 97.9081 13.3196 97.9058 13.3179C97.9036 13.3162 97.9012 13.3153 97.8989 13.3136C97.8972 13.3127 97.8956 13.3119 97.8939 13.3102C97.8909 13.3084 97.8881 13.3067 97.8851 13.305C97.8833 13.3041 97.8814 13.3024 97.8796 13.3016C97.8774 13.2998 97.8751 13.299 97.873 13.2973C97.8712 13.2964 97.8698 13.2955 97.8682 13.2947C97.8649 13.2921 97.8616 13.2904 97.8583 13.2887C97.8567 13.2869 97.8553 13.2861 97.8537 13.2852C97.8514 13.2843 97.8489 13.2826 97.8465 13.2809C97.8446 13.28 97.8427 13.2783 97.8407 13.2775C97.8379 13.2757 97.8352 13.274 97.8324 13.2723C97.8309 13.2714 97.8292 13.2706 97.8276 13.2697C97.8247 13.2671 97.8216 13.2654 97.8187 13.2637C97.8169 13.2628 97.8154 13.262 97.8137 13.2611C97.8109 13.2594 97.8082 13.2577 97.8054 13.256C97.8042 13.2551 97.8029 13.2542 97.8017 13.2534C97.798 13.2517 97.7945 13.2491 97.7909 13.2473C97.7897 13.2465 97.7884 13.2456 97.7872 13.2448C97.7841 13.243 97.781 13.2413 97.778 13.2396C97.7771 13.2387 97.7761 13.2379 97.7754 13.2379C97.7716 13.2353 97.7676 13.2327 97.7638 13.231C97.7628 13.2301 97.7619 13.2293 97.7608 13.2293C97.7568 13.2267 97.7527 13.2241 97.7488 13.2215C97.3927 13.0107 96.8712 12.7853 96.2297 12.5521C92.6601 11.2527 85.3725 9.70807 82.1666 9.06698C79.7131 8.57563 74.6504 8.22282 71.238 8.02834C70.4059 7.98102 69.6718 7.94315 69.0979 7.91476L69.5279 8.54723C69.5279 8.54723 84.0763 10.085 91.4294 11.7501C99.2319 13.5175 99.2319 15.9296 99.2319 15.9296Z" fill="#FFA07F"/>
<path d="M67.7264 23.5372C67.7351 23.4658 68.5936 16.3259 68.6793 14.3537C68.7659 12.362 67.9853 10.6893 67.9775 10.6723L67.9705 10.6604C67.4404 9.86492 66.577 9.5127 66.5405 9.49823L66.4682 9.67945C66.4765 9.68286 67.3081 10.0223 67.8042 10.7617C67.8555 10.874 68.5665 12.4641 68.4847 14.3461C68.3993 16.3106 67.5417 23.4428 67.5331 23.5143L67.7264 23.5372Z" fill="#7F2B05"/>
<path d="M39.6456 8.94426C39.6352 8.96912 38.6192 11.4593 38.8733 13.8311C39.1412 16.3315 41.6656 21.4113 43.4097 22.325C45.0877 23.2037 71.4058 23.4154 74.5674 23.4377C74.5587 23.5028 74.5505 23.568 74.5426 23.6323C71.115 23.6091 45.0544 23.4068 43.3193 22.4973C41.5333 21.5621 38.9519 16.3924 38.6796 13.8517C38.4203 11.431 39.4551 8.8954 39.467 8.86711L39.6537 8.45566C39.7236 8.45909 39.7934 8.46165 39.8632 8.46508L39.6456 8.94426Z" fill="#7F2B05"/>
<path d="M91.0608 22.601C91.0608 18.4455 87.6358 15.0761 83.4109 15.0761C79.1859 15.0761 75.761 18.4455 75.761 22.601C75.761 26.7564 79.1859 30.1251 83.4109 30.1251C87.6358 30.1251 91.0608 26.7564 91.0608 22.601Z" fill="#1F2326"/>
<path d="M83.4103 15.076C87.0203 15.076 90.0443 17.5364 90.8486 20.8451C90.0443 24.1539 87.0203 26.6142 83.4103 26.6142C79.8003 26.6142 76.7763 24.1539 75.972 20.8451C76.7763 17.5364 79.8003 15.076 83.4103 15.076Z" fill="#3C3E40"/>
<path d="M89.054 22.601C89.054 19.5351 86.5273 17.0498 83.4106 17.0498C80.2938 17.0498 77.7672 19.5351 77.7672 22.601C77.7672 25.666 80.2938 28.1513 83.4106 28.1513C86.5273 28.1513 89.054 25.666 89.054 22.601Z" fill="#5D5E60"/>
<path d="M86.9219 22.601C86.9219 20.6929 85.3498 19.1467 83.4104 19.1467C81.4711 19.1467 79.899 20.6929 79.899 22.601C79.899 24.5082 81.4711 26.0544 83.4104 26.0544C85.3498 26.0544 86.9219 24.5082 86.9219 22.601Z" fill="#3C3E40"/>
<path d="M85.229 22.601C85.229 21.6129 84.4149 20.8119 83.4106 20.8119C82.4063 20.8119 81.5922 21.6129 81.5922 22.601C81.5922 23.5883 82.4063 24.3893 83.4106 24.3893C84.4149 24.3893 85.229 23.5883 85.229 22.601Z" fill="#9EA7A6"/>
<path d="M84.3667 22.601C84.3667 22.0812 83.9386 21.6603 83.4104 21.6603C82.8823 21.6603 82.4542 22.0812 82.4542 22.601C82.4542 23.12 82.8823 23.5417 83.4104 23.5417C83.9386 23.5417 84.3667 23.12 84.3667 22.601Z" fill="#5D5E60"/>
<path d="M83.8281 17.1272L83.4703 20.2887H83.1125L82.695 17.1871L83.8281 17.1272Z" fill="#9EA7A6"/>
<path d="M82.695 28.2203L83.0528 25.0597H83.4107L83.8281 28.1613L82.695 28.2203Z" fill="#9EA7A6"/>
<path d="M78.736 19.417L81.2976 21.3035L81.1192 21.6137L78.2227 20.4293L78.736 19.417Z" fill="#9EA7A6"/>
<path d="M87.7867 25.9313L85.2251 24.0449L85.4035 23.7347L88.3 24.9191L87.7867 25.9313Z" fill="#9EA7A6"/>
<path d="M80.8448 17.6496L82.1924 20.5316L81.8874 20.7188L79.91 18.2933L80.8448 17.6496Z" fill="#9EA7A6"/>
<path d="M85.6785 27.6989L84.3309 24.8168L84.6359 24.6297L86.6133 27.0551L85.6785 27.6989Z" fill="#9EA7A6"/>
<path d="M77.7148 22.1078L80.8757 22.4654V22.8231L77.7744 23.2406L77.7148 22.1078Z" fill="#9EA7A6"/>
<path d="M88.8083 23.2406L85.6473 22.8829V22.5253L88.7487 22.1078L88.8083 23.2406Z" fill="#9EA7A6"/>
<path d="M80.0046 27.1998L81.8909 24.6379L82.2012 24.8168L81.0166 27.713L80.0046 27.1998Z" fill="#9EA7A6"/>
<path d="M86.5183 18.1486L84.632 20.7104L84.3217 20.5316L85.5063 17.6354L86.5183 18.1486Z" fill="#9EA7A6"/>
<path d="M78.237 25.0913L81.1186 23.7438L81.3057 24.0483L78.8803 26.0262L78.237 25.0913Z" fill="#9EA7A6"/>
<path d="M88.2856 20.2571L85.404 21.6046L85.217 21.3001L87.6424 19.3222L88.2856 20.2571Z" fill="#9EA7A6"/>
<path d="M83.4104 17.2395C86.4174 17.2395 88.8638 19.6449 88.8638 22.601C88.8638 25.5571 86.4174 27.9617 83.4104 27.9617C80.4034 27.9617 77.9569 25.5571 77.9569 22.601C77.9569 19.6449 80.4034 17.2395 83.4104 17.2395ZM83.4104 28.3418C86.6269 28.3418 89.2437 25.7658 89.2437 22.601C89.2437 19.4353 86.6269 16.8602 83.4104 16.8602C80.1939 16.8602 77.5771 19.4353 77.5771 22.601C77.5771 25.7658 80.1939 28.3418 83.4104 28.3418Z" fill="black"/>
<path d="M28.8269 23.1242C28.8269 18.9687 25.4026 15.6001 21.1772 15.6001C16.9527 15.6001 13.5276 18.9687 13.5276 23.1242C13.5276 27.2805 16.9527 30.6491 21.1772 30.6491C25.4026 30.6491 28.8269 27.2805 28.8269 23.1242Z" fill="#1F2326"/>
<path d="M21.1771 15.6001C24.7869 15.6001 27.8112 18.0604 28.6155 21.3691C27.8112 24.677 24.7869 27.1374 21.1771 27.1374C17.5672 27.1374 14.543 24.677 13.7386 21.3691C14.543 18.0604 17.5672 15.6001 21.1771 15.6001Z" fill="#3C3E40"/>
<path d="M26.8208 23.1242C26.8208 20.0592 24.2939 17.5739 21.1773 17.5739C18.0607 17.5739 15.5338 20.0592 15.5338 23.1242C15.5338 26.1901 18.0607 28.6754 21.1773 28.6754C24.2939 28.6754 26.8208 26.1901 26.8208 23.1242Z" fill="#5D5E60"/>
<path d="M24.6887 23.1242C24.6887 21.217 23.1167 19.6707 21.177 19.6707C19.2382 19.6707 17.6654 21.217 17.6654 23.1242C17.6654 25.0322 19.2382 26.5785 21.177 26.5785C23.1167 26.5785 24.6887 25.0322 24.6887 23.1242Z" fill="#3C3E40"/>
<path d="M22.9954 23.1242C22.9954 22.1369 22.1819 21.3359 21.1771 21.3359C20.1732 21.3359 19.3589 22.1369 19.3589 23.1242C19.3589 24.1123 20.1732 24.9133 21.1771 24.9133C22.1819 24.9133 22.9954 24.1123 22.9954 23.1242Z" fill="#9EA7A6"/>
<path d="M22.1338 23.1242C22.1338 22.6051 21.7054 22.1843 21.1773 22.1843C20.6491 22.1843 20.2216 22.6051 20.2216 23.1242C20.2216 23.644 20.6491 24.0649 21.1773 24.0649C21.7054 24.0649 22.1338 23.644 22.1338 23.1242Z" fill="#5D5E60"/>
<path d="M21.595 17.6512L21.2373 20.8119H20.8797L20.4621 17.7111L21.595 17.6512Z" fill="#9EA7A6"/>
<path d="M20.4621 28.7444L20.8198 25.5837H21.1774L21.595 28.6845L20.4621 28.7444Z" fill="#9EA7A6"/>
<path d="M16.5026 19.941L19.0645 21.8275L18.8856 22.1377L15.9895 20.9533L16.5026 19.941Z" fill="#9EA7A6"/>
<path d="M25.5539 26.4545L22.9921 24.5681L23.171 24.2579L26.0671 25.4423L25.5539 26.4545Z" fill="#9EA7A6"/>
<path d="M18.611 18.1735L19.9585 21.0547L19.6541 21.2419L17.6762 18.8165L18.611 18.1735Z" fill="#9EA7A6"/>
<path d="M23.4455 28.222L22.098 25.3408L22.4025 25.1537L24.3804 27.5791L23.4455 28.222Z" fill="#9EA7A6"/>
<path d="M15.4815 22.631L18.6431 22.9895V23.3471L15.5414 23.7646L15.4815 22.631Z" fill="#9EA7A6"/>
<path d="M26.5754 23.7646L23.4139 23.407V23.0485L26.5156 22.631L26.5754 23.7646Z" fill="#9EA7A6"/>
<path d="M17.7711 27.723L19.6575 25.162L19.9678 25.34L18.7833 28.237L17.7711 27.723Z" fill="#9EA7A6"/>
<path d="M24.2854 18.6726L22.399 21.2344L22.0887 21.0556L23.2731 18.1594L24.2854 18.6726Z" fill="#9EA7A6"/>
<path d="M16.0036 25.6153L18.8856 24.267L19.0728 24.5723L16.6474 26.5494L16.0036 25.6153Z" fill="#9EA7A6"/>
<path d="M26.053 20.7811L23.1709 22.1285L22.9838 21.8233L25.4092 19.8462L26.053 20.7811Z" fill="#9EA7A6"/>
<path d="M21.1771 17.7635C24.1839 17.7635 26.631 20.1681 26.631 23.1242C26.631 26.0803 24.1839 28.4857 21.1771 28.4857C18.1703 28.4857 15.7241 26.0803 15.7241 23.1242C15.7241 20.1681 18.1703 17.7635 21.1771 17.7635ZM21.1771 28.865C24.3935 28.865 27.0103 26.2899 27.0103 23.1242C27.0103 19.9594 24.3935 17.3834 21.1771 17.3834C17.9607 17.3834 15.344 19.9594 15.344 23.1242C15.344 26.2899 17.9607 28.865 21.1771 28.865Z" fill="black"/>
<path d="M44.1039 10.8764C44.1039 10.8764 41.1606 10.7035 40.7278 10.8764C40.2949 11.0502 40.5545 11.5689 40.9874 11.5689C41.4203 11.5689 44.1904 11.7426 44.1904 11.7426L44.1039 10.8764Z" fill="#FF6D3B"/>
</svg>
