<svg width="100" height="34" viewBox="0 0 100 34" fill="none" xmlns="http://www.w3.org/2000/svg">
<path d="M1.05821 22.2881C1.11886 22.9052 1.24036 23.4212 1.39208 23.8564C1.97897 25.5462 3.17295 26.0115 4.09371 26.2341C5.26727 26.5173 13.4934 27.1853 13.4934 27.1853H93.6079C95.3582 26.8614 96.5017 26.0924 97.6349 24.3622C97.7259 24.2207 97.817 24.0587 97.8979 23.8564C98.8895 21.5799 99.5269 15.6304 99.3651 14.0519C99.193 12.3421 89.5809 10.956 84.4409 10.6625C80.7478 10.4399 69.3751 10.2376 69.3751 10.2376C69.3751 10.2376 65.4897 5.83615 63.0209 3.36732C62.6873 3.03345 62.4038 2.75022 62.1508 2.50742C61.9689 2.33527 61.8069 2.17355 61.655 2.04183C60.4106 0.908702 59.925 0.918702 57.8407 0.918702H36.9671C34.2048 0.918702 33.3347 1.21215 31.9182 2.10269C31.7158 2.23419 31.5134 2.3657 31.2908 2.50742C31.2908 2.51742 31.2808 2.51742 31.2808 2.51742C29.5708 3.64055 22.4478 8.88165 21.2842 9.73176C21.1829 9.81262 20.6063 10.2376 20.6063 10.2376C20.6063 10.2376 10.9335 10.9762 7.42244 11.2796C3.02102 11.6641 3.24381 12.2612 2.82887 13.2426C2.42413 14.224 0.774984 19.283 1.05821 22.2881Z" fill="#F7AA94"/>
<path d="M1.39214 23.8564C1.97903 25.5462 3.17301 26.0115 4.09377 26.2341C5.26732 26.5173 13.4935 27.1853 13.4935 27.1853H93.608C95.3583 26.8614 96.5017 26.0924 97.635 24.3622C97.726 24.2207 97.8171 24.0587 97.8979 23.8564H1.39214Z" fill="#E89380"/>
<path d="M14.1714 25.0503C14.1714 25.7889 14.2625 26.4971 14.4244 27.1853H32.1108C32.2727 26.4971 32.3638 25.7889 32.3638 25.0503C32.3638 20.0216 28.2962 15.9543 23.2675 15.9543C18.249 15.9543 14.1714 20.0216 14.1714 25.0503Z" fill="#414042"/>
<path d="M14.8583 25.0476C14.8583 29.6935 18.6245 33.4597 23.2705 33.4597C27.9164 33.4597 31.6826 29.6935 31.6826 25.0476C31.6826 20.4017 27.9164 16.6354 23.2705 16.6354C18.6245 16.6354 14.8583 20.4017 14.8583 25.0476Z" fill="#231F20"/>
<path d="M18.7134 25.0476C18.7134 27.5643 20.7537 29.6045 23.2704 29.6045C25.7871 29.6045 27.8274 27.5643 27.8274 25.0476C27.8274 22.5309 25.7871 20.4906 23.2704 20.4906C20.7537 20.4906 18.7134 22.5309 18.7134 25.0476Z" fill="#6D6E71"/>
<path d="M74.9606 24.3622C74.9606 25.3538 75.1225 26.295 75.416 27.1853H92.6975C92.9909 26.295 93.1528 25.3538 93.1528 24.3622C93.1528 19.3439 89.0753 15.2661 84.0567 15.2661C79.0281 15.2661 74.9606 19.3439 74.9606 24.3622Z" fill="#414042"/>
<path d="M75.6428 24.3652C75.6428 29.0111 79.409 32.7773 84.055 32.7773C88.7009 32.7773 92.467 29.0111 92.467 24.3652C92.467 19.7192 88.7009 15.9532 84.055 15.9532C79.409 15.9532 75.6428 19.7192 75.6428 24.3652Z" fill="#231F20"/>
<path d="M79.4984 24.3651C79.4984 26.8818 81.5386 28.9221 84.0554 28.9221C86.5721 28.9221 88.6123 26.8818 88.6123 24.3651C88.6123 21.8484 86.5721 19.8082 84.0554 19.8082C81.5386 19.8082 79.4984 21.8484 79.4984 24.3651Z" fill="#6D6E71"/>
<path d="M94.0556 23.8593C94.0556 24.1387 94.2821 24.3652 94.5615 24.3652H98.9882C99.2676 24.3652 99.4941 24.1387 99.4941 23.8593L100 20.314C100 20.0346 99.7735 19.8082 99.4941 19.8082H94.5615C94.2821 19.8082 94.0556 20.0346 94.0556 20.314V23.8593Z" fill="#939598"/>
<path d="M0.506008 24.4669C0.506008 24.7463 0.732421 24.9727 1.01182 24.9727H3.09868C3.37808 24.9727 3.60449 24.7463 3.60449 24.4669V19.6186C3.60449 19.3392 3.37808 19.1125 3.09868 19.1125H0.506008C0.22661 19.1125 -1.03615e-05 19.3392 -1.03615e-05 19.6186L0.506008 24.4669Z" fill="#939598"/>
<path d="M4.18484 13.8995C4.18484 14.0881 4.40827 14.2409 4.68405 14.2409H97.3988C97.6744 14.2409 97.8979 14.0881 97.8979 13.8995V13.8555C97.8979 13.667 97.6744 13.5142 97.3988 13.5142H4.68405C4.40827 13.5142 4.18484 13.667 4.18484 13.8555V13.8995Z" fill="#F9EBD2"/>
<path d="M20.6066 10.2376H69.3755C69.3755 10.2376 65.4901 5.83616 63.0213 3.36732C62.6876 3.03345 62.4042 2.75023 62.1511 2.50743C61.9692 2.33528 61.8073 2.17355 61.6553 2.04183C60.4109 0.908708 59.9253 0.918708 57.841 0.918708H36.9675C34.2052 0.918708 33.3351 1.21215 31.9185 2.10269C31.7161 2.2342 31.5138 2.36571 31.2912 2.50743C31.2912 2.51743 31.2812 2.51743 31.2812 2.51743C29.5712 3.64055 22.4481 8.88166 21.2846 9.73177C21.1833 9.81263 20.6066 10.2376 20.6066 10.2376Z" fill="#231F20"/>
<path d="M20.6053 10.2384H23.8166C24.3124 10.2384 24.7272 9.84369 24.9802 9.60089L32.1539 3.62118C32.4877 3.22645 32.5586 2.85215 32.4069 2.53849C32.3056 2.33612 32.1436 2.1844 31.9211 2.10354C31.7187 2.23483 31.5163 2.36634 31.2938 2.50806C31.2938 2.51827 31.2835 2.51827 31.2835 2.51827C29.5737 3.6414 22.4507 8.8825 21.2869 9.7324C21.1858 9.81326 21.1252 9.8539 21.1252 9.8539L20.6053 10.2384Z" fill="white"/>
<path d="M21.2869 9.73239H23.8166C24.0998 9.73239 24.4135 9.43895 24.626 9.23658L31.83 3.23666C32.1436 2.85214 31.9412 2.50805 31.405 2.50805H31.2937C31.2937 2.51826 31.2835 2.51826 31.2835 2.51826C29.5737 3.64139 22.4507 8.88249 21.2869 9.73239Z" fill="#537EB3"/>
<path d="M61.1921 3.56032L66.9088 9.58068C67.192 9.8539 67.5967 10.2384 68.0723 10.2384H69.377L68.9324 9.69197C68.9324 9.69197 65.4922 5.83679 63.0234 3.36817C62.6895 3.0343 62.4063 2.75086 62.1533 2.50806C61.9711 2.33612 61.8094 2.17418 61.6574 2.04268C61.354 2.11354 61.1314 2.28548 61.0099 2.52849C60.8582 2.85215 60.929 3.22645 61.1921 3.56032Z" fill="white"/>
<path d="M61.5867 3.23666L67.2732 9.23658C67.4856 9.43895 67.7992 9.73239 68.0725 9.73239H69.0134C69.0134 9.73239 65.4923 5.83678 63.0235 3.36816C62.6896 3.03429 62.4064 2.75085 62.1534 2.50805H62.0017C61.4754 2.50805 61.2731 2.85214 61.5867 3.23666Z" fill="#537EB3"/>
<path d="M66.8748 10.2384L60.4067 3.17772C59.6936 2.41379 59.1018 2.00182 58.01 2.00182H37.2839C36.4642 2.00182 35.9797 2.404 35.3196 3.19538L30.7748 8.38775C30.2892 8.87186 30.4122 9.35618 30.4888 9.54089C30.6618 9.95796 31.1325 10.2384 31.6613 10.2384H66.8748Z" fill="white"/>
<path d="M31.1551 8.72056C30.6218 9.25403 31.1023 9.73239 31.6611 9.73239H65.7251L60.0337 3.51925C59.3696 2.80788 58.9112 2.50741 58.0101 2.50741H37.284C36.7252 2.50741 36.367 2.72893 35.7082 3.51925L31.1551 8.72056Z" fill="#537EB3"/>
<path d="M39.9278 12.5545H44.5652V11.4786H39.9278V12.5545Z" fill="#231F20"/>
<path d="M62.5249 11.0596C62.5249 11.339 62.7513 11.5656 63.0307 11.5656H65.2193C65.4987 11.5656 65.7251 11.339 65.7251 11.0596V9.41555C65.7251 9.13615 65.4987 8.90952 65.2193 8.90952H63.0307C62.7513 8.90952 62.5249 9.13615 62.5249 9.41555V11.0596Z" fill="#231F20"/>
<path d="M38.0168 9.94073H39.5347V2.2757H38.0168V9.94073Z" fill="white"/>
<path d="M38.5613 22.719H38.9905V1.84628H38.5613V22.719Z" fill="#231F20"/>
<path d="M66.6218 24.0372H39.2816C38.8841 24.0372 38.5611 23.7142 38.5611 23.3167V10.4467H38.9903V23.3167C38.9903 23.4772 39.1212 23.608 39.2816 23.608H66.6218C66.7822 23.608 66.9129 23.4772 66.9129 23.3167V10.1041H67.3423V23.3167C67.3423 23.7142 67.0191 24.0372 66.6218 24.0372Z" fill="#231F20"/>
</svg>
