<svg width="100" height="35" viewBox="0 0 100 35" fill="none" xmlns="http://www.w3.org/2000/svg">
<path d="M1.73118 19.5407C1.73118 19.5407 3.66949 18.9882 4.30877 19.4998C4.94724 20.0106 4.28667 23.7579 4.28667 23.7579C4.28667 23.7579 0.836507 23.3748 0.581122 22.9917C0.324917 22.6078 -0.185854 20.18 0.0695316 19.7969C0.324917 19.413 1.73118 19.5407 1.73118 19.5407Z" fill="#1F2326"/>
<path d="M74.3146 27.5919C74.3146 27.5919 73.0367 29.1251 72.3978 29.1251C71.7588 29.1251 28.0555 27.5919 28.0555 27.5919L15.5318 27.0803C15.5318 27.0803 6.71449 25.5472 6.4591 25.1641C6.20372 24.7802 5.56443 24.0141 5.56443 24.0141C5.56443 24.0141 10.2932 12.6404 20.1329 12.5127C29.9718 12.385 41.473 14.5574 41.473 14.5574C41.473 14.5574 84.0265 12.385 87.6045 14.4297C91.1826 16.4745 93.9939 25.1641 93.9939 25.1641L92.5883 26.3142L90.6714 26.9526L74.3146 27.5919Z" fill="black"/>
<path d="M100 21.2024C100 21.2024 99.8722 20.3077 98.7221 19.7969C98.7221 19.7969 98.7221 16.0906 98.211 14.6851C97.6998 13.2797 96.1664 12.7681 94.7607 12.385C93.3551 12.0019 76.487 9.95722 74.9536 9.57332C73.4201 9.19024 66.5195 3.95075 62.047 2.16223C57.5744 0.372892 41.6009 -0.137881 40.0675 1.26756C38.534 2.673 38.0228 8.67947 38.0228 8.67947C38.0228 8.67947 6.71453 8.16788 5.0537 8.04019C3.39206 7.9125 2.6259 8.16788 2.242 9.82952C1.85893 11.4903 1.73123 19.5407 1.73123 19.5407C1.73123 19.5407 3.13667 19.5407 3.39206 20.4354C3.64826 21.3301 4.28672 23.7579 4.28672 23.7579L13.4872 25.5472C13.4872 25.5472 12.9764 20.5631 16.6819 17.4968C20.3883 14.4297 26.7778 15.5798 29.078 18.6469C31.3781 21.7131 31.2504 26.058 31.2504 26.058L74.3146 27.5919C74.3146 27.5919 74.4424 21.4578 77.8927 18.7746C81.3429 16.0906 87.2834 17.6221 89.4554 19.5309C92.1566 21.9047 92.5883 26.3142 92.5883 26.3142L97.1886 26.8249C97.1886 26.8249 99.1055 26.058 99.4888 24.6525C99.8722 23.2471 100 21.2024 100 21.2024Z" fill="#7C39E5"/>
<path d="M90.6602 27.208C90.6602 23.1186 87.2896 19.8035 83.1318 19.8035C78.9741 19.8035 75.6035 23.1186 75.6035 27.208C75.6035 31.2983 78.9741 34.6134 83.1318 34.6134C87.2896 34.6134 90.6602 31.2983 90.6602 27.208Z" fill="#1F2326"/>
<path d="M83.1321 19.8035C86.6847 19.8035 89.6606 22.2247 90.4521 25.4809C89.6606 28.7362 86.6847 31.1575 83.1321 31.1575C79.5794 31.1575 76.6035 28.7362 75.8118 25.4809C76.6035 22.2247 79.5794 19.8035 83.1321 19.8035Z" fill="#3C3E40"/>
<path d="M88.686 27.208C88.686 24.1917 86.1995 21.7459 83.1324 21.7459C80.0651 21.7459 77.5786 24.1917 77.5786 27.208C77.5786 30.2252 80.0651 32.671 83.1324 32.671C86.1995 32.671 88.686 30.2252 88.686 27.208Z" fill="#5D5E60"/>
<path d="M86.5876 27.208C86.5876 25.3311 85.0405 23.8094 83.1321 23.8094C81.2236 23.8094 79.6764 25.3311 79.6764 27.208C79.6764 29.0858 81.2236 30.6075 83.1321 30.6075C85.0405 30.6075 86.5876 29.0858 86.5876 27.208Z" fill="#3C3E40"/>
<path d="M84.9214 27.208C84.9214 26.2364 84.1202 25.4482 83.1319 25.4482C82.1435 25.4482 81.3423 26.2364 81.3423 27.208C81.3423 28.1805 82.1435 28.9687 83.1319 28.9687C84.1202 28.9687 84.9214 28.1805 84.9214 27.208Z" fill="#9EA7A6"/>
<path d="M84.073 27.208C84.073 26.6973 83.6517 26.2831 83.132 26.2831C82.6122 26.2831 82.1909 26.6973 82.1909 27.208C82.1909 27.7196 82.6122 28.1338 83.132 28.1338C83.6517 28.1338 84.073 27.7196 84.073 27.208Z" fill="#5D5E60"/>
<path d="M83.543 21.822L83.1908 24.9325H82.8386L82.4278 21.881L83.543 21.822Z" fill="#9EA7A6"/>
<path d="M82.4278 32.7389L82.7799 29.6285H83.1321L83.543 32.68L82.4278 32.7389Z" fill="#9EA7A6"/>
<path d="M78.5316 24.0755L81.0525 25.9319L80.8769 26.2372L78.0264 25.0716L78.5316 24.0755Z" fill="#9EA7A6"/>
<path d="M87.4387 30.4855L84.9179 28.629L85.0934 28.3237L87.9438 29.4901L87.4387 30.4855Z" fill="#9EA7A6"/>
<path d="M80.6067 22.3361L81.9329 25.1715L81.6327 25.3557L79.6868 22.9688L80.6067 22.3361Z" fill="#9EA7A6"/>
<path d="M85.3637 32.2249L84.0375 29.3894L84.3378 29.2053L86.2837 31.5921L85.3637 32.2249Z" fill="#9EA7A6"/>
<path d="M77.5267 26.7226L80.6375 27.0754V27.4274L77.5853 27.8383L77.5267 26.7226Z" fill="#9EA7A6"/>
<path d="M88.4438 27.8383L85.3331 27.4863V27.1336L88.3852 26.7226L88.4438 27.8383Z" fill="#9EA7A6"/>
<path d="M79.7803 31.7338L81.6367 29.2135L81.9419 29.3886L80.7762 32.2396L79.7803 31.7338Z" fill="#9EA7A6"/>
<path d="M86.1904 22.8272L84.3341 25.3483L84.0288 25.1723L85.1945 22.3221L86.1904 22.8272Z" fill="#9EA7A6"/>
<path d="M78.0406 29.6588L80.8765 28.3327L81.0605 28.6331L78.6737 30.5788L78.0406 29.6588Z" fill="#9EA7A6"/>
<path d="M87.9302 24.9022L85.0943 26.2282L84.9102 25.9278L87.2971 23.9822L87.9302 24.9022Z" fill="#9EA7A6"/>
<path d="M83.132 21.9325C86.0912 21.9325 88.4987 24.2998 88.4987 27.208C88.4987 30.1172 86.0912 32.4844 83.132 32.4844C80.1728 32.4844 77.7653 30.1172 77.7653 27.208C77.7653 24.2998 80.1728 21.9325 83.132 21.9325ZM83.132 32.8576C86.2973 32.8576 88.8726 30.3234 88.8726 27.208C88.8726 24.0935 86.2973 21.5585 83.132 21.5585C79.9666 21.5585 77.3914 24.0935 77.3914 27.208C77.3914 30.3234 79.9666 32.8576 83.132 32.8576Z" fill="black"/>
<path d="M29.8335 27.208C29.8335 23.1186 26.4627 19.8035 22.3045 19.8035C18.1472 19.8035 14.7764 23.1186 14.7764 27.208C14.7764 31.2983 18.1472 34.6134 22.3045 34.6134C26.4627 34.6134 29.8335 31.2983 29.8335 27.208Z" fill="#1F2326"/>
<path d="M22.3043 19.8035C25.8576 19.8035 28.833 22.2247 29.6245 25.4809C28.833 28.7362 25.8576 31.1575 22.3043 31.1575C18.7518 31.1575 15.7764 28.7362 14.9849 25.4809C15.7764 22.2247 18.7518 19.8035 22.3043 19.8035Z" fill="#3C3E40"/>
<path d="M27.8584 27.208C27.8584 24.1917 25.3725 21.7459 22.3046 21.7459C19.2375 21.7459 16.7516 24.1917 16.7516 27.208C16.7516 30.2252 19.2375 32.671 22.3046 32.671C25.3725 32.671 27.8584 30.2252 27.8584 27.208Z" fill="#5D5E60"/>
<path d="M25.7603 27.208C25.7603 25.3311 24.2132 23.8094 22.3044 23.8094C20.3963 23.8094 18.8493 25.3311 18.8493 27.208C18.8493 29.0858 20.3963 30.6075 22.3044 30.6075C24.2132 30.6075 25.7603 29.0858 25.7603 27.208Z" fill="#3C3E40"/>
<path d="M24.0947 27.208C24.0947 26.2364 23.2934 25.4482 22.3046 25.4482C21.3166 25.4482 20.5152 26.2364 20.5152 27.208C20.5152 28.1805 21.3166 28.9687 22.3046 28.9687C23.2934 28.9687 24.0947 28.1805 24.0947 27.208Z" fill="#9EA7A6"/>
<path d="M23.2456 27.208C23.2456 26.6973 22.8241 26.2831 22.3043 26.2831C21.7853 26.2831 21.3638 26.6973 21.3638 27.208C21.3638 27.7196 21.7853 28.1338 22.3043 28.1338C22.8241 28.1338 23.2456 27.7196 23.2456 27.208Z" fill="#5D5E60"/>
<path d="M22.7151 21.822L22.3631 24.9325H22.0111L21.6002 21.881L22.7151 21.822Z" fill="#9EA7A6"/>
<path d="M21.6002 32.7389L21.9522 29.6285H22.3042L22.7151 32.68L21.6002 32.7389Z" fill="#9EA7A6"/>
<path d="M17.704 24.0755L20.2251 25.9319L20.0499 26.2372L17.1989 25.0716L17.704 24.0755Z" fill="#9EA7A6"/>
<path d="M26.6117 30.4855L24.0906 28.629L24.2665 28.3237L27.1167 29.4901L26.6117 30.4855Z" fill="#9EA7A6"/>
<path d="M19.7796 22.3361L21.1064 25.1715L20.806 25.3557L18.8604 22.9688L19.7796 22.3361Z" fill="#9EA7A6"/>
<path d="M24.5367 32.2249L23.2107 29.3894L23.5111 29.2053L25.4568 31.5921L24.5367 32.2249Z" fill="#9EA7A6"/>
<path d="M16.6996 26.7226L19.8101 27.0754V27.4274L16.7577 27.8383L16.6996 26.7226Z" fill="#9EA7A6"/>
<path d="M27.6169 27.8383L24.5057 27.4863V27.1336L27.558 26.7226L27.6169 27.8383Z" fill="#9EA7A6"/>
<path d="M18.9535 31.7338L20.81 29.2135L21.1145 29.3886L19.9489 32.2396L18.9535 31.7338Z" fill="#9EA7A6"/>
<path d="M25.3635 22.8272L23.5071 25.3483L23.2017 25.1723L24.3674 22.3221L25.3635 22.8272Z" fill="#9EA7A6"/>
<path d="M17.214 29.6588L20.0495 28.3327L20.2336 28.6331L17.8468 30.5788L17.214 29.6588Z" fill="#9EA7A6"/>
<path d="M27.1025 24.9022L24.2663 26.2282L24.0821 25.9278L26.469 23.9822L27.1025 24.9022Z" fill="#9EA7A6"/>
<path d="M22.3044 21.9325C25.2642 21.9325 27.6716 24.2998 27.6716 27.208C27.6716 30.1172 25.2642 32.4844 22.3044 32.4844C19.3454 32.4844 16.938 30.1172 16.938 27.208C16.938 24.2998 19.3454 21.9325 22.3044 21.9325ZM22.3044 32.8576C25.4705 32.8576 28.0457 30.3234 28.0457 27.208C28.0457 24.0935 25.4705 21.5585 22.3044 21.5585C19.1391 21.5585 16.564 24.0935 16.564 27.208C16.564 30.3234 19.1391 32.8576 22.3044 32.8576Z" fill="black"/>
<path d="M97.189 26.825L92.5887 26.3142L92.7164 29.2528C92.7164 29.2528 95.1444 29.7643 95.9111 29.2528C96.6779 28.742 97.189 26.825 97.189 26.825Z" fill="#1F2326"/>
<path d="M100 21.2024C100 21.2024 99.8722 23.2471 99.4888 24.6525C99.4371 24.8081 99.378 24.9513 99.3142 25.0855C98.7126 26.2143 97.1886 26.825 97.1886 26.825L92.5883 26.3142C92.5883 26.3142 92.2616 22.9803 90.4004 20.5492L100 21.2024Z" fill="#3C3E40"/>
<path d="M70.7366 10.468C70.7366 10.468 70.6088 8.42327 66.5195 5.74008C62.4303 3.05608 58.0856 2.16223 54.3797 1.90602C50.6738 1.65064 43.1343 1.39525 42.3677 2.41761C41.6009 3.43997 41.4731 7.4009 41.8565 8.16788C42.2398 8.93485 43.9444 9.38096 46.8402 9.57332C47.8917 9.64372 70.7366 10.468 70.7366 10.468Z" fill="#1F2326"/>
<path d="M68.1807 10.468C68.1807 10.468 66.1361 7.01783 62.558 5.4847C58.98 3.95075 53.6129 3.82305 52.8462 4.07844C52.0794 4.33464 52.4627 5.22849 52.4627 5.22849C52.4627 5.22849 53.9962 5.22849 54.1241 6.25085C54.2518 7.27321 53.7407 8.42327 53.1017 8.55096L53.3576 9.95394L68.1807 10.468Z" fill="#89AEA7"/>
<path d="M68.9418 8.51168C69.4529 9.02245 69.1974 11.0672 68.814 11.3226C68.4306 11.578 65.8749 11.5779 65.6193 10.9395C65.3637 10.3002 65.2359 8.51168 65.747 8.25548C66.2582 8.00009 68.4306 8.00009 68.9418 8.51168Z" fill="#3C3E40"/>
<path d="M51.475 1.52297L51.824 10.0849L49.2682 9.95724L49.3959 1.65066L51.475 1.52297Z" fill="#7C39E5"/>
<path d="M48.1183 4.20696C48.1183 4.20696 48.5016 8.0402 47.7349 8.55098C46.9682 9.06256 43.5179 8.0402 43.5179 8.0402C43.5179 8.0402 43.0067 4.84543 44.1569 4.20696C45.3069 3.56768 48.1183 4.20696 48.1183 4.20696Z" fill="#89AEA7"/>
<path d="M76.8451 9.90319L76.861 9.88928C76.9491 9.90237 77.0397 9.91547 77.1325 9.92857C77.461 10.2666 78.2784 11.0549 78.849 11.1507C79.6684 11.2865 89.9634 12.8115 91.2382 12.9384C92.5867 13.0734 92.6023 14.1727 92.6023 14.1842H92.4107C92.4104 14.1457 92.3913 13.2461 91.2191 13.1291C89.9424 13.0014 79.6375 11.4764 78.8174 11.3397C78.0267 11.2079 76.893 9.9564 76.8451 9.90319Z" fill="#371354"/>
<path d="M4.28682 23.7579C4.28682 23.7579 3.64836 21.3301 3.39215 20.4354C3.13677 19.5407 1.73132 19.5407 1.73132 19.5407C1.73132 19.5407 1.73624 19.2264 1.74688 18.7107L15.0564 19.3099C13.1451 22.2051 13.4872 25.5472 13.4872 25.5472L4.28682 23.7579Z" fill="#5624A3"/>
<path d="M75.3442 22.4752C74.3685 25.0176 74.3145 27.5919 74.3145 27.5919L31.2503 26.058C31.2503 26.058 31.3428 22.8427 29.9046 19.9909C36.9989 20.3822 72.9886 22.3631 75.3442 22.4752Z" fill="#5624A3"/>
<path d="M70.6086 20.3077C70.6086 20.3077 68.8196 18.9023 64.0914 18.3907C59.3632 17.8799 39.3005 16.8575 39.3005 16.8575C39.3005 16.8575 40.1951 18.6469 41.6008 18.7746C43.0064 18.9023 70.6086 20.3077 70.6086 20.3077Z" fill="#5624A3"/>
<path d="M71.0795 8.5837L73.3124 8.74414C73.4423 8.8219 73.5671 8.89557 73.6863 8.96432L71.0381 8.77442L71.0795 8.5837Z" fill="#371354"/>
<path d="M69.1256 25.6438C69.4363 25.6438 70.995 25.5472 71.4685 23.6539C71.9875 21.5773 72.4831 13.2199 71.9804 10.8314C71.4503 8.3136 69.9223 7.00393 66.6975 5.01978C63.204 2.86946 60.331 2.1958 58.4866 1.8119C55.5649 1.20454 44.0263 0.540706 40.9292 1.43292C39.4674 1.85447 39.2205 4.19714 39.0864 5.27516L39.0778 5.34474C38.9513 6.35646 38.6967 9.02655 38.6941 9.05356L38.885 9.07157C38.8875 9.04456 39.1418 6.37774 39.268 5.36847L39.2767 5.2989C39.406 4.25853 39.6752 2.09266 40.9947 1.613C42.3693 1.11369 52.3754 1.11368 58.4513 2.00017C60.3004 2.27029 63.1307 3.04954 66.5971 5.18267C69.7733 7.13735 71.2773 8.42246 71.7928 10.8715C72.2919 13.2412 71.7984 21.5437 71.2824 23.6073C70.7966 25.5513 69.0993 25.4531 69.0821 25.4514L39.1969 24.1966L39.2787 24.524L69.0716 25.643C69.073 25.643 69.0921 25.6438 69.1256 25.6438Z" fill="#371354"/>
<path d="M50.5506 24.9333L50.7695 24.9153L49.1568 9.46282L48.9378 9.48083L50.5506 24.9333Z" fill="#371354"/>
<path d="M38.024 8.66803L38.1143 8.66231C38.1242 8.81374 39.0806 23.3535 39.9314 26.3674L39.3981 26.3486C38.5395 22.914 37.6442 9.30568 37.6041 8.6975L37.8965 8.67704C37.9792 8.67868 38.023 8.67949 38.023 8.67949L38.024 8.66803Z" fill="#371354"/>
<path d="M2.2421 9.82953C2.2421 9.82953 4.9261 10.2126 5.18149 10.7234C5.43687 11.235 5.18149 17.1129 4.03143 17.8799C2.88138 18.6469 1.75671 18.2728 1.75671 18.2728C1.67894 15.3637 1.89995 11.1605 2.2421 9.82953Z" fill="#FF124B"/>
<path d="M29.1288 12.57C29.3571 12.8745 29.3817 13.9263 29.1738 14.5116C29.105 14.7056 29.0174 14.8251 28.9266 14.848C28.5329 14.9462 26.5733 14.6237 25.8374 14.158C25.6557 14.0434 25.6049 13.9542 25.5935 13.8993C25.4592 13.2289 25.4944 12.4448 25.7858 12.3482C26.1681 12.2205 28.7932 12.1223 29.1288 12.57ZM28.7334 15.0543C28.8357 15.0543 28.9176 15.0477 28.9732 15.0338C29.132 14.9937 29.2605 14.8398 29.3547 14.5754C29.5675 13.9755 29.5708 12.8401 29.2818 12.4554C28.8455 11.8734 26.0846 12.0461 25.7253 12.1665C25.2259 12.3326 25.298 13.3976 25.406 13.937C25.4322 14.072 25.5403 14.1973 25.7351 14.3201C26.4194 14.7531 28.0434 15.0543 28.7334 15.0543Z" fill="#371354"/>
<path d="M54.7629 11.4904C55.5342 11.587 56.2964 13.2797 55.4019 13.9182C54.5074 14.5575 53.3573 14.1744 53.1017 13.5351C52.8461 12.8958 53.7406 11.3627 54.7629 11.4904Z" fill="#5624A3"/>
<path d="M56.5521 12.6404C56.8808 13.1888 52.3351 13.2797 51.6961 12.8958C51.0572 12.5127 51.0572 12.0019 51.4406 11.8734C51.824 11.7457 52.5907 12.2573 52.5907 12.2573C52.5907 12.2573 54.5075 12.385 55.2742 12.385C56.0409 12.385 56.1687 12.0019 56.5521 12.6404Z" fill="#1F2326"/>
<path d="M98.1843 14.6172C98.1933 14.6401 98.2027 14.6622 98.2111 14.6851C98.5141 15.5184 98.6375 17.1604 98.6877 18.3588C98.0052 18.2221 95.3419 17.6679 94.1219 17.1129C92.7162 16.4745 91.1828 14.8128 91.6939 14.3021C92.1089 13.8871 96.535 14.4068 98.1843 14.6172Z" fill="white"/>
<path d="M93.7384 15.8352C93.6664 15.6191 93.5633 14.821 93.487 14.1637C94.2988 14.1997 95.2703 14.2873 96.1592 14.3806C96.3313 15.2589 96.5523 16.6022 96.2941 16.6022C95.9108 16.6022 93.8661 16.2183 93.7384 15.8352Z" fill="#FF6D3B"/>
</svg>
