<svg width="100" height="50" viewBox="0 0 100 50" fill="none" xmlns="http://www.w3.org/2000/svg">
<path d="M33.7766 39.3499H2.94786V27.7713H33.7766V39.3499Z" fill="#CC780B"/>
<path d="M98.2039 39.3499H67.3751V27.7713H98.2039V39.3499Z" fill="#CC780B"/>
<path d="M50.6105 22.1483C51.1861 23.5014 50.7827 24.9685 49.7092 25.4251L49.0995 25.6847C48.026 26.1416 46.689 25.415 46.1134 24.0621L45.1577 21.8164C44.5817 20.4633 44.9851 18.9959 46.0586 18.5393L46.6687 18.2797C47.7419 17.8228 49.0789 18.5495 49.6548 19.9026L50.6105 22.1483Z" fill="#F0D1A3"/>
<path d="M50.2985 23.8884L49.6888 24.148C48.6153 24.6049 47.2783 23.8782 46.7027 22.5251L45.747 20.2794C45.5562 19.8311 45.4751 19.3712 45.488 18.9388C44.8627 19.5937 44.6997 20.7402 45.1576 21.8164L46.1133 24.0621C46.6889 25.415 48.0259 26.1416 49.0994 25.6847L49.7091 25.4251C50.4271 25.1198 50.8431 24.3618 50.8694 23.4889C50.7082 23.6572 50.5183 23.7948 50.2985 23.8884Z" fill="#C4A77A"/>
<path d="M49.2713 15.3067C49.4175 16.7699 48.5948 18.05 47.434 18.1657L46.7746 18.2318C45.6138 18.3475 44.5543 17.2555 44.4081 15.7923L44.1656 13.3636C44.0196 11.9007 44.842 10.6203 46.0028 10.5045L46.6625 10.4387C47.8233 10.3227 48.8825 11.4148 49.0287 12.8782L49.2713 15.3067Z" fill="#F9DCB1"/>
<path d="M48.4548 16.8748L47.7954 16.9406C46.6346 17.0563 45.5751 15.9643 45.4289 14.5011L45.1864 12.0727C45.1379 11.5879 45.1977 11.1247 45.3389 10.7156C44.547 11.1543 44.0492 12.2 44.1655 13.3636L44.408 15.7923C44.5542 17.2555 45.6137 18.3475 46.7745 18.2318L47.4339 18.1657C48.2102 18.0883 48.8334 17.4887 49.1187 16.6634C48.9147 16.7761 48.6925 16.8509 48.4548 16.8748Z" fill="#E3C9A1"/>
<path d="M50.1007 16.5537C50.1007 16.5537 48.6952 20.6203 48.9811 22.3176C49.267 24.0152 51.7364 28.0339 51.7926 29.7698L56.4099 28.6149C56.4099 28.6149 55.4581 26.3222 55.9524 24.7765C56.447 23.2308 56.9572 21.7766 56.3669 21.0742C55.7769 20.3715 53.7584 18.3997 53.39 17.6126C53.0216 16.8256 52.6119 16.4936 52.6119 16.4936L50.0749 15.4007L50.1007 16.5537Z" fill="#FFEBFE"/>
<mask id="mask0_1_1620" style="mask-type:luminance" maskUnits="userSpaceOnUse" x="49" y="12" width="4" height="5">
<path d="M52.9487 16.4409L52.4556 14.4676L49.788 12.4862C49.788 12.4862 50.1378 14.595 50.075 15.4006C50.0732 15.4227 50.0738 15.4445 50.0765 15.4652C50.1375 15.9445 51.3328 16.045 52.2152 16.3817L52.9487 16.4409Z" fill="white"/>
</mask>
<g mask="url(#mask0_1_1620)">
<path d="M52.9487 16.4409L52.4556 14.4676L49.788 12.4862C49.788 12.4862 50.1378 14.595 50.075 15.4006C50.0732 15.4227 50.0738 15.4445 50.0765 15.4652C50.1375 15.9445 51.3328 16.045 52.2152 16.3817L52.9487 16.4409Z" fill="url(#paint0_linear_1_1620)"/>
</g>
<path d="M86.8651 29.1467C86.8651 29.1467 86.9193 29.0552 87.0263 28.8746L87.0464 28.8408L87.0577 28.8193L87.0825 28.7732C87.1002 28.7406 87.1193 28.7051 87.1403 28.6665C87.1666 28.6192 87.1696 28.6067 87.1815 28.5801C87.1947 28.5519 87.1983 28.5376 87.1995 28.5259C87.1699 28.4933 87.1124 28.4649 87.0446 28.4171C86.9061 28.3259 86.7034 28.1919 86.445 28.0215C85.9277 27.6824 85.1933 27.1905 84.3027 26.6136C83.8584 26.3242 83.3769 26.0105 82.8674 25.6788C82.3563 25.3502 81.8172 25.0036 81.2595 24.6448C80.7 24.2889 80.122 23.9211 79.5344 23.547C78.945 23.1765 78.346 22.7998 77.747 22.4233C76.5476 21.6733 75.3416 20.9323 74.2074 20.2433C73.6383 19.9015 73.0914 19.5669 72.5663 19.2589C72.0427 18.9488 71.5478 18.6558 71.0906 18.3851C70.631 18.1184 70.2096 17.8741 69.8361 17.6576C69.4629 17.4405 69.1361 17.2539 68.8649 17.1026C68.3251 16.7967 68.0135 16.6268 68.0135 16.6268C67.6314 16.4187 67.1529 16.5596 66.9448 16.9414C66.7588 17.2826 66.8515 17.7007 67.1451 17.9345C67.1451 17.9345 67.4227 18.1558 67.914 18.5347C68.1583 18.7257 68.4573 18.9545 68.8021 19.2147C69.1466 19.4748 69.5353 19.7685 69.9593 20.0887C70.3858 20.4048 70.8481 20.7475 71.337 21.1099C71.8244 21.4744 72.3453 21.8488 72.8809 22.2406C73.9559 23.019 75.1063 23.8431 76.263 24.6579C76.8425 25.0637 77.4217 25.4698 77.992 25.8693C78.5646 26.2658 79.1277 26.6561 79.6728 27.0335C80.2197 27.4085 80.7484 27.7712 81.2496 28.1148C81.7529 28.4557 82.2286 28.7777 82.6679 29.0753C83.5447 29.6721 84.2833 30.1583 84.7964 30.5037C85.0539 30.6757 85.256 30.8108 85.3936 30.9029C85.4639 30.9469 85.5123 30.9888 85.5542 31.0034L85.5969 30.966C85.617 30.9448 85.6274 30.937 85.6603 30.8943C85.6881 30.8602 85.7136 30.8285 85.7366 30.7998L85.7695 30.7591L85.7847 30.7403L85.8081 30.7086C85.9331 30.5399 85.9967 30.4544 85.9967 30.4544C86.308 30.0345 86.6032 29.5866 86.8651 29.1467Z" fill="#42210B"/>
<path d="M68.4798 13.4211C68.5476 13.4244 68.6042 13.4513 68.6526 13.5036C69.0781 13.9621 68.8933 16.1791 67.9481 18.6276C67.1234 20.7638 66.1715 21.8918 65.6946 21.8688C65.6267 21.8655 65.5702 21.8386 65.5217 21.7865C65.0962 21.3278 65.281 19.1108 66.2265 16.6623C67.051 14.526 68.0028 13.3981 68.4798 13.4211ZM65.6599 22.5891C66.4278 22.6265 67.5154 21.1708 68.3661 18.9676C69.2489 16.6806 69.7524 13.782 68.9471 12.9142C68.823 12.7803 68.6774 12.7085 68.5147 12.7007C67.7465 12.6637 66.6589 14.119 65.8085 16.3223C64.9255 18.609 64.4219 21.5078 65.2275 22.3759C65.3513 22.5096 65.4969 22.5814 65.6599 22.5891Z" fill="#42210B"/>
<path d="M68.1091 12.6811C68.1091 12.6811 68.089 12.8456 68.0415 13.1234C68.0176 13.2621 67.9856 13.4284 67.947 13.618C67.9075 13.8067 67.8606 14.0175 67.8064 14.2453C67.7514 14.4729 67.6889 14.7166 67.6195 14.9723C67.584 15.0991 67.5472 15.2298 67.5095 15.3628C67.47 15.4947 67.4297 15.6296 67.3887 15.7665C67.3041 16.0383 67.215 16.3182 67.119 16.5981C67.0236 16.8786 66.9234 17.1612 66.8187 17.4402C66.7156 17.7204 66.6073 17.9964 66.4997 18.2676C66.3899 18.537 66.2814 18.802 66.1707 19.0538C66.0619 19.3071 65.9518 19.5484 65.8451 19.7753C65.7389 20.0026 65.6346 20.2143 65.5356 20.4081C65.3385 20.7956 65.1624 21.1096 65.0335 21.3252C64.9698 21.4338 64.9154 21.5154 64.8801 21.5728C64.8433 21.6287 64.8239 21.6587 64.8239 21.6587L65.9255 22.5034C65.9255 22.5034 65.9315 22.463 65.9426 22.3874C65.9557 22.3132 65.9719 22.2023 65.9982 22.065C66.049 21.7896 66.1292 21.4024 66.2401 20.9484C66.2954 20.7215 66.3579 20.4775 66.4282 20.2224C66.4976 19.967 66.5738 19.7 66.6576 19.427C66.7392 19.1531 66.8298 18.8744 66.9222 18.5915C67.0164 18.3101 67.1136 18.0254 67.2158 17.7446C67.3163 17.4623 67.4216 17.1839 67.5283 16.9121C67.6345 16.6397 67.7442 16.3759 67.8519 16.1218C67.9072 15.9956 67.9616 15.8718 68.0149 15.7504C68.0699 15.6308 68.1237 15.5135 68.1763 15.3993C68.2834 15.1726 68.3878 14.9609 68.4867 14.7671C68.5866 14.5743 68.6805 14.3996 68.7666 14.2462C68.8531 14.0937 68.9302 13.9622 68.996 13.8554C69.1279 13.6422 69.2107 13.5259 69.2107 13.5259L68.1091 12.6811Z" fill="#42210B"/>
<path d="M54.3532 6.71304C54.3532 6.71304 54.8747 7.56886 54.9608 8.6394C55.0466 9.70994 55.0359 10.5374 55.2242 11.0009C55.4129 11.4644 55.8346 12.0774 55.7763 12.6417C55.7176 13.2056 55.0487 14.4152 54.5601 14.8748C54.0712 15.3347 53.6474 15.6891 53.2171 15.7262C52.7871 15.7632 51.8359 15.1568 50.7908 14.4128C49.7454 13.6688 49.682 12.3115 49.4508 11.2183C49.2197 10.125 49.1362 8.36997 50.2935 7.39662C51.4504 6.42357 53.622 6.15205 54.3532 6.71304Z" fill="#FFB890"/>
<mask id="mask1_1_1620" style="mask-type:luminance" maskUnits="userSpaceOnUse" x="53" y="9" width="2" height="4">
<path d="M53.4474 9.92791C53.4474 9.92791 53.5113 10.8439 53.7793 11.2879C54.0469 11.7317 54.4811 11.8645 54.2981 12.2302C54.1151 12.5953 53.5308 12.4879 53.5069 12.4598C53.4826 12.4317 53.4234 12.4087 53.3248 11.7218C53.2264 11.0346 52.8263 10.0368 53.4474 9.92791Z" fill="white"/>
</mask>
<g mask="url(#mask1_1_1620)">
<path d="M53.4474 9.92791C53.4474 9.92791 53.5113 10.8439 53.7793 11.2879C54.0469 11.7317 54.4811 11.8645 54.2981 12.2302C54.1151 12.5953 53.5308 12.4879 53.5069 12.4598C53.4826 12.4317 53.4234 12.4087 53.3248 11.7218C53.2264 11.0346 52.8263 10.0368 53.4474 9.92791Z" fill="url(#paint1_linear_1_1620)"/>
</g>
<path d="M54.7991 13.0537C54.7991 13.0537 54.5458 13.987 53.8338 14.1033C53.1215 14.2196 52.1407 13.8581 51.7633 13.3814C51.7633 13.3814 52.4783 13.5444 53.1762 13.5366C53.8739 13.5292 54.646 13.2259 54.7991 13.0537Z" fill="white"/>
<path d="M53.7056 9.9475C53.7056 9.9475 53.7418 10.4355 53.847 10.4301C53.9523 10.425 54.7914 10.1541 54.8613 9.80008C54.8613 9.80008 54.7659 9.63082 54.6278 9.55606C54.4893 9.4816 54.3605 9.44034 54.1299 9.54201C53.8993 9.64369 53.7175 9.86288 53.7056 9.9475Z" fill="white"/>
<path d="M52.596 10.2383C52.596 10.2383 52.8334 10.6922 52.4952 10.7843C52.157 10.8767 51.1792 10.8151 51.1792 10.8151C51.1792 10.8151 51.3182 10.4332 51.7321 10.2167C52.1463 10.0002 52.4262 10.0935 52.596 10.2383Z" fill="white"/>
<mask id="mask2_1_1620" style="mask-type:luminance" maskUnits="userSpaceOnUse" x="53" y="9" width="2" height="2">
<path d="M53.7056 9.9475C53.7056 9.9475 53.7418 10.4355 53.847 10.4301C53.9523 10.425 54.7911 10.1541 54.8613 9.80008C54.8613 9.80008 54.7662 9.63082 54.6275 9.55606C54.4893 9.4816 54.3605 9.44034 54.1299 9.54201C53.8993 9.64369 53.7175 9.86288 53.7056 9.9475Z" fill="white"/>
</mask>
<g mask="url(#mask2_1_1620)">
<path d="M54.0674 9.91436C54.0889 10.133 54.2309 10.2977 54.3843 10.2825C54.5377 10.2672 54.6445 10.0782 54.623 9.85963C54.6014 9.64134 54.4597 9.47658 54.3063 9.49183C54.1529 9.50678 54.0459 9.69606 54.0674 9.91436Z" fill="#18A6DE"/>
</g>
<path d="M54.8613 9.79992C54.8613 9.79992 54.8544 9.77571 54.8353 9.73623L54.7967 9.66656C54.7803 9.64024 54.7606 9.61123 54.7354 9.58193C54.7109 9.55232 54.6813 9.52182 54.646 9.49282L54.5883 9.45155L54.5207 9.41717C54.4962 9.4085 54.4717 9.39713 54.4439 9.39324L54.4029 9.38547L54.3604 9.38397C54.3317 9.38187 54.3033 9.38756 54.2749 9.39235L54.2513 9.39712L54.2337 9.40222L54.1987 9.41267L54.1224 9.44348L54.0533 9.48055C54.0091 9.50747 53.9678 9.53707 53.9313 9.56966C53.8943 9.60106 53.8626 9.63546 53.8339 9.66895C53.8051 9.70274 53.7815 9.73683 53.7609 9.76882C53.7403 9.80112 53.7241 9.83221 53.7109 9.86002C53.6975 9.88783 53.6882 9.91325 53.681 9.93418C53.6673 9.97635 53.6649 10.0015 53.6649 10.0015C53.6649 10.0015 53.679 9.98055 53.7056 9.94735L53.7552 9.88933L53.8234 9.81907C53.8491 9.79455 53.8775 9.76883 53.9083 9.74311C53.9391 9.71739 53.9723 9.69108 54.0079 9.66716C54.0429 9.64204 54.0812 9.61991 54.12 9.59868L54.1798 9.56937L54.2396 9.54604L54.2746 9.53499L54.292 9.5296L54.3042 9.52751L54.3625 9.51944L54.3918 9.51824L54.4211 9.52152L54.4789 9.53319L54.5345 9.55292L54.5868 9.57924C54.6203 9.59868 54.6523 9.61842 54.6804 9.63965C54.7082 9.66088 54.7339 9.68151 54.7561 9.70065L54.8129 9.75238C54.844 9.78199 54.8613 9.79992 54.8613 9.79992Z" fill="#42210B"/>
<mask id="mask3_1_1620" style="mask-type:luminance" maskUnits="userSpaceOnUse" x="51" y="10" width="2" height="1">
<path d="M52.596 10.2383C52.596 10.2383 52.8334 10.6922 52.4952 10.7843C52.157 10.8767 51.1792 10.8151 51.1792 10.8151C51.1792 10.8151 51.3182 10.4332 51.7321 10.2167C52.1463 10.0002 52.4262 10.0935 52.596 10.2383Z" fill="white"/>
</mask>
<g mask="url(#mask3_1_1620)">
<path d="M51.8018 10.5041C51.8234 10.7224 51.9702 10.8869 52.1299 10.871C52.2896 10.8552 52.4017 10.6656 52.3802 10.447C52.3586 10.2287 52.2115 10.0645 52.0518 10.0801C51.8921 10.0959 51.7803 10.2858 51.8018 10.5041Z" fill="#18A6DE"/>
</g>
<path d="M52.5962 10.2383C52.5962 10.2383 52.5777 10.2147 52.5382 10.18C52.5184 10.163 52.4936 10.1423 52.4628 10.122C52.4323 10.1014 52.3964 10.0795 52.3546 10.0604L52.2876 10.0326L52.2125 10.0114C52.1596 10.0006 52.1016 9.99223 52.0412 9.99612C52.011 9.99851 51.9799 9.99971 51.9494 10.0081L51.9033 10.0185L51.8582 10.035L51.8133 10.0523L51.7712 10.0757L51.7293 10.0999L51.7266 10.1014L51.7221 10.1044L51.7179 10.1077L51.709 10.1139L51.691 10.1268L51.6207 10.1788L51.5514 10.2344C51.5068 10.2745 51.4602 10.3125 51.4234 10.3553L51.3672 10.4169L51.3181 10.4803L51.2736 10.5415L51.2374 10.6029C51.2126 10.6405 51.1985 10.6809 51.1833 10.7141C51.1686 10.7476 51.1617 10.7799 51.1537 10.8047L51.1432 10.8648L51.1405 10.8857L51.151 10.8669L51.1794 10.8152C51.194 10.7939 51.2093 10.7676 51.2302 10.7398C51.2526 10.7123 51.2736 10.68 51.3032 10.6486L51.3471 10.599L51.3971 10.5484C51.43 10.5128 51.4697 10.4796 51.5092 10.4444C51.5475 10.4073 51.5923 10.3771 51.6339 10.3415L51.7021 10.2907L51.7733 10.2395L51.7909 10.2267L51.7996 10.2201L51.8041 10.2168H51.8044L51.8064 10.2153L51.8399 10.1956L51.8734 10.1755L51.9087 10.1603L51.9437 10.1453L51.9799 10.1349L52.0525 10.119C52.101 10.1115 52.1497 10.1112 52.1961 10.1139L52.264 10.1223L52.3277 10.1355C52.3683 10.1462 52.4057 10.1573 52.4386 10.1693C52.4712 10.1815 52.4999 10.1929 52.5232 10.2033C52.5699 10.224 52.5962 10.2383 52.5962 10.2383Z" fill="#42210B"/>
<path d="M54.9749 6.4242C54.9749 6.4242 54.1576 3.07743 49.2879 5.01487C48.0867 5.49272 47.3974 6.211 47.0759 6.97084C46.7006 7.85807 46.2874 9.76648 46.5424 9.92796C48.7849 11.3484 50.5788 14.2409 49.702 12.5185C49.5501 12.22 50.0058 12.36 50.1844 10.8858C50.2304 10.5045 49.7292 10.0018 49.9999 9.69263C51.8682 7.55665 53.9623 8.45164 54.9749 6.4242Z" fill="#B86B00"/>
<mask id="mask4_1_1620" style="mask-type:luminance" maskUnits="userSpaceOnUse" x="48" y="10" width="3" height="3">
<path d="M50.0535 11.5751C50.0535 11.5751 49.7512 10.7605 49.0122 10.9941C48.273 11.2279 48.8002 13.0969 49.5224 12.9046C50.2449 12.712 50.1833 12.3451 50.1833 12.3451L50.0535 11.5751Z" fill="white"/>
</mask>
<g mask="url(#mask4_1_1620)">
<path d="M50.0535 11.5751C50.0535 11.5751 49.7512 10.7605 49.0122 10.9941C48.273 11.2279 48.8002 13.0969 49.5224 12.9046C50.2449 12.712 50.1833 12.3451 50.1833 12.3451L50.0535 11.5751Z" fill="url(#paint2_linear_1_1620)"/>
</g>
<path d="M52.5891 9.33149C52.5891 9.33149 52.5613 9.31653 52.509 9.29919C52.4827 9.29171 52.4507 9.28065 52.4127 9.27407L52.3523 9.26241L52.2847 9.25493C52.2371 9.25015 52.1854 9.24865 52.1307 9.25074C52.076 9.25403 52.0177 9.25643 51.9587 9.26839C51.8989 9.27617 51.8394 9.2941 51.7787 9.31115C51.718 9.32879 51.6597 9.3557 51.5999 9.37903C51.544 9.40953 51.4857 9.43674 51.4328 9.47083C51.381 9.50641 51.329 9.53991 51.2826 9.57699C51.2375 9.61557 51.195 9.65443 51.1546 9.69062C51.1161 9.72889 51.0835 9.76837 51.0521 9.80366L51.0081 9.85479L50.9728 9.90442C50.9507 9.93552 50.9328 9.96363 50.9178 9.98666C50.8882 10.0324 50.8727 10.0593 50.8727 10.0593C50.8727 10.0593 50.8978 10.0399 50.939 10.0046C50.9594 9.98696 50.9845 9.96574 51.012 9.94062C51.0389 9.9149 51.0724 9.88918 51.1083 9.86107C51.1436 9.83266 51.1822 9.80216 51.2225 9.76957C51.2653 9.74026 51.3104 9.71006 51.3556 9.67686C51.402 9.64576 51.4531 9.61856 51.5021 9.58686C51.5527 9.55815 51.6065 9.53363 51.6585 9.50582L51.7402 9.47173C51.7674 9.46097 51.7937 9.44691 51.8215 9.43943C51.8768 9.42149 51.9303 9.40115 51.9845 9.38919C52.038 9.37364 52.0906 9.36378 52.1409 9.35391L52.2147 9.34344L52.2844 9.33477C52.3293 9.33088 52.3708 9.3273 52.4079 9.327C52.445 9.32521 52.4773 9.3264 52.5042 9.3264L52.5667 9.32969L52.5891 9.33149Z" fill="#B86B00"/>
<path d="M54.9749 9.16302C54.9749 9.16302 54.9563 9.14148 54.9171 9.11098C54.8974 9.09633 54.8735 9.07719 54.8433 9.06045L54.7951 9.03234L54.7395 9.00632C54.7004 8.98838 54.6561 8.97253 54.6082 8.95907C54.5604 8.94681 54.5093 8.93306 54.4548 8.92828C54.401 8.91901 54.3445 8.92019 54.2871 8.91989C54.23 8.92139 54.1723 8.92977 54.1148 8.93755C54.0589 8.9519 54.0009 8.96116 53.9477 8.9809L53.8687 9.01051L53.7937 9.04281C53.7458 9.06763 53.7007 9.09304 53.6579 9.11666C53.6173 9.14387 53.5802 9.17139 53.5461 9.19681L53.4973 9.23299L53.4573 9.27037L53.3936 9.33257C53.3592 9.36726 53.3406 9.38818 53.3406 9.38818C53.3406 9.38818 53.3667 9.37682 53.4103 9.35469C53.4319 9.34362 53.4585 9.33046 53.4878 9.31432L53.5344 9.2892L53.5879 9.26498C53.6253 9.24823 53.6651 9.22969 53.7064 9.20906C53.7497 9.19261 53.7955 9.17617 53.8415 9.15703C53.8876 9.13819 53.9381 9.12773 53.9872 9.11038L54.0628 9.09184L54.1397 9.0748L54.2171 9.06404L54.2943 9.05506C54.3454 9.05326 54.3962 9.04788 54.4453 9.05117C54.4946 9.05117 54.5422 9.05595 54.5873 9.06074L54.6531 9.07091L54.7144 9.08197C54.7536 9.09064 54.7901 9.09902 54.8215 9.10889C54.8534 9.11756 54.881 9.12743 54.9037 9.1352L54.9563 9.15524L54.9749 9.16302Z" fill="#B86B00"/>
<mask id="mask5_1_1620" style="mask-type:luminance" maskUnits="userSpaceOnUse" x="51" y="13" width="4" height="2">
<path d="M54.7991 13.0537C54.7991 13.0537 54.5458 13.987 53.8338 14.1033C53.1215 14.2196 52.1407 13.8581 51.7633 13.3817C51.7633 13.3817 52.4783 13.5444 53.1762 13.5366C53.8739 13.5292 54.646 13.2259 54.7991 13.0537Z" fill="white"/>
</mask>
<g mask="url(#mask5_1_1620)">
<path d="M54.6918 13.3332C54.6918 13.3332 53.7917 14.0981 52.127 13.6995C50.462 13.3009 52.5809 14.2578 52.7965 14.2781C53.0124 14.2984 54.9711 14.2075 54.6918 13.3332Z" fill="#A15A30"/>
</g>
<path d="M51.4292 20.3098C51.4292 20.3098 59.5987 21.7879 60.9901 21.9039C62.3812 22.0199 67.3335 18.1899 67.3335 18.1899L67.0309 17.3706C67.0309 17.3706 61.3349 18.6373 60.901 18.6762C60.4671 18.715 52.9581 18.1899 51.0709 17.2865C50.4657 16.9971 48.1269 19.9575 51.4292 20.3098Z" fill="#FFBF9C"/>
<path d="M66.9673 17.4008C66.9673 17.4008 68.2268 16.1464 68.8066 15.9831C69.3867 15.8198 69.5061 17.3948 69.1532 17.7342C68.8006 18.0736 68.3336 18.506 67.2839 18.187L66.9673 17.4008Z" fill="#FFBF9C"/>
<path d="M22.1977 15.6936C27.4439 16.9179 81.2291 20.4871 81.2291 20.4871C81.2291 20.4871 71.1182 8.38439 50.9999 3.46741C32.7894 -0.983094 11.0527 7.00945 11.0527 7.00945C11.0527 7.00945 12.9797 13.5424 22.1977 15.6936ZM0.042672 29.4787C0.393437 22.9658 7.2377 6.6841 8.11506 4.29602C8.99272 1.90795 35.7576 -1.74713 54.1843 3.24642C72.6106 8.23936 77.9609 16.6703 82.8746 18.841C87.7883 21.0122 99.3708 21.6635 99.8974 35.3401C99.9817 38.4727 100.004 40.3877 99.9993 41.5576C98.5374 42.4083 96.6825 42.9388 95.0554 43.2656L94.6401 43.2567C94.777 42.5539 94.8506 41.8288 94.8506 41.0863C94.8506 40.455 94.7965 39.8369 94.6969 39.2341C94.6344 33.1682 89.7 28.2697 83.6195 28.2697C77.7863 28.2697 73.0093 32.7783 72.5751 38.5002C72.3801 39.331 72.2739 40.1961 72.2739 41.0863C72.2739 41.6568 72.3173 42.2172 72.3989 42.765L26.9723 41.7618C27.2086 40.8524 27.3348 39.8985 27.3348 38.9153C27.3348 32.6808 22.2808 27.6268 16.0466 27.6268C9.81206 27.6268 4.7581 32.6808 4.7581 38.9153C4.7581 39.7254 4.84511 40.5148 5.00749 41.2765L1.62214 41.2017C1.62214 41.2017 -0.308392 35.9917 0.042672 29.4787Z" fill="#F0C30D"/>
<path d="M26.3667 38.9861C26.3667 44.6271 21.7936 49.2002 16.1523 49.2002C10.5111 49.2002 5.938 44.6271 5.938 38.9861C5.938 33.3449 10.5111 28.7718 16.1523 28.7718C21.7936 28.7718 26.3667 33.3449 26.3667 38.9861Z" fill="#323430"/>
<path d="M23.7607 38.9862C23.7607 43.1882 20.3545 46.5945 16.1525 46.5945C11.9505 46.5945 8.54418 43.1882 8.54418 38.9862C8.54418 34.7842 11.9505 31.3776 16.1525 31.3776C20.3545 31.3776 23.7607 34.7842 23.7607 38.9862Z" fill="#E5E5E5"/>
<path d="M22.4375 38.9862C22.4375 42.4573 19.6236 45.2712 16.1524 45.2712C12.6813 45.2712 9.86738 42.4573 9.86738 38.9862C9.86738 35.515 12.6813 32.7008 16.1524 32.7008C19.6236 32.7008 22.4375 35.515 22.4375 38.9862Z" fill="black"/>
<path d="M22.2964 38.1585C22.2043 38.1878 22.0694 38.2302 21.8974 38.2739C21.5539 38.36 21.0628 38.4554 20.4734 38.5092C20.1789 38.5364 19.8598 38.5547 19.5222 38.5627C19.1846 38.5735 18.8285 38.5846 18.4604 38.5962C18.092 38.6049 17.7116 38.6139 17.3246 38.6231C17.223 38.6246 17.1198 38.6264 17.0169 38.6279C17.0905 38.5568 17.1653 38.4844 17.2379 38.4138C17.5178 38.1468 17.7935 37.8842 18.0603 37.6301C18.3288 37.3777 18.5884 37.134 18.8345 36.9025C19.0791 36.6699 19.3174 36.457 19.545 36.2677C19.9998 35.8894 20.4146 35.6095 20.7184 35.4274C20.8709 35.3368 20.9965 35.2713 21.0823 35.227C21.169 35.1837 21.2177 35.1627 21.2177 35.1627L20.9017 34.8467L20.5967 34.542L19.9759 33.9209C19.9759 33.9209 19.9549 33.9693 19.9116 34.0563C19.8673 34.1422 19.8018 34.2677 19.7112 34.42C19.5291 34.7241 19.2492 35.1388 18.8706 35.5937C18.6817 35.8212 18.4687 36.0596 18.2358 36.3042C18.0047 36.5503 17.7609 36.8098 17.5085 37.0784C17.2544 37.3451 16.9915 37.6205 16.7248 37.9004C16.6542 37.9734 16.5819 38.0481 16.5107 38.1214C16.5122 38.0188 16.5137 37.9156 16.5155 37.8137C16.5247 37.427 16.5337 37.0467 16.5424 36.6782C16.554 36.3101 16.5651 35.954 16.5756 35.6164C16.5839 35.2788 16.6019 34.9597 16.6294 34.6652C16.6832 34.0758 16.7783 33.5848 16.8647 33.2412C16.9084 33.0692 16.9509 32.9341 16.9802 32.8423C17.011 32.7502 17.0304 32.7008 17.0304 32.7008H16.5836H15.7212H15.2745C15.2745 32.7008 15.2939 32.7502 15.3247 32.8423C15.354 32.9341 15.3965 33.0692 15.4401 33.2412C15.5266 33.5848 15.6217 34.0758 15.6755 34.6652C15.703 34.9597 15.7209 35.2788 15.7293 35.6164C15.7398 35.954 15.7508 36.3101 15.7625 36.6782C15.7712 37.0467 15.7804 37.427 15.7894 37.8137C15.7912 37.9156 15.7927 38.0188 15.7942 38.1214C15.723 38.0481 15.6507 37.9734 15.5801 37.9004C15.3131 37.6205 15.0505 37.3451 14.7963 37.0784C14.5439 36.8098 14.3002 36.5503 14.0691 36.3042C13.8361 36.0596 13.6232 35.8212 13.4342 35.5937C13.0557 35.1388 12.7758 34.7241 12.5939 34.42C12.503 34.2677 12.4376 34.1422 12.3933 34.0563C12.3499 33.9693 12.329 33.9209 12.329 33.9209L11.7082 34.542L11.4032 34.8467L11.0871 35.1627C11.0871 35.1627 11.1359 35.1837 11.2226 35.227C11.3084 35.2713 11.434 35.3368 11.5862 35.4274C11.8906 35.6095 12.3051 35.8894 12.7599 36.2677C12.9875 36.457 13.2258 36.6699 13.4704 36.9025C13.7165 37.134 13.9761 37.3777 14.2446 37.6301C14.5113 37.8842 14.7868 38.1468 15.0669 38.4138C15.1396 38.4844 15.2144 38.5568 15.2876 38.6279C15.1851 38.6264 15.0819 38.6246 14.9802 38.6231C14.5933 38.6139 14.2129 38.6049 13.8445 38.5962C13.4764 38.5846 13.1202 38.5735 12.7826 38.5627C12.445 38.5547 12.126 38.5364 11.8314 38.5092C11.242 38.4554 10.751 38.36 10.4074 38.2739C10.2355 38.2302 10.1006 38.1878 10.0085 38.1585C9.91641 38.1277 9.86738 38.1079 9.86738 38.1079V38.5547V39.4174V39.8641C9.86738 39.8641 9.91641 39.8447 10.0085 39.8139C10.1006 39.7846 10.2355 39.7418 10.4074 39.6985C10.751 39.6121 11.242 39.517 11.8314 39.4628C12.126 39.4356 12.445 39.4177 12.7826 39.4093C13.1202 39.3988 13.4764 39.3878 13.8445 39.3761C14.2129 39.3674 14.5933 39.3582 14.9802 39.3489C15.0819 39.3474 15.1851 39.3459 15.2876 39.3444C15.2144 39.4153 15.1396 39.488 15.0669 39.5585C14.7868 39.8253 14.5113 40.0881 14.2446 40.3423C13.9761 40.5944 13.7165 40.8384 13.4704 41.0695C13.2258 41.3025 12.9875 41.5154 12.7599 41.7044C12.3051 42.083 11.8906 42.3629 11.5862 42.5447C11.434 42.6356 11.3084 42.7008 11.2226 42.7453C11.1359 42.7887 11.0871 42.8096 11.0871 42.8096L11.4032 43.1254L11.7082 43.4304L12.329 44.0512C12.329 44.0512 12.3499 44.0027 12.3933 43.916C12.4376 43.8299 12.503 43.7043 12.5939 43.5521C12.7758 43.248 13.0557 42.8335 13.4342 42.3787C13.6232 42.1511 13.8361 41.9125 14.0691 41.6682C14.3002 41.4221 14.5439 41.1622 14.7963 40.8937C15.0505 40.6273 15.3131 40.3516 15.5801 40.0717C15.6507 39.9987 15.723 39.9242 15.7942 39.8507C15.7927 39.9535 15.7912 40.0564 15.7894 40.1584C15.7804 40.545 15.7712 40.9257 15.7625 41.2938C15.7508 41.6622 15.7398 42.0184 15.7293 42.3557C15.7209 42.6933 15.703 43.0127 15.6755 43.3072C15.6217 43.8963 15.5266 44.3873 15.4401 44.7312C15.3965 44.9031 15.354 45.038 15.3247 45.1301C15.2939 45.2222 15.2745 45.2712 15.2745 45.2712H15.7212H16.5836H17.0304C17.0304 45.2712 17.011 45.2222 16.9802 45.1301C16.9509 45.038 16.9084 44.9031 16.8647 44.7312C16.7783 44.3873 16.6832 43.8963 16.6294 43.3072C16.6019 43.0127 16.5839 42.6933 16.5756 42.3557C16.5651 42.0184 16.554 41.6622 16.5424 41.2938C16.5337 40.9257 16.5247 40.545 16.5155 40.1584C16.5137 40.0564 16.5122 39.9535 16.5107 39.8507C16.5819 39.9242 16.6542 39.9987 16.7248 40.0717C16.9915 40.3516 17.2544 40.6273 17.5085 40.8937C17.7609 41.1622 18.0047 41.4221 18.2358 41.6682C18.4687 41.9125 18.6817 42.1511 18.8706 42.3787C19.2492 42.8335 19.5291 43.248 19.7112 43.5521C19.8018 43.7043 19.8673 43.8299 19.9116 43.916C19.9549 44.0027 19.9759 44.0512 19.9759 44.0512L20.5967 43.4304L20.9017 43.1254L21.2177 42.8096C21.2177 42.8096 21.169 42.7887 21.0823 42.7453C20.9965 42.7008 20.8709 42.6356 20.7184 42.5447C20.4146 42.3629 19.9998 42.083 19.545 41.7044C19.3174 41.5154 19.0791 41.3025 18.8345 41.0695C18.5884 40.8384 18.3288 40.5944 18.0603 40.3423C17.7935 40.0881 17.5178 39.8253 17.2379 39.5585C17.1653 39.488 17.0905 39.4153 17.0169 39.3444C17.1198 39.3459 17.223 39.3474 17.3246 39.3489C17.7116 39.3582 18.092 39.3674 18.4604 39.3761C18.8285 39.3878 19.1846 39.3988 19.5222 39.4093C19.8598 39.4177 20.1789 39.4356 20.4734 39.4628C21.0628 39.517 21.5539 39.6121 21.8974 39.6985C22.0694 39.7418 22.2043 39.7846 22.2964 39.8139C22.3885 39.8447 22.4375 39.8641 22.4375 39.8641V39.4174V38.5547V38.1079C22.4375 38.1079 22.3885 38.1277 22.2964 38.1585Z" fill="#CBCBCB"/>
<path d="M93.834 39.3499C93.834 44.9911 89.2609 49.5642 83.6196 49.5642C77.9784 49.5642 73.4056 44.9911 73.4056 39.3499C73.4056 33.7089 77.9784 29.1358 83.6196 29.1358C89.2609 29.1358 93.834 33.7089 93.834 39.3499Z" fill="#323430"/>
<path d="M91.2278 39.3497C91.2278 43.5517 87.8215 46.9583 83.6195 46.9583C79.4175 46.9583 76.0112 43.5517 76.0112 39.3497C76.0112 35.1477 79.4175 31.7414 83.6195 31.7414C87.8215 31.7414 91.2278 35.1477 91.2278 39.3497Z" fill="#E5E5E5"/>
<path d="M89.9045 39.3496C89.9045 42.8208 87.0906 45.635 83.6195 45.635C80.1483 45.635 77.3344 42.8208 77.3344 39.3496C77.3344 35.8785 80.1483 33.0646 83.6195 33.0646C87.0906 33.0646 89.9045 35.8785 89.9045 39.3496Z" fill="black"/>
<path d="M89.7634 38.5219C89.6716 38.5512 89.5364 38.594 89.3645 38.6374C89.0209 38.7238 88.5299 38.8192 87.9405 38.873C87.6459 38.9002 87.3269 38.9181 86.9893 38.9265C86.6517 38.937 86.2955 38.948 85.9274 38.9597C85.559 38.9684 85.1786 38.9777 84.792 38.9869C84.69 38.9884 84.5868 38.9899 84.4843 38.9917C84.5575 38.9205 84.6323 38.8482 84.705 38.7773C84.9852 38.5106 85.2606 38.2477 85.5273 37.9935C85.7958 37.7415 86.0554 37.4974 86.3015 37.2663C86.5461 37.0333 86.7844 36.8204 87.012 36.6314C87.4668 36.2529 87.8816 35.973 88.1857 35.7912C88.3379 35.7003 88.4635 35.6351 88.5493 35.5905C88.636 35.5472 88.6848 35.5262 88.6848 35.5262L88.3687 35.2104L88.0637 34.9054L87.4429 34.2846C87.4429 34.2846 87.422 34.3331 87.3786 34.4198C87.3344 34.5059 87.2689 34.6315 87.1783 34.7837C86.9962 35.0878 86.7162 35.5023 86.3377 35.9571C86.1487 36.1847 85.9358 36.4233 85.7031 36.6676C85.4717 36.914 85.228 37.1736 84.9756 37.4421C84.7214 37.7086 84.4589 37.9843 84.1918 38.2642C84.1213 38.3371 84.0489 38.4116 83.9777 38.4851C83.9792 38.3826 83.9807 38.2794 83.9825 38.1774C83.9918 37.7908 84.0007 37.4101 84.0094 37.042C84.0211 36.6736 84.0321 36.3178 84.0426 35.9802C84.051 35.6425 84.0689 35.3232 84.0964 35.0286C84.1503 34.4395 84.2453 33.9485 84.3318 33.6046C84.3754 33.4327 84.4179 33.2978 84.4472 33.2057C84.478 33.1136 84.4977 33.0646 84.4977 33.0646H84.051H83.1883H82.7415C82.7415 33.0646 82.7609 33.1136 82.7917 33.2057C82.8211 33.2978 82.8638 33.4327 82.9072 33.6046C82.9936 33.9485 83.0887 34.4395 83.1428 35.0286C83.17 35.3232 83.188 35.6425 83.1963 35.9802C83.2068 36.3178 83.2179 36.6736 83.2295 37.042C83.2382 37.4101 83.2475 37.7908 83.2564 38.1774C83.2582 38.2794 83.2597 38.3826 83.2612 38.4851C83.1901 38.4116 83.1177 38.3371 83.0471 38.2642C82.7804 37.9843 82.5175 37.7086 82.2634 37.4421C82.0113 37.1736 81.7673 36.914 81.5361 36.6676C81.3032 36.4233 81.0903 36.1847 80.9013 35.9571C80.5227 35.5023 80.2428 35.0878 80.061 34.7837C79.9701 34.6315 79.9046 34.5059 79.8603 34.4198C79.817 34.3331 79.796 34.2846 79.796 34.2846L79.1753 34.9054L78.8702 35.2104L78.5545 35.5262C78.5545 35.5262 78.6029 35.5472 78.6896 35.5905C78.7755 35.6351 78.901 35.7003 79.0535 35.7912C79.3577 35.973 79.7721 36.2529 80.227 36.6314C80.4545 36.8204 80.6928 37.0333 80.9375 37.2663C81.1836 37.4974 81.4434 37.7415 81.7119 37.9935C81.9784 38.2477 82.2541 38.5106 82.534 38.7773C82.607 38.8482 82.6814 38.9205 82.755 38.9917C82.6521 38.9899 82.5489 38.9884 82.4473 38.9869C82.0606 38.9777 81.6799 38.9684 81.3115 38.9597C80.9434 38.948 80.5873 38.937 80.25 38.9265C79.9124 38.9181 79.593 38.9002 79.2985 38.873C78.7094 38.8192 78.218 38.7238 77.8745 38.6374C77.7025 38.594 77.5677 38.5512 77.4756 38.5219C77.3835 38.4911 77.3344 38.4717 77.3344 38.4717V38.9184V39.7812V40.2279C77.3344 40.2279 77.3835 40.2085 77.4756 40.1777C77.5677 40.1481 77.7025 40.1056 77.8745 40.0622C78.218 39.9758 78.7094 39.8804 79.2985 39.8266C79.593 39.7994 79.9124 39.7812 80.25 39.7731C80.5873 39.7623 80.9434 39.7513 81.3115 39.7399C81.6799 39.7309 82.0606 39.7219 82.4473 39.7127C82.5489 39.7112 82.6521 39.7094 82.755 39.7079C82.6814 39.7791 82.607 39.8514 82.534 39.922C82.2541 40.189 81.9784 40.4516 81.7119 40.7058C81.4434 40.9581 81.1836 41.2019 80.9375 41.4333C80.6928 41.666 80.4545 41.8789 80.227 42.0682C79.7721 42.4467 79.3577 42.7263 79.0535 42.9084C78.901 42.999 78.7755 43.0645 78.6896 43.1088C78.6029 43.1521 78.5545 43.1731 78.5545 43.1731L78.8702 43.4892L79.1753 43.7942L79.796 44.415C79.796 44.415 79.817 44.3665 79.8603 44.2795C79.9046 44.1937 79.9701 44.0681 80.061 43.9159C80.2428 43.6118 80.5227 43.197 80.9013 42.7425C81.0903 42.5149 81.3032 42.2763 81.5361 42.0317C81.7673 41.7856 82.0113 41.526 82.2634 41.2575C82.5175 40.9907 82.7804 40.7153 83.0471 40.4354C83.1177 40.3625 83.1901 40.2877 83.2612 40.2145C83.2597 40.317 83.2582 40.4202 83.2564 40.5222C83.2475 40.9088 83.2382 41.2892 83.2295 41.6576C83.2179 42.026 83.2068 42.3818 83.1963 42.7194C83.188 43.0571 83.17 43.3761 83.1428 43.6707C83.0887 44.2601 82.9936 44.7511 82.9072 45.0947C82.8638 45.2666 82.8211 45.4018 82.7917 45.4939C82.7609 45.586 82.7415 45.635 82.7415 45.635H83.1883H84.051H84.4977C84.4977 45.635 84.478 45.586 84.4472 45.4939C84.4179 45.4018 84.3754 45.2666 84.3318 45.0947C84.2453 44.7511 84.1503 44.2601 84.0964 43.6707C84.0689 43.3761 84.051 43.0571 84.0426 42.7194C84.0321 42.3818 84.0211 42.026 84.0094 41.6576C84.0007 41.2892 83.9918 40.9088 83.9825 40.5222C83.9807 40.4202 83.9792 40.317 83.9777 40.2145C84.0489 40.2877 84.1213 40.3625 84.1918 40.4354C84.4589 40.7153 84.7214 40.9907 84.9756 41.2575C85.228 41.526 85.4717 41.7856 85.7031 42.0317C85.9358 42.2763 86.1487 42.5149 86.3377 42.7425C86.7162 43.197 86.9962 43.6118 87.1783 43.9159C87.2689 44.0681 87.3344 44.1937 87.3786 44.2795C87.422 44.3665 87.4429 44.415 87.4429 44.415L88.0637 43.7942L88.3687 43.4892L88.6848 43.1731C88.6848 43.1731 88.636 43.1521 88.5493 43.1088C88.4635 43.0645 88.3379 42.999 88.1857 42.9084C87.8816 42.7263 87.4668 42.4467 87.012 42.0682C86.7844 41.8789 86.5461 41.666 86.3015 41.4333C86.0554 41.2019 85.7958 40.9581 85.5273 40.7058C85.2606 40.4516 84.9852 40.189 84.705 39.922C84.6323 39.8514 84.5575 39.7791 84.4843 39.7079C84.5868 39.7094 84.69 39.7112 84.792 39.7127C85.1786 39.7219 85.559 39.7309 85.9274 39.7399C86.2955 39.7513 86.6517 39.7623 86.9893 39.7731C87.3269 39.7812 87.6459 39.7994 87.9405 39.8266C88.5299 39.8804 89.0209 39.9758 89.3645 40.0622C89.5364 40.1056 89.6716 40.1481 89.7634 40.1777C89.8555 40.2085 89.9045 40.2279 89.9045 40.2279V39.7812V38.9184V38.4717C89.9045 38.4717 89.8555 38.4911 89.7634 38.5219Z" fill="#CBCBCB"/>
<mask id="mask6_1_1620" style="mask-type:luminance" maskUnits="userSpaceOnUse" x="0" y="0" width="100" height="44">
<path d="M99.8974 35.3401C99.3708 21.6635 87.7883 21.0119 82.8746 18.841C77.9609 16.6703 72.6106 8.23936 54.1843 3.24642C35.7576 -1.74713 8.99272 1.90795 8.11506 4.29602C7.2377 6.6841 0.393437 22.9658 0.042672 29.4787C-0.308392 35.9917 1.62214 41.2017 1.62214 41.2017L5.00749 41.2765C4.84511 40.5148 4.7581 39.7254 4.7581 38.9153C4.7581 32.6808 9.81206 27.6268 16.0466 27.6268C22.2808 27.6268 27.3348 32.6808 27.3348 38.9153C27.3348 39.8985 27.2086 40.8524 26.9723 41.7618L72.3989 42.765C72.3173 42.2172 72.2739 41.6568 72.2739 41.0863C72.2739 34.8518 77.3279 29.7978 83.5624 29.7978C89.7966 29.7978 94.8506 34.8518 94.8506 41.0863C94.8506 41.8288 94.777 42.5539 94.6401 43.2567L95.0554 43.2656C96.6825 42.9388 98.5374 42.4083 99.9993 41.5576C100.004 40.3877 99.9817 38.4727 99.8974 35.3401Z" fill="white"/>
</mask>
<g mask="url(#mask6_1_1620)">
<path d="M49.115 12.8225C49.115 13.0082 49.2657 13.1589 49.4514 13.1589C49.6371 13.1589 49.7878 13.0082 49.7878 12.8225C49.7878 12.6368 49.6371 12.4861 49.4514 12.4861C49.2657 12.4861 49.115 12.6368 49.115 12.8225Z" fill="#FFD357"/>
<path d="M49.2311 12.8226C49.2311 12.9443 49.3298 13.043 49.4515 13.043C49.5732 13.043 49.6719 12.9443 49.6719 12.8226C49.6719 12.7009 49.5732 12.6022 49.4515 12.6022C49.3298 12.6022 49.2311 12.7009 49.2311 12.8226Z" fill="#FF6969"/>
<path d="M4.54024 5.50394C4.54024 5.50394 10.6187 19.4051 22.342 20.487C34.0649 21.5689 62.287 23.7398 72.7074 23.7398C83.1278 23.7398 94.4165 20.8912 103.752 32.6274C113.087 44.3635 114.049 21.5886 68.8935 19.0663C49.4507 17.9802 34.0045 18.3519 23.7609 15.9539C10.2144 12.7824 5.03484 6.74014 4.54024 5.50394Z" fill="#FFDF5E"/>
<path d="M8.11513 4.2958C8.11513 4.2958 7.21742 14.4629 8.88184 20.4869C7.57955 22.2201 -1.97275 22.009 -1.97275 22.009L8.11513 4.2958Z" fill="#C1270E"/>
<path d="M-2.72032 36.1348C-2.72032 36.1348 10.9565 15.6415 31.6953 32.2381C31.6953 32.2381 15.1056 13.1565 -5.43524 29.839C-3.37461 36.6784 -2.72032 36.1348 -2.72032 36.1348Z" fill="#FFDF5E"/>
</g>
<path d="M69.2698 41.0671L30.7825 40.1943L30.7583 40.1153C29.0209 34.5133 30.7015 17.239 30.7185 17.065L30.9473 17.0877C30.9299 17.2603 29.2694 34.3281 30.9536 39.9685L69.0605 40.8327C69.1765 39.7499 70.3161 30.8785 76.7124 27.7482C78.8514 26.7013 79.9955 25.5013 80.113 24.1811C80.2817 22.2816 78.2354 20.7584 78.2144 20.7434L78.3505 20.558C78.439 20.6232 80.5218 22.1743 80.3418 24.2014C80.2165 25.6072 79.0293 26.87 76.8135 27.9546C70.1486 31.2158 69.2868 40.8623 69.2788 40.9592L69.2698 41.0671Z" fill="#EB9E23"/>
<path d="M76.1965 19.6877L75.9767 18.2987L70.128 17.8269C70.4246 17.9988 70.747 18.1857 71.0906 18.3852C71.5478 18.6558 72.0427 18.9488 72.5663 19.2589C72.609 19.2841 72.6521 19.3092 72.6952 19.3346C73.8967 19.4378 75.0659 19.5562 76.1965 19.6877ZM68.5832 19.0493C68.5171 18.9991 68.4528 18.9503 68.3909 18.9028C68.3825 18.9243 68.3741 18.9458 68.3661 18.9674C68.3571 18.9904 68.3484 19.0131 68.3395 19.0359C68.4211 19.0403 68.5015 19.0448 68.5832 19.0493ZM67.7958 19.0062C67.8469 18.8839 67.8978 18.7575 67.948 18.6274C67.9546 18.6103 67.9609 18.5936 67.9675 18.5765C67.9492 18.5622 67.9313 18.5484 67.9139 18.5347C67.7767 18.4288 67.6562 18.3352 67.5536 18.2557C67.48 18.2407 67.4029 18.2219 67.3225 18.1983C67.2857 18.2267 67.158 18.3248 66.9624 18.4716C66.9487 18.5117 66.9352 18.5514 66.922 18.5915C66.8823 18.7132 66.8428 18.8343 66.8042 18.9542C67.1338 18.9713 67.4639 18.9886 67.7958 19.0062ZM60.8308 18.6782C60.8624 18.6782 60.8861 18.6773 60.901 18.6761C61.1788 18.6513 63.6156 18.1226 65.3318 17.7458C65.3605 17.646 65.3898 17.5464 65.4203 17.4471L52.9486 16.4409L53.1157 17.1101C53.2051 17.2509 53.2987 17.4178 53.3899 17.6125C53.433 17.7043 53.4982 17.8122 53.5813 17.9321C55.8869 18.3274 58.9214 18.5801 60.2497 18.6549C60.4372 18.6627 60.6244 18.6701 60.8128 18.6779C60.8191 18.6782 60.8251 18.6782 60.8308 18.6782ZM49.7077 17.8038C49.9233 17.0664 50.1006 16.5536 50.1006 16.5536L50.0928 16.2103L49.2495 16.1424C49.1508 16.7755 48.8671 17.326 48.4634 17.6938L49.7077 17.8038ZM65.8892 17.6232C66.0563 17.5864 66.2107 17.5524 66.3482 17.5219L65.9326 17.4884C65.9179 17.5335 65.9032 17.5784 65.8892 17.6232ZM45.0248 17.3897C44.7138 16.9893 44.4943 16.4717 44.4193 15.8912C44.4181 15.8817 44.4169 15.8724 44.4157 15.8628C44.413 15.8392 44.4103 15.8159 44.4079 15.7922L44.404 15.7513L33.1427 14.8428L33.6128 16.3807L45.0248 17.3897ZM53.1127 17.105C53.0592 16.9489 52.9569 16.8188 52.8212 16.7082C52.904 16.8048 53.0051 16.9361 53.1127 17.105Z" fill="#DBEAF0"/>
<path d="M48.4634 17.6938C48.867 17.326 49.1508 16.7755 49.2495 16.1425L45.8869 15.8709C46.2993 16.5297 46.9374 16.949 47.6261 16.949C47.682 16.949 47.7385 16.9463 47.7953 16.9406L48.4547 16.8748C48.6924 16.8509 48.9146 16.7761 49.1185 16.6634C48.9762 17.0754 48.7495 17.431 48.4619 17.6938H48.4634ZM45.0248 17.39C44.7138 16.9893 44.4943 16.4717 44.4192 15.8913C44.4943 16.4717 44.7138 16.9893 45.0248 17.3897V17.39Z" fill="#D7D5C1"/>
<path d="M48.462 17.6938C48.7496 17.431 48.9763 17.0754 49.1187 16.6634C48.9147 16.7761 48.6925 16.8509 48.4548 16.8748L47.7954 16.9406C47.7386 16.9463 47.6821 16.949 47.6262 16.949C46.9375 16.949 46.2994 16.5297 45.887 15.8709L44.4041 15.7513L44.408 15.7923C44.4104 15.8159 44.4131 15.8392 44.4158 15.8629C44.417 15.8724 44.4182 15.8817 44.4194 15.8913C44.4944 16.4717 44.7139 16.9893 45.0249 17.39L48.462 17.6938Z" fill="#CAC9B7"/>
<path d="M53.5813 17.9321C53.4982 17.8122 53.433 17.7043 53.3899 17.6125C53.2987 17.4178 53.2051 17.2509 53.1157 17.1101L53.1211 17.1319C53.1277 17.154 53.1333 17.1765 53.1381 17.1995L53.1211 17.1319C53.1184 17.1229 53.1157 17.114 53.1127 17.105C53.0051 16.9361 52.904 16.8048 52.8211 16.7082C52.6585 16.5754 52.4477 16.4705 52.215 16.3817L50.0928 16.2103L50.1006 16.5536C50.1006 16.5536 49.9232 17.0664 49.7076 17.8038L50.175 17.8451C50.4424 17.503 50.7644 17.2665 50.9761 17.2665C51.0108 17.2665 51.0428 17.2731 51.0709 17.2865C51.5808 17.5305 52.5012 17.747 53.5813 17.9321Z" fill="#DBDEEF"/>
<mask id="mask7_1_1620" style="mask-type:luminance" maskUnits="userSpaceOnUse" x="52" y="16" width="2" height="2">
<path d="M53.1382 17.1995C53.1334 17.1764 53.1277 17.154 53.1211 17.1319L53.1382 17.1995ZM53.1211 17.1319L53.1158 17.1101L52.9486 16.4408L52.2151 16.3816C52.4477 16.4704 52.6585 16.5754 52.8212 16.7082C52.957 16.8188 53.0592 16.9489 53.1128 17.105C53.1158 17.1139 53.1185 17.1229 53.1211 17.1319Z" fill="white"/>
</mask>
<g mask="url(#mask7_1_1620)">
<path d="M53.1382 17.1995C53.1334 17.1764 53.1277 17.154 53.1211 17.1319L53.1382 17.1995ZM53.1211 17.1319L53.1158 17.1101L52.9486 16.4408L52.2151 16.3816C52.4477 16.4704 52.6585 16.5754 52.8212 16.7082C52.957 16.8188 53.0592 16.9489 53.1128 17.105C53.1158 17.1139 53.1185 17.1229 53.1211 17.1319Z" fill="url(#paint3_linear_1_1620)"/>
</g>
<path d="M72.6953 19.3347C72.6523 19.3093 72.6092 19.2842 72.5664 19.2591C72.0428 18.949 71.5479 18.6559 71.0907 18.3853C70.7471 18.1858 70.4248 17.9989 70.1281 17.827L69.1401 17.7472C69.007 17.8748 68.8575 18.0142 68.6664 18.1206C68.5803 18.3862 68.4879 18.6481 68.391 18.9029C68.4529 18.9505 68.5172 18.9992 68.5833 19.0494C68.6865 19.0551 68.7902 19.0608 68.8934 19.0665C70.1999 19.1394 71.4654 19.2292 72.6953 19.3347ZM67.9676 18.5767C68.0035 18.4825 68.0385 18.3883 68.0723 18.295C68.0361 18.2974 67.999 18.2989 67.961 18.2989C67.8372 18.2989 67.7021 18.2854 67.5538 18.2558C67.6563 18.3353 67.7768 18.4289 67.9141 18.5348C67.9314 18.5486 67.9494 18.5623 67.9676 18.5767Z" fill="#6A655D"/>
<path d="M68.3397 19.0359C68.3486 19.0132 68.3573 18.9904 68.3663 18.9674C68.3743 18.9459 68.3827 18.9244 68.3911 18.9028C68.488 18.648 68.5804 18.3861 68.6665 18.1206C68.5035 18.2115 68.3107 18.2787 68.0723 18.2949C68.0385 18.3882 68.0035 18.4824 67.9677 18.5766C67.9611 18.5936 67.9548 18.6104 67.9482 18.6274C67.898 18.7575 67.8471 18.884 67.796 19.0063C67.9763 19.0162 68.1587 19.026 68.3397 19.0359ZM65.332 17.7459C65.5287 17.7025 65.7159 17.6612 65.8894 17.6233C65.9034 17.5784 65.9181 17.5335 65.9328 17.4884L65.4205 17.4471C65.39 17.5464 65.3607 17.646 65.332 17.7459Z" fill="#6A655D"/>
<path d="M66.8042 18.9543C66.8428 18.8344 66.8823 18.7133 66.922 18.5916C66.9352 18.5516 66.9486 18.5118 66.9624 18.4717C66.7985 18.5946 66.5868 18.7516 66.3407 18.9307C66.4959 18.9385 66.6487 18.9466 66.8042 18.9543Z" fill="#6A655D"/>
<path d="M66.3408 18.9307C66.5869 18.7515 66.7986 18.5945 66.9625 18.4716C67.158 18.3248 67.2857 18.2267 67.3225 18.1983C67.3097 18.1947 67.2968 18.1909 67.2839 18.187L67.0384 17.5775L66.3483 17.5219C66.2107 17.5524 66.0564 17.5865 65.8892 17.6233C65.7158 17.6613 65.5286 17.7025 65.3318 17.7459C63.6157 18.1227 61.1789 18.6514 60.9011 18.6762C60.8861 18.6774 60.8625 18.6783 60.8308 18.6783C60.8251 18.6783 60.8191 18.6783 60.8129 18.678C62.6145 18.7527 64.4596 18.8356 66.3408 18.9307ZM60.2498 18.6549C58.9215 18.5802 55.8869 18.3275 53.5814 17.9322C52.5013 17.7471 51.5808 17.5306 51.071 17.2866C51.0429 17.2731 51.0109 17.2665 50.9762 17.2665C50.7645 17.2665 50.4424 17.5031 50.1751 17.8452L58.5929 18.5895C59.1413 18.6107 59.6933 18.6325 60.2498 18.6549Z" fill="#DBC3B4"/>
<path d="M67.961 18.2988C67.999 18.2988 68.0361 18.2973 68.0723 18.2949C68.3106 18.2788 68.5035 18.2115 68.6665 18.1206C68.8576 18.0142 69.0071 17.8748 69.1401 17.7471L67.0385 17.5776L67.284 18.187C67.2969 18.1909 67.3098 18.1948 67.3226 18.1984C67.4031 18.222 67.4802 18.2408 67.5538 18.2558C67.7021 18.2854 67.8372 18.2988 67.961 18.2988Z" fill="#DBC3B4"/>
<path d="M76.27 20.1521L76.1968 19.6877C75.0661 19.5561 73.8969 19.4377 72.6954 19.3345C71.4655 19.229 70.2 19.1393 68.8935 19.0663C68.7903 19.0606 68.6865 19.055 68.5834 19.0493C68.5017 19.0448 68.4213 19.0403 68.3397 19.0358C68.1588 19.0259 67.9763 19.0161 67.796 19.0062C67.4641 18.9886 67.134 18.9712 66.8044 18.9542C66.649 18.9464 66.4961 18.9383 66.3409 18.9306C64.4597 18.8355 62.6147 18.7526 60.813 18.6779C60.6246 18.6701 60.4375 18.6626 60.25 18.6548C59.6935 18.6324 59.1414 18.6106 58.593 18.5894L76.27 20.1521Z" fill="#DBD78F"/>
<path d="M27.9868 2.77852C27.9868 2.77852 31.1395 15.3702 29.9718 16.5307C29.8252 16.7514 24.402 16.4069 22.6398 15.7825C20.8779 15.1582 16.2094 13.8245 14.2998 11.6855C12.3905 9.54623 11.0526 7.00954 11.0526 7.00954C11.0526 7.00954 25.5763 2.57428 27.9868 2.77852Z" fill="#A5CAD9"/>
<path d="M38.8612 2.69329C43.2091 2.69329 47.2473 3.14125 50.8635 4.02519C67.1138 7.99664 76.8601 16.7999 79.8223 19.8177C71.2135 19.2382 26.9899 16.2224 22.328 15.1345C14.9571 13.4145 12.4491 8.89433 11.7955 7.3582C14.4341 6.4605 26.2612 2.69329 38.8612 2.69329ZM81.6698 20.1191C81.5672 19.9968 71.2057 7.81482 51.1362 2.91009C47.4306 2.00432 43.3009 1.54532 38.8612 1.54532C24.4185 1.54532 10.9887 6.42134 10.8547 6.47068L10.3503 6.65607L10.5025 7.17161C10.585 7.45151 12.6322 14.0508 22.0669 16.2526C27.2991 17.4736 78.9931 20.9142 81.191 21.0599L82.5298 21.1487L81.6698 20.1191Z" fill="black"/>
<path d="M31.6977 2.00131C31.7001 2.0052 31.6795 2.05274 31.669 2.19238C31.6604 2.33084 31.6316 2.51325 31.6116 2.73304C31.5895 2.95522 31.5695 3.21747 31.5521 3.5144C31.5366 3.80985 31.5273 4.13939 31.5237 4.49284C31.5228 5.20036 31.5467 6.00774 31.6293 6.85789C31.6615 7.28461 31.7223 7.7197 31.7752 8.16316C31.8344 8.60573 31.9109 9.05249 31.9809 9.50164C32.0614 9.95048 32.1415 10.3993 32.2204 10.841C32.3098 11.2827 32.3921 11.7205 32.4842 12.1448C32.5865 12.5682 32.6678 12.9821 32.7653 13.3759C32.8101 13.573 32.8613 13.7649 32.9124 13.9512C32.9573 14.1378 33.0003 14.3196 33.0488 14.4943C33.1376 14.8438 33.2357 15.1662 33.3242 15.4548C33.4034 15.7445 33.4839 15.9993 33.5547 16.2107C33.6235 16.4218 33.6923 16.5899 33.7321 16.7044C33.7784 16.8196 33.8032 16.8809 33.8032 16.8809L30.8679 16.7104L27.9329 16.5397C27.9329 16.5397 27.9643 16.4912 28.0157 16.3997C28.0633 16.3079 28.1434 16.1731 28.2266 15.999C28.3118 15.8253 28.4096 15.6124 28.5089 15.3654C28.5597 15.2419 28.6022 15.1085 28.6479 14.968C28.6961 14.8271 28.7409 14.6785 28.7852 14.523C28.8823 14.212 28.9604 13.8711 29.0232 13.5081C29.0944 13.1453 29.1503 12.7608 29.185 12.361C29.2212 11.9612 29.2499 11.547 29.2442 11.1263C29.246 10.7055 29.2343 10.2779 29.1942 9.8524C29.1628 9.42628 29.1084 9.00166 29.0363 8.5869C28.9697 8.17155 28.8656 7.76845 28.7627 7.3803C28.6509 6.99395 28.5274 6.62375 28.3898 6.27896C28.2484 5.93508 28.1058 5.61332 27.9518 5.32446C27.8025 5.0335 27.6435 4.77603 27.4978 4.55056C27.3474 4.32749 27.2066 4.1373 27.0819 3.98808C26.9584 3.83647 26.8471 3.72732 26.7786 3.66811C26.7108 3.6095 26.656 3.55209 26.659 3.55597L31.6977 2.00131Z" fill="black"/>
<mask id="mask8_1_1620" style="mask-type:luminance" maskUnits="userSpaceOnUse" x="11" y="2" width="71" height="19">
<path d="M11.0527 7.00938C11.0527 7.00938 32.7893 -0.983163 50.9998 3.46734C71.1181 8.38433 81.229 20.4871 81.229 20.4871C81.229 20.4871 27.4438 16.9178 22.1976 15.6936C12.9796 13.5423 11.0527 7.00938 11.0527 7.00938Z" fill="white"/>
</mask>
<g mask="url(#mask8_1_1620)">
<path d="M72.3943 12.9338C72.3943 12.9338 80.8184 20.4786 71.8414 19.848C62.8645 19.2167 83.9995 23.7366 82.8416 20.487C81.6838 17.2371 72.3943 12.9338 72.3943 12.9338Z" fill="black"/>
</g>
<path d="M99.4259 31.6172C99.4259 31.6172 90.3682 28.8161 85.7368 25.8249C81.1051 22.834 88.6117 23.796 93.7455 25.8249C98.879 27.8542 99.7031 27.3745 99.4259 31.6172Z" fill="#EDF1F2"/>
<path d="M40.2495 24.5532C40.2495 24.8083 40.0043 25.0146 39.702 25.0146H34.8654C34.5631 25.0146 34.3179 24.8083 34.3179 24.5532V24.0536C34.3179 23.7985 34.5631 23.5919 34.8654 23.5919H39.702C40.0043 23.5919 40.2495 23.7985 40.2495 24.0536V24.5532Z" fill="#D1850B"/>
<path d="M40.1431 23.9893C40.1431 24.2088 39.9319 24.3867 39.6715 24.3867H34.8959C34.6355 24.3867 34.4244 24.2088 34.4244 23.9893C34.4244 23.7698 34.6355 23.5919 34.8959 23.5919H39.6715C39.9319 23.5919 40.1431 23.7698 40.1431 23.9893Z" fill="#FFF3DE"/>
<defs>
<linearGradient id="paint0_linear_1_1620" x1="52.7062" y1="14.6336" x2="50.0125" y2="15.087" gradientUnits="userSpaceOnUse">
<stop stop-color="#FFB890"/>
<stop offset="1" stop-color="#FD9B82"/>
</linearGradient>
<linearGradient id="paint1_linear_1_1620" x1="53.0792" y1="11.1225" x2="54.4315" y2="11.3785" gradientUnits="userSpaceOnUse">
<stop stop-color="#FFB890"/>
<stop offset="1" stop-color="#FD9B82"/>
</linearGradient>
<linearGradient id="paint2_linear_1_1620" x1="50.0924" y1="11.8066" x2="48.698" y2="12.0413" gradientUnits="userSpaceOnUse">
<stop stop-color="#FFB890"/>
<stop offset="1" stop-color="#FD9B82"/>
</linearGradient>
<linearGradient id="paint3_linear_1_1620" x1="52.7061" y1="14.6335" x2="50.0124" y2="15.0869" gradientUnits="userSpaceOnUse">
<stop stop-color="#DBBFAD"/>
<stop offset="1" stop-color="#DAAEA5"/>
</linearGradient>
</defs>
</svg>
