<svg width="100" height="49" viewBox="0 0 100 49" fill="none" xmlns="http://www.w3.org/2000/svg">
<path d="M66.6466 6.39014C66.9531 6.87635 67.5963 7.0223 68.0828 6.71548C68.5693 6.40895 68.715 5.76574 68.4082 5.27923L65.6264 0.867227C65.3199 0.380718 64.6767 0.235059 64.1902 0.54159C63.7036 0.848418 63.558 1.49133 63.8648 1.97784L66.6466 6.39014Z" fill="#403354"/>
<path d="M43.0828 14.5542C43.0828 17.1479 47.7228 19.0721 50.3166 19.0721H63.3777C65.9714 19.0721 70.9475 17.1757 70.9475 14.5819C70.9475 14.5819 68.7302 9.09902 66.1364 9.09902L50.3166 9.67955C47.7228 9.67955 43.0828 14.5542 43.0828 14.5542Z" fill="#943FA5"/>
<path d="M65.4589 5.27207H71.4436C72.0167 5.27207 73.678 6.94262 75.2527 8.68151C76.9629 10.5705 78.5708 12.5407 78.5708 12.5407L66.8107 12.8956H65.4589C63.3538 12.8956 61.6472 11.189 61.6472 9.08385C61.6472 6.97873 63.3538 5.27207 65.4589 5.27207Z" fill="#403354"/>
<path d="M46.7771 6.85065C46.7771 8.41315 48.0435 9.67957 49.606 9.67957H64.4245C65.987 9.67957 67.2534 8.41315 67.2534 6.85065C67.2534 5.28815 65.987 4.02174 64.4245 4.02174H49.606C48.0435 4.02174 46.7771 5.28815 46.7771 6.85065Z" fill="#281F33"/>
<path d="M16.9318 21.5471C22.6529 21.5471 27.3072 26.2018 27.3072 31.9229C27.3072 37.6434 22.6529 42.2977 16.9318 42.2977C11.211 42.2977 6.55661 37.6434 6.55661 31.9229C6.55661 26.2018 11.211 21.5471 16.9318 21.5471ZM16.9318 45.4033C24.3652 45.4033 30.4128 39.356 30.4128 31.9229C30.4128 24.4894 24.3652 18.4418 16.9318 18.4418C9.49865 18.4418 3.45101 24.4894 3.45101 31.9229C3.45101 39.356 9.49865 45.4033 16.9318 45.4033Z" fill="#943FA5"/>
<path d="M12.6215 31.9226C12.6215 34.3032 14.5514 36.2328 16.9317 36.2328C19.3123 36.2328 21.2419 34.3032 21.2419 31.9226C21.2419 29.542 19.3123 27.6123 16.9317 27.6123C14.5514 27.6123 12.6215 29.542 12.6215 31.9226Z" fill="#943FA5"/>
<path d="M16.9316 20.6734C23.1726 20.6734 28.2499 25.7507 28.2499 31.9918C28.2499 38.2328 23.1726 43.3101 16.9316 43.3101C10.6908 43.3101 5.61325 38.2328 5.61325 31.9918C5.61325 25.7507 10.6908 20.6734 16.9316 20.6734ZM16.9316 48.9235C26.2678 48.9235 33.8633 41.328 33.8633 31.9918C33.8633 22.6556 26.2678 15.0601 16.9316 15.0601C7.5954 15.0601 -0.000103761 22.6556 -0.000103761 31.9918C-0.000103761 41.328 7.5954 48.9235 16.9316 48.9235Z" fill="#281F33"/>
<path d="M25.0535 15.8824C24.2521 15.8824 23.7686 12.7207 24.3071 11.4429L46.9709 12.524L48.3955 18.043L32.3091 25.2323L29.5154 22.0366L39.3993 15.9692C39.3993 15.9692 28.5382 15.8824 25.0535 15.8824Z" fill="#943FA5"/>
<path d="M11.6812 8.00276H18.2257C18.7633 8.00276 19.1988 8.38927 19.1988 8.86623C19.1988 9.15336 19.0391 9.40616 18.7958 9.56316L23.2702 11.3934L24.3071 11.4429C23.7687 12.7207 25.3691 15.8454 26.1696 15.8824C27.5601 15.9466 40.9221 15.5344 40.9221 15.5344L30.0151 22.6082L14.4856 9.72971H11.6812C11.1436 9.72971 10.7078 9.34319 10.7078 8.86623C10.7078 8.38927 11.1436 8.00276 11.6812 8.00276Z" fill="#C64AE5"/>
<path d="M83.0681 21.5474C88.7891 21.5474 93.4434 26.2018 93.4434 31.9229C93.4434 37.6434 88.7891 42.2977 83.0681 42.2977C77.3473 42.2977 72.6929 37.6434 72.6929 31.9229C72.6929 26.2018 77.3473 21.5474 83.0681 21.5474ZM83.0681 45.4033C90.5015 45.4033 96.5491 39.356 96.5491 31.9229C96.5491 24.4894 90.5015 18.4418 83.0681 18.4418C75.635 18.4418 69.5873 24.4894 69.5873 31.9229C69.5873 39.356 75.635 45.4033 83.0681 45.4033Z" fill="#943FA5"/>
<path d="M17.3883 30.3839L37.8356 31.9201L32.3091 25.2323L43.8054 16.4692H59.3775H65.4272L60.6842 31.9204C60.6842 31.9204 59.5626 34.9237 57.3482 37.1288C55.1336 39.3342 50.2721 38.8381 50.2721 38.8381C50.2721 38.8381 38.1284 37.1876 36.7235 35.0222C36.6967 34.981 36.6683 34.9359 36.6409 34.8926L17.2578 33.2036C17.022 33.1857 16.8021 33.1128 16.6101 32.9988C16.1586 32.7299 15.864 32.232 15.8893 31.6855C15.9255 30.9071 16.5961 30.3242 17.3883 30.3839Z" fill="#403354"/>
<path d="M78.1632 31.9918C78.1632 34.3724 80.0931 36.302 82.4734 36.302C84.854 36.302 86.7839 34.3724 86.7839 31.9918C86.7839 29.6112 84.854 27.6815 82.4734 27.6815C80.0931 27.6815 78.1632 29.6112 78.1632 31.9918Z" fill="#943FA5"/>
<path d="M83.0682 20.6734C89.3091 20.6734 94.3865 25.7507 94.3865 31.9918C94.3865 38.2328 89.3091 43.3101 83.0682 43.3101C76.8274 43.3101 71.7502 38.2328 71.7502 31.9918C71.7502 25.7507 76.8274 20.6734 83.0682 20.6734ZM83.0682 48.9235C92.4045 48.9235 100 41.328 100 31.9918C100 22.6556 92.4045 15.0601 83.0682 15.0601C73.732 15.0601 66.1365 22.6556 66.1365 31.9918C66.1365 41.328 73.732 48.9235 83.0682 48.9235Z" fill="#281F33"/>
<path d="M68.6258 13.5084L83.0835 30.8693C83.5333 31.4498 83.4288 32.2849 82.8498 32.7353C82.6396 32.8992 82.3961 32.9893 82.1495 33.0102C81.7162 33.0472 81.2735 32.8702 80.987 32.5007L66.6195 15.0601C67.2466 14.4256 67.982 14.1259 68.6258 13.5084Z" fill="#403354"/>
<path d="M44.0882 29.7548H56.3587C55.2949 27.2993 56.4694 19.5152 60.4373 15.7983C63.2426 13.1705 67.5758 12.4047 78.0164 12.8166C78.0164 12.8166 69.7594 15.644 66.9332 23.3493C65.248 27.9428 66.0691 30.9735 66.0691 30.9735L66.0539 30.9738C66.0602 31.0257 66.0709 31.0765 66.0709 31.1299C66.0709 31.8889 65.4024 32.5046 64.578 32.5046H44.0882C43.2635 32.5046 42.595 31.8889 42.595 31.1299C42.595 30.3706 43.2635 29.7548 44.0882 29.7548Z" fill="#C64AE5"/>
<path d="M64.5883 31.1296C64.5883 31.0765 64.5776 31.0257 64.5713 30.9738L64.5862 30.9735C64.5862 30.9735 63.7654 27.9428 65.4503 23.3493C68.2768 15.644 76.5338 12.8166 76.5338 12.8166C75.1056 12.7604 73.7953 12.727 72.5838 12.7166C74.2009 12.7011 76.0165 12.7357 78.0718 12.8166C78.0718 12.8166 69.8149 15.644 66.9886 23.3493C65.3035 27.9428 66.1246 30.9735 66.1246 30.9735L66.1093 30.9738C66.1156 31.0257 66.1264 31.0765 66.1264 31.1296C66.1264 31.8889 65.4578 32.5046 64.6334 32.5046H63.0951C63.9198 32.5046 64.5883 31.8889 64.5883 31.1296Z" fill="#943FA5"/>
<path d="M47.1024 31.9918C47.1024 34.8613 49.4917 37.1876 52.4394 37.1876C55.3868 37.1876 57.7764 34.8613 57.7764 31.9918C57.7764 29.1223 55.3868 26.796 52.4394 26.796C49.4917 26.796 47.1024 29.1223 47.1024 31.9918Z" fill="#281F33"/>
<path d="M48.5768 31.9261C48.5768 33.9781 50.3061 35.6415 52.4393 35.6415C54.5725 35.6415 56.3015 33.9781 56.3015 31.9261C56.3015 29.8741 54.5725 28.2107 52.4393 28.2107C50.3061 28.2107 48.5768 29.8741 48.5768 31.9261Z" fill="#5F5A75"/>
<path d="M52.4393 31.3236C52.4393 32.2298 53.1273 32.9646 53.9762 32.9646C54.8247 32.9646 55.5127 32.2298 55.5127 31.3236C55.5127 30.4174 54.8247 29.6829 53.9762 29.6829C53.1273 29.6829 52.4393 30.4174 52.4393 31.3236Z" fill="#A297B2"/>
<path d="M56.4452 5.76362C56.4452 7.92635 58.1984 9.67957 60.3612 9.67957C62.5239 9.67957 64.2771 7.92635 64.2771 5.76362C64.2771 3.6006 62.5239 1.84767 60.3612 1.84767C58.1984 1.84767 56.4452 3.6006 56.4452 5.76362Z" fill="#5F5A75"/>
<path d="M52.1261 12.5407C52.1261 13.0899 52.5711 13.5349 53.1203 13.5349H60.9098C61.459 13.5349 61.9041 13.0899 61.9041 12.5407C61.9041 11.9918 61.459 11.5468 60.9098 11.5468H53.1203C52.5711 11.5468 52.1261 11.9918 52.1261 12.5407Z" fill="#C64AE5"/>
<path d="M32.5663 11.594C32.5663 12.6515 33.4235 13.5084 34.4809 13.5084H48.4022C49.4594 13.5084 50.3167 12.6515 50.3167 11.594C50.3167 10.5368 49.4594 9.67963 48.4022 9.67963H34.4809C33.4235 9.67963 32.5663 10.5368 32.5663 11.594Z" fill="#281F33"/>
<path d="M43.0581 19.3044H55.0534C55.479 19.3044 55.8237 19.6491 55.8237 20.0747C55.8237 20.5001 55.479 20.8451 55.0534 20.8451H43.0581C42.6328 20.8451 42.2878 20.5001 42.2878 20.0747C42.2878 19.6491 42.6328 19.3044 43.0581 19.3044Z" fill="#281F33"/>
<path d="M47.0396 22.6081H53.5935C54.0952 22.6081 54.5017 23.0149 54.5017 23.5167C54.5017 24.0181 54.0952 24.4249 53.5935 24.4249H47.0396C46.5382 24.4249 46.1314 24.0181 46.1314 23.5167C46.1314 23.0149 46.5382 22.6081 47.0396 22.6081Z" fill="#281F33"/>
<path d="M79.9761 31.885C79.9761 33.2654 81.0951 34.3844 82.4755 34.3844C83.8559 34.3844 84.9746 33.2654 84.9746 31.885C84.9746 30.5049 83.8559 29.3859 82.4755 29.3859C81.0951 29.3859 79.9761 30.5049 79.9761 31.885Z" fill="#B759CE"/>
<path d="M89.2973 31.4969C89.3658 31.4969 89.4352 31.4898 89.5046 31.474C90.0121 31.3597 90.3321 30.8588 90.2201 30.3511C90.2009 30.2646 89.7314 28.2072 87.9897 26.4364C86.9149 25.3437 85.5924 24.5924 84.0588 24.2032C83.5538 24.0734 83.0396 24.3808 82.9112 24.8861C82.7826 25.392 83.0885 25.9057 83.5941 26.0337C84.7883 26.3367 85.8139 26.9178 86.6433 27.761C87.9897 29.1301 88.3727 30.746 88.3764 30.7621C88.4767 31.1991 88.8664 31.4969 89.2973 31.4969Z" fill="#B759CE"/>
<path d="M82.6264 40.0082C83.1714 40.0082 83.7576 39.9497 84.3766 39.8061C85.8391 39.4676 87.0333 38.8322 87.9264 37.9183C89.0901 36.7256 89.4134 35.4726 89.4464 35.3335C89.5669 34.8261 89.2533 34.3169 88.7459 34.1963C88.2389 34.0787 87.7334 34.3868 87.6103 34.8903C87.6023 34.921 87.367 35.7872 86.5751 36.5987C85.9385 37.25 85.0556 37.7102 83.951 37.966C81.4647 38.5421 79.7237 37.3273 79.6509 37.2757C79.2283 36.9736 78.6385 37.0697 78.3346 37.4903C78.0308 37.9111 78.1212 38.497 78.5403 38.8036C78.6215 38.8629 80.2204 40.0082 82.6264 40.0082Z" fill="#B759CE"/>
<path d="M76.1269 36.0597C76.2865 36.0597 76.4483 36.0191 76.5966 35.9337C77.0482 35.6744 77.204 35.0986 76.9462 34.6467C76.9223 34.6049 75.8776 32.7052 76.4247 30.8173C76.5701 30.3165 76.2818 29.7927 75.7809 29.6473C75.2804 29.5026 74.7563 29.7903 74.6106 30.2917C73.8325 32.9756 75.2467 35.481 75.307 35.586C75.4819 35.8902 75.7997 36.0597 76.1269 36.0597Z" fill="#B759CE"/>
<path d="M9.61385 35.2371C9.82457 35.7397 10.1051 36.2576 10.477 36.7733C11.3548 37.9911 12.4025 38.8465 13.5907 39.3166C15.1403 39.9288 16.4211 39.7422 16.5623 39.7189C17.0765 39.6339 17.4248 39.148 17.3401 38.6331C17.2523 38.12 16.773 37.7732 16.2608 37.8541C16.2292 37.8589 15.3397 37.9768 14.2849 37.5601C13.4382 37.2252 12.6723 36.5886 12.0091 35.669C10.5164 33.5988 10.9635 31.5238 10.9829 31.4364C11.0981 30.9298 10.7815 30.423 10.2762 30.3057C9.77054 30.1881 9.26523 30.498 9.14465 31.003C9.12107 31.1012 8.68351 33.0183 9.61385 35.2371Z" fill="#B759CE"/>
<path d="M10.7417 27.7162C10.8035 27.8636 10.9032 27.997 11.0393 28.1009C11.4532 28.417 12.0445 28.3379 12.3615 27.9254C12.391 27.8872 13.7386 26.1892 15.6915 25.9639C16.2094 25.9042 16.581 25.4356 16.5213 24.9177C16.4613 24.4002 15.9933 24.028 15.4746 24.0877C12.6988 24.4079 10.9351 26.6808 10.8614 26.7772C10.6486 27.056 10.6151 27.4147 10.7417 27.7162Z" fill="#B759CE"/>
<path d="M14.8354 31.9226C14.8354 33.0804 15.7741 34.0188 16.9316 34.0188C18.0894 34.0188 19.0281 33.0804 19.0281 31.9226C19.0281 30.7649 18.0894 29.8265 16.9316 29.8265C15.7741 29.8265 14.8354 30.7649 14.8354 31.9226Z" fill="#403354"/>
<path d="M23.2703 11.3934C23.2703 12.6691 24.3042 13.703 25.5796 13.703H37.8301C39.1054 13.703 40.1396 12.6691 40.1396 11.3934C40.1396 10.1181 39.1054 9.08386 37.8301 9.08386H25.5796C24.3042 9.08386 23.2703 10.1181 23.2703 11.3934Z" fill="#281F33"/>
<path d="M58.4151 5.76368C58.4151 6.83848 59.2863 7.70972 60.3611 7.70972C61.4359 7.70972 62.3071 6.83848 62.3071 5.76368C62.3071 4.68889 61.4359 3.81764 60.3611 3.81764C59.2863 3.81764 58.4151 4.68889 58.4151 5.76368Z" fill="#281F33"/>
<path d="M35.8743 30.4478C35.5785 30.8233 35.6433 31.3677 36.019 31.6632L38.5823 33.6805C38.9578 33.9763 39.5019 33.9115 39.7977 33.5358C40.0935 33.1603 40.0284 32.6162 39.6529 32.3204L37.0897 30.303C36.7142 30.0072 36.1698 30.072 35.8743 30.4478Z" fill="#281F33"/>
<path d="M68.9391 8.68421C68.9391 9.21698 69.3775 9.64917 69.9183 9.64917H72.9684C73.5092 9.64917 73.948 9.21698 73.948 8.68421C73.948 8.15114 73.5092 7.71896 72.9684 7.71896H69.9183C69.3775 7.71896 68.9391 8.15114 68.9391 8.68421Z" fill="#F9E062"/>
<path d="M73.5906 13.937C73.6897 13.9221 73.7879 13.891 73.8819 13.8424C78.0751 11.6847 84.226 11.9277 84.2881 11.9304C84.8095 11.9519 85.2501 11.5492 85.2727 11.0281C85.2957 10.507 84.8919 10.0661 84.3708 10.0431C84.0989 10.0318 77.6513 9.7778 73.0175 12.1632C72.5537 12.4017 72.3713 12.9715 72.6098 13.435C72.8002 13.8051 73.2011 13.9958 73.5906 13.937Z" fill="#C64AE5"/>
<path d="M77.4443 14.0857C77.5443 14.0857 77.6461 14.0696 77.7464 14.0356C82.2145 12.5274 88.2604 13.6854 88.3212 13.6974C88.8337 13.7965 89.3295 13.464 89.4296 12.9521C89.5301 12.4402 89.1965 11.9442 88.6846 11.8436C88.4176 11.7919 82.0799 10.5787 77.1423 12.2462C76.648 12.4128 76.3827 12.9488 76.5495 13.4428C76.6823 13.8371 77.0504 14.0857 77.4443 14.0857Z" fill="#943FA5"/>
<path d="M21.2417 26.188C21.2879 26.188 21.3345 26.1847 21.3811 26.1778L32.4159 24.5407C32.9316 24.4643 33.288 23.9838 33.2113 23.4677C33.1349 22.952 32.6546 22.5971 32.1383 22.6723L23.8017 23.9089L27.9862 19.4778C28.3444 19.0987 28.3268 18.5012 27.9478 18.1427C27.5687 17.7848 26.9705 17.8015 26.6127 18.1809L20.5555 24.5953C20.2794 24.8876 20.2188 25.3233 20.4048 25.6803C20.5689 25.9952 20.894 26.188 21.2417 26.188Z" fill="#787493"/>
<path d="M60.2111 27.1324C60.2236 27.1324 60.2358 27.1324 60.2484 27.1316C60.7695 27.1116 61.1757 26.6728 61.1557 26.1517C60.8405 17.9989 65.9614 16.8534 66.1796 16.8086C66.6879 16.7044 67.0204 16.2087 66.9198 15.6995C66.8186 15.1906 66.33 14.8602 65.8196 14.9545C65.7504 14.9676 58.8879 16.3899 59.2682 26.2245C59.2876 26.7331 59.7063 27.1324 60.2111 27.1324Z" fill="#E184F7"/>
</svg>
