<svg width="100" height="30" viewBox="0 0 100 30" fill="none" xmlns="http://www.w3.org/2000/svg">
<path d="M96.9902 25.0305L73.0458 24.5467H9.67432C9.67432 24.5467 9.43319 11.7275 27.0901 11.4856C44.747 11.2438 82.9628 10.0344 89.2503 13.4205C95.5393 16.8068 96.9902 25.0305 96.9902 25.0305Z" fill="#090B0A"/>
<path d="M95.5395 26.2399C95.5395 26.2399 98.5622 25.877 99.4089 24.7887C100.256 23.7003 100.014 18.621 99.7721 15.9603C99.5297 13.2997 99.0463 11.2438 97.4738 10.6391C95.902 10.0345 70.1419 8.34139 70.1419 8.34139C70.1419 8.34139 61.6169 3.08065 58.351 1.75032C55.0865 0.420133 41.0568 0.420122 32.834 0.903906C24.6096 1.38769 20.1365 6.58786 14.6943 7.91819C9.25206 9.24838 2.72025 10.3368 2.11588 11.6671C1.51152 12.9973 0.907163 17.472 0.907163 17.472C0.907163 17.472 0.302785 19.2861 0.060167 20.1326C-0.180998 20.9792 0.302791 23.6398 1.51152 24.0026C2.72026 24.3654 13.1209 25.5747 13.1209 25.5747C13.1209 25.5747 12.5775 14.9927 22.1312 14.63C31.6848 14.2672 30.7782 26.1793 30.7782 26.1793L77.8229 26.3004C77.8229 26.3004 77.759 14.4767 86.9523 14.3882C96.9633 14.2918 95.5395 26.2399 95.5395 26.2399Z" fill="#858583"/>
<path d="M99.4081 24.7887C98.5613 25.8771 95.5387 26.2399 95.5387 26.2399C95.5387 26.2399 95.6607 24.6952 95.4945 22.7367C95.5257 22.735 96.7872 22.8094 99.9856 21.612C99.9406 23.0761 99.7787 24.3125 99.4081 24.7887Z" fill="#4C4E49"/>
<path d="M30.4981 21.9609L78.3235 22.4064C77.8202 24.5463 77.8227 26.3004 77.8227 26.3004L30.7776 26.1795C30.7776 26.1795 30.8509 24.1812 30.4981 21.9609Z" fill="#4C4E49"/>
<path d="M27.0294 14.9323C27.0294 14.9323 29.5681 13.1183 33.4389 12.8765C36.57 12.6808 59.8077 12.3269 70.9365 12.3269C73.5631 12.3269 75.516 12.3465 76.3709 12.3927C80.8456 12.6347 83.9896 13.8439 83.9896 13.8439L85.5623 13.723C85.5623 13.723 82.0549 12.2718 78.7893 11.909C77.6383 11.7811 72.0733 11.7327 65.2059 11.7327C52.5886 11.7327 35.5728 11.8961 33.4389 12.0299C29.4918 12.2777 25.8202 14.2068 25.8202 14.2068L27.0294 14.9323Z" fill="#ACADAE"/>
<path d="M94.6323 22.4301C94.6323 18.4229 91.3291 15.1735 87.2546 15.1735C83.1801 15.1735 79.8778 18.4229 79.8778 22.4301C79.8778 26.4373 83.1801 29.6866 87.2546 29.6866C91.3291 29.6866 94.6323 26.4373 94.6323 22.4301Z" fill="#1F2326"/>
<path d="M92.697 22.43C92.697 19.4743 90.2608 17.0771 87.2558 17.0771C84.2497 17.0771 81.8126 19.4743 81.8126 22.43C81.8126 25.3867 84.2497 27.783 87.2558 27.783C90.2608 27.783 92.697 25.3867 92.697 22.43Z" fill="#A5A6A8"/>
<path d="M90.6409 22.4297C90.6409 20.591 89.1245 19.099 87.2549 19.099C85.3843 19.099 83.868 20.591 83.868 22.4297C83.868 24.2694 85.3843 25.7604 87.2549 25.7604C89.1245 25.7604 90.6409 24.2694 90.6409 22.4297Z" fill="#5D5E60"/>
<path d="M89.0085 22.4305C89.0085 21.4784 88.2242 20.706 87.2562 20.706C86.2865 20.706 85.5021 21.4784 85.5021 22.4305C85.5021 23.3836 86.2865 24.1559 87.2562 24.1559C88.2242 24.1559 89.0085 23.3836 89.0085 22.4305Z" fill="#9EA7A6"/>
<path d="M88.177 22.4304C88.177 21.9298 87.7648 21.5231 87.2559 21.5231C86.746 21.5231 86.3329 21.9298 86.3329 22.4304C86.3329 22.9311 86.746 23.3377 87.2559 23.3377C87.7648 23.3377 88.177 22.9311 88.177 22.4304Z" fill="#5D5E60"/>
<path d="M29.5684 22.6722C29.5684 18.6649 26.2657 15.4161 22.1914 15.4161C18.1172 15.4161 14.8145 18.6649 14.8145 22.6722C14.8145 26.6798 18.1172 29.9284 22.1914 29.9284C26.2657 29.9284 29.5684 26.6798 29.5684 22.6722Z" fill="#1F2326"/>
<path d="M27.6338 22.6725C27.6338 19.7162 25.1976 17.3197 22.1922 17.3197C19.1868 17.3197 16.7506 19.7162 16.7506 22.6725C16.7506 25.6289 19.1868 28.0255 22.1922 28.0255C25.1976 28.0255 27.6338 25.6289 27.6338 22.6725Z" fill="#A5A6A8"/>
<path d="M25.5784 22.6724C25.5784 20.8328 24.0617 19.3416 22.1921 19.3416C20.3213 19.3416 18.8059 20.8328 18.8059 22.6724C18.8059 24.5119 20.3213 26.0031 22.1921 26.0031C24.0617 26.0031 25.5784 24.5119 25.5784 22.6724Z" fill="#5D5E60"/>
<path d="M23.9453 22.672C23.9453 21.7194 23.1588 20.9472 22.1906 20.9472C21.2224 20.9472 20.4372 21.7194 20.4372 22.672C20.4372 23.6245 21.2224 24.3969 22.1906 24.3969C23.1588 24.3969 23.9453 23.6245 23.9453 22.672Z" fill="#9EA7A6"/>
<path d="M23.1125 22.672C23.1125 22.1711 22.7003 21.7651 22.1917 21.7651C21.683 21.7651 21.2695 22.1711 21.2695 22.672C21.2695 23.173 21.683 23.5791 22.1917 23.5791C22.7003 23.5791 23.1125 23.173 23.1125 22.672Z" fill="#5D5E60"/>
<path d="M96.7481 11.2435L98.2046 11.0882C97.9952 10.9003 97.7582 10.7502 97.4876 10.645C97.4866 10.6439 97.4866 10.6439 97.4866 10.6439C97.4845 10.6429 97.4825 10.6429 97.4815 10.6419C97.4794 10.6409 97.4764 10.6398 97.4733 10.6388C95.9014 10.0342 70.1425 8.34176 70.1425 8.34176C70.1425 8.34176 71.1097 9.06694 72.319 9.42952C73.5283 9.79313 96.7481 11.2435 96.7481 11.2435Z" fill="#ACADAE"/>
<path d="M99.8323 15.8991C99.8323 15.8991 98.2591 16.2624 97.7758 15.8991C97.2917 15.5366 97.655 13.3602 96.8084 12.2712C95.9619 11.1829 97.5333 10.578 97.5333 10.578C97.5333 10.578 99.5734 11.1571 99.8323 15.8991Z" fill="#D4FFF7"/>
<path d="M97.1111 12.8161C97.6657 12.6526 98.2409 12.9967 98.3599 13.5624L98.4078 13.7918C98.5251 14.3465 98.1528 14.8857 97.5939 14.9739L97.474 14.9927C97.474 14.9927 97.4132 13.4811 97.1111 12.8161Z" fill="#FF9054"/>
<path d="M71.0795 24.6002C71.0816 24.5836 71.2629 22.9368 71.3821 20.5437C71.4879 18.4397 71.5355 11.475 70.8774 10.6852C70.2659 9.95042 67.8604 8.9482 67.7588 8.90571L67.6894 9.07361C67.7142 9.08397 70.155 10.1007 70.7385 10.8013C71.2951 11.4698 71.3334 17.8894 71.2008 20.5343C71.0816 22.9223 70.9012 24.5639 70.8992 24.5805L71.0795 24.6002Z" fill="#1F2326"/>
<path d="M2.11709 11.6673C2.72162 10.337 9.25175 9.24859 14.694 7.91833C20.1362 6.58806 24.6104 1.38777 32.8343 0.903996C39.6083 0.505494 50.3197 0.435521 55.7114 1.16659L55.5094 1.56914C55.5094 1.56914 37.5509 1.26686 32.9555 2.35531C28.3602 3.44361 25.3967 10.0346 25.3967 10.0346C25.3967 10.0346 5.6837 11.365 3.99129 11.9696C2.29744 12.5742 1.83574 14.2919 1.83574 14.2919L1.44907 14.3694C1.61499 13.5976 1.93241 12.0717 2.11709 11.6673Z" fill="#1F2326"/>
<path d="M68.2686 9.24819C68.2686 9.24819 59.8025 3.44409 55.8116 2.59788C51.8219 1.75037 34.6485 2.11378 32.834 2.83929C31.0209 3.56481 27.3189 8.73199 28.0585 9.06714C28.7224 9.37019 68.2686 9.24819 68.2686 9.24819Z" fill="#090B0A"/>
<path d="M48.0836 1.74248L50.407 9.41187L46.4394 9.4306L45.7402 1.89823L48.0836 1.74248Z" fill="#858583"/>
<path d="M35.6755 2.29523L33.0156 9.79224L31.6246 9.61114L34.4669 2.41596L35.6755 2.29523Z" fill="#858583"/>
<path d="M35.7664 9.25696L36.8668 5.49361C37.1022 4.69387 37.8119 4.12579 38.6437 4.07404L45.9042 3.61687L46.4563 9.28284L35.7664 9.25696Z" fill="#89AEA7"/>
<path d="M50.3031 9.30757L48.6633 3.65947C48.6633 3.65947 52.4249 3.44268 55.8105 4.65233C59.1973 5.86198 62.8862 9.42981 62.8862 9.42981L50.3031 9.30757Z" fill="#89AEA7"/>
<path d="M62.7048 7.07182C62.0919 7.41897 61.9794 8.88579 62.3427 9.36902C62.7048 9.85331 64.3988 9.85331 64.6398 9.36902C64.882 8.88579 64.7609 7.7972 64.3988 7.43505C64.0355 7.07183 63.082 6.85861 62.7048 7.07182Z" fill="#383A39"/>
<path d="M49.3711 24.3574C49.3722 24.2994 49.4909 18.5122 49.3711 15.2825C49.2513 12.0458 48.7093 9.66517 48.7035 9.64191L47.2532 2.14633L47.0555 2.16844L48.5256 9.67913C48.5325 9.70588 49.0698 12.0703 49.1896 15.2883C49.3094 18.5145 49.1908 24.2957 49.1896 24.3537L49.3711 24.3574Z" fill="#1F2326"/>
<path d="M77.9266 24.672L77.9558 24.4906L31.9485 24.0769C31.8888 23.5144 31.5025 20.1614 30.6205 17.8459C29.6763 15.3662 31.6295 9.68134 31.6499 9.62415L34.4825 2.54572L34.2741 2.55588L31.4796 9.56061C31.397 9.79953 29.4831 15.3691 30.4515 17.9105C31.4033 20.4098 31.7719 24.1382 31.7757 24.1756L31.7833 24.2568L31.8647 24.2576L77.9266 24.672Z" fill="#1F2326"/>
<path d="M45.7578 2.09135L48.1946 2.11008L48.2415 2.26465L45.7731 2.24708L45.7578 2.09135Z" fill="#1F2326"/>
<path d="M0.0601727 20.1327C0.302791 19.2861 0.907168 17.472 0.907168 17.472C0.907168 17.472 1.18029 15.4482 1.54349 13.7179L3.56724 14.0859C3.56724 14.0859 2.23793 18.4396 1.99531 19.528C1.75269 20.6164 2.23793 21.463 3.56724 21.9466C4.60019 22.322 10.6061 22.7981 13.301 23.0454C13.1456 24.4398 13.1209 25.5747 13.1209 25.5747C13.1209 25.5747 2.72026 24.3654 1.51153 24.0026C0.302797 23.6399 -0.180993 20.9792 0.0601727 20.1327Z" fill="#4C4E49"/>
<path d="M3.8101 13.1188C4.19234 13.5012 2.96341 17.3514 2.54078 17.412C2.11671 17.4724 1.51235 17.3514 1.63351 16.7467C1.75467 16.1422 2.96341 12.2722 3.8101 13.1188Z" fill="#F74140"/>
</svg>
