<svg width="100" height="31" viewBox="0 0 100 31" fill="none" xmlns="http://www.w3.org/2000/svg">
<path d="M100 16.7548V17.8976C100 20.212 100 24.6776 100 24.6776L93.5179 26.0029H76.2509L14.8856 25.734L11.7935 25.7148H10.8524C10.8524 25.7148 3.16976 24.7929 1.56586 24.3607C-0.0667638 23.9094 0.000401052 22.997 0.000401052 22.1904V16.121C0.000401052 15.5256 0.970467 15.4681 1.37387 15.4681H1.53694C1.53694 15.4681 1.53694 14.9591 1.53694 14.2292V9.73491C1.53694 9.58116 1.54664 9.42761 1.56586 9.28357C1.68097 8.23683 2.24764 7.54535 3.48658 7.54535C4.89828 7.54535 11.294 7.54535 11.294 7.54535C11.294 7.54535 19.0632 4.24166 23.3558 2.74357C26.5344 1.62967 29.6269 0.899742 32.4791 0.563711C33.4779 0.438888 34.4572 0.362011 35.3888 0.342791C38.9804 0.246694 44.6657 0.304347 48.1132 0.553993H48.1421C51.5896 0.784627 54.9892 2.05229 59.061 3.91513C63.1521 5.76868 67.7425 8.16946 67.7425 8.16946C67.7425 8.16946 86.4978 10.6376 88.9275 11.0216C91.357 11.4155 94.2381 12.491 96.3987 13.4034C98.5596 14.3061 100 15.4968 100 16.7548Z" fill="#BCBEC0"/>
<path d="M100 17.8976C100 20.212 100 24.6776 100 24.6776L93.5179 26.0029H90.2718V17.8976H100Z" fill="#939598"/>
<path d="M14.8855 19.7689V25.734L10.8523 25.7228C10.8523 25.7228 3.16966 25.1872 1.56576 24.9361C-0.0668586 24.6738 0.000306253 24.1437 0.000306253 23.675V20.1484C0.000306253 19.8026 0.970373 19.7689 1.37378 19.7689H14.8855Z" fill="#939598"/>
<path d="M92.9587 23.3061C92.9587 24.1704 92.8436 25.0059 92.6227 25.803L78.1889 25.7358L74.434 25.7261C74.3667 25.4957 74.3187 25.2555 74.2708 25.0059C74.1652 24.4584 74.117 23.8823 74.117 23.3061C74.117 18.1011 78.3329 13.8852 83.5379 13.8852C88.4357 13.8852 92.4787 17.6306 92.9205 22.4321C92.9492 22.7202 92.9587 23.0083 92.9587 23.3061Z" fill="#939598"/>
<path d="M92.9756 24.6217L92.7549 26.0047H75.8144L29.3151 25.803L28.0282 25.7933L14.8813 25.7358L12.4133 25.7261H11.1264L9.86827 25.7166C9.86827 25.7166 10.3101 25.4283 10.9632 25.0059C11.2992 24.7947 11.6929 24.5449 12.106 24.2857C13.7002 23.2964 15.6207 22.1825 16.0433 22.2402C16.8404 22.3458 22.2663 22.4034 28.3644 22.4227C28.7774 22.4322 29.1903 22.4322 29.6129 22.4322C35.586 22.4609 41.9338 22.4609 45.0742 22.4609C50.8554 22.4609 70.5903 22.4226 75.4015 22.4129C76.0833 22.4129 76.4675 22.4129 76.4675 22.4129C76.4675 22.4129 78.8108 19.4552 82.4696 17.8995C85.8789 16.4493 86.3686 18.6292 91.7176 23.4981C92.1113 23.8631 92.5242 24.2375 92.9756 24.6217Z" fill="#939598"/>
<path d="M91.7175 23.3061V23.4981C91.6983 24.3721 91.535 25.2171 91.2565 26.0047H75.8143C75.5165 25.1595 75.3535 24.2473 75.3535 23.3061C75.3535 23.0083 75.3725 22.7107 75.4014 22.4129C75.8433 18.3124 79.3195 15.124 83.5354 15.124C88.0586 15.124 91.7175 18.7829 91.7175 23.3061Z" fill="#414042"/>
<path d="M91.1079 23.3068C91.1079 27.4875 87.7187 30.8763 83.5381 30.8763C79.3576 30.8763 75.9685 27.4875 75.9685 23.3068C75.9685 19.1262 79.3576 15.7372 83.5381 15.7372C87.7187 15.7372 91.1079 19.1262 91.1079 23.3068Z" fill="#231F20"/>
<path d="M87.6387 23.3068C87.6387 25.5716 85.8027 27.4075 83.5379 27.4075C81.2733 27.4075 79.4373 25.5716 79.4373 23.3068C79.4373 21.0422 81.2733 19.2062 83.5379 19.2062C85.8027 19.2062 87.6387 21.0422 87.6387 23.3068Z" fill="#6D6E71"/>
<path d="M29.6514 23.3061C29.6514 24.1704 29.536 25.0059 29.3151 25.803L14.8813 25.7358L11.1265 25.7261C11.0591 25.4957 11.0111 25.2555 10.9632 25.0059C10.8576 24.4584 10.8095 23.8823 10.8095 23.3061C10.8095 18.1011 15.0253 13.8852 20.2303 13.8852C25.1282 13.8852 29.1711 17.6306 29.6129 22.4321C29.6417 22.7202 29.6514 23.0083 29.6514 23.3061Z" fill="#939598"/>
<path d="M68.0376 25.9658H67.5573V10.0382H68.0376V25.9658Z" fill="#939598"/>
<path d="M5.40719 10.2437C5.14804 11.1561 3.84194 12.7503 3.27527 13.4033C2.92973 13.797 2.0942 14.2291 1.56598 14.2291H1.53706V9.73486C1.53706 9.58111 1.54676 9.42756 1.56598 9.28352H4.44704C4.97506 9.28352 5.55144 9.73486 5.40719 10.2437Z" fill="#821A27"/>
<path d="M97.9207 14.6687C98.885 15.266 99.3704 16.2284 99.0051 16.8184C98.6395 17.4086 97.5615 17.4028 96.5975 16.8056C95.6332 16.2083 95.1475 15.2459 95.5131 14.6559C95.8785 14.0659 96.9564 14.0717 97.9207 14.6687Z" fill="#F7941E"/>
<path d="M22.0681 8.70469L21.9307 8.49451C21.9055 8.45503 21.3061 7.53229 20.8166 6.47171C20.6169 6.03937 20.5868 5.66408 20.7242 5.32371C20.9798 4.69339 21.7108 4.41027 22.7224 4.01926L22.9191 3.94321C25.7126 2.8572 30.4509 1.51246 37.161 1.26943C39.2675 1.19358 41.0245 1.15701 42.5329 1.15701C47.2576 1.15701 50.4173 1.5199 53.4395 2.40999C59.9634 4.33049 66.6796 9.07316 66.7466 9.1209L68.0376 10.0383L22.0681 8.70469Z" fill="#939598"/>
<path d="M44.5076 8.85309V8.87231L40.4357 8.757L35.4035 8.60344L22.3334 8.22877C22.3334 8.22877 21.7283 7.30685 21.2483 6.26983C20.7682 5.2326 21.6517 4.95422 23.0921 4.38756C23.486 4.2338 24.1388 3.98416 25.032 3.71529C25.8386 3.45593 26.8471 3.16785 28.0379 2.89898C28.854 2.7165 29.7664 2.53402 30.7652 2.37075C32.6188 2.06345 34.7602 1.83303 37.1802 1.74664C39.6483 1.66026 41.7515 1.62181 43.6241 1.64103L44.5076 8.85309Z" fill="#537EB3"/>
<path d="M66.4705 9.51562L60.8044 9.35236L56.6749 9.22754L51.6429 9.08349L45.5927 8.91073L45.247 6.06811L44.9492 3.69605L44.7092 1.76583L44.6995 1.66023C48.1665 1.76584 50.769 2.1308 53.3043 2.87003C59.8248 4.79074 66.4705 9.51562 66.4705 9.51562Z" fill="#537EB3"/>
<path d="M45.5928 8.91071L44.5076 8.87227L43.6241 1.64099C43.9891 1.64099 44.354 1.6505 44.6996 1.66021L45.5928 8.91071Z" fill="#537EB3"/>
<path d="M45.321 25.8615H44.841V9.01222H45.321V25.8615Z" fill="#939598"/>
<path d="M28.6353 19.0518H28.05L22.068 8.70472L22.573 8.63631L28.6353 19.0518Z" fill="#939598"/>
<path d="M45.6025 9.01636H44.5269L44.5076 8.87232L43.6242 1.64104L43.5665 1.16076H44.6422L44.6996 1.66026L45.5928 8.91076L45.6025 9.01636Z" fill="#939598"/>
<path d="M66.4705 9.51562L60.8044 9.35236L44.7092 1.76583L44.6995 1.66023C48.1665 1.76584 50.769 2.1308 53.3043 2.87003C59.8248 4.79074 66.4705 9.51562 66.4705 9.51562Z" fill="#456894"/>
<path d="M56.675 9.22754L51.6431 9.08349L45.2471 6.06811L44.9493 3.69604L56.675 9.22754Z" fill="#456894"/>
<path d="M44.5076 8.85309L30.7652 2.37075C32.6188 2.06345 34.7602 1.83302 37.1802 1.74664C39.6483 1.66026 41.7515 1.62181 43.6241 1.64103L44.5076 8.85309Z" fill="#456894"/>
<path d="M40.4358 8.75696L35.4036 8.60341L25.0321 3.71525C25.8387 3.45589 26.8472 3.16781 28.038 2.89894L40.4358 8.75696Z" fill="#456894"/>
<path d="M28.4124 23.3061C28.4124 24.1704 28.278 25.0154 28.0282 25.7933L14.8812 25.7358L12.4133 25.7261C12.2692 25.265 12.1636 24.785 12.106 24.2857C12.0675 23.9687 12.0483 23.6326 12.0483 23.3061C12.0483 18.7829 15.7072 15.124 20.2302 15.124C24.4558 15.124 27.9226 18.3124 28.3644 22.4226C28.3931 22.7107 28.4124 23.0083 28.4124 23.3061Z" fill="#414042"/>
<path d="M27.8 23.3068C27.8 27.4875 24.411 30.8763 20.2303 30.8763C16.0497 30.8763 12.6607 27.4875 12.6607 23.3068C12.6607 19.1262 16.0497 15.7372 20.2303 15.7372C24.411 15.7372 27.8 19.1262 27.8 23.3068Z" fill="#231F20"/>
<path d="M24.3311 23.3068C24.3311 25.5716 22.4951 27.4075 20.2303 27.4075C17.9657 27.4075 16.1297 25.5716 16.1297 23.3068C16.1297 21.0422 17.9657 19.2062 20.2303 19.2062C22.4951 19.2062 24.3311 21.0422 24.3311 23.3068Z" fill="#6D6E71"/>
<path d="M46.5434 12.3279H50.9448V11.3068H46.5434V12.3279Z" fill="#231F20"/>
<path d="M26.2116 12.3279H30.613V11.3068H26.2116V12.3279Z" fill="#231F20"/>
<path d="M63.3893 9.5061C63.3893 9.77146 63.6042 9.98639 63.8695 9.98639H65.9465C66.2118 9.98639 66.4268 9.77146 66.4268 9.5061V7.94561C66.4268 7.68046 66.2118 7.46554 65.9465 7.46554H63.8695C63.6042 7.46554 63.3893 7.68046 63.3893 7.94561V9.5061Z" fill="#231F20"/>
</svg>
