<svg width="100" height="40" viewBox="0 0 100 40" fill="none" xmlns="http://www.w3.org/2000/svg">
<path d="M58.8026 1.55654L47.1292 1.26508L44.2039 13.3398H69.5466L62.1601 1.26508L58.8026 1.55654Z" fill="#4F6C70"/>
<path d="M96.3127 23.3867L84.6795 29.7141L70.8218 25.5915L76.0207 17.2892L87.0835 16.7337C87.0835 16.7337 95.2768 21.5278 96.3127 23.3867Z" fill="#630400"/>
<path d="M36.2405 23.4882L24.6072 29.8157L10.7495 25.6931L15.9484 17.3908L27.0113 16.8353C27.0113 16.8353 29.469 17.6095 31.6998 19.0819C33.8341 20.4908 35.734 22.5792 36.2405 23.4882Z" fill="#630400"/>
<path d="M74.8491 29.714C74.8491 35.1431 79.2502 39.5444 84.6795 39.5444C90.1087 39.5444 94.51 35.1431 94.51 29.714C94.51 24.2846 90.1087 19.8835 84.6795 19.8835C79.2502 19.8835 74.8491 24.2846 74.8491 29.714Z" fill="#323430"/>
<path d="M79.3031 29.714C79.3031 32.6833 81.7103 35.0903 84.6796 35.0903C87.6489 35.0903 90.0559 32.6833 90.0559 29.714C90.0559 26.7447 87.6489 24.3375 84.6796 24.3375C81.7103 24.3375 79.3031 26.7447 79.3031 29.714Z" fill="#F1F1F1"/>
<path d="M80.0064 29.7141C80.0064 32.295 82.0986 34.3872 84.6794 34.3872C87.2603 34.3872 89.3523 32.295 89.3523 29.7141C89.3523 27.1333 87.2603 25.0411 84.6794 25.0411C82.0986 25.0411 80.0064 27.1333 80.0064 29.7141Z" fill="#B2B2B2"/>
<path d="M83.0178 29.7141C83.0178 30.6317 83.7618 31.3755 84.6794 31.3755C85.597 31.3755 86.3408 30.6317 86.3408 29.7141C86.3408 28.7965 85.597 28.0527 84.6794 28.0527C83.7618 28.0527 83.0178 28.7965 83.0178 29.7141Z" fill="#4D4D4D"/>
<path d="M84.6796 22.8938C88.44 22.8938 91.4995 25.9533 91.4995 29.714C91.4995 33.4747 88.44 36.5339 84.6796 36.5339C80.9189 36.5339 77.8594 33.4747 77.8594 29.714C77.8594 25.9533 80.9189 22.8938 84.6796 22.8938ZM84.6796 38.3728C89.454 38.3728 93.3384 34.4884 93.3384 29.714C93.3384 24.9394 89.454 21.0552 84.6796 21.0552C79.905 21.0552 76.0208 24.9394 76.0208 29.714C76.0208 34.4884 79.905 38.3728 84.6796 38.3728Z" fill="#4A4D47"/>
<path d="M85.929 27.5618L86.7512 26.1494C86.1285 25.7866 85.4164 25.5937 84.6923 25.5915L84.6871 27.2259C85.1245 27.2273 85.554 27.3433 85.929 27.5618ZM82.5285 28.4622C82.7485 28.0853 83.0647 27.7712 83.4431 27.5541L82.6295 26.1365C82.0038 26.4957 81.4808 27.0149 81.1168 27.6384L82.5285 28.4622ZM88.802 29.7209V29.7141C88.802 28.9927 88.6125 28.2827 88.2547 27.6606L86.838 28.4755C87.0536 28.8504 87.1676 29.2785 87.1676 29.7141L88.802 29.7209ZM81.1082 31.775L82.5233 30.9571C82.3059 30.5812 82.1912 30.1515 82.1912 29.7141V29.7H80.5568V29.7057C80.5568 30.4384 80.7474 31.1509 81.1082 31.775ZM86.7365 33.2873C87.3615 32.9268 87.8837 32.4064 88.2461 31.7825L86.8328 30.9614C86.6137 31.3388 86.298 31.6533 85.92 31.8716L86.7365 33.2873ZM84.6751 33.8367L84.6767 32.2022C84.2393 32.2018 83.8098 32.0866 83.4343 31.8689L82.6146 33.283C83.2385 33.6445 83.951 33.836 84.6751 33.8367Z" fill="black"/>
<path d="M14.5818 29.714C14.5818 35.1431 18.9829 39.5444 24.4122 39.5444C29.8413 39.5444 34.2427 35.1431 34.2427 29.714C34.2427 24.2846 29.8413 19.8835 24.4122 19.8835C18.9829 19.8835 14.5818 24.2846 14.5818 29.714Z" fill="#323430"/>
<path d="M19.036 29.714C19.036 32.6833 21.443 35.0903 24.4123 35.0903C27.3815 35.0903 29.7886 32.6833 29.7886 29.714C29.7886 26.7447 27.3815 24.3375 24.4123 24.3375C21.443 24.3375 19.036 26.7447 19.036 29.714Z" fill="#F1F1F1"/>
<path d="M19.739 29.7141C19.739 32.295 21.8313 34.3872 24.4121 34.3872C26.993 34.3872 29.0852 32.295 29.0852 29.7141C29.0852 27.1333 26.993 25.0411 24.4121 25.0411C21.8313 25.0411 19.739 27.1333 19.739 29.7141Z" fill="#B2B2B2"/>
<path d="M22.7507 29.7141C22.7507 30.6317 23.4944 31.3755 24.4121 31.3755C25.3297 31.3755 26.0735 30.6317 26.0735 29.7141C26.0735 28.7965 25.3297 28.0527 24.4121 28.0527C23.4944 28.0527 22.7507 28.7965 22.7507 29.7141Z" fill="#4D4D4D"/>
<path d="M24.4122 22.8938C28.1727 22.8938 31.2322 25.9533 31.2322 29.714C31.2322 33.4747 28.1727 36.5339 24.4122 36.5339C20.6516 36.5339 17.5921 33.4747 17.5921 29.714C17.5921 25.9533 20.6516 22.8938 24.4122 22.8938ZM24.4122 38.3728C29.1866 38.3728 33.071 34.4884 33.071 29.714C33.071 24.9394 29.1866 21.0552 24.4122 21.0552C19.6379 21.0552 15.7535 24.9394 15.7535 29.714C15.7535 34.4884 19.6379 38.3728 24.4122 38.3728Z" fill="#4D4D4D"/>
<path d="M25.6617 27.5618L26.4841 26.1494C25.8611 25.7866 25.1491 25.5937 24.425 25.5915L24.4198 27.2259C24.8572 27.2273 25.2866 27.3433 25.6617 27.5618ZM22.2611 28.4622C22.4812 28.0853 22.7973 27.7712 23.1758 27.5541L22.3622 26.1365C21.7365 26.4957 21.2134 27.0149 20.8495 27.6384L22.2611 28.4622ZM28.5347 29.7209V29.7141C28.5347 28.9927 28.3454 28.2827 27.9874 27.6606L26.5707 28.4755C26.7862 28.8504 26.9002 29.2785 26.9002 29.7141L28.5347 29.7209ZM20.8411 31.775L22.2559 30.9571C22.0388 30.5812 21.9239 30.1515 21.9239 29.7141V29.7H20.2895V29.7057C20.2895 30.4384 20.4801 31.1509 20.8411 31.775ZM26.4694 33.2873C27.0944 32.9268 27.6164 32.4064 27.979 31.7825L26.5655 30.9614C26.3464 31.3388 26.0306 31.6533 25.6529 31.8716L26.4694 33.2873ZM24.4078 33.8367L24.4093 32.2022C23.9722 32.2018 23.5425 32.0866 23.167 31.8689L22.3475 33.283C22.9712 33.6445 23.6837 33.836 24.4078 33.8367Z" fill="black"/>
<path d="M87.0836 18.8534C87.0836 17.9895 88.1347 17.2893 89.4317 17.2893H94.3233C95.62 17.2893 96.6714 17.9895 96.6714 18.8534V19.4622C96.6714 21.316 92.1486 20.8598 90.8518 20.8598C90.8518 20.8598 87.7565 19.0178 87.1858 18.7895L87.0836 18.8534Z" fill="#730500"/>
<path d="M94.2582 21.2831C94.2582 20.2572 94.7087 19.4255 95.2646 19.4255H97.361C97.9167 19.4255 98.3672 20.2572 98.3672 21.2831V22.0058C98.3672 23.0318 97.9167 23.8635 97.361 23.8635H95.2646C94.7087 23.8635 94.2582 23.0318 94.2582 22.0058V21.2831Z" fill="black"/>
<path d="M90.7831 20.8192C90.7831 20.8192 93.7068 20.7719 94.1981 20.7565L98.9297 20.6089C99.4208 20.5935 99.8457 21.4336 99.8786 22.4854L99.998 26.3141C100.031 27.3659 99.6592 28.2309 99.1679 28.2461L96.3384 28.3345C95.9345 26.1718 94.4948 22.9718 90.7831 20.8192Z" fill="black"/>
<path d="M49.3636 15.6709C49.3636 15.91 49.5571 16.1035 49.7962 16.1035H53.6174C53.8563 16.1035 54.0498 15.91 54.0498 15.6709V15.2024C54.0498 14.9634 53.8563 14.7698 53.6174 14.7698H49.7962C49.5571 14.7698 49.3636 14.9634 49.3636 15.2024V15.6709Z" fill="#808080"/>
<path d="M49.4475 15.1421C49.4475 15.3479 49.6143 15.5146 49.8201 15.5146H53.5932C53.7988 15.5146 53.9656 15.3479 53.9656 15.1421C53.9656 14.9365 53.7988 14.7697 53.5932 14.7697H49.8201C49.6143 14.7697 49.4475 14.9365 49.4475 15.1421Z" fill="#989898"/>
<path d="M22.2647 15.749C22.2647 15.9879 22.4585 16.1816 22.6974 16.1816H26.5185C26.7574 16.1816 26.9512 15.9879 26.9512 15.749V15.2803C26.9512 15.0415 26.7574 14.8477 26.5185 14.8477H22.6974C22.4585 14.8477 22.2647 15.0415 22.2647 15.2803V15.749Z" fill="#808080"/>
<path d="M22.3486 15.2202C22.3486 15.426 22.5155 15.5928 22.7212 15.5928H26.4944C26.7001 15.5928 26.8669 15.426 26.8669 15.2202C26.8669 15.0144 26.7001 14.8476 26.4944 14.8476H22.7212C22.5155 14.8476 22.3486 15.0144 22.3486 15.2202Z" fill="#989898"/>
<path d="M46.7538 13.4991L66.6857 13.5542C67.4606 13.5542 68.089 12.7682 68.089 11.7992L63.5188 3.78673C63.1778 3.02028 62.3803 1.77063 61.6052 1.77063H48.0351C47.2601 1.77063 46.6316 2.55658 46.6316 3.52565L45.3505 11.7441C45.3505 12.7134 45.9787 13.4991 46.7538 13.4991ZM0.163036 12.5921L7.79431 2.8734C8.74025 1.6342 9.16111 0.65676 10.2729 0.65676H62.6973C63.8092 0.65676 65.1005 1.76067 65.6843 3.00486L71.6326 12.1364H89.1054C91.173 12.1364 94.2581 13.493 94.2581 15.1662V18.8838C94.1119 18.8253 93.9562 18.7895 93.8127 18.7895H79.9147C79.5723 18.7895 79.1558 18.986 78.9774 19.2385L72.9334 27.7905H53.9096H35.9026L31.9166 19.7513C31.7512 19.4177 31.3653 19.158 31.048 19.158H18.1675C17.8503 19.158 17.4643 19.4177 17.2989 19.7513L13.3129 27.7905H2.01302C0.901185 27.7905 0.000102684 26.7392 0.000102684 25.4424L0.163036 12.5921Z" fill="#DE3C3C"/>
<path d="M18.2469 3.5257C18.505 2.61035 19.0328 1.77068 20.0021 1.77068L31.9944 1.55654V1.58644L43.3734 1.6116C44.3427 1.6116 45.1284 2.39709 45.1284 3.36638L43.5262 11.5848C43.5262 12.5541 42.7404 13.3398 41.7712 13.3398L29.8262 13.1758V13.1459L18.447 13.1207C17.4777 13.1207 16.692 12.335 16.692 11.3657L18.2469 3.5257Z" fill="#4F6C70"/>
<path d="M10.371 2.54715C10.9997 1.65038 11.3584 1.21004 12.3277 1.21004L15.2057 1.23248C16.175 1.23248 16.9607 2.01819 16.9607 2.98748L15.3584 11.0953C15.3584 12.0646 14.5727 12.8506 13.6034 12.8506H7.05477C6.08548 12.8506 5.29975 12.0646 5.29975 11.0953L10.371 2.54715Z" fill="#4F6C70"/>
<mask id="mask0_1_273" style="mask-type:luminance" maskUnits="userSpaceOnUse" x="0" y="0" width="95" height="28">
<path d="M31.9166 19.7513C31.7512 19.4177 31.3653 19.158 31.048 19.158H18.1675C17.8503 19.158 17.4643 19.4177 17.2989 19.7513L13.3129 27.7905H2.01302C0.901185 27.7905 -0.000118632 26.7392 -0.000118632 25.4424L0.163036 12.5921L7.79431 2.8734C8.74025 1.6342 9.16111 0.65676 10.2729 0.65676H62.6973C63.8092 0.65676 65.1005 1.76067 65.6843 3.00486L71.6326 12.1364H89.1054C91.173 12.1364 94.2581 13.493 94.2581 15.1662V18.8838C94.1119 18.8253 93.9562 18.7895 93.8127 18.7895H79.9147C79.5723 18.7895 79.1558 18.986 78.9774 19.2385L72.9334 27.7905H53.9096H35.9026L31.9166 19.7513Z" fill="white"/>
</mask>
<g mask="url(#mask0_1_273)">
<path d="M-6.70398 15.1194H96.3186V12.8277H-6.70398V15.1194Z" fill="#FF7F7A"/>
<path d="M35.4672 27.0081L70.8625 26.5802L71.292 14.9136L71.2761 14.888L62.3404 0.604712L62.1745 0.708731L71.0944 14.9664L70.6738 26.3866L35.465 26.8125L35.4672 27.0081Z" fill="#B50700"/>
<path d="M14.6004 30.427L19.0477 21.506H30.1659L33.8155 28.8662L34.5779 30.345L38.752 28.1934L37.9984 26.7311L34.0206 18.7083C33.4575 17.5726 32.2629 16.8098 31.0482 16.8098H18.1675C16.9528 16.8098 15.7585 17.5726 15.1955 18.7078L10.3976 28.3314L14.6004 30.427Z" fill="#A80700"/>
<path d="M73.3188 31.3201L80.555 21.2353H93.5512L96.7041 22.497V18.6917H94.3352L95.1669 16.613C94.7202 16.4342 94.2644 16.3435 93.8128 16.3435H79.9148C78.7687 16.3435 77.6168 16.9258 76.9799 17.8268L69.3442 28.4679L73.3188 31.3201Z" fill="#A80700"/>
<path d="M94.2582 15.5933C94.2582 15.5933 93.0843 13.8321 89.3012 13.7016C85.5181 13.5713 69.3422 15.0713 71.3642 10.9623C73.3862 6.8531 88.714 7.30953 91.8775 9.26647C95.041 11.2232 94.2582 15.5933 94.2582 15.5933Z" fill="#FF7F7A"/>
<path d="M72.2368 11.6787C72.0412 11.9069 71.6499 12.5591 70.6389 11.9069C69.6279 11.2549 66.432 5.25397 65.5839 4.01476C64.7361 2.77533 62.8118 1.22224 66.0732 1.77046C69.3344 2.3189 72.2368 11.6787 72.2368 11.6787Z" fill="#13071F"/>
<path d="M2.84326 19.3153V22.4229H-2.84308V19.3153H2.84326Z" fill="#F06C00"/>
<path d="M2.74534 22.2945H-2.74518V19.4432H2.74534V22.2945ZM-2.94078 22.5508H2.94092V19.1869H-2.94078V22.5508Z" fill="#E5E5E5"/>
<path d="M2.84326 22.9711C2.84326 24.0213 2.19305 24.8726 1.39147 24.8726H-1.3913C-2.19289 24.8726 -2.84308 24.0213 -2.84308 22.9711V22.4227H2.84326V22.9711Z" fill="#F06C00"/>
<path d="M2.74534 22.5509V22.9713C2.74534 23.9492 2.13797 24.7447 1.39146 24.7447H-1.39132C-2.13783 24.7447 -2.74518 23.9492 -2.74518 22.9713V22.5509H2.74534ZM-1.39132 25.001H1.39146C2.24585 25.001 2.94092 24.0904 2.94092 22.9713V22.2946H-2.94078V22.9713C-2.94078 24.0904 -2.2457 25.001 -1.39132 25.001Z" fill="#E5E5E5"/>
<path d="M-2.84308 18.5678C-2.84308 17.5176 -2.19289 16.6661 -1.3913 16.6661H1.39147C2.19305 16.6661 2.84326 17.5176 2.84326 18.5678V19.3152H-2.84308V18.5678Z" fill="#F06C00"/>
<path d="M2.74534 19.187H-2.74518V18.5679C-2.74518 17.59 -2.13783 16.7945 -1.39132 16.7945H1.39146C2.13797 16.7945 2.74534 17.59 2.74534 18.5679V19.187ZM-2.94078 19.4434H2.94092V18.5679C2.94092 17.4488 2.24585 16.5382 1.39146 16.5382H-1.39132C-2.2457 16.5382 -2.94078 17.4488 -2.94078 18.5679V19.4434Z" fill="#E5E5E5"/>
</g>
<path d="M42.9997 26.8181H43.1955V15.2446L44.466 12.8442L46.5696 0.673357L46.3765 0.640027L44.2757 12.7955L42.9997 15.1957V26.8181Z" fill="#B50700"/>
<path d="M45.1283 16.4694C45.1283 16.6713 45.2921 16.8352 45.4943 16.8352H49.4301C49.6323 16.8352 49.7961 16.6713 49.7961 16.4694C49.7961 16.2673 49.6323 16.1034 49.4301 16.1034H45.4943C45.2921 16.1034 45.1283 16.2673 45.1283 16.4694Z" fill="#A10700"/>
<path d="M45.4424 16.2864C45.4424 16.3874 45.5245 16.4695 45.6255 16.4695H49.2473C49.3484 16.4695 49.4302 16.3874 49.4302 16.2864C49.4302 16.1853 49.3484 16.1035 49.2473 16.1035H45.6255C45.5245 16.1035 45.4424 16.1853 45.4424 16.2864Z" fill="#FFA77A"/>
</svg>
