<svg width="100" height="37" viewBox="0 0 100 37" fill="none" xmlns="http://www.w3.org/2000/svg">
<path d="M70.9253 14.5811C70.9253 14.5811 64.0782 8.78065 57.3928 3.50009C53.7337 0.609986 45.8039 0.679472 40.8693 1.26478C24.2734 3.2335 18.4285 13.9044 11.0053 14.2974C3.58185 14.6904 28.7573 18.6452 36.8655 17.6454C44.9737 16.6456 70.9253 14.5811 70.9253 14.5811Z" fill="#FFB145"/>
<path d="M73.8001 28.9706C73.8001 33.37 77.3667 36.9366 81.7661 36.9366C86.1656 36.9366 89.7322 33.37 89.7322 28.9706C89.7322 24.5709 86.1656 21.0045 81.7661 21.0045C77.3667 21.0045 73.8001 24.5709 73.8001 28.9706Z" fill="#323430"/>
<path d="M75.8323 28.9706C75.8323 32.2477 78.4891 34.9043 81.7662 34.9043C85.0433 34.9043 87.7 32.2477 87.7 28.9706C87.7 25.6935 85.0433 23.0367 81.7662 23.0367C78.4891 23.0367 75.8323 25.6935 75.8323 28.9706Z" fill="#E5E5E5"/>
<path d="M76.8644 28.9707C76.8644 31.6779 79.059 33.8724 81.7662 33.8724C84.4733 33.8724 86.668 31.6779 86.668 28.9707C86.668 26.2634 84.4733 24.0689 81.7662 24.0689C79.059 24.0689 76.8644 26.2634 76.8644 28.9707Z" fill="black"/>
<path d="M76.9744 28.325C77.0463 28.348 77.1515 28.3813 77.2857 28.415C77.5537 28.4823 77.9366 28.5567 78.3962 28.5986C78.6259 28.6201 78.8749 28.6341 79.1382 28.6406C79.4014 28.6488 79.679 28.6575 79.9663 28.6664C80.2534 28.6732 80.5503 28.6804 80.8518 28.6877C80.9314 28.6889 81.0117 28.6901 81.0918 28.6913C81.0345 28.6358 80.9763 28.5793 80.9195 28.5243C80.7012 28.3161 80.4863 28.1113 80.2783 27.913C80.0689 27.7163 79.8665 27.526 79.6745 27.3457C79.4838 27.1641 79.2977 26.9981 79.1203 26.8507C78.7656 26.5554 78.4423 26.3373 78.2051 26.1952C78.0864 26.1245 77.9885 26.0736 77.9214 26.0388C77.8536 26.005 77.8157 25.9886 77.8157 25.9886L78.0623 25.7423L78.3 25.5044L78.7842 25.0202C78.7842 25.0202 78.8006 25.0581 78.8344 25.1259C78.8691 25.1929 78.92 25.2909 78.9907 25.4096C79.1327 25.6468 79.351 25.9701 79.6461 26.3247C79.7936 26.5023 79.9597 26.6883 80.1413 26.8789C80.3216 27.071 80.5118 27.2734 80.7086 27.4828C80.9067 27.6908 81.1116 27.9057 81.3198 28.1241C81.375 28.1808 81.4313 28.2392 81.4868 28.2963C81.4856 28.2162 81.4844 28.1359 81.4831 28.0563C81.4759 27.7547 81.4688 27.4579 81.4619 27.1708C81.453 26.8835 81.4443 26.6058 81.4361 26.3426C81.4296 26.0794 81.4156 25.8304 81.3943 25.6007C81.3522 25.1411 81.278 24.7582 81.2106 24.4901C81.1767 24.356 81.1435 24.2508 81.1206 24.1789C81.0966 24.107 81.0814 24.0689 81.0814 24.0689H81.4298H82.1026H82.4509C82.4509 24.0689 82.4358 24.107 82.4117 24.1789C82.3888 24.2508 82.3557 24.356 82.3217 24.4901C82.2543 24.7582 82.1801 25.1411 82.1381 25.6007C82.1168 25.8304 82.1027 26.0794 82.0962 26.3426C82.088 26.6058 82.0793 26.8835 82.0703 27.1708C82.0635 27.4579 82.0564 27.7547 82.0492 28.0563C82.0479 28.1359 82.0467 28.2162 82.0455 28.2963C82.101 28.2392 82.1575 28.1808 82.2125 28.1241C82.4207 27.9057 82.6256 27.6908 82.8238 27.4828C83.0206 27.2734 83.2107 27.071 83.391 26.8789C83.5727 26.6883 83.7387 26.5023 83.8862 26.3247C84.1814 25.9701 84.3996 25.6468 84.5416 25.4096C84.6123 25.2909 84.6633 25.1929 84.6979 25.1259C84.7317 25.0581 84.748 25.0202 84.748 25.0202L85.2323 25.5044L85.4701 25.7423L85.7165 25.9886C85.7165 25.9886 85.6787 26.005 85.6109 26.0388C85.5439 26.0736 85.446 26.1245 85.3273 26.1952C85.0901 26.3373 84.7667 26.5554 84.4121 26.8507C84.2345 26.9981 84.0486 27.1641 83.8579 27.3457C83.6658 27.526 83.4634 27.7163 83.254 27.913C83.046 28.1113 82.8311 28.3161 82.6128 28.5243C82.556 28.5793 82.4978 28.6358 82.4405 28.6913C82.5206 28.6901 82.601 28.6889 82.6804 28.6877C82.982 28.6804 83.2789 28.6732 83.566 28.6664C83.8533 28.6575 84.1309 28.6488 84.3941 28.6406C84.6575 28.6341 84.9064 28.6201 85.1361 28.5986C85.5957 28.5567 85.9787 28.4823 86.2467 28.415C86.3807 28.3813 86.4861 28.348 86.5579 28.325C86.6297 28.3009 86.668 28.2857 86.668 28.2857V28.6343V29.307V29.6554C86.668 29.6554 86.6297 29.6402 86.5579 29.6163C86.4861 29.5934 86.3807 29.5601 86.2467 29.5263C85.9787 29.4587 85.5957 29.3844 85.1361 29.3425C84.9064 29.3212 84.6575 29.3072 84.3941 29.3007C84.1309 29.2925 83.8533 29.2838 83.566 29.2749C83.2789 29.2679 82.982 29.2609 82.6804 29.2537C82.601 29.2525 82.5206 29.2513 82.4405 29.2501C82.4978 29.3055 82.556 29.362 82.6128 29.417C82.8311 29.6252 83.046 29.8301 83.254 30.0281C83.4634 30.225 83.6658 30.4151 83.8579 30.5956C84.0486 30.7773 84.2345 30.9432 84.4121 31.0907C84.7667 31.386 85.0901 31.6041 85.3273 31.7459C85.446 31.8169 85.5439 31.8678 85.6109 31.9025C85.6787 31.9363 85.7165 31.9525 85.7165 31.9525L85.4701 32.1988L85.2323 32.4367L84.748 32.9209C84.748 32.9209 84.7317 32.8833 84.6979 32.8155C84.6633 32.7484 84.6123 32.6504 84.5416 32.5317C84.3996 32.2946 84.1814 31.9713 83.8862 31.6166C83.7387 31.439 83.5727 31.253 83.391 31.0624C83.2107 30.8704 83.0206 30.668 82.8238 30.4585C82.6256 30.2506 82.4207 30.0356 82.2125 29.8173C82.1575 29.7603 82.101 29.7022 82.0455 29.645C82.0467 29.7251 82.0479 29.8054 82.0492 29.8851C82.0564 30.1866 82.0635 30.4834 82.0703 30.7705C82.0793 31.0578 82.088 31.3353 82.0962 31.5988C82.1027 31.862 82.1168 32.111 82.1381 32.3406C82.1801 32.8003 82.2543 33.1831 82.3217 33.4512C82.3557 33.5853 82.3888 33.6905 82.4117 33.7624C82.4358 33.8341 82.4509 33.8724 82.4509 33.8724H82.1026H81.4298H81.0814C81.0814 33.8724 81.0966 33.8341 81.1206 33.7624C81.1435 33.6905 81.1767 33.5853 81.2106 33.4512C81.278 33.1831 81.3522 32.8003 81.3943 32.3406C81.4156 32.111 81.4296 31.862 81.4361 31.5988C81.4443 31.3353 81.453 31.0578 81.4619 30.7705C81.4688 30.4834 81.4759 30.1866 81.4831 29.8851C81.4844 29.8054 81.4856 29.7251 81.4868 29.645C81.4313 29.7022 81.375 29.7603 81.3198 29.8173C81.1116 30.0356 80.9067 30.2506 80.7086 30.4585C80.5118 30.668 80.3216 30.8704 80.1413 31.0624C79.9597 31.253 79.7936 31.439 79.6461 31.6166C79.351 31.9713 79.1327 32.2946 78.9907 32.5317C78.92 32.6504 78.8691 32.7484 78.8344 32.8155C78.8006 32.8833 78.7842 32.9209 78.7842 32.9209L78.3 32.4367L78.0623 32.1988L77.8157 31.9525C77.8157 31.9525 77.8536 31.9363 77.9214 31.9025C77.9885 31.8678 78.0864 31.8169 78.2051 31.7459C78.4423 31.6041 78.7656 31.386 79.1203 31.0907C79.2977 30.9432 79.4838 30.7773 79.6745 30.5956C79.8665 30.4151 80.0689 30.225 80.2783 30.0281C80.4863 29.8301 80.7012 29.6252 80.9195 29.417C80.9763 29.362 81.0345 29.3055 81.0918 29.2501C81.0117 29.2513 80.9314 29.2525 80.8518 29.2537C80.5503 29.2609 80.2534 29.2679 79.9663 29.2749C79.679 29.2838 79.4014 29.2925 79.1382 29.3007C78.8749 29.3072 78.6259 29.3212 78.3962 29.3425C77.9366 29.3844 77.5537 29.4587 77.2857 29.5263C77.1515 29.5601 77.0463 29.5934 76.9744 29.6163C76.9025 29.6402 76.8644 29.6554 76.8644 29.6554V29.307V28.6343V28.2857C76.8644 28.2857 76.9025 28.3009 76.9744 28.325Z" fill="#CBCBCB"/>
<path d="M12.7815 28.9564C12.7815 33.3559 16.3478 36.9225 20.7475 36.9225C25.147 36.9225 28.7136 33.3559 28.7136 28.9564C28.7136 24.5567 25.147 20.9903 20.7475 20.9903C16.3478 20.9903 12.7815 24.5567 12.7815 28.9564Z" fill="#323430"/>
<path d="M14.8136 28.9564C14.8136 32.2335 17.4702 34.89 20.7475 34.89C24.0246 34.89 26.6812 32.2335 26.6812 28.9564C26.6812 25.679 24.0246 23.0225 20.7475 23.0225C17.4702 23.0225 14.8136 25.679 14.8136 28.9564Z" fill="#E5E5E5"/>
<path d="M15.8456 28.9564C15.8456 31.6634 18.0404 33.8582 20.7476 33.8582C23.4546 33.8582 25.6494 31.6634 25.6494 28.9564C25.6494 26.2492 23.4546 24.0544 20.7476 24.0544C18.0404 24.0544 15.8456 26.2492 15.8456 28.9564Z" fill="black"/>
<path d="M15.9559 28.3108C16.0275 28.3337 16.133 28.3667 16.2669 28.4007C16.5349 28.4681 16.918 28.5424 17.3774 28.5844C17.6073 28.6056 17.8561 28.6198 18.1195 28.6261C18.3828 28.6345 18.6605 28.643 18.9476 28.6521C19.2349 28.6589 19.5317 28.6661 19.8332 28.6731C19.9126 28.6746 19.9932 28.6758 20.0731 28.677C20.0159 28.6215 19.9577 28.565 19.9008 28.5098C19.6825 28.3018 19.4677 28.097 19.2598 27.8987C19.0503 27.7018 18.8479 27.5117 18.6559 27.3315C18.465 27.1498 18.279 26.9838 18.1017 26.8364C17.747 26.5411 17.4235 26.3227 17.1863 26.1809C17.0676 26.1102 16.9697 26.059 16.9029 26.0245C16.8351 25.9908 16.7972 25.9744 16.7972 25.9744L17.0435 25.728L17.2814 25.4901L17.7656 25.0059C17.7656 25.0059 17.782 25.0438 17.8158 25.1116C17.8503 25.1784 17.9014 25.2764 17.9721 25.3951C18.114 25.6325 18.3323 25.9558 18.6274 26.3104C18.7751 26.488 18.9411 26.6738 19.1227 26.8646C19.303 27.0567 19.4931 27.2591 19.6899 27.4685C19.888 27.6765 20.0931 27.8912 20.3011 28.1095C20.3563 28.1665 20.4128 28.2246 20.4683 28.282C20.4671 28.2019 20.4658 28.1214 20.4644 28.042C20.4574 27.7404 20.4502 27.4437 20.4434 27.1563C20.4345 26.8692 20.4256 26.5915 20.4173 26.3283C20.4111 26.0651 20.3968 25.8161 20.3756 25.5864C20.3336 25.1268 20.2593 24.7437 20.192 24.4756C20.158 24.3417 20.1249 24.2363 20.102 24.1646C20.0779 24.0927 20.0627 24.0544 20.0627 24.0544H20.4111H21.084H21.4324C21.4324 24.0544 21.4171 24.0927 21.393 24.1646C21.3701 24.2363 21.337 24.3417 21.303 24.4756C21.2357 24.7437 21.1614 25.1268 21.1194 25.5864C21.0982 25.8161 21.084 26.0651 21.0777 26.3283C21.0692 26.5915 21.0608 26.8692 21.0516 27.1563C21.0449 27.4437 21.0379 27.7404 21.0306 28.042C21.0294 28.1214 21.028 28.2019 21.0268 28.282C21.0823 28.2246 21.1387 28.1665 21.194 28.1095C21.4019 27.8912 21.6068 27.6765 21.8051 27.4685C22.002 27.2591 22.1921 27.0567 22.3723 26.8646C22.554 26.6738 22.72 26.488 22.8674 26.3104C23.1627 25.9558 23.381 25.6325 23.5229 25.3951C23.5938 25.2764 23.6447 25.1784 23.6792 25.1116C23.713 25.0438 23.7294 25.0059 23.7294 25.0059L24.2136 25.4901L24.4515 25.728L24.6979 25.9744C24.6979 25.9744 24.66 25.9908 24.5922 26.0245C24.5254 26.059 24.4274 26.1102 24.3087 26.1809C24.0715 26.3227 23.748 26.5411 23.3933 26.8364C23.2158 26.9838 23.03 27.1498 22.8392 27.3315C22.6471 27.5117 22.4447 27.7018 22.2353 27.8987C22.0273 28.097 21.8126 28.3018 21.5942 28.5098C21.5373 28.565 21.4792 28.6215 21.4217 28.677C21.5018 28.6758 21.5824 28.6746 21.6618 28.6731C21.9634 28.6661 22.2601 28.6589 22.5475 28.6521C22.8346 28.643 23.1123 28.6345 23.3755 28.6261C23.639 28.6198 23.8877 28.6056 24.1176 28.5844C24.577 28.5424 24.9601 28.4681 25.2282 28.4007C25.3621 28.3667 25.4675 28.3337 25.5392 28.3108C25.6111 28.2866 25.6494 28.2714 25.6494 28.2714V28.6198V29.2927V29.6411C25.6494 29.6411 25.6111 29.6259 25.5392 29.6018C25.4675 29.5788 25.3621 29.5458 25.2282 29.5118C24.9601 29.4445 24.577 29.3702 24.1176 29.3282C23.8877 29.3069 23.639 29.2927 23.3755 29.2864C23.1123 29.2782 22.8346 29.2695 22.5475 29.2604C22.2601 29.2536 21.9634 29.2466 21.6618 29.2394C21.5824 29.2382 21.5018 29.2367 21.4217 29.2355C21.4792 29.291 21.5373 29.3475 21.5942 29.4027C21.8126 29.6109 22.0273 29.8155 22.2353 30.0138C22.4447 30.2107 22.6471 30.4008 22.8392 30.5813C23.03 30.7627 23.2158 30.9287 23.3933 31.0764C23.748 31.3714 24.0715 31.5898 24.3087 31.7316C24.4274 31.8026 24.5254 31.8535 24.5922 31.888C24.66 31.9218 24.6979 31.9382 24.6979 31.9382L24.4515 32.1845L24.2136 32.4224L23.7294 32.9066C23.7294 32.9066 23.713 32.8687 23.6792 32.8009C23.6447 32.7341 23.5938 32.6361 23.5229 32.5174C23.381 32.28 23.1627 31.9567 22.8674 31.6021C22.72 31.4248 22.554 31.2387 22.3723 31.0479C22.1921 30.8559 22.002 30.6534 21.8051 30.444C21.6068 30.2361 21.4019 30.0213 21.194 29.803C21.1387 29.746 21.0823 29.6879 21.0268 29.6307C21.028 29.7106 21.0294 29.7912 21.0306 29.8705C21.0379 30.1721 21.0449 30.4689 21.0516 30.7562C21.0608 31.0433 21.0692 31.321 21.0777 31.5842C21.084 31.8475 21.0982 32.0964 21.1194 32.3264C21.1614 32.7857 21.2357 33.1689 21.303 33.4369C21.337 33.5708 21.3701 33.6762 21.393 33.7479C21.4171 33.8198 21.4324 33.8582 21.4324 33.8582H21.084H20.4111H20.0627C20.0627 33.8582 20.0779 33.8198 20.102 33.7479C20.1249 33.6762 20.158 33.5708 20.192 33.4369C20.2593 33.1689 20.3336 32.7857 20.3756 32.3264C20.3968 32.0964 20.4111 31.8475 20.4173 31.5842C20.4256 31.321 20.4345 31.0433 20.4434 30.7562C20.4502 30.4689 20.4574 30.1721 20.4644 29.8705C20.4658 29.7912 20.4671 29.7106 20.4683 29.6307C20.4128 29.6879 20.3563 29.746 20.3011 29.803C20.0931 30.0213 19.888 30.2361 19.6899 30.444C19.4931 30.6534 19.303 30.8559 19.1227 31.0479C18.9411 31.2387 18.7751 31.4248 18.6274 31.6021C18.3323 31.9567 18.114 32.28 17.9721 32.5174C17.9014 32.6361 17.8503 32.7341 17.8158 32.8009C17.782 32.8687 17.7656 32.9066 17.7656 32.9066L17.2814 32.4224L17.0435 32.1845L16.7972 31.9382C16.7972 31.9382 16.8351 31.9218 16.9029 31.888C16.9697 31.8535 17.0676 31.8026 17.1863 31.7316C17.4235 31.5898 17.747 31.3714 18.1017 31.0764C18.279 30.9287 18.465 30.7627 18.6559 30.5813C18.8479 30.4008 19.0503 30.2107 19.2598 30.0138C19.4677 29.8155 19.6825 29.6109 19.9008 29.4027C19.9577 29.3475 20.0159 29.291 20.0731 29.2355C19.9932 29.2367 19.9126 29.2382 19.8332 29.2394C19.5317 29.2466 19.2349 29.2536 18.9476 29.2604C18.6605 29.2695 18.3828 29.2782 18.1195 29.2864C17.8561 29.2927 17.6073 29.3069 17.3774 29.3282C16.918 29.3702 16.5349 29.4445 16.2669 29.5118C16.133 29.5458 16.0275 29.5788 15.9559 29.6018C15.884 29.6259 15.8456 29.6411 15.8456 29.6411V29.2927V28.6198V28.2714C15.8456 28.2714 15.884 28.2866 15.9559 28.3108Z" fill="#CBCBCB"/>
<mask id="mask0_1_1619" style="mask-type:luminance" maskUnits="userSpaceOnUse" x="9" y="0" width="63" height="18">
<path d="M71.3035 14.8246C71.3035 14.8246 64.0781 8.78064 57.3926 3.50008C53.7336 0.609976 45.8037 0.679463 40.8692 1.26477C24.2733 3.23349 18.5225 13.5845 11.0993 13.9772C3.67583 14.3703 28.7572 18.6452 36.8654 17.6454C44.9735 16.6456 71.3035 14.8246 71.3035 14.8246Z" fill="white"/>
</mask>
<g mask="url(#mask0_1_1619)">
<path d="M57.3926 3.50006L55.3204 3.43323C55.3204 3.43323 64.9427 12.2375 69.3033 14.7705C73.6888 17.3178 71.6277 10.8323 70.1683 10.3657C68.7086 9.89912 57.3926 3.50006 57.3926 3.50006Z" fill="#A5CAD9"/>
<path d="M57.3326 3.7143C58.2308 4.22217 68.6713 10.1141 70.1025 10.5718C70.8448 10.8089 71.9137 13.1111 71.7095 14.4199C71.6082 15.0699 71.2367 15.1449 70.966 15.1449C70.5763 15.1449 70.0535 14.956 69.412 14.5835C65.6475 12.3967 57.8274 5.4087 55.9014 3.66845L57.3326 3.7143ZM70.966 15.5775C71.6113 15.5775 72.027 15.19 72.1368 14.4865C72.3641 13.03 71.2437 10.4825 70.2342 10.1597C68.8122 9.70514 57.612 3.37581 57.4991 3.31187L57.4527 3.28558L54.7433 3.19847L55.1747 3.59294C55.271 3.681 64.8641 12.4418 69.1948 14.9575C69.9032 15.3688 70.4991 15.5775 70.966 15.5775Z" fill="#E5E5E5"/>
</g>
<path d="M34.3824 4.6333C34.5057 4.58022 34.6295 4.52907 34.7535 4.47864C35.4983 6.79888 36.6949 11.0157 37.1355 15.3387L28.7134 15.5792C28.7134 15.5792 25.6791 8.3659 34.3824 4.6333Z" fill="#A5CAD9"/>
<path d="M36.8961 15.1291L28.8615 15.3588C28.7001 14.9023 28.2294 13.3572 28.5008 11.5186C28.9324 8.59467 30.94 6.34489 34.4675 4.83192C34.5179 4.81044 34.5684 4.78922 34.6188 4.76798C35.311 6.95505 36.4476 10.99 36.8961 15.1291ZM28.5715 15.7996L37.3743 15.5482L37.3504 15.3168C36.9016 10.9125 35.6596 6.5946 34.9594 4.4126L34.888 4.19088L34.6721 4.27821C34.5469 4.32912 34.4219 4.38099 34.2972 4.43455C29.7093 6.4023 28.3785 9.34911 28.0701 11.4749C27.736 13.778 28.4822 15.5872 28.5141 15.663L28.5715 15.7996Z" fill="#E5E5E5"/>
<path d="M53.1943 3.56673L67.3394 14.4762L37.1355 15.3387C36.6949 11.0158 35.4982 6.79894 34.7534 4.4787C43.3702 0.976027 53.1943 3.56673 53.1943 3.56673Z" fill="white"/>
<path d="M66.7275 14.2774L37.3296 15.1167C36.8778 10.9076 35.7187 6.80615 35.0205 4.60461C37.9461 3.44726 41.3177 2.86074 45.0453 2.86074C49.3439 2.86074 52.6897 3.66319 53.0977 3.76525L66.7275 14.2774ZM36.9407 15.5604L67.9512 14.675L53.2917 3.36885L53.2495 3.35751C53.2143 3.34834 49.6718 2.42816 45.0453 2.42816C41.1822 2.42816 37.6923 3.05062 34.6721 4.27817L34.4863 4.35393L34.5476 4.54477C35.2427 6.71061 36.4753 10.9955 36.9205 15.3607L36.9407 15.5604Z" fill="#E5E5E5"/>
<path d="M45.4182 14.4381C45.4182 14.4381 51.7179 14.055 52.7951 14.0825C53.8721 14.11 56.8259 12.4378 56.8259 12.4378L56.929 11.7287C56.929 11.7287 52.4581 12.7997 52.1247 12.8409C51.791 12.8822 44.8083 12.8479 44.8083 12.8479C44.8083 12.8479 42.8594 14.3218 45.4182 14.4381Z" fill="#F0A77F"/>
<path d="M45.0502 12.2633L49.3267 12.4471L48.888 14.1258C48.888 14.1258 44.0934 14.3275 43.8709 13.8645C43.6485 13.4018 45.0502 12.2633 45.0502 12.2633Z" fill="#00536E"/>
<path d="M43.9265 12.5079C43.9265 12.5079 43.3634 14.4574 43.389 15.2258C43.4146 15.9942 45.8087 20.0243 45.957 20.4755C46.1054 20.9266 50.5444 19.6933 50.5444 19.6933C50.5444 19.6933 49.8491 16.2635 49.6534 15.9187C49.4578 15.5742 49.2127 14.1321 47.4017 12.6373C45.5908 11.1424 43.9265 12.5079 43.9265 12.5079Z" fill="#005C79"/>
<path d="M43.9128 15.6712C44.3324 16.6572 44.0383 17.7265 43.2559 18.0595L42.8115 18.2486C42.0293 18.5816 41.0548 18.052 40.635 17.0659L39.9387 15.429C39.5189 14.4429 39.813 13.3736 40.5955 13.0407L41.0399 12.8515C41.822 12.5186 42.7965 13.0482 43.2163 14.0344L43.9128 15.6712Z" fill="#F0D1A3"/>
<path d="M43.6856 16.9395L43.2412 17.1287C42.4588 17.4614 41.4843 16.9318 41.0648 15.9457L40.3682 14.309C40.2293 13.9823 40.1702 13.647 40.1796 13.3321C39.7238 13.8093 39.6049 14.6448 39.9388 15.429L40.6353 17.0659C41.0549 18.052 42.0293 18.5816 42.8115 18.2486L43.2559 18.0595C43.7792 17.8368 44.0825 17.2843 44.1016 16.6481C43.9843 16.7709 43.8458 16.8712 43.6856 16.9395Z" fill="#C4A77A"/>
<path d="M42.9367 10.6847C43.0431 11.7511 42.4436 12.684 41.5977 12.7687L41.1171 12.8165C40.271 12.9009 39.4987 12.105 39.3923 11.0386L39.2155 9.26869C39.1091 8.20206 39.7086 7.26934 40.5547 7.18489L41.0353 7.13664C41.8812 7.0522 42.6535 7.84837 42.7599 8.91476L42.9367 10.6847Z" fill="#F9DCB1"/>
<path d="M42.3417 11.8275L41.8609 11.8756C41.015 11.96 40.2427 11.1641 40.1363 10.0977L39.9597 8.32752C39.9242 7.97431 39.9679 7.63678 40.0707 7.33882C39.4936 7.65849 39.1307 8.42065 39.2154 9.26869L39.3922 11.0386C39.4986 12.105 40.2709 12.9009 41.117 12.8165L41.5976 12.7687C42.1634 12.712 42.6177 12.2751 42.8254 11.6734C42.6768 11.7559 42.5149 11.8102 42.3417 11.8275Z" fill="#E3C9A1"/>
<mask id="mask1_1_1619" style="mask-type:luminance" maskUnits="userSpaceOnUse" x="43" y="8" width="5" height="6">
<path d="M47.4761 13.0226C47.4739 12.9029 47.4599 12.7985 47.4312 12.7297C47.3262 12.4802 46.2463 12.2674 46.0972 11.9871V11.9868C45.9481 11.7062 45.7602 9.68903 45.7602 9.68903C45.0873 9.68903 43.272 8.16689 43.272 8.16689C43.272 8.16689 44.1816 11.0379 44.2629 11.1815C44.3442 11.3253 43.9266 12.508 43.9266 12.508C44.0248 12.4737 44.1543 12.458 44.3042 12.458C44.9317 12.458 45.9139 12.7297 46.4217 13.019L47.4761 13.0226Z" fill="white"/>
</mask>
<g mask="url(#mask1_1_1619)">
<path d="M47.4761 13.0226C47.4739 12.9029 47.4599 12.7985 47.4312 12.7297C47.3262 12.4802 46.2463 12.2674 46.0972 11.9871V11.9868C45.9481 11.7062 45.7602 9.68903 45.7602 9.68903C45.0873 9.68903 43.272 8.16689 43.272 8.16689C43.272 8.16689 44.1816 11.0379 44.2629 11.1815C44.3442 11.3253 43.9266 12.508 43.9266 12.508C44.0248 12.4737 44.1543 12.458 44.3042 12.458C44.9317 12.458 45.9139 12.7297 46.4217 13.019L47.4761 13.0226Z" fill="url(#paint0_linear_1_1619)"/>
</g>
<path d="M56.9291 11.7287L57.5769 11.5267L57.2124 12.4471L56.8261 12.4377C56.8261 12.4377 56.8353 11.7354 56.9291 11.7287Z" fill="#F0A77F"/>
<path d="M72.2884 20.0342C72.2884 20.0342 72.3226 19.9693 72.3902 19.8414L72.4027 19.8175L72.41 19.8023L72.4257 19.7698C72.4365 19.7469 72.4486 19.7218 72.4616 19.6943C72.4783 19.661 72.4802 19.652 72.4874 19.6335L72.4978 19.5956C72.4763 19.5741 72.4358 19.5565 72.3875 19.5259C72.2893 19.4677 72.1451 19.3821 71.9615 19.2735C71.5938 19.0571 71.0717 18.7427 70.4393 18.3753C70.1235 18.1907 69.7814 17.9909 69.4197 17.7793C69.0566 17.5702 68.6738 17.3494 68.2778 17.1212C67.8807 16.8946 67.4703 16.6604 67.0532 16.4225C66.6351 16.187 66.21 15.9477 65.7851 15.7083C64.9337 15.2318 64.0786 14.7618 63.2747 14.3252C62.8713 14.1087 62.4836 13.8964 62.1116 13.702C61.7408 13.5058 61.39 13.3205 61.0662 13.1495C60.741 12.9813 60.4425 12.8269 60.1781 12.6901C59.9139 12.5533 59.6823 12.4356 59.4908 12.3405C59.1088 12.1477 58.8888 12.0413 58.8888 12.0413C58.6186 11.9106 58.2938 12.0237 58.1631 12.2937C58.0465 12.5347 58.1242 12.8194 58.3341 12.9707C58.3341 12.9707 58.5327 13.114 58.8835 13.3584C59.0584 13.4819 59.2719 13.6296 59.5178 13.797C59.7639 13.9647 60.0413 14.1539 60.3441 14.3604C60.6483 14.564 60.9781 14.7845 61.3268 15.0178C61.6747 15.2526 62.0457 15.4929 62.4277 15.745C63.1939 16.2449 64.0137 16.774 64.8374 17.2968C65.25 17.5569 65.6625 17.8172 66.0686 18.0732C66.4761 18.3273 66.8771 18.5772 67.265 18.8189C67.6539 19.059 68.0301 19.2909 68.3869 19.5109C68.7447 19.7288 69.0832 19.9348 69.3956 20.1249C70.0193 20.5068 70.544 20.8169 70.9091 21.0379C71.092 21.1476 71.2357 21.2338 71.3337 21.2926C71.3836 21.3206 71.4181 21.3479 71.4473 21.3566L71.4758 21.3293C71.4886 21.3141 71.4956 21.3083 71.5171 21.2779C71.5349 21.2533 71.5513 21.2309 71.5663 21.2104L71.5878 21.1812L71.5974 21.1677L71.6126 21.145C71.6929 21.0248 71.734 20.9638 71.734 20.9638C71.9344 20.6641 72.1226 20.3459 72.2884 20.0342Z" fill="#42210B"/>
<path d="M59.1025 9.81784C59.1495 9.81784 59.1893 9.83473 59.2243 9.86899C59.5326 10.1703 59.4793 11.7033 58.9099 13.4211C58.4134 14.9199 57.7955 15.7283 57.4664 15.7283C57.4196 15.7283 57.3798 15.7117 57.3446 15.6774C57.0363 15.3759 57.0896 13.8431 57.659 12.1253C58.1557 10.6266 58.7734 9.81784 59.1025 9.81784ZM57.4664 16.2256C57.9965 16.2256 58.6969 15.1872 59.2093 13.6414C59.7408 12.037 59.991 10.0241 59.4074 9.45329C59.3177 9.36523 59.2149 9.32084 59.1025 9.32084C58.5724 9.32084 57.872 10.3592 57.3598 11.905C56.8281 13.5092 56.5779 15.5223 57.1615 16.0931C57.2515 16.1812 57.354 16.2256 57.4664 16.2256Z" fill="#42210B"/>
<path d="M58.8226 9.32113C58.8226 9.32113 58.8144 9.43476 58.7908 9.62777C58.7789 9.72404 58.7625 9.83985 58.7423 9.97134C58.7215 10.1028 58.6959 10.2495 58.6663 10.4083C58.6361 10.5665 58.6011 10.7369 58.562 10.9152C58.5415 11.0037 58.5205 11.0949 58.4993 11.1878C58.4764 11.28 58.4532 11.374 58.4294 11.4696C58.3801 11.6597 58.3283 11.8554 58.2713 12.0513C58.2151 12.2477 58.1555 12.4455 58.0928 12.6412C58.031 12.8376 57.9659 13.0315 57.9005 13.2219C57.8342 13.411 57.7683 13.5971 57.7005 13.7741C57.6337 13.9522 57.5661 14.122 57.5 14.2818C57.4346 14.442 57.3697 14.5913 57.3082 14.7279C57.1854 15.0015 57.0744 15.2237 56.9929 15.3764C56.9528 15.4531 56.9178 15.5113 56.8959 15.5518C56.8722 15.5916 56.8597 15.6128 56.8597 15.6128L57.6464 16.1578C57.6464 16.1578 57.6493 16.1298 57.6547 16.0775C57.6612 16.0261 57.6684 15.9489 57.6819 15.8536C57.7077 15.6623 57.7502 15.3928 57.8115 15.0765C57.8419 14.9182 57.8766 14.7481 57.9167 14.5703C57.956 14.392 57.9994 14.2055 58.0479 14.0149C58.0952 13.8234 58.148 13.6284 58.2023 13.4308C58.2578 13.234 58.3155 13.0344 58.3763 12.8376C58.4361 12.64 58.4993 12.4445 58.5637 12.2539C58.6279 12.0629 58.6945 11.8776 58.7604 11.6988C58.7941 11.6102 58.8274 11.5231 58.86 11.4377C58.894 11.3533 58.9273 11.2708 58.9597 11.1904C59.0258 11.031 59.0907 10.8816 59.1522 10.7448C59.2147 10.6088 59.2735 10.4852 59.3276 10.3769C59.3821 10.2691 59.4308 10.1757 59.4726 10.0999C59.5563 9.9489 59.6094 9.86614 59.6094 9.86614L58.8226 9.32113Z" fill="#42210B"/>
<path d="M45.391 15.1027C45.391 15.1027 52.014 16.1308 53.1419 16.2113C54.2698 16.2919 58.2847 13.6286 58.2847 13.6286L58.0391 13.059C58.0391 13.059 53.4215 13.9396 53.0697 13.9666C52.718 13.9939 46.6304 13.6286 45.1005 13.0006C44.6096 12.7991 42.7137 14.8576 45.391 15.1027Z" fill="#FFBF9C"/>
<path d="M45.1004 13.0007C46.3456 13.5059 49.551 13.5059 49.551 13.5059L48.6682 15.3387C48.6682 15.3387 43.8873 14.9252 43.7259 14.4381C43.5645 13.9505 44.6396 12.8137 45.1004 13.0007Z" fill="#005D7A"/>
<path d="M63.3636 14.3734L66.7275 14.2774L65.1793 13.0831L60.9099 13.0687C60.9613 13.0952 61.0134 13.1222 61.0663 13.1495C61.39 13.3205 61.7408 13.5058 62.1117 13.702C62.4837 13.8964 62.8714 14.1087 63.2748 14.3252C63.3042 14.3413 63.3339 14.3572 63.3636 14.3734Z" fill="#C9DFE8"/>
<path d="M67.3394 14.6926L65.1793 13.0832L66.7275 14.2774L63.3636 14.3734C63.5498 14.4748 63.7387 14.5775 63.9293 14.682L67.3394 14.6926Z" fill="#BFD5DE"/>
<path d="M58.8834 14.5013L60.4866 14.4557C60.4383 14.4234 60.391 14.3918 60.3442 14.3604C60.0414 14.1539 59.764 13.9648 59.5179 13.7971C59.4142 13.7264 59.3162 13.6593 59.2245 13.5961C59.2194 13.6113 59.2146 13.6265 59.2096 13.6415C59.1073 13.9498 58.9977 14.2376 58.8834 14.5013Z" fill="#C9DFE8"/>
<path d="M60.8105 14.6724C60.6998 14.5983 60.5917 14.5259 60.4865 14.4557L58.8833 14.5013C58.8592 14.5575 58.8346 14.6125 58.81 14.6663L60.8105 14.6724Z" fill="#BFD5DE"/>
<path d="M57.9259 14.5286L58.4746 14.5131C58.6232 14.2045 58.7713 13.8398 58.9101 13.4212C58.9142 13.4093 58.918 13.3973 58.9219 13.3855C58.9091 13.3763 58.8963 13.3674 58.8835 13.3584C58.6965 13.2281 58.553 13.1266 58.4596 13.0602L58.3093 13.0597C58.2726 13.1835 58.2372 13.3075 58.2024 13.4308C58.2019 13.4323 58.2017 13.4337 58.2012 13.4352L58.2847 13.6286C58.2847 13.6286 58.2256 13.668 58.1197 13.7367C58.0948 13.8301 58.0707 13.923 58.048 14.0149C58.0034 14.1908 57.9629 14.3631 57.9259 14.5286Z" fill="#C9DFE8"/>
<path d="M58.3989 14.665C58.4242 14.6158 58.4493 14.5652 58.4746 14.513L57.926 14.5285C57.9228 14.5425 57.9197 14.5565 57.9168 14.5702C57.9098 14.6016 57.9028 14.6325 57.8961 14.6633L58.3989 14.665Z" fill="#BFD5DE"/>
<path d="M63.9292 14.682C63.7386 14.5775 63.5497 14.4748 63.3634 14.3734C63.3338 14.3573 63.3041 14.3413 63.2746 14.3252C62.8713 14.1088 62.4835 13.8964 62.1115 13.702C61.7407 13.5058 61.3899 13.3206 61.0661 13.1495C61.0133 13.1222 60.9612 13.0952 60.9098 13.0687L59.3838 13.0634C59.3343 13.2441 59.281 13.4221 59.2243 13.5961C59.316 13.6593 59.4139 13.7264 59.5177 13.7971C59.7638 13.9647 60.0412 14.1539 60.344 14.3604C60.3908 14.3918 60.4381 14.4234 60.4864 14.4557C60.5915 14.5259 60.6996 14.5983 60.8104 14.6724L63.9292 14.682ZM58.9218 13.3855C58.9575 13.2769 58.991 13.1688 59.0224 13.0622L58.4595 13.0602C58.5529 13.1266 58.6964 13.2281 58.8834 13.3584C58.8962 13.3674 58.909 13.3763 58.9218 13.3855Z" fill="#7D8687"/>
<path d="M58.8098 14.6663C58.8344 14.6125 58.859 14.5575 58.8832 14.5012C58.9975 14.2375 59.1071 13.9497 59.2094 13.6414C59.2144 13.6264 59.2192 13.6112 59.2243 13.596C59.281 13.4221 59.3343 13.244 59.3838 13.0633L59.0224 13.0621C58.991 13.1687 58.9575 13.2768 58.9218 13.3854C58.9179 13.3972 58.914 13.4093 58.9099 13.4211C58.7712 13.8397 58.6231 14.2045 58.4745 14.5131C58.4491 14.5652 58.424 14.6158 58.3987 14.6651L58.8098 14.6663Z" fill="#7D8687"/>
<path d="M57.1654 14.5505L57.3895 14.544C57.4259 14.4603 57.4628 14.3727 57.5 14.2818C57.5273 14.2161 57.5548 14.1486 57.5823 14.0796C57.46 14.1566 57.3253 14.2403 57.1811 14.3291C57.1743 14.4053 57.169 14.4791 57.1654 14.5505Z" fill="#C9DFE8"/>
<path d="M57.338 14.6617C57.3549 14.6234 57.3723 14.5841 57.3896 14.544L57.1655 14.5505C57.1636 14.5879 57.1619 14.6251 57.1607 14.6613L57.338 14.6617Z" fill="#BFD5DE"/>
<path d="M56.7998 14.5609L56.8323 14.5599C56.8325 14.5534 56.8328 14.5472 56.833 14.5406C56.822 14.5474 56.8108 14.5542 56.7998 14.5609Z" fill="#C9DFE8"/>
<path d="M56.8284 14.6603C56.8294 14.627 56.8306 14.5935 56.8323 14.5599L56.7995 14.5609C56.7452 14.5935 56.6899 14.6263 56.6342 14.6596L56.8284 14.6603Z" fill="#BFD5DE"/>
<path d="M57.1606 14.6613C57.1618 14.6251 57.1635 14.5879 57.1655 14.5505C57.1691 14.4791 57.1744 14.4053 57.1812 14.329C57.0702 14.3971 56.9539 14.468 56.833 14.5406C56.8328 14.5471 56.8325 14.5534 56.8323 14.5599C56.8306 14.5935 56.8294 14.627 56.8284 14.6603L57.1606 14.6613Z" fill="#7D8687"/>
<path d="M53.8957 13.8311C54.7536 13.6786 56.0815 13.4293 57.0017 13.2556C57.0152 13.189 57.0292 13.1222 57.0439 13.0554L55.6654 13.0506C55.1237 13.321 54.4728 13.6238 53.8957 13.8311Z" fill="#C9DFE8"/>
<path d="M53.0128 13.968C53.0384 13.968 53.0575 13.9675 53.0698 13.9666C53.1515 13.9603 53.4642 13.9079 53.8959 13.831C54.473 13.6237 55.1239 13.3209 55.6655 13.0505L49.175 13.0283L49.0522 13.4983C49.3598 13.5058 49.5512 13.5058 49.5512 13.5058L49.4472 13.7217C51.1131 13.8814 52.6642 13.968 53.0128 13.968Z" fill="#C3BCB5"/>
<path d="M49.0522 13.4983L49.175 13.0283L47.838 13.0237C47.996 13.1743 48.1393 13.3234 48.2691 13.4698C48.5692 13.4845 48.8387 13.4932 49.0522 13.4983Z" fill="#639AAE"/>
<path d="M48.269 13.4698C48.1392 13.3234 47.9959 13.1743 47.8379 13.0238L47.476 13.0225C47.4784 13.1456 47.4683 13.2848 47.4492 13.4175C47.7344 13.4404 48.0128 13.4573 48.269 13.4698ZM46.8338 13.3591C46.751 13.2621 46.6504 13.1663 46.5264 13.0831C46.4943 13.0619 46.4593 13.0402 46.4217 13.0189L45.1355 13.0146C45.5563 13.1774 46.1836 13.2862 46.8338 13.3591Z" fill="#639EB3"/>
<path d="M57.364 13.1874C57.633 13.1362 57.84 13.0969 57.9503 13.0759C57.9522 13.0701 57.9544 13.0643 57.9563 13.0585L57.3942 13.0566C57.3838 13.1003 57.3739 13.144 57.364 13.1874Z" fill="#C9DFE8"/>
<mask id="mask2_1_1619" style="mask-type:luminance" maskUnits="userSpaceOnUse" x="46" y="13" width="2" height="1">
<path d="M47.4492 13.4176C47.4682 13.2849 47.4784 13.1457 47.476 13.0227L46.4216 13.019C46.4593 13.0403 46.4943 13.062 46.5263 13.0832C46.6504 13.1664 46.751 13.2622 46.8337 13.3592C47.0386 13.3821 47.2456 13.4014 47.4492 13.4176Z" fill="white"/>
</mask>
<g mask="url(#mask2_1_1619)">
<path d="M47.4492 13.4176C47.4682 13.2849 47.4784 13.1457 47.476 13.0227L46.4216 13.019C46.4593 13.0403 46.4943 13.062 46.5263 13.0832C46.6504 13.1664 46.751 13.2622 46.8337 13.3592C47.0386 13.3821 47.2456 13.4014 47.4492 13.4176Z" fill="url(#paint1_linear_1_1619)"/>
</g>
<path d="M57.0017 13.2556C57.1315 13.2312 57.2529 13.2083 57.3639 13.1873C57.3738 13.1439 57.3837 13.1002 57.394 13.0566L57.044 13.0554C57.0293 13.1222 57.0153 13.189 57.0017 13.2556Z" fill="#7D8687"/>
<path d="M57.896 14.6635C57.9028 14.6326 57.9098 14.6017 57.9168 14.5703C57.9197 14.5566 57.9228 14.5426 57.926 14.5286C57.9629 14.3631 58.0034 14.1908 58.048 14.0149C58.0707 13.923 58.0948 13.8301 58.1197 13.7368C57.9969 13.8164 57.8114 13.9358 57.5824 14.0796C57.5549 14.1486 57.5274 14.2161 57.5001 14.2818C57.463 14.3727 57.4261 14.4603 57.3896 14.544C57.3723 14.5841 57.3549 14.6234 57.338 14.6618L57.896 14.6635ZM58.2012 13.4352C58.2017 13.4337 58.202 13.4323 58.2024 13.4308C58.2372 13.3075 58.2727 13.1835 58.3093 13.0598L57.9564 13.0586C57.9544 13.0644 57.9523 13.0701 57.9503 13.0759C58.008 13.0651 58.0391 13.059 58.0391 13.059L58.2012 13.4352Z" fill="#7D8687"/>
<path d="M56.6342 14.6595C56.6899 14.6263 56.7452 14.5934 56.7994 14.5609C56.8105 14.5541 56.8219 14.5474 56.833 14.5406C56.9539 14.468 57.0701 14.397 57.1811 14.329C57.3254 14.2402 57.46 14.1565 57.5823 14.0795C57.8113 13.9358 57.9968 13.8163 58.1196 13.7367C58.2256 13.6679 58.2847 13.6286 58.2847 13.6286L58.2012 13.4351L58.0391 13.059C58.0391 13.059 58.0079 13.065 57.9503 13.0759C57.84 13.0969 57.633 13.1362 57.364 13.1873C57.253 13.2083 57.1317 13.2313 57.0019 13.2556C56.0817 13.4293 54.7538 13.6786 53.8958 13.831C53.4642 13.908 53.1515 13.9604 53.0697 13.9666C53.0574 13.9676 53.0384 13.9681 53.0128 13.9681C52.6642 13.9681 51.1131 13.8815 49.4471 13.7217L49.0068 14.6361L56.6342 14.6595Z" fill="#C9C6C1"/>
<path d="M39.7493 14.6077C39.7194 13.9068 40.0297 13.2812 40.5955 13.0407L40.6929 12.9992L37.0428 12.9866C37.1285 13.5188 37.205 14.0578 37.2706 14.5999L39.7493 14.6077ZM43.4462 14.5751C43.5278 14.0557 43.6788 13.4346 43.7898 13.0098L42.361 13.0049C42.7147 13.2259 43.0238 13.5821 43.2163 14.0344L43.4462 14.5751Z" fill="#C9DFE8"/>
<path d="M37.2705 14.6C37.2049 14.0579 37.1284 13.5189 37.0432 12.9866H37.0428L37.2705 14.6Z" fill="#BFD5DE"/>
<path d="M43.9951 14.6207C43.8431 14.5614 43.7468 14.5003 43.7261 14.4381C43.5929 14.0357 44.3017 13.1912 44.8125 13.0134L43.7898 13.0098C43.6788 13.4347 43.5278 14.0557 43.4462 14.5751L43.465 14.619L43.9951 14.6207Z" fill="#639EB3"/>
<path d="M43.4651 14.619L43.4463 14.5751L43.2163 14.0344C43.0238 13.5821 42.7148 13.226 42.3611 13.005L40.693 12.9992L40.5955 13.0407C40.0297 13.2812 39.7195 13.9068 39.7494 14.6077H39.7499C39.7286 14.1058 39.8826 13.6429 40.1795 13.3321C40.1701 13.647 40.2292 13.9823 40.3682 14.309L40.4963 14.6099L43.4651 14.619Z" fill="#C3CDC3"/>
<path d="M40.4963 14.6099L40.3682 14.309C40.2293 13.9823 40.1702 13.647 40.1796 13.3321C39.8826 13.6429 39.7286 14.1059 39.7499 14.6077L40.4963 14.6099Z" fill="#B1BCB3"/>
<path d="M49.0067 14.6361L49.447 13.7217L49.551 13.5058C49.551 13.5058 49.3597 13.5058 49.0521 13.4983C48.8386 13.4932 48.5691 13.4846 48.2689 13.4698C48.0127 13.4573 47.7343 13.4404 47.4491 13.4175C47.2455 13.4013 47.0385 13.382 46.8337 13.3591C46.1835 13.2862 45.5562 13.1774 45.1354 13.0146L44.8123 13.0134C44.3016 13.1912 43.5928 14.0356 43.7259 14.438C43.7467 14.5003 43.8429 14.5613 43.9949 14.6207L49.0067 14.6361Z" fill="#639EB3"/>
<path d="M32.5985 13.9611C35.9439 14.2533 54.1133 14.0948 65.4655 14.2028C78.2231 13.3379 91 14.9315 98.6567 16.8066C100.456 17.2474 98.9265 24.2124 98.9265 24.2124L95.7375 30.9968L90.695 31.2969L89.3227 25.8072C89.0781 23.8228 86.3449 22.5318 84.1912 22.4927L79.2508 22.4032C77.0382 22.3629 74.6039 23.8399 74.0065 25.8253C73.5609 27.3057 72.2173 31.6183 72.2173 31.6183L30.5803 31.4651L28.7064 25.9153C28.2724 23.8879 25.4412 22.5229 23.2285 22.5629L18.2879 22.6527C16.1344 22.6917 14.3278 23.8474 13.239 25.5189C12.4954 26.6605 11.5161 31.1768 11.5161 31.1768L5.34866 30.0911L1.19118 25.9334L1.5292 16.8066C1.5292 16.8066 10.6405 12.0428 32.5985 13.9611Z" fill="#FF9400"/>
<mask id="mask3_1_1619" style="mask-type:luminance" maskUnits="userSpaceOnUse" x="1" y="13" width="99" height="19">
<path d="M32.5985 13.9611C35.9439 14.2533 54.1133 14.0948 65.4655 14.2029C78.2231 13.3379 91 14.9315 98.6567 16.8066C100.456 17.2474 98.9264 24.2127 98.9264 24.2127L95.7375 30.9965L90.695 31.2967L89.3227 25.8072C89.078 23.8228 86.3449 22.532 84.1913 22.4927L79.2508 22.4032C77.0382 22.3629 74.6038 23.8399 74.0065 25.8253C73.5609 27.3057 72.2173 31.6185 72.2173 31.6185L30.5803 31.4651L28.7064 25.9153C28.2724 23.8879 25.4411 22.5226 23.2285 22.5629L18.2881 22.6527C16.1344 22.6917 14.3278 23.8474 13.2389 25.5189C12.4954 26.6605 11.5161 31.1768 11.5161 31.1768L5.34863 30.0908L1.19116 25.9334L1.52918 16.8066C1.52918 16.8066 10.6405 12.0428 32.5985 13.9611Z" fill="white"/>
</mask>
<g mask="url(#mask3_1_1619)">
<path d="M79.9727 15.7824C79.9727 15.7824 65.249 16.636 57.0323 16.0408C48.8158 15.4456 32.6619 15.5293 26.6812 14.9597C20.7005 14.3898 9.7734 15.7571 8.32026 14.7638C6.86713 13.7703 41.3129 12.473 50.362 12.7975C59.4109 13.1217 75.2355 11.8481 79.9727 15.7824Z" fill="#FFC578"/>
<path d="M73.2497 30.0956H29.4634C29.4634 30.0956 28.9767 32.4202 29.4634 32.5823C29.9498 32.7445 58.2759 34.1501 62.222 34.1501C66.1681 34.1501 75.8986 35.5554 73.2497 30.0956Z" fill="#E27500"/>
<path d="M101.251 18.095C101.251 18.095 99.3594 18.095 85.5207 16.4734C71.6819 14.8517 67.6591 13.703 67.6591 13.703C67.6591 13.703 96.5484 13.2839 101.251 18.095Z" fill="#FFC578"/>
</g>
<path d="M8.60218e-05 25.0769C8.60218e-05 25.8904 0.659693 26.55 1.47324 26.55H3.59203C4.40557 26.55 5.06519 25.8904 5.06519 25.0769C5.06519 24.2631 4.40557 23.6035 3.59203 23.6035H1.47324C0.659693 23.6035 8.60218e-05 24.2631 8.60218e-05 25.0769Z" fill="#CBCBCB"/>
<path d="M0.485046 24.799C0.485046 25.3268 1.40547 25.4648 2.54086 25.4648C3.67625 25.4648 4.59668 25.3268 4.59668 24.799C4.59668 24.2711 3.67625 23.8431 2.54086 23.8431C1.40547 23.8431 0.485046 24.2711 0.485046 24.799Z" fill="#E5E5E5"/>
<path d="M100 25.0421C100 25.8559 99.4014 26.5155 98.6629 26.5155H96.7402C96.0018 26.5155 95.4032 25.8559 95.4032 25.0421C95.4032 24.2283 96.0018 23.5687 96.7402 23.5687H98.6629C99.4014 23.5687 100 24.2283 100 25.0421Z" fill="#CBCBCB"/>
<path d="M99.5598 24.7642C99.5598 25.2923 98.7245 25.4303 97.6942 25.4303C96.6637 25.4303 95.8284 25.2923 95.8284 24.7642C95.8284 24.2363 96.6637 23.8083 97.6942 23.8083C98.7245 23.8083 99.5598 24.2363 99.5598 24.7642Z" fill="#E5E5E5"/>
<path d="M40.334 17.7418C40.334 17.9591 40.5429 18.1353 40.8006 18.1353H44.9243C45.1819 18.1353 45.3911 17.9591 45.3911 17.7418V17.3157C45.3911 17.0983 45.1819 16.9222 44.9243 16.9222H40.8006C40.5429 16.9222 40.334 17.0983 40.334 17.3157V17.7418Z" fill="#D16F00"/>
<path d="M40.4246 17.2609C40.4246 17.4481 40.6046 17.5999 40.8265 17.5999H44.8981C45.1203 17.5999 45.3 17.4481 45.3 17.2609C45.3 17.0739 45.1203 16.9221 44.8981 16.9221H40.8265C40.6046 16.9221 40.4246 17.0739 40.4246 17.2609Z" fill="#FFC578"/>
<path d="M34.4074 30.1497H70.2689L70.2757 30.1036C70.2882 30.0208 71.5143 21.7956 70.9777 19.4344C70.4397 17.0666 67.2099 14.1114 67.1774 14.0817L67.1047 14.1618C67.1371 14.1912 70.3418 17.1238 70.8723 19.4583C71.3838 21.7083 70.2742 29.373 70.1755 30.0416H34.4653C32.6418 27.267 28.1367 13.7651 28.0913 13.6286L27.9885 13.6629C28.0341 13.7999 32.5704 27.3942 34.3914 30.1258L34.4074 30.1497Z" fill="#D8600A"/>
<path d="M0.689681 21.6311C0.644564 22.3462 1.18741 22.9626 1.90252 23.0078L2.0936 23.0198C2.80871 23.0652 3.42514 22.5221 3.47025 21.807L3.65434 18.8966C3.69969 18.1815 3.15661 17.5651 2.4415 17.5199L2.25042 17.5079C1.53531 17.4625 0.918879 18.0056 0.873763 18.7207L0.689681 21.6311Z" fill="#D85000"/>
<path d="M2.16724 17.5593C2.19377 17.5593 2.22032 17.5603 2.2471 17.5617L2.43818 17.574C2.76967 17.5948 3.07295 17.7436 3.2925 17.9929C3.51205 18.2421 3.62159 18.5618 3.60036 18.8933L3.41651 21.8036C3.37356 22.483 2.78681 23.0092 2.09704 22.966L1.90596 22.9537C1.22197 22.9105 0.700347 22.3187 0.743775 21.6345L0.927621 18.7241C0.969119 18.071 1.51365 17.5593 2.16724 17.5593ZM2.1769 23.0765C2.88766 23.0765 3.47947 22.5204 3.52435 21.8104L3.70844 18.9C3.73112 18.5398 3.61241 18.1921 3.37356 17.9212C3.13519 17.6505 2.80515 17.4886 2.44494 17.4659L2.25386 17.4539C1.50932 17.4059 0.866588 17.9786 0.819783 18.7174L0.635689 21.6277C0.588884 22.3713 1.15562 23.0148 1.89919 23.0618L2.09027 23.0739C2.11923 23.0758 2.14819 23.0765 2.1769 23.0765Z" fill="#F1F1F1"/>
<path d="M57.9877 13.0798C57.9877 13.0798 59.0087 12.2076 59.479 12.094C59.9489 11.9806 60.0459 13.0757 59.76 13.3119C59.4741 13.5478 59.0953 13.8487 58.2444 13.6267L57.9877 13.0798Z" fill="#FFBF9C"/>
<path d="M57.7722 11.5C57.7722 11.5 57.1633 12.5592 57.2233 12.6615C57.2834 12.7637 57.73 12.8043 57.8381 12.5338C57.9464 12.2634 58.2847 11.3704 58.2847 11.3704C58.2847 11.3704 57.9201 11.2358 57.7722 11.5Z" fill="#F0A77F"/>
<path d="M47.0715 5.39302C47.0715 5.39302 47.2611 5.67747 47.3026 6.18702C47.3439 6.69657 47.4358 7.313 47.5335 7.7661C47.6315 8.21943 47.818 9.03732 47.6226 9.66823C47.4269 10.2994 46.4476 11.4512 46.2078 11.5445C45.9677 11.6377 45.6637 11.7711 44.9426 11.1978C44.2212 10.6246 43.7145 9.91794 43.6079 9.15796C43.5013 8.39797 43.0479 6.70792 43.088 6.33975C43.128 5.97158 43.1681 4.71193 44.8878 4.92183C46.6076 5.13173 47.0715 5.39302 47.0715 5.39302Z" fill="#FFB890"/>
<path d="M47.0715 5.3931C47.0715 5.3931 47.2209 4.97186 46.7277 4.58511C46.2343 4.19861 45.5677 3.85818 44.7279 3.91512C43.888 3.97182 42.3949 4.25192 42.128 4.69175C41.8614 5.13181 41.7015 6.30846 42.0747 7.58668C42.4479 8.8649 42.9179 9.41402 43.288 9.41137C43.6579 9.40871 43.7281 9.30472 43.7281 9.30472C43.7281 9.30472 43.3331 8.06269 43.3199 8.0019C43.3066 7.94086 43.6212 7.91842 43.7947 8.21156C43.9679 8.5047 43.9679 8.13846 43.9679 8.13846C43.9679 8.13846 43.9315 7.58741 43.8914 7.28607C43.8516 6.98497 43.6316 6.01846 43.6584 5.80905C43.6849 5.59963 43.9414 5.31832 44.3411 5.23846C44.7412 5.15836 46.8153 5.70771 47.0715 5.3931Z" fill="#591A00"/>
<path d="M47.5254 7.17305L47.466 7.33301L46.6009 6.98342L46.7196 6.705L47.5254 7.17305Z" fill="#692506"/>
<path d="M45.5911 6.87375L45.4661 6.56928L45.4465 6.71018L45.3816 6.61729L44.6562 7.18644L44.7119 7.30176L45.5911 6.87375Z" fill="#692506"/>
<path d="M46.564 7.52806C46.564 7.52806 46.4984 8.0627 46.6861 8.06487C47.0045 8.06873 47.4345 8.08514 47.4868 7.66944C47.4868 7.66944 46.7379 7.4827 46.564 7.52806Z" fill="white"/>
<mask id="mask4_1_1619" style="mask-type:luminance" maskUnits="userSpaceOnUse" x="46" y="7" width="2" height="2">
<path d="M46.564 7.5283C46.564 7.5283 46.4984 8.0627 46.6861 8.06487C47.0045 8.06873 47.4345 8.08514 47.4868 7.66944C47.4868 7.66944 46.7379 7.4827 46.564 7.5283Z" fill="white"/>
</mask>
<g mask="url(#mask4_1_1619)">
<path d="M46.7385 7.81972C46.7385 8.01273 46.8437 8.16907 46.9733 8.16907C47.1031 8.16907 47.2083 8.01273 47.2083 7.81972C47.2083 7.62695 47.1031 7.4706 46.9733 7.4706C46.8437 7.4706 46.7385 7.62695 46.7385 7.81972Z" fill="#18A6DE"/>
</g>
<path d="M47.4868 7.66943L47.4774 7.66413L47.4499 7.6499C47.4263 7.63807 47.392 7.62239 47.35 7.60623C47.329 7.59802 47.3061 7.58982 47.2817 7.58162C47.2571 7.57365 47.2313 7.56521 47.2043 7.55773L47.163 7.54688L47.1206 7.5365L47.0769 7.52685L47.0328 7.51864L46.9884 7.51117L46.9442 7.50562L46.9003 7.50079L46.8574 7.4979L46.8364 7.49645L46.8156 7.49621L46.7756 7.49597C46.7498 7.49572 46.7249 7.49838 46.7022 7.49983L46.6856 7.50127L46.6697 7.50345L46.6405 7.50827L46.6149 7.51309L46.5934 7.51888L46.564 7.52806L46.5536 7.53167L46.5645 7.53312L46.5949 7.53674L46.6163 7.53891L46.6412 7.54277L46.6697 7.54663L46.6849 7.54857L46.7008 7.55122L46.7346 7.55676L46.7524 7.55942L46.7707 7.5628L46.8086 7.56931L46.8284 7.57245L46.8484 7.57607C46.8755 7.58089 46.9032 7.58572 46.9314 7.59079L46.9744 7.59826L47.0176 7.60623C47.0463 7.61105 47.0752 7.61612 47.1037 7.62095C47.1322 7.62553 47.1601 7.63059 47.1874 7.63469C47.2147 7.63879 47.2412 7.64314 47.2663 7.64651C47.2914 7.65013 47.3155 7.65303 47.3375 7.65593C47.3816 7.66148 47.419 7.66485 47.4453 7.66702L47.476 7.66896L47.4868 7.66943Z" fill="#1F0E00"/>
<path d="M45.9412 7.63759C45.9412 7.63759 46.0626 8.08635 45.9536 8.13967C45.8445 8.19299 44.7603 8.19009 44.8737 7.57317C44.8737 7.57317 45.4689 7.49115 45.9412 7.63759Z" fill="white"/>
<mask id="mask5_1_1619" style="mask-type:luminance" maskUnits="userSpaceOnUse" x="44" y="7" width="2" height="2">
<path d="M45.9412 7.63759C45.9412 7.63759 46.0626 8.08635 45.9536 8.13967C45.8445 8.19299 44.7603 8.19009 44.8737 7.57317C44.8737 7.57317 45.4689 7.49115 45.9412 7.63759Z" fill="white"/>
</mask>
<g mask="url(#mask5_1_1619)">
<path d="M45.324 7.87758C45.324 8.07035 45.4292 8.22668 45.559 8.22668C45.6885 8.22668 45.7937 8.07035 45.7937 7.87758C45.7937 7.68456 45.6885 7.52822 45.559 7.52822C45.4292 7.52822 45.324 7.68456 45.324 7.87758Z" fill="#18A6DE"/>
</g>
<path d="M45.9536 7.63831C45.9536 7.63831 45.9382 7.6301 45.9104 7.61828L45.8595 7.59873L45.8277 7.58788L45.7922 7.57702C45.7674 7.56954 45.7403 7.56279 45.7114 7.55579C45.6824 7.54952 45.652 7.54252 45.6202 7.53745C45.5883 7.5319 45.5553 7.52708 45.5215 7.52346C45.488 7.51888 45.4535 7.51695 45.4192 7.51453L45.3676 7.51237L45.3164 7.5114L45.266 7.51212L45.217 7.51405C45.1847 7.51526 45.1536 7.51888 45.1241 7.52177C45.0947 7.52443 45.067 7.52901 45.0414 7.53335C45.0161 7.53794 44.9927 7.54132 44.9722 7.54638L44.9193 7.55989L44.8855 7.5693L44.8737 7.57316L44.886 7.57461L44.921 7.57751L44.975 7.58064L45.0081 7.58257L45.0445 7.58475C45.0699 7.58595 45.0974 7.58667 45.1263 7.5886L45.1707 7.59078L45.2173 7.59294C45.2486 7.59487 45.2812 7.59584 45.314 7.59753L45.364 7.60043L45.4141 7.60332C45.4474 7.60525 45.481 7.60694 45.5138 7.60911L45.563 7.61201L45.6108 7.61538C45.6421 7.61731 45.6725 7.61997 45.7015 7.62165C45.7304 7.62358 45.758 7.62551 45.783 7.62744C45.8342 7.63082 45.8767 7.63348 45.9063 7.63565L45.9413 7.63758L45.9536 7.63831Z" fill="#1F0E00"/>
<mask id="mask6_1_1619" style="mask-type:luminance" maskUnits="userSpaceOnUse" x="46" y="7" width="1" height="3">
<path d="M46.3848 7.90492C46.3848 7.90492 46.5358 8.82945 46.7669 8.98941C46.9981 9.14937 47.0425 9.48713 46.4736 9.40728C45.9049 9.32718 46.1715 9.17615 46.1715 9.07819C46.1715 8.98048 45.887 7.6651 46.3848 7.90492Z" fill="white"/>
</mask>
<g mask="url(#mask6_1_1619)">
<path d="M46.3848 7.90492C46.3848 7.90492 46.5358 8.82945 46.7669 8.98941C46.9981 9.14937 47.0425 9.48713 46.4736 9.40728C45.9049 9.32718 46.1715 9.17615 46.1715 9.07819C46.1715 8.98048 45.887 7.6651 46.3848 7.90492Z" fill="url(#paint2_linear_1_1619)"/>
</g>
<path d="M46.9734 10.0507C46.9734 10.0507 46.6385 10.54 46.4786 10.5485C45.9099 10.5781 45.6153 10.264 45.3967 10.0951C45.1779 9.92623 45.1514 9.66832 45.1246 9.61524C45.098 9.56192 45.569 9.86398 45.9601 9.94408C46.3512 10.0239 46.769 10.0597 46.9734 10.0507Z" fill="white"/>
<mask id="mask7_1_1619" style="mask-type:luminance" maskUnits="userSpaceOnUse" x="42" y="7" width="2" height="3">
<path d="M43.8892 8.40933C43.8892 8.40933 43.5514 7.91184 43.2136 7.90726C42.8758 7.90267 42.5383 8.73817 42.9116 8.97823C43.2848 9.21828 43.6493 9.29815 43.7825 9.16497C43.9159 9.03155 43.8892 8.40933 43.8892 8.40933Z" fill="white"/>
</mask>
<g mask="url(#mask7_1_1619)">
<path d="M43.8892 8.40933C43.8892 8.40933 43.5514 7.91184 43.2136 7.90726C42.8758 7.90267 42.5383 8.73817 42.9116 8.97823C43.2848 9.21828 43.6493 9.29815 43.7825 9.16497C43.9159 9.03155 43.8892 8.40933 43.8892 8.40933Z" fill="url(#paint3_linear_1_1619)"/>
</g>
<mask id="mask8_1_1619" style="mask-type:luminance" maskUnits="userSpaceOnUse" x="45" y="9" width="2" height="2">
<path d="M46.9734 10.0507C46.9734 10.0507 46.6385 10.54 46.4788 10.5485C45.9099 10.5781 45.6156 10.264 45.3967 10.0951C45.1779 9.92623 45.1514 9.66856 45.1246 9.61524C45.098 9.56192 45.569 9.86398 45.9603 9.94408C46.3514 10.0239 46.769 10.0597 46.9734 10.0507Z" fill="white"/>
</mask>
<g mask="url(#mask8_1_1619)">
<path d="M46.9734 10.2285C46.9734 10.2285 46.1468 10.4681 45.0536 9.74815C44.9646 9.99737 44.9933 10.1749 45.3967 10.4329C45.8001 10.6908 46.9025 10.8239 46.9734 10.2285Z" fill="#A14E1D"/>
</g>
<defs>
<linearGradient id="paint0_linear_1_1619" x1="45.5682" y1="13.0764" x2="45.0432" y2="6.31374" gradientUnits="userSpaceOnUse">
<stop stop-color="#FFB890"/>
<stop offset="0.750988" stop-color="#E68D76"/>
<stop offset="1" stop-color="#E68D76"/>
</linearGradient>
<linearGradient id="paint1_linear_1_1619" x1="45.568" y1="13.0765" x2="45.0431" y2="6.31391" gradientUnits="userSpaceOnUse">
<stop stop-color="#C9C3BC"/>
<stop offset="0.750988" stop-color="#BFB2B1"/>
<stop offset="1" stop-color="#BFB2B1"/>
</linearGradient>
<linearGradient id="paint2_linear_1_1619" x1="46.1194" y1="8.53993" x2="46.6705" y2="8.80659" gradientUnits="userSpaceOnUse">
<stop stop-color="#FFB890"/>
<stop offset="1" stop-color="#FD9B82"/>
</linearGradient>
<linearGradient id="paint3_linear_1_1619" x1="43.8913" y1="8.56832" x2="42.748" y2="8.56832" gradientUnits="userSpaceOnUse">
<stop stop-color="#FFB890"/>
<stop offset="1" stop-color="#FD9B82"/>
</linearGradient>
</defs>
</svg>
