<svg width="100" height="41" viewBox="0 0 100 41" fill="none" xmlns="http://www.w3.org/2000/svg">
<path d="M80.0598 20.6288C80.0598 20.6288 80.0926 20.5669 80.1569 20.4451L80.1689 20.4221L80.1758 20.4077L80.1907 20.3765C80.2011 20.3549 80.2126 20.3308 80.2251 20.3048C80.2409 20.273 80.2426 20.2646 80.2495 20.2469L80.2595 20.2108C80.2391 20.1901 80.2005 20.1735 80.1544 20.1441C80.0607 20.0888 79.9233 20.0073 79.7484 19.9037C79.398 19.6976 78.9004 19.398 78.2978 19.0479C77.9969 18.872 77.671 18.6814 77.3262 18.4799C76.9802 18.2805 76.6153 18.0702 76.238 17.8526C75.8595 17.6366 75.4685 17.4136 75.0711 17.187C74.6725 16.9624 74.2675 16.7344 73.8624 16.5064C73.0514 16.0522 72.2363 15.6042 71.4703 15.1883C71.086 14.982 70.7163 14.7796 70.362 14.5943C70.0084 14.4075 69.6742 14.2308 69.3656 14.0678C69.0557 13.9074 68.7714 13.7604 68.5193 13.6302C68.2675 13.4996 68.0469 13.3874 67.8643 13.297C67.5004 13.1133 67.2906 13.0117 67.2906 13.0117C67.0332 12.8873 66.7235 12.9949 66.5991 13.2522C66.4879 13.4821 66.562 13.7532 66.7623 13.8975C66.7623 13.8975 66.9513 14.0339 67.2857 14.267C67.4521 14.3845 67.6557 14.5252 67.8902 14.685C68.1244 14.8447 68.3889 15.0249 68.6774 15.2218C68.9675 15.4156 69.2816 15.6259 69.614 15.8482C69.9454 16.0718 70.2992 16.301 70.6632 16.5412C71.3932 17.0176 72.1746 17.5219 72.9596 18.0199C73.3526 18.268 73.7456 18.5159 74.1327 18.7601C74.5209 19.002 74.9031 19.2401 75.2728 19.4705C75.6437 19.6992 76.0021 19.9203 76.3418 20.13C76.683 20.3376 77.0054 20.5339 77.3031 20.7152C77.8976 21.0791 78.3975 21.3747 78.7456 21.5849C78.9198 21.6895 79.0567 21.7719 79.1501 21.828C79.1975 21.8546 79.2307 21.8807 79.2586 21.8887L79.2856 21.8629C79.2978 21.8483 79.3043 21.8428 79.3249 21.8137C79.3419 21.7904 79.3574 21.769 79.3717 21.7496L79.392 21.7216L79.4015 21.7087L79.416 21.6873C79.4926 21.5728 79.5314 21.5144 79.5314 21.5144C79.7226 21.2289 79.9021 20.9257 80.0598 20.6288Z" fill="#42210B"/>
<path d="M67.4944 10.8929C67.5391 10.8929 67.5772 10.9089 67.6104 10.9416C67.9042 11.2287 67.8535 12.6897 67.3111 14.3267C66.8378 15.7548 66.249 16.5252 65.9354 16.5252C65.8906 16.5252 65.8527 16.5095 65.8193 16.4768C65.5255 16.1894 65.5762 14.7285 66.1188 13.0917C66.5922 11.6635 67.1807 10.8929 67.4944 10.8929ZM65.9354 16.9993C66.4406 16.9993 67.108 16.0094 67.5961 14.5365C68.1027 13.0077 68.3411 11.0893 67.7852 10.5454C67.6993 10.4616 67.6017 10.4191 67.4944 10.4191C66.9892 10.4191 66.3219 11.4088 65.8336 12.8817C65.327 14.4107 65.0886 16.329 65.6448 16.8728C65.7304 16.9568 65.8283 16.9993 65.9354 16.9993Z" fill="#42210B"/>
<path d="M67.2277 10.4195C67.2277 10.4195 67.2198 10.528 67.1975 10.7117C67.1861 10.8035 67.1705 10.9139 67.1511 11.0392C67.1314 11.1645 67.1072 11.3044 67.0788 11.4558C67.05 11.6065 67.0167 11.7685 66.9794 11.9386C66.96 12.0231 66.9399 12.1098 66.9196 12.1985C66.8979 12.2862 66.8757 12.3759 66.8531 12.4671C66.8063 12.6483 66.7566 12.8345 66.7024 13.0215C66.6489 13.2084 66.5921 13.3972 66.5323 13.5834C66.4735 13.7706 66.4114 13.9555 66.3493 14.1367C66.2858 14.3169 66.223 14.4944 66.1584 14.6631C66.095 14.8327 66.0306 14.9948 65.9676 15.1468C65.905 15.2994 65.8432 15.4418 65.7845 15.5722C65.6675 15.8328 65.5618 16.0444 65.4843 16.19C65.446 16.2632 65.4127 16.3184 65.3915 16.3571C65.3691 16.3952 65.3573 16.4153 65.3573 16.4153L66.107 16.9346C66.107 16.9346 66.1097 16.908 66.1146 16.8582C66.1208 16.809 66.128 16.7356 66.1409 16.6447C66.1653 16.4624 66.2057 16.2057 66.2641 15.9043C66.2932 15.7534 66.3264 15.5914 66.3643 15.4217C66.4019 15.2521 66.4435 15.0741 66.4896 14.8925C66.5346 14.7102 66.5849 14.5244 66.6366 14.3358C66.6897 14.1482 66.7444 13.9583 66.8026 13.7706C66.8596 13.5823 66.9198 13.3963 66.9812 13.2144C67.0421 13.0323 67.1058 12.8558 67.1684 12.6854C67.2007 12.601 67.2325 12.5179 67.2635 12.4366C67.2958 12.3563 67.3274 12.2776 67.3583 12.201C67.4216 12.0489 67.4832 11.9065 67.542 11.7763C67.6013 11.6466 67.6574 11.5289 67.7089 11.4258C67.7608 11.3228 67.8072 11.234 67.8471 11.1617C67.927 11.0177 67.9775 10.9388 67.9775 10.9388L67.2277 10.4195Z" fill="#42210B"/>
<path d="M55.4973 14.0342C55.4973 14.0342 61.1718 13.6894 62.1419 13.7141C63.1121 13.7388 65.7729 12.4242 65.7729 12.4242L65.8655 11.3992C65.8655 11.3992 61.8386 12.5587 61.5381 12.5959C61.2374 12.6328 54.9478 12.6021 54.9478 12.6021C54.9478 12.6021 53.1924 13.9296 55.4973 14.0342Z" fill="#ABA000"/>
<path d="M55.7189 11.356L59.0178 12.6138L58.6227 13.7532C58.6227 13.7532 54.7011 14.0443 54.501 13.6274C54.3006 13.2106 55.7189 11.356 55.7189 11.356Z" fill="#ABA000"/>
<path d="M65.8655 11.594L66.4492 11.4119L66.07 12.2397L65.773 12.2326C65.773 12.2326 65.7811 11.6 65.8655 11.594Z" fill="#F0A77F"/>
<path d="M66.6253 11.3877C66.6253 11.3877 66.0765 12.3416 66.1307 12.4339C66.185 12.526 66.587 12.5627 66.6846 12.319C66.782 12.0753 67.0867 11.271 67.0867 11.271C67.0867 11.271 66.7585 11.1498 66.6253 11.3877Z" fill="#F0A77F"/>
<mask id="mask0_1_1621" style="mask-type:luminance" maskUnits="userSpaceOnUse" x="54" y="8" width="4" height="5">
<path d="M54.3008 8.47605C54.5824 8.09778 56.3048 9.63256 56.3048 9.63256C56.3048 9.63256 56.509 10.4997 56.6787 11.0953C56.7786 11.4461 57.0916 12.1958 57.4546 12.9253C56.4636 12.1992 55.3684 11.5555 54.7802 11.2239C54.8226 10.4669 54.3008 8.47605 54.3008 8.47605Z" fill="white"/>
</mask>
<g mask="url(#mask0_1_1621)">
<path d="M54.3008 8.47605C54.5824 8.09778 56.3048 9.63256 56.3048 9.63256C56.3048 9.63256 56.509 10.4997 56.6787 11.0953C56.7786 11.4461 57.0916 12.1958 57.4546 12.9253C56.4636 12.1992 55.3684 11.5555 54.7802 11.2239C54.8226 10.4669 54.3008 8.47605 54.3008 8.47605Z" fill="url(#paint0_linear_1_1621)"/>
</g>
<path d="M54.7272 11.4588C54.7577 11.4099 54.7743 11.3287 54.7803 11.2239C55.3686 11.5555 56.4637 12.1992 57.4548 12.9253C57.7086 13.4356 57.9867 13.9359 58.2335 14.2833C58.8333 15.1275 58.8257 18.426 58.8257 18.426C58.8257 18.426 55.8824 18.9312 55.7365 19.093C55.776 18.7773 55.2115 16.8008 54.5959 15.2542C53.9804 13.7074 54.7272 11.4588 54.7272 11.4588Z" fill="#BFB300"/>
<path d="M50.0935 14.8441L70.6342 15.0278L62.3099 2.71889C62.0595 2.67873 61.7862 2.63973 61.4853 2.60373C59.4407 2.35839 56.9453 2.32701 55 2.32701C54.4278 2.32701 53.8728 2.32977 53.3459 2.33254C52.864 2.33485 52.4054 2.33739 51.9787 2.33739C51.3627 2.33739 50.7315 2.3367 50.0935 2.33623V14.8441ZM29.9568 1.77956C31.6811 1.00456 47.5117 0.573895 51.9789 0.573895C56.4459 0.573895 64.4004 0.315637 66.1637 2.38216C67.927 4.44869 75.96 16.8342 75.96 16.8342L19.0636 16.3939C19.0636 16.3939 28.2328 2.55434 29.9568 1.77956Z" fill="#00A84A"/>
<path d="M13.0878 26.9438L24.327 32.8367L33.3633 25.5458C33.3633 25.5458 19.6708 14.6397 13.0878 26.9438Z" fill="#00701E"/>
<path d="M73.6731 26.3965L84.9125 32.2893L93.9487 24.9986C93.9487 24.9986 80.2563 14.0924 73.6731 26.3965Z" fill="#00701E"/>
<path d="M2.26694 23.6714C2.33017 24.1598 1.98538 24.6069 1.49679 24.6701C1.00843 24.7331 0.561374 24.3882 0.498367 23.8999L0.0314722 20.2857C-0.0315344 19.7973 0.313274 19.35 0.801633 19.287C1.28999 19.224 1.73703 19.5688 1.80004 20.0572L2.26694 23.6714Z" fill="#DE6500"/>
<path d="M99.6194 22.9023C99.4431 24.3655 98.795 25.4909 98.1719 25.4159C97.5489 25.3409 97.1867 24.0937 97.3631 22.6304C97.5394 21.167 98.1875 20.0417 98.8106 20.1167C99.4337 20.1919 99.7958 21.4389 99.6194 22.9023Z" fill="#D5EBFF"/>
<path d="M97.502 17.6078C79.2678 14.4517 2.68471 16.8187 2.68471 16.8187C1.83654 16.8187 1.14901 17.5254 1.14901 18.3969L2.45738 29.475C2.45738 30.3467 3.14491 31.0531 3.99308 31.0531L15.7852 31.1249C15.8072 27.4276 19.1948 24.436 23.3714 24.436H24.9521C29.1424 24.436 32.5392 27.447 32.5392 31.1608V31.2271L76.8415 31.497V30.8232C76.8415 26.633 80.2384 23.2362 84.4286 23.2362H86.0093C90.1996 23.2362 93.5965 26.633 93.5965 30.8232V31.5992L95.9664 31.6135C96.8145 31.6135 97.502 30.907 97.502 30.0353L99.0376 19.1859C99.0376 18.3142 98.3384 17.7525 97.502 17.6078Z" fill="#00A84A"/>
<mask id="mask1_1_1621" style="mask-type:luminance" maskUnits="userSpaceOnUse" x="19" y="0" width="57" height="17">
<path d="M19.0633 16.3939C19.0633 16.3939 28.2328 2.55433 29.9568 1.77933C31.6811 1.00456 47.5117 0.573895 51.9789 0.573895C56.4459 0.573895 64.4004 0.315637 66.1637 2.38216C67.927 4.44846 75.96 16.8342 75.96 16.8342L19.0633 16.3939Z" fill="white"/>
</mask>
<g mask="url(#mask1_1_1621)">
<path d="M65.9459 2.16548C65.9459 2.16548 64.9834 2.84494 65.9459 4.54958C66.9083 6.25399 71.2578 15.1019 75.4899 15.0276C79.7219 14.9531 75.3918 11.544 74.6082 10.5643C73.8245 9.5848 65.9459 2.16548 65.9459 2.16548Z" fill="#2E4349"/>
<path d="M74.2869 10.8215C74.439 11.0117 74.6963 11.2688 74.9943 11.5668C75.6276 12.1998 77.1111 13.6827 76.8893 14.2317C76.8549 14.3169 76.6521 14.5957 75.4826 14.6162L75.4367 14.6167C71.8509 14.6165 67.9366 7.36469 66.6506 4.98175C66.5087 4.7191 66.3924 4.50354 66.304 4.3473C65.8569 3.55498 65.8927 3.05739 65.9989 2.78113C68.7945 5.41749 73.7053 10.0945 74.2869 10.8215ZM75.4969 15.439C76.7116 15.4178 77.4167 15.1235 77.6523 14.5398C78.046 13.565 76.9449 12.3531 75.5761 10.9847C75.2955 10.7043 75.0529 10.4619 74.9294 10.3075C74.1366 9.31651 66.5505 2.16999 66.2278 1.86626L65.9832 1.6357L65.7085 1.82957C65.6568 1.86603 64.4553 2.74651 65.5876 4.75188C65.6739 4.90466 65.7877 5.11561 65.9264 5.37271C67.4125 8.12585 71.3597 15.4392 75.4365 15.4397L75.4969 15.439Z" fill="#332D24"/>
<path d="M29.635 1.97655C29.635 1.97655 31.0567 2.91911 29.635 5.19173C28.2131 7.46459 24.3272 14.6005 24.3272 14.6005C24.3272 14.6005 17.9564 15.727 18.0348 12.984C18.1133 10.2413 27.7651 0.798806 29.635 1.97655Z" fill="#2E4349"/>
<path d="M29.4091 2.32069C29.5029 2.39062 30.4288 3.14716 29.2861 4.97366C27.9999 7.0298 24.674 13.1068 24.0628 14.2262C23.6566 14.2871 22.664 14.4182 21.6159 14.4182C20.1638 14.4182 19.1596 14.1747 18.7119 13.714C18.5247 13.5216 18.4379 13.2866 18.4462 12.9958C18.476 11.9494 20.3454 9.38228 22.9919 6.75285C25.6387 4.12342 28.2051 2.28676 29.2328 2.28676C29.3088 2.28676 29.3695 2.29854 29.4091 2.32069ZM24.3989 15.0058L24.5939 14.9712L24.6885 14.7974C24.7273 14.7261 28.5848 7.64626 29.9838 5.4101C31.5994 2.82752 29.88 1.64516 29.8544 1.62831C29.681 1.51915 29.4719 1.46399 29.2328 1.46399C27.6957 1.46399 24.7014 3.89447 22.412 6.16918C20.1262 8.43995 17.668 11.4197 17.6237 12.9723C17.6089 13.4897 17.7765 13.9322 18.1217 14.2873C18.7368 14.9202 19.9125 15.2412 21.6159 15.2412C23.051 15.2412 24.3444 15.0153 24.3989 15.0058Z" fill="#332D24"/>
</g>
<path d="M29.7142 14.6004C28.9353 14.6004 28.3036 15.2321 28.3036 16.0111V22.7421H28.6332C32.0051 22.7421 34.7386 25.4757 34.7386 28.8476V29.3564H50.0935V14.6004H29.7142Z" fill="#00A84A"/>
<path d="M34.7974 28.8478C34.7974 25.4488 32.032 22.6835 28.6331 22.6835H28.3624V16.0112C28.3624 15.2657 28.9687 14.6594 29.7142 14.6594H50.0346V29.2978H34.7974V28.8478ZM50.1521 14.5417H29.7142C28.9041 14.5417 28.2449 15.2011 28.2449 16.0112V22.8012H28.6331C31.9672 22.8012 34.6797 25.5137 34.6797 28.8478V29.4153H50.1521V14.5417Z" fill="#00873C"/>
<path d="M71.635 16.0307C71.4524 15.2732 71.1845 15.0657 70.4056 15.0657L50.0934 14.6004V29.3564H70.4441C71.2233 29.3564 71.6948 28.7081 71.8547 27.9456C72.1284 26.6415 72.2766 26.1095 72.2766 22.6641C72.2766 19.0395 71.9318 17.264 71.635 16.0307Z" fill="#00A84A"/>
<path d="M50.152 14.6608L70.4056 15.1247C71.1609 15.1247 71.4019 15.3137 71.5778 16.0447C71.9101 17.4257 72.2177 19.1835 72.2177 22.6643C72.2177 25.9416 72.0818 26.5854 71.8351 27.7545L71.7972 27.9338C71.6181 28.7879 71.1122 29.2978 70.4441 29.2978H50.152V14.6608ZM71.9124 27.958L71.95 27.7787C72.1986 26.6021 72.3354 25.9538 72.3354 22.6643C72.3354 19.1712 72.0262 17.4052 71.692 16.017C71.5034 15.2337 71.2149 15.0073 70.4069 15.0073L50.0346 14.5404V29.4153H70.4441C71.301 29.4153 71.7645 28.6624 71.9124 27.958Z" fill="#00873C"/>
<path d="M29.5009 14.6595L37.2256 14.7288L37.0103 2.8842C36.0728 3.49534 32.9434 10.6564 29.5009 14.6595Z" fill="#2E4349"/>
<path d="M35.2261 6.49667C35.7216 5.60557 36.2272 4.69625 36.6201 4.06064L36.8068 14.3136L30.3658 14.2559C32.211 11.9189 33.9355 8.81776 35.2261 6.49667ZM37.4493 2.362L36.7855 2.53971C36.3339 2.83397 35.7273 3.90208 34.5069 6.0967C33.1053 8.61743 31.1858 12.0694 29.189 14.3914L28.6113 15.0633L37.6448 15.144L37.4493 2.362Z" fill="#332D24"/>
<path d="M50.5049 2.74778L51.9787 2.74847C52.405 2.74847 52.8631 2.74616 53.3478 2.74363L53.3925 2.74339C53.9056 2.74086 54.4447 2.73832 55 2.73832C56.9341 2.73832 59.4133 2.76924 61.4364 3.01204C61.6522 3.03789 61.8645 3.06651 62.0695 3.09766L69.8546 14.6092L50.5049 14.4361V2.74778ZM62.5509 2.34089L62.3753 2.3125C62.1064 2.26911 61.8234 2.22965 61.5345 2.19503C59.4682 1.94716 56.9569 1.91531 55 1.91531C54.4433 1.91531 53.9028 1.91808 53.3886 1.92061L53.3402 1.92085C52.8603 1.92338 52.4038 1.92569 51.9787 1.92569L49.6821 1.92454V15.2515L71.4141 15.446L62.5509 2.34089Z" fill="#332D24"/>
<path d="M37.2256 2.84065V14.7288L50.0935 14.844V2.33613C44.7412 2.3329 38.8963 2.34352 37.2256 2.84065Z" fill="#2E4349"/>
<path d="M37.637 3.16222C39.4632 2.78095 44.5019 2.74748 49.1358 2.74748H49.6819V14.4289L37.637 14.3211V3.16222ZM50.5046 1.92516L49.1358 1.92447C43.9374 1.92447 38.7266 1.96486 37.1082 2.44629L36.8142 2.53377V15.1367L50.5046 15.259V1.92516Z" fill="#332D24"/>
<path d="M35.083 17.6841C35.083 17.9218 34.8903 18.1143 34.6528 18.1143H30.8535C30.616 18.1143 30.4233 17.9218 30.4233 17.6841V17.2181C30.4233 16.9806 30.616 16.7881 30.8535 16.7881H34.6528C34.8903 16.7881 35.083 16.9806 35.083 17.2181V17.6841Z" fill="#006E0E"/>
<path d="M34.9993 17.1584C34.9993 17.3631 34.8336 17.5288 34.6291 17.5288H30.8773C30.6728 17.5288 30.5071 17.3631 30.5071 17.1584C30.5071 16.9539 30.6728 16.7882 30.8773 16.7882H34.6291C34.8336 16.7882 34.9993 16.9539 34.9993 17.1584Z" fill="#CBCBCB"/>
<path d="M56.8308 17.6841C56.8308 17.9218 56.6381 18.1143 56.4006 18.1143H52.6013C52.3636 18.1143 52.1711 17.9218 52.1711 17.6841V17.2181C52.1711 16.9806 52.3636 16.7881 52.6013 16.7881H56.4006C56.6381 16.7881 56.8308 16.9806 56.8308 17.2181V17.6841Z" fill="#006E0E"/>
<path d="M56.7471 17.1584C56.7471 17.3631 56.5814 17.5288 56.3766 17.5288H52.6251C52.4206 17.5288 52.2547 17.3631 52.2547 17.1584C52.2547 16.9539 52.4206 16.7882 52.6251 16.7882H56.3766C56.5814 16.7882 56.7471 16.9539 56.7471 17.1584Z" fill="#CBCBCB"/>
<path d="M92.3342 31.9677C92.3342 35.9943 89.07 39.2585 85.0434 39.2585C81.0169 39.2585 77.7526 35.9943 77.7526 31.9677C77.7526 27.9411 81.0169 24.677 85.0434 24.677C89.07 24.677 92.3342 27.9411 92.3342 31.9677Z" fill="#323430"/>
<path d="M89.0308 31.9677C89.0308 34.1699 87.2455 35.9551 85.0433 35.9551C82.8412 35.9551 81.0559 34.1699 81.0559 31.9677C81.0559 29.7655 82.8412 27.9803 85.0433 27.9803C87.2455 27.9803 89.0308 29.7655 89.0308 31.9677Z" fill="#F1F1F1"/>
<path d="M88.509 31.9677C88.509 33.882 86.9573 35.4336 85.0433 35.4336C83.1292 35.4336 81.5775 33.882 81.5775 31.9677C81.5775 30.0538 83.1292 28.5019 85.0433 28.5019C86.9573 28.5019 88.509 30.0538 88.509 31.9677Z" fill="#CBCBCB"/>
<path d="M86.2756 31.9677C86.2756 32.6484 85.724 33.2 85.0434 33.2C84.3628 33.2 83.8112 32.6484 83.8112 31.9677C83.8112 31.2872 84.3628 30.7355 85.0434 30.7355C85.724 30.7355 86.2756 31.2872 86.2756 31.9677Z" fill="#4D4D4D"/>
<path d="M90.4608 31.9676C90.4608 34.9548 88.0305 37.385 85.0434 37.385C82.0562 37.385 79.6259 34.9548 79.6259 31.9676C79.6259 28.9805 82.0562 26.5502 85.0434 26.5502C88.0305 26.5502 90.4608 28.9805 90.4608 31.9676ZM91.9214 31.9676C91.9214 28.175 88.836 25.0895 85.0434 25.0895C81.2509 25.0895 78.1655 28.175 78.1655 31.9676C78.1655 35.7603 81.2509 38.8457 85.0434 38.8457C88.836 38.8457 91.9214 35.7603 91.9214 31.9676Z" fill="#4A4D47"/>
<path d="M85.0376 30.1224L85.0337 28.9103C84.4968 28.9122 83.9686 29.0549 83.5067 29.3241L84.1166 30.3716C84.3948 30.2097 84.7132 30.1235 85.0376 30.1224ZM87.6855 30.4284C87.4156 29.9661 87.0277 29.581 86.5635 29.3146L85.9602 30.3659C86.2409 30.527 86.4754 30.7599 86.6386 31.0393L87.6855 30.4284ZM83.198 31.9678C83.198 31.645 83.2826 31.3272 83.4424 31.0493L82.3918 30.4449C82.1263 30.9064 81.9859 31.4329 81.9859 31.9678V31.9729L83.198 31.9678ZM88.1008 31.9616V31.9575H86.8887V31.9678C86.8887 32.2924 86.8036 32.6111 86.6424 32.8896L87.6918 33.4964C87.9595 33.0336 88.1009 32.5049 88.1008 31.9616ZM84.1232 33.568C83.8429 33.4061 83.6087 33.1728 83.4462 32.8929L82.3981 33.5019C82.6669 33.9646 83.054 34.3506 83.5176 34.6181L84.1232 33.568ZM86.5746 34.6148L85.9667 33.5661C85.6882 33.7275 85.3696 33.8128 85.0454 33.8133L85.0464 35.0254C85.5836 35.0249 86.1119 34.883 86.5746 34.6148Z" fill="black"/>
<path d="M31.6179 32.8367C31.6179 36.8633 28.3536 40.1274 24.3269 40.1274C20.3005 40.1274 17.0361 36.8633 17.0361 32.8367C17.0361 28.8103 20.3005 25.5459 24.3269 25.5459C28.3536 25.5459 31.6179 28.8103 31.6179 32.8367Z" fill="#323430"/>
<path d="M28.3145 32.8368C28.3145 35.039 26.5293 36.8242 24.327 36.8242C22.125 36.8242 20.3398 35.039 20.3398 32.8368C20.3398 30.6345 22.125 28.8493 24.327 28.8493C26.5293 28.8493 28.3145 30.6345 28.3145 32.8368Z" fill="#F1F1F1"/>
<path d="M27.7927 32.8367C27.7927 34.7508 26.2411 36.3025 24.3269 36.3025C22.4129 36.3025 20.8613 34.7508 20.8613 32.8367C20.8613 30.9226 22.4129 29.3711 24.3269 29.3711C26.2411 29.3711 27.7927 30.9226 27.7927 32.8367Z" fill="#CBCBCB"/>
<path d="M25.5593 32.8367C25.5593 33.5173 25.0075 34.0688 24.3269 34.0688C23.6465 34.0688 23.0947 33.5173 23.0947 32.8367C23.0947 32.1561 23.6465 31.6045 24.3269 31.6045C25.0075 31.6045 25.5593 32.1561 25.5593 32.8367Z" fill="#4D4D4D"/>
<path d="M29.5921 32.8368C29.5921 35.7399 27.2302 38.1019 24.327 38.1019C21.4241 38.1019 19.0621 35.7399 19.0621 32.8368C19.0621 29.9336 21.4241 27.5716 24.327 27.5716C27.2302 27.5716 29.5921 29.9336 29.5921 32.8368ZM31.0117 32.8368C31.0117 29.1509 28.013 26.1522 24.327 26.1522C20.6412 26.1522 17.6428 29.1509 17.6428 32.8368C17.6428 36.5225 20.6412 39.5212 24.327 39.5212C28.013 39.5212 31.0117 36.5225 31.0117 32.8368Z" fill="#4D4D4D"/>
<path d="M24.3212 30.9914L24.3175 29.7792C23.7805 29.781 23.2524 29.9241 22.7903 30.1931L23.4003 31.2407C23.6784 31.0785 23.9969 30.9926 24.3212 30.9914ZM26.9691 31.2974C26.6993 30.8351 26.3113 30.4499 25.8472 30.1836L25.2439 31.2349C25.5246 31.3959 25.7593 31.6289 25.9224 31.9083L26.9691 31.2974ZM22.4818 32.8368C22.4818 32.5139 22.5662 32.1961 22.7262 31.9182L21.6754 31.3138C21.41 31.7754 21.2696 32.302 21.2696 32.8368V32.8419L22.4818 32.8368ZM27.3845 32.8305V32.8264H26.1724V32.8368C26.1724 33.1613 26.0872 33.48 25.9261 33.7585L26.9756 34.3653C27.2433 33.9026 27.3845 33.374 27.3845 32.8305ZM23.407 34.4369C23.1266 34.2751 22.8926 34.0417 22.7299 33.7621L21.6818 34.3709C21.9507 34.8336 22.3378 35.2195 22.8012 35.4868L23.407 34.4369ZM25.8583 35.4837L25.2504 34.4351C24.972 34.5963 24.6533 34.6817 24.329 34.6822L24.3302 35.8943C24.8673 35.8938 25.3958 35.7519 25.8583 35.4837Z" fill="black"/>
<path d="M9.79639 30.2674C9.79639 31.0465 9.2771 31.678 8.63619 31.678H1.16032C0.519639 31.678 0.000121725 31.0465 0.000121725 30.2674V27.4309C0.000121725 26.6518 0.519639 26.0204 1.16032 26.0204H7.33128C7.97196 26.0204 8.0562 26.689 8.49125 27.4309L9.79639 30.2674Z" fill="#E0E0E0"/>
<path d="M93.3786 30.5097C93.3786 31.143 93.7296 31.6565 94.1626 31.6565H99.2159C99.6489 31.6565 100 31.143 100 30.5097V28.2036C100 27.57 99.6489 27.0565 99.2159 27.0565H95.0448C94.6118 27.0565 94.5547 27.6003 94.2607 28.2036L93.3786 30.5097Z" fill="#E0E0E0"/>
<path d="M94.9585 20.1962C94.9585 20.5961 94.6342 20.9204 94.2343 20.9204H91.2869C90.8869 20.9204 90.5627 20.5961 90.5627 20.1962C90.5627 19.7962 90.8869 19.472 91.2869 19.472H94.2343C94.6342 19.472 94.9585 19.7962 94.9585 20.1962Z" fill="#FF9D00"/>
<path d="M98.5043 19.8636C98.8958 19.9453 99.1282 20.4183 99.0235 20.9198L98.2512 24.6148C98.1464 25.1163 97.7441 25.4564 97.3525 25.3746C96.9611 25.2928 96.7286 24.8199 96.8334 24.3187L97.6056 20.6234C97.7104 20.122 98.1127 19.782 98.5043 19.8636Z" fill="#FF9D00"/>
<path d="M98.492 19.9212C98.6633 19.9573 98.807 20.0776 98.897 20.2603C98.9893 20.4482 99.0136 20.6781 98.9656 20.9079L98.1935 24.6029C98.107 25.0163 97.796 25.3281 97.4699 25.3281C97.4346 25.3281 97.3989 25.3244 97.3644 25.3172C97.1931 25.2814 97.0493 25.161 96.9594 24.9783C96.8671 24.7904 96.8428 24.5605 96.8907 24.3309L97.6629 20.6356C97.7494 20.2223 98.0605 19.9104 98.3865 19.9104C98.4218 19.9104 98.4574 19.9141 98.492 19.9212ZM98.3085 24.6269L99.0807 20.932C99.134 20.6767 99.1063 20.4198 99.0025 20.2087C98.8962 19.9926 98.7235 19.8498 98.516 19.8064C98.4735 19.7974 98.4299 19.793 98.3865 19.793C97.9997 19.793 97.647 20.1371 97.5479 20.6116L96.7757 24.3069C96.7223 24.5621 96.7501 24.8189 96.8539 25.0302C96.9602 25.2462 97.1329 25.389 97.3403 25.4324C97.3829 25.4412 97.4264 25.4458 97.4699 25.4458C97.8567 25.4458 98.2093 25.1015 98.3085 24.6269Z" fill="white"/>
<mask id="mask2_1_1621" style="mask-type:luminance" maskUnits="userSpaceOnUse" x="1" y="15" width="99" height="17">
<path d="M97.502 17.6078C79.268 14.4514 2.68471 16.8187 2.68471 16.8187C1.83654 16.8187 1.14901 17.5254 1.14901 18.3969L2.45738 29.475C2.45738 30.3467 3.14491 31.0531 3.99308 31.0531L15.7852 31.1249C15.8072 27.4276 19.1948 24.436 23.3714 24.436H24.9521C29.1424 24.436 32.5392 27.4467 32.5392 31.1608V31.2271L76.8415 31.497V30.8232C76.8415 26.633 80.2384 23.2359 84.4287 23.2359H86.0093C90.1996 23.2359 93.5965 26.633 93.5965 30.8232V31.5992L95.9664 31.6135C96.8146 31.6135 97.502 30.907 97.502 30.0353L99.0376 19.1859C99.0376 18.3142 98.3384 17.7525 97.502 17.6078Z" fill="white"/>
</mask>
<g mask="url(#mask2_1_1621)">
<path d="M21.2698 16.4107C21.2698 16.4107 18.8873 17.4595 13.7147 17.5287C8.54243 17.5979 1.06588 17.4968 0.548667 18.8911C0.0314584 20.2856 -2.30579 16.4225 1.14919 15.3645C4.6044 14.3066 19.0675 15.5762 21.2698 16.4107Z" fill="#00CC29"/>
<path d="M75.0783 15.9665C75.0783 15.9665 75.6999 17.3042 85.0433 17.4805C94.3868 17.6568 98.8539 18.4364 99.3829 19.472C99.9119 20.5076 100.412 17.5394 96.9436 16.4814C93.4757 15.4232 76.1361 15.1139 75.0783 15.9665Z" fill="#00CC29"/>
</g>
<path d="M94.9234 27.9803C94.9234 28.4244 95.2834 28.7844 95.7275 28.7844H98.9095C99.3536 28.7844 99.7136 28.4244 99.7136 27.9803C99.7136 27.5363 99.3536 27.1763 98.9095 27.1763H95.7275C95.2834 27.1763 94.9234 27.5363 94.9234 27.9803Z" fill="#F2F2F2"/>
<path d="M0.353176 27.3577C0.353176 27.8784 0.7753 28.3005 1.29597 28.3005H6.45883C6.9795 28.3005 7.40161 27.8784 7.40161 27.3577C7.40161 26.8371 6.9795 26.415 6.45883 26.415H1.29597C0.7753 26.415 0.353176 26.8371 0.353176 27.3577Z" fill="#F1F1F1"/>
<mask id="mask3_1_1621" style="mask-type:luminance" maskUnits="userSpaceOnUse" x="61" y="11" width="3" height="3">
<path d="M62.3493 13.6274C62.3493 13.6274 63.2127 12.7451 63.002 12.0677C62.7915 11.3906 62.0096 11.2667 61.5907 11.4077C61.1718 11.5489 61.2219 11.8995 61.3244 12.1612C61.4269 12.4229 61.7867 12.5506 61.8321 12.8693C61.8776 13.1878 61.798 13.4269 61.798 13.4269L62.3493 13.6274Z" fill="white"/>
</mask>
<g mask="url(#mask3_1_1621)">
<path d="M62.3493 13.6274C62.3493 13.6274 63.2127 12.7451 63.002 12.0677C62.7915 11.3906 62.0096 11.2667 61.5907 11.4077C61.1718 11.5489 61.2219 11.8995 61.3244 12.1612C61.4269 12.4229 61.7867 12.5506 61.8321 12.8693C61.8776 13.1878 61.798 13.4269 61.798 13.4269L62.3493 13.6274Z" fill="url(#paint1_linear_1_1621)"/>
</g>
<path d="M56.4431 13.4398C56.4431 13.4398 58.8549 15.7161 59.5285 16.268C59.5285 16.268 61.1492 14.5709 61.6738 13.1151L62.3648 13.5268L62.4749 13.5924C62.4749 13.5924 60.5865 17.695 59.6409 18.3938C59.6409 18.3938 55.7636 16.1297 55.2388 15.2183C55.2388 15.2183 54.5326 14.023 55.0138 13.6443C55.4952 13.2653 56.0496 13.0699 56.4431 13.4398Z" fill="#C9BD00"/>
<path d="M57.1711 4.08416C57.1711 4.08416 57.5242 5.07634 57.8933 6.3764C58.2623 7.67646 58.6194 8.79488 57.9803 9.74575C57.3412 10.6966 57.2958 11.1681 56.7239 11.2076C56.1517 11.2471 54.4314 10.253 54.0921 9.55466C53.7526 8.85651 53.0621 5.89727 52.9594 5.3766C52.8567 4.8557 54.8431 2.28904 57.1711 4.08416Z" fill="#FFB890"/>
<path d="M57.3298 4.54842C57.3298 4.54842 57.5689 3.64532 57.3871 3.16227C57.2054 2.67945 56.8055 2.11654 56.8055 2.11654C56.8055 2.11654 56.5082 3.06095 56.0558 3.18189C55.6035 3.30282 55.9665 2.29287 55.6956 2.50058C55.4246 2.70853 55.2301 3.05564 54.1096 3.36606C52.9891 3.67671 52.1977 4.05613 51.8819 3.94928C51.566 3.84242 53.1439 7.39341 53.3507 8.11533C53.5575 8.83726 53.8042 8.74217 53.7701 8.62469C53.7359 8.50722 54.1993 8.79248 54.1993 8.79248C54.1993 8.79248 54.0874 8.07564 54.0558 7.72321C54.0242 7.37079 53.7599 6.44092 53.7389 6.16213C53.7177 5.88333 54.2924 5.52883 54.8744 5.05109C55.4562 4.57334 56.667 3.98551 57.3298 4.54842Z" fill="#621E02"/>
<path d="M57.4414 9.71942C57.4414 9.71942 55.8224 9.23707 55.6631 9.04366C55.6631 9.04366 55.5713 9.91168 55.8263 10.1852C55.8263 10.1852 56.4958 10.3996 57.344 10.4192C57.344 10.4192 57.5466 9.92991 57.4414 9.71942Z" fill="#A15A30"/>
<path d="M57.5765 6.19612L56.5663 6.75394L56.6584 7.00366L57.6331 6.59216L57.5765 6.19612Z" fill="#621E02"/>
<path d="M56.1648 6.96168C56.1648 6.96168 56.0496 7.21301 55.9405 7.30371C55.9405 7.30371 54.8726 7.12762 54.5952 7.09207C54.6559 7.10038 54.5294 6.69742 54.9081 6.71842C55.2869 6.73942 56.1648 6.96168 56.1648 6.96168Z" fill="#621E02"/>
<path d="M57.727 7.04873C57.727 7.04873 57.8186 7.67649 57.5059 7.75634C57.1932 7.8362 56.7667 7.6294 56.7387 7.4997C56.7655 7.39538 57.727 7.04873 57.727 7.04873Z" fill="white"/>
<path d="M57.0315 7.54229C57.0534 7.69485 57.1875 7.8017 57.3311 7.78116C57.4749 7.76062 57.5736 7.6203 57.5519 7.46775C57.53 7.31542 57.3959 7.20833 57.2521 7.22887C57.1086 7.24941 57.0098 7.38974 57.0315 7.54229Z" fill="#5F6202"/>
<path d="M57.7771 7.04117C57.7771 7.04117 57.7584 7.04302 57.727 7.04879C57.6954 7.0541 57.6509 7.06356 57.5989 7.07741C57.5468 7.09148 57.487 7.10995 57.4242 7.13257C57.3928 7.14387 57.3607 7.15611 57.3284 7.16949C57.2959 7.18219 57.2636 7.1958 57.2308 7.20965C57.1987 7.22396 57.1664 7.23827 57.1353 7.2535C57.1036 7.26827 57.0732 7.28397 57.0439 7.29943C56.985 7.33059 56.9315 7.36244 56.886 7.39152C56.8408 7.42083 56.8038 7.4476 56.7782 7.46745C56.7528 7.48683 56.7388 7.49976 56.7388 7.49976C56.7388 7.49976 56.7572 7.49837 56.7886 7.49306C56.8202 7.48822 56.8645 7.47968 56.9167 7.46629C56.9691 7.45314 57.0291 7.43536 57.0923 7.41344C57.124 7.40236 57.1565 7.39059 57.189 7.37767C57.2218 7.36497 57.2546 7.3509 57.2874 7.33705C57.3199 7.32251 57.3527 7.3082 57.3841 7.2925C57.4154 7.27704 57.4457 7.26112 57.475 7.24496C57.5336 7.21311 57.5869 7.18057 57.6319 7.1508C57.6769 7.12102 57.7134 7.09402 57.7383 7.07394C57.7635 7.05409 57.7771 7.04117 57.7771 7.04117Z" fill="#42210B"/>
<path d="M56.1438 7.70668C56.1438 7.70668 56.1036 8.18926 55.7482 8.1978C55.393 8.20634 55.0981 7.93378 54.9896 7.68383C54.9896 7.68383 55.625 7.51627 56.1438 7.70668Z" fill="white"/>
<path d="M55.4448 7.93342C55.4668 8.08598 55.6008 8.19307 55.7446 8.17252C55.8882 8.15198 55.987 8.01166 55.9653 7.85911C55.9433 7.70655 55.8093 7.5997 55.6657 7.62024C55.5219 7.64078 55.4231 7.78087 55.4448 7.93342Z" fill="#5F6202"/>
<path d="M56.1438 7.7066C56.1438 7.7066 56.1274 7.69645 56.0976 7.68237C56.0679 7.66783 56.0247 7.6496 55.9716 7.63206C55.9185 7.61475 55.8558 7.59698 55.7872 7.58451C55.7531 7.57759 55.7173 7.57274 55.6811 7.56836C55.6446 7.56328 55.6074 7.56167 55.5703 7.5589C55.5329 7.5582 55.4955 7.55705 55.4586 7.5582L55.4039 7.56143L55.3506 7.56628C55.3155 7.57113 55.2818 7.57528 55.2502 7.58244C55.2183 7.59005 55.1885 7.59675 55.1615 7.60505C55.1345 7.61429 55.1101 7.62329 55.0886 7.6316C55.0671 7.63967 55.0496 7.65075 55.0348 7.65791C55.0055 7.67337 54.9896 7.68376 54.9896 7.68376C54.9896 7.68376 55.0092 7.68514 55.0415 7.68468C55.0579 7.68491 55.0771 7.68352 55.0995 7.68445C55.1218 7.68514 55.1465 7.68537 55.1733 7.68514C55.2001 7.6856 55.2292 7.68629 55.2599 7.68699C55.2903 7.68699 55.3229 7.68975 55.3559 7.68998C55.4223 7.69252 55.4932 7.6953 55.564 7.6983C55.5996 7.69968 55.6351 7.70129 55.67 7.70291C55.7051 7.70499 55.7397 7.70545 55.7734 7.70707C55.8071 7.70822 55.8396 7.70914 55.8705 7.71007C55.9017 7.71053 55.9312 7.71099 55.9585 7.71122C56.0132 7.71191 56.0593 7.71076 56.0919 7.70937C56.1246 7.70822 56.1438 7.7066 56.1438 7.7066Z" fill="#42210B"/>
<mask id="mask4_1_1621" style="mask-type:luminance" maskUnits="userSpaceOnUse" x="56" y="7" width="2" height="3">
<path d="M56.6455 7.63526C56.6455 7.63526 56.61 8.04423 56.8532 8.30064C57.0965 8.55705 57.4538 8.59051 57.4678 8.73891C57.4819 8.88708 57.2705 9.21804 56.8311 9.08349C56.3917 8.94917 56.4902 8.71883 56.472 8.52428C56.4535 8.32949 56.4468 7.62603 56.4468 7.62603L56.6455 7.63526Z" fill="white"/>
</mask>
<g mask="url(#mask4_1_1621)">
<path d="M56.6455 7.63526C56.6455 7.63526 56.61 8.04423 56.8532 8.30064C57.0965 8.55705 57.4538 8.59051 57.4678 8.73891C57.4819 8.88708 57.2705 9.21804 56.8311 9.08349C56.3917 8.94917 56.4902 8.71883 56.472 8.52428C56.4535 8.32949 56.4468 7.62603 56.4468 7.62603L56.6455 7.63526Z" fill="url(#paint2_linear_1_1621)"/>
</g>
<mask id="mask5_1_1621" style="mask-type:luminance" maskUnits="userSpaceOnUse" x="52" y="7" width="2" height="2">
<path d="M53.8184 7.83781C53.8184 7.83781 52.8826 6.90932 52.8235 7.67879C52.7644 8.44825 53.4646 9.20757 53.9421 8.70259L53.8184 7.83781Z" fill="white"/>
</mask>
<g mask="url(#mask5_1_1621)">
<path d="M53.8184 7.83781C53.8184 7.83781 52.8826 6.90932 52.8235 7.67879C52.7644 8.44825 53.4646 9.20757 53.9421 8.70259L53.8184 7.83781Z" fill="url(#paint3_linear_1_1621)"/>
</g>
<mask id="mask6_1_1621" style="mask-type:luminance" maskUnits="userSpaceOnUse" x="55" y="9" width="3" height="2">
<path d="M57.4414 9.71966C57.4414 9.71966 55.8224 9.23683 55.6631 9.04366C55.6631 9.04366 55.5713 9.91168 55.8263 10.1852C55.8263 10.1852 56.4958 10.3996 57.344 10.4192C57.344 10.4192 57.5466 9.92991 57.4414 9.71966Z" fill="white"/>
</mask>
<g mask="url(#mask6_1_1621)">
<path d="M57.5635 9.91821C57.5635 9.91821 55.8813 9.6498 55.5169 9.33638C55.1527 9.02273 55.5801 8.79263 55.8827 8.87133C56.1852 8.95026 57.7576 9.48386 57.5635 9.91821Z" fill="white"/>
</g>
<defs>
<linearGradient id="paint0_linear_1_1621" x1="55.8734" y1="11.7709" x2="55.885" y2="8.8946" gradientUnits="userSpaceOnUse">
<stop stop-color="#FFB890"/>
<stop offset="1" stop-color="#FD9B82"/>
</linearGradient>
<linearGradient id="paint1_linear_1_1621" x1="63.0523" y1="12.3551" x2="61.3557" y2="12.5976" gradientUnits="userSpaceOnUse">
<stop stop-color="#FFB890"/>
<stop offset="1" stop-color="#FD9B82"/>
</linearGradient>
<linearGradient id="paint2_linear_1_1621" x1="56.5696" y1="8.36434" x2="57.3488" y2="8.39386" gradientUnits="userSpaceOnUse">
<stop stop-color="#FFB890"/>
<stop offset="1" stop-color="#FD9B82"/>
</linearGradient>
<linearGradient id="paint3_linear_1_1621" x1="53.8482" y1="8.04598" x2="52.8666" y2="8.1863" gradientUnits="userSpaceOnUse">
<stop stop-color="#FFB890"/>
<stop offset="1" stop-color="#FD9B82"/>
</linearGradient>
</defs>
</svg>
