<svg width="100" height="30" viewBox="0 0 100 30" fill="none" xmlns="http://www.w3.org/2000/svg">
<path d="M91.8811 24.357L73.1058 25.3917L30.4442 24.5472L11.2672 22.1812C11.2672 22.1812 7.63486 12.2132 19.8844 11.875C32.1339 11.5369 84.8483 10.1007 89.6636 13.5648C94.4789 17.0281 91.8811 24.357 91.8811 24.357Z" fill="black"/>
<path d="M67.1973 9.07236L54.753 1.54779C54.753 1.54779 54.3614 1.84207 54.3614 2.60204C54.3614 3.36202 62.3561 10.1642 62.3561 10.1642L67.1973 9.07236Z" fill="#B7BFD1"/>
<path d="M98.8506 16.7535C98.8506 16.7535 98.4704 13.8396 98.3437 13.3324C98.217 12.8253 94.1621 10.7981 90.6139 10.4178C87.0659 10.0374 66.9177 8.89705 66.9177 8.89705C66.9177 8.89705 62.8628 9.6578 62.356 9.6578C61.849 9.6578 54.8719 3.35263 54.4918 2.71945C54.1116 2.08627 54.7529 1.54779 54.7529 1.54779C54.7529 1.54779 52.8521 0.913832 49.6842 0.78704C46.5162 0.660248 35.1113 1.5478 31.1831 2.68814C27.2549 3.82849 6.60024 9.40421 6.21987 9.40421C5.83949 9.40421 1.91128 9.78459 1.40489 9.9106C0.897724 10.0374 -0.115828 15.4863 0.0109641 16.8803C0.137756 18.2742 3.81238 21.8228 4.44556 22.0756C5.07952 22.3292 12.9359 22.9632 12.9359 22.9632C12.9359 22.9632 12.5556 16.3739 17.6249 14.5996C22.6935 12.8253 26.1145 14.4728 27.8888 16.7535C29.6623 19.0349 29.9159 24.8635 29.9159 24.8635L74.3941 25.4974C74.3941 25.4974 74.6946 18.6828 78.3224 16.2471C82.8208 13.2268 88.0797 14.5996 90.2338 17.0071C92.388 19.4145 91.8812 24.3571 91.8812 24.3571C91.8812 24.3571 96.443 24.2303 97.4568 23.4695C98.4704 22.7096 98.5972 21.9488 98.5972 21.9488C98.5972 21.9488 99.8644 19.7949 99.9911 18.6546C100.118 17.5142 98.8506 16.7535 98.8506 16.7535Z" fill="#2859B8"/>
<path d="M90.2338 17.007C90.127 16.8881 90.0084 16.7746 89.8836 16.6642L98.82 16.521C98.8392 16.6666 98.8507 16.7534 98.8507 16.7534C98.8507 16.7534 100.118 17.5142 99.9911 18.6545C99.8644 19.7949 98.5972 21.9496 98.5972 21.9496C98.5972 21.9496 98.4705 22.7095 97.4567 23.4695C96.443 24.2303 91.8812 24.3571 91.8812 24.3571C91.8812 24.3571 92.388 19.4145 90.2338 17.007Z" fill="#163687"/>
<path d="M13.4431 15.1067L14.5881 16.8763C12.7348 19.4623 12.9359 22.9631 12.9359 22.9631C12.9359 22.9631 5.0795 22.3292 4.44554 22.0756C3.81236 21.8228 0.137735 18.2742 0.0109427 16.8802C-0.0297561 16.4365 0.0461597 15.581 0.183909 14.6168C4.08394 14.0454 13.4431 15.1067 13.4431 15.1067Z" fill="#163687"/>
<path d="M74.3941 25.4974L29.9159 24.8635C29.9159 24.8635 29.6623 19.0349 27.8888 16.7535C27.5413 16.3073 27.1296 15.8855 26.6553 15.5082L77.6848 16.7942C74.7066 19.4325 74.3941 25.4974 74.3941 25.4974Z" fill="#163687"/>
<path d="M74.3941 25.4974L29.916 24.8635C29.916 24.8635 29.8995 24.4815 29.8447 23.875L74.4292 24.851C74.3985 25.2564 74.3941 25.4974 74.3941 25.4974Z" fill="#000819"/>
<path d="M4.44544 22.0756C4.22238 21.9864 3.61895 21.4855 2.92707 20.8147L12.9429 22.121C12.917 22.6407 12.9358 22.9631 12.9358 22.9631C12.9358 22.9631 5.0794 22.3292 4.44544 22.0756Z" fill="#000819"/>
<path d="M98.4839 22.2728C98.3489 22.5647 98.061 23.0164 97.4568 23.4695C96.4431 24.2303 91.8812 24.3571 91.8812 24.3571C91.8812 24.3571 91.9438 23.7442 91.9314 22.8465C94.7661 22.8927 97.515 22.4489 98.4839 22.2728Z" fill="#000819"/>
<path d="M98.3437 13.3324C98.3437 13.3324 97.1472 14.0665 97.1472 14.4461C97.1472 14.8265 97.2033 15.7399 97.2033 16.247C97.2033 16.7534 98.8506 16.7534 98.8506 16.7534L98.3437 13.3324Z" fill="#FF6D3B"/>
<path d="M63.2001 9.55127C64.4981 9.34934 66.7634 8.92591 66.9102 8.89852C66.8737 8.90557 66.7064 8.93687 66.4573 8.98227L63.2001 9.55127Z" fill="#CBD0DB"/>
<path d="M97.2667 14.1558L97.3589 14.0853C97.7025 13.7253 98.3438 13.3324 98.3438 13.3324C98.217 12.8252 94.1621 10.7981 90.614 10.4177C87.0659 10.0374 66.9177 8.89701 66.9177 8.89701C66.9177 8.89701 66.9177 8.89701 66.9176 8.89701C66.9175 8.89701 66.9174 8.89701 66.9173 8.89701C66.9173 8.89701 66.9172 8.89701 66.9171 8.89701C66.917 8.89701 66.9168 8.89702 66.9167 8.8978C66.9166 8.8978 66.9166 8.8978 66.9166 8.8978C66.9165 8.8978 66.9164 8.8978 66.9163 8.8978C66.9163 8.8978 66.9162 8.8978 66.9162 8.8978C66.916 8.8978 66.916 8.8978 66.9159 8.8978C66.9158 8.8978 66.9157 8.8978 66.9156 8.8978C66.9144 8.8978 66.9126 8.8978 66.9102 8.89858C66.7635 8.92597 64.4981 9.3494 63.2002 9.55133L62.4359 9.68516C62.4359 9.68516 88.5865 10.9249 91.6278 11.5581C94.669 12.192 97.2667 14.1558 97.2667 14.1558Z" fill="#7693CC"/>
<path d="M97.3589 14.0853L98.3438 13.3324C98.3438 13.3324 97.7025 13.7253 97.3589 14.0853Z" fill="#F79F81"/>
<path d="M97.6804 21.7593H95.0249L95.3416 21.1254H98.2084L97.6804 21.7593ZM94.8198 21.8861H97.7398L98.479 20.9986H95.2633L94.8198 21.8861Z" fill="#FF6D3B"/>
<path d="M59.8215 10.1642L36.2523 9.78459C36.2523 9.78459 33.5067 7.33406 33.992 5.45487C34.478 3.5749 40.2228 2.2655 46.1571 2.41343C52.0917 2.56135 51.4581 2.81493 54.626 5.34921C57.794 7.88349 59.8215 10.1642 59.8215 10.1642Z" fill="#B7BFD1"/>
<path d="M52.3242 4.01868C52.3242 4.01868 42.4613 4.08207 41.1941 4.84204C39.9271 5.6028 42.2431 9.88086 42.2431 9.88086L36.2525 9.78459C36.2525 9.78459 34.0133 7.79896 33.9922 6.13031C33.971 4.46245 34.3514 3.49038 40.4972 2.83607C46.643 2.18097 51.1415 2.58248 51.1415 2.58248L52.3242 4.01868Z" fill="#8D9BAB"/>
<path d="M61.0886 10.1642C61.0886 10.1642 53.1054 3.19531 51.8382 2.56135C50.5711 1.92738 38.4062 2.18097 35.8719 3.32132C33.3376 4.46245 33.2108 4.96884 33.7172 6.61635C34.2244 8.26387 35.3945 9.76346 35.3945 9.76346L36.2523 9.78459C36.2523 9.78459 34.3512 6.99672 34.2244 5.72958C34.0976 4.46244 36.2523 3.7017 38.1526 3.32132C40.0537 2.94173 50.3176 2.56134 51.2046 3.06851C52.0917 3.5749 59.8215 10.1642 59.8215 10.1642H61.0886Z" fill="#EAEAEA"/>
<path d="M56.6326 10.1852L57.7942 11.6848H54.1193L54.2672 10.4388L56.6326 10.1852Z" fill="#163687"/>
<path d="M56.9071 8.5174C57.3694 8.95022 57.414 9.65775 56.9071 10.0373C56.4002 10.4177 53.9926 11.0517 53.6124 9.65775C53.2323 8.26382 53.9926 7.88344 54.753 7.75665C55.5132 7.62986 56.5529 8.18477 56.9071 8.5174Z" fill="#000819"/>
<path d="M60.2017 20.8085L30.6766 20.3021C30.6766 20.3021 34.9844 19.4145 36.2523 19.2885C37.5195 19.1617 59.568 20.3021 60.2017 20.8085Z" fill="#2859B8"/>
<path d="M74.7874 22.6986L74.9475 22.5092L29.6013 21.6639L29.5974 21.8541L74.7874 22.6986Z" fill="#000819"/>
<path d="M32.1974 13.7128C32.1974 13.7128 34.1822 12.7407 34.8373 12.7196C35.4916 12.6984 91.501 12.6984 93.1483 13.0788C94.7956 13.4592 95.6826 13.9656 95.6826 13.9656L32.1974 13.7128Z" fill="#163687"/>
<path d="M63.4011 22.3706C63.4069 22.3002 63.9705 15.3062 63.8448 13.1703C63.717 10.9984 62.3716 9.78609 62.3186 9.74382L62.1229 9.80252C62.1353 9.8127 63.5326 11.0986 63.655 13.1813C63.7799 15.3039 63.2174 22.2853 63.2117 22.355L63.4011 22.3706Z" fill="#000819"/>
<path d="M36.0121 21.7812L36.1968 21.7366C36.1819 21.674 34.7019 15.4549 34.8263 13.4646C34.95 11.4813 35.7945 9.78999 35.8031 9.77356L35.6466 9.76808C35.6387 9.78529 34.7629 11.4297 34.6361 13.4529C34.5101 15.4714 35.9502 21.5245 36.0121 21.7812Z" fill="#000819"/>
<path d="M91.0574 22.2658C91.0574 18.3822 87.8235 15.2327 83.8344 15.2327C79.8453 15.2327 76.6116 18.3822 76.6116 22.2658C76.6116 26.1502 79.8453 29.2988 83.8344 29.2988C87.8235 29.2988 91.0574 26.1502 91.0574 22.2658Z" fill="#252728"/>
<path d="M83.8346 15.2326C87.3943 15.2326 90.3504 17.7411 90.946 21.0408C90.3504 24.3406 87.3943 26.849 83.8346 26.849C80.2748 26.849 77.3187 24.3406 76.7232 21.0408C77.3187 17.7411 80.2748 15.2326 83.8346 15.2326Z" fill="#3C3E40"/>
<path d="M83.8346 16.7753C86.9467 16.7753 89.4785 19.2384 89.4785 22.2657C89.4785 25.2931 86.9467 27.7561 83.8346 27.7561C80.7225 27.7561 78.1906 25.2931 78.1906 22.2657C78.1906 19.2384 80.7225 16.7753 83.8346 16.7753ZM83.8346 28.1263C87.1508 28.1263 89.8486 25.4974 89.8486 22.2657C89.8486 19.0341 87.1508 16.4051 83.8346 16.4051C80.5184 16.4051 77.8205 19.0341 77.8205 22.2657C77.8205 25.4974 80.5184 28.1263 83.8346 28.1263Z" fill="black"/>
<path d="M84.0879 20.9837C84.0879 20.7818 83.92 20.619 83.7129 20.619C83.5058 20.619 83.3379 20.7818 83.3379 20.9837C83.3379 21.1857 83.5058 21.3492 83.7129 21.3492C83.92 21.3492 84.0879 21.1857 84.0879 20.9837Z" fill="#AAAAAC"/>
<path d="M82.9475 22.2508C82.9475 22.0489 82.7796 21.8861 82.5725 21.8861C82.3654 21.8861 82.1975 22.0489 82.1975 22.2508C82.1975 22.4528 82.3654 22.6163 82.5725 22.6163C82.7796 22.6163 82.9475 22.4528 82.9475 22.2508Z" fill="#AAAAAC"/>
<path d="M83.5337 23.2527C83.5337 23.0508 83.3658 22.8872 83.1586 22.8872C82.9515 22.8872 82.7837 23.0508 82.7837 23.2527C82.7837 23.4539 82.9515 23.6174 83.1586 23.6174C83.3658 23.6174 83.5337 23.4539 83.5337 23.2527Z" fill="#AAAAAC"/>
<path d="M84.9751 23.2801C84.9751 23.0695 84.8049 22.8997 84.595 22.8997C84.385 22.8997 84.2147 23.0695 84.2147 23.2801C84.2147 23.4898 84.385 23.6597 84.595 23.6597C84.8049 23.6597 84.9751 23.4898 84.9751 23.2801Z" fill="#AAAAAC"/>
<path d="M85.313 21.8439C85.313 21.6334 85.1428 21.4635 84.9328 21.4635C84.7229 21.4635 84.5527 21.6334 84.5527 21.8439C84.5527 22.0537 84.7229 22.2235 84.9328 22.2235C85.1428 22.2235 85.313 22.0537 85.313 21.8439Z" fill="#AAAAAC"/>
<path d="M83.8346 17.3874C86.6022 17.3874 88.8537 19.5757 88.8537 22.2657C88.8537 24.9558 86.6022 27.1449 83.8346 27.1449C81.0672 27.1449 78.8156 24.9558 78.8156 22.2657C78.8156 19.5757 81.0672 17.3874 83.8346 17.3874ZM83.8346 27.7781C86.9515 27.7781 89.4873 25.3056 89.4873 22.2657C89.4873 19.2266 86.9515 16.7534 83.8346 16.7534C80.7178 16.7534 78.1821 19.2266 78.1821 22.2657C78.1821 25.3056 80.7178 27.7781 83.8346 27.7781Z" fill="#AAAAAC"/>
<path d="M84.2568 21.6654C84.3464 21.6654 84.4327 21.6161 84.4755 21.53L85.9117 18.6584C85.972 18.5371 85.9231 18.3907 85.8024 18.3305C85.6816 18.2702 85.5349 18.3187 85.4745 18.4392L84.0384 21.3116C83.9781 21.4322 84.027 21.5793 84.1477 21.6396C84.1827 21.6576 84.2201 21.6654 84.2568 21.6654Z" fill="#8C8C8C"/>
<path d="M83.0742 21.75C83.1368 21.75 83.1994 21.7265 83.247 21.6788C83.3425 21.5833 83.3425 21.4283 83.247 21.3328L80.9661 19.0521C80.8707 18.9567 80.716 18.9567 80.6205 19.0521C80.5251 19.1476 80.5251 19.3018 80.6205 19.3973L82.9014 21.6788C82.9492 21.7265 83.0117 21.75 83.0742 21.75Z" fill="#8C8C8C"/>
<path d="M88.1433 23.5243C88.2559 23.5243 88.3571 23.446 88.3819 23.331C88.4104 23.1995 88.3266 23.0696 88.1947 23.0406L85.0691 22.3652C84.937 22.3362 84.807 22.4199 84.7785 22.5522C84.7501 22.6845 84.8338 22.8144 84.9658 22.8426L88.0914 23.5188C88.1088 23.5219 88.1262 23.5243 88.1433 23.5243Z" fill="#8C8C8C"/>
<path d="M84.2568 26.4812C84.2686 26.4812 84.2807 26.4796 84.2928 26.4781C84.4263 26.4585 84.5185 26.3341 84.4988 26.201L84.0764 23.3404C84.0567 23.2073 83.9324 23.1149 83.7989 23.1345C83.6654 23.1541 83.5732 23.2785 83.5929 23.4124L84.0154 26.2722C84.0333 26.3935 84.1376 26.4812 84.2568 26.4812Z" fill="#8C8C8C"/>
<path d="M79.6107 24.4532C79.6448 24.4532 79.6795 24.4462 79.7126 24.4313L82.8383 22.9951C82.9609 22.9388 83.0147 22.7932 82.9583 22.6711C82.902 22.5482 82.757 22.4942 82.6343 22.5506L79.5086 23.9868C79.3859 24.0431 79.3322 24.1879 79.3885 24.3108C79.4297 24.4008 79.5182 24.4532 79.6107 24.4532Z" fill="#8C8C8C"/>
<path d="M82.6036 20.079L84.3045 19.8661L84.6681 17.2308C84.6866 17.097 84.5931 16.9734 84.4594 16.9554C84.326 16.9366 84.2024 17.0305 84.1839 17.1635L83.8716 19.4278L82.8693 19.553L81.767 17.5846C81.7011 17.4672 81.5522 17.425 81.4343 17.4907C81.3166 17.5572 81.2746 17.7059 81.3406 17.8233L82.6036 20.079Z" fill="#AAAAAC"/>
<path d="M79.019 23.1862C79.0261 23.1862 79.0332 23.1862 79.0404 23.1854L81.1677 22.9999L81.5742 20.8663L79.4703 19.7682C79.3505 19.7056 79.2029 19.7526 79.1405 19.8723C79.0781 19.9913 79.1245 20.1392 79.2441 20.2018L81.0261 21.1317L80.7568 22.5451L78.9981 22.6986C78.8636 22.7103 78.7641 22.8285 78.7758 22.9631C78.7868 23.0899 78.8936 23.1862 79.019 23.1862Z" fill="#AAAAAC"/>
<path d="M82.9901 27.2412C83.1068 27.2412 83.21 27.1575 83.2307 27.0385L83.6035 24.8948L81.6605 24.1794L80.2827 25.5569C80.1873 25.6524 80.1873 25.8074 80.2827 25.9021C80.3781 25.9976 80.5329 25.9976 80.6284 25.9021L81.785 24.7461L83.0521 25.2125L82.7492 26.9548C82.726 27.0878 82.8151 27.2146 82.948 27.2373C82.9622 27.2396 82.9763 27.2412 82.9901 27.2412Z" fill="#AAAAAC"/>
<path d="M86.0312 26.8185C86.0647 26.8185 86.0988 26.8122 86.1313 26.7974C86.2544 26.7418 86.3093 26.597 86.254 26.4741L85.5629 24.9385L86.422 24.0791L88.1264 24.854C88.2491 24.9096 88.3941 24.8556 88.45 24.7327C88.5058 24.6098 88.4515 24.465 88.3286 24.4087L86.316 23.4937L84.9787 24.8313L85.8082 26.6745C85.8489 26.7653 85.938 26.8185 86.0312 26.8185Z" fill="#AAAAAC"/>
<path d="M86.5821 22.1132L88.6917 21.7461C88.8247 21.7234 88.9138 21.5966 88.8906 21.4635C88.8675 21.3305 88.7411 21.242 88.608 21.2647L86.8317 21.5739L86.1746 20.4562L87.5451 19.2384C87.6459 19.1484 87.655 18.9942 87.5654 18.8933C87.4756 18.7923 87.3212 18.7837 87.2204 18.8729L85.5496 20.3584L86.5821 22.1132Z" fill="#AAAAAC"/>
<path d="M84.9751 22.3502C84.9751 21.7374 84.4645 21.2396 83.8346 21.2396C83.2048 21.2396 82.6942 21.7374 82.6942 22.3502C82.6942 22.9638 83.2048 23.4608 83.8346 23.4608C84.4645 23.4608 84.9751 22.9638 84.9751 22.3502Z" fill="#3C3E40"/>
<path d="M83.8347 22.0396C83.9655 22.0396 84.072 22.1414 84.072 22.2658C84.072 22.391 83.9655 22.492 83.8347 22.492C83.7038 22.492 83.5973 22.391 83.5973 22.2658C83.5973 22.1414 83.7038 22.0396 83.8347 22.0396ZM83.8347 22.8622C84.1696 22.8622 84.4421 22.5945 84.4421 22.2658C84.4421 21.9371 84.1696 21.6694 83.8347 21.6694C83.4997 21.6694 83.2272 21.9371 83.2272 22.2658C83.2272 22.5945 83.4997 22.8622 83.8347 22.8622Z" fill="black"/>
<path d="M28.374 22.2658C28.374 18.3822 25.1408 15.2327 21.1516 15.2327C17.1623 15.2327 13.9283 18.3822 13.9283 22.2658C13.9283 26.1502 17.1623 29.2988 21.1516 29.2988C25.1408 29.2988 28.374 26.1502 28.374 22.2658Z" fill="#252728"/>
<path d="M21.1516 15.2326C24.7112 15.2326 27.6673 17.7411 28.2629 21.0408C27.6673 24.3406 24.7112 26.849 21.1516 26.849C17.592 26.849 14.6359 24.3406 14.0403 21.0408C14.6359 17.7411 17.592 15.2326 21.1516 15.2326Z" fill="#3C3E40"/>
<path d="M21.1515 16.7753C24.2634 16.7753 26.7953 19.2384 26.7953 22.2657C26.7953 25.2931 24.2634 27.7561 21.1515 27.7561C18.0396 27.7561 15.5077 25.2931 15.5077 22.2657C15.5077 19.2384 18.0396 16.7753 21.1515 16.7753ZM21.1515 28.1263C24.4677 28.1263 27.1655 25.4974 27.1655 22.2657C27.1655 19.0341 24.4677 16.4051 21.1515 16.4051C17.8353 16.4051 15.1375 19.0341 15.1375 22.2657C15.1375 25.4974 17.8353 28.1263 21.1515 28.1263Z" fill="black"/>
<path d="M21.4053 20.9837C21.4053 20.7818 21.237 20.619 21.0304 20.619C20.823 20.619 20.6547 20.7818 20.6547 20.9837C20.6547 21.1857 20.823 21.3492 21.0304 21.3492C21.237 21.3492 21.4053 21.1857 21.4053 20.9837Z" fill="#AAAAAC"/>
<path d="M20.2649 22.2508C20.2649 22.0489 20.0966 21.8861 19.8892 21.8861C19.6826 21.8861 19.5143 22.0489 19.5143 22.2508C19.5143 22.4528 19.6826 22.6163 19.8892 22.6163C20.0966 22.6163 20.2649 22.4528 20.2649 22.2508Z" fill="#AAAAAC"/>
<path d="M20.8511 23.2527C20.8511 23.0508 20.6828 22.8872 20.4754 22.8872C20.2688 22.8872 20.1005 23.0508 20.1005 23.2527C20.1005 23.4539 20.2688 23.6174 20.4754 23.6174C20.6828 23.6174 20.8511 23.4539 20.8511 23.2527Z" fill="#AAAAAC"/>
<path d="M22.292 23.2801C22.292 23.0695 22.1222 22.8997 21.9116 22.8997C21.7019 22.8997 21.532 23.0695 21.532 23.2801C21.532 23.4898 21.7019 23.6597 21.9116 23.6597C22.1222 23.6597 22.292 23.4898 22.292 23.2801Z" fill="#AAAAAC"/>
<path d="M22.6301 21.8439C22.6301 21.6334 22.4595 21.4635 22.2498 21.4635C22.04 21.4635 21.8694 21.6334 21.8694 21.8439C21.8694 22.0537 22.04 22.2235 22.2498 22.2235C22.4595 22.2235 22.6301 22.0537 22.6301 21.8439Z" fill="#AAAAAC"/>
<path d="M21.1515 17.3874C23.919 17.3874 26.1708 19.5757 26.1708 22.2657C26.1708 24.9558 23.919 27.1449 21.1515 27.1449C18.384 27.1449 16.1323 24.9558 16.1323 22.2657C16.1323 19.5757 18.384 17.3874 21.1515 17.3874ZM21.1515 27.7781C24.2681 27.7781 26.804 25.3056 26.804 22.2657C26.804 19.2266 24.2681 16.7534 21.1515 16.7534C18.0349 16.7534 15.4991 19.2266 15.4991 22.2657C15.4991 25.3056 18.0349 27.7781 21.1515 27.7781Z" fill="#AAAAAC"/>
<path d="M21.5736 21.6654C21.6636 21.6654 21.7497 21.6161 21.7927 21.53L23.2289 18.6584C23.2892 18.5371 23.2399 18.3907 23.1193 18.3305C22.9988 18.2702 22.8517 18.3187 22.7914 18.4392L21.3552 21.3116C21.2949 21.4322 21.3442 21.5793 21.4648 21.6396C21.5 21.6576 21.5368 21.6654 21.5736 21.6654Z" fill="#8C8C8C"/>
<path d="M20.3909 21.75C20.4535 21.75 20.5161 21.7265 20.5639 21.6788C20.6594 21.5833 20.6594 21.4283 20.5639 21.3328L18.2832 19.0521C18.1877 18.9567 18.0327 18.9567 17.9373 19.0521C17.8418 19.1476 17.8418 19.3018 17.9373 19.3973L20.2187 21.6788C20.2665 21.7265 20.3291 21.75 20.3909 21.75Z" fill="#8C8C8C"/>
<path d="M25.4602 23.5243C25.5729 23.5243 25.6738 23.446 25.6989 23.331C25.7271 23.1995 25.6433 23.0696 25.5118 23.0406L22.3859 22.3652C22.2536 22.3362 22.1237 22.4199 22.0955 22.5522C22.0665 22.6845 22.1503 22.8144 22.2825 22.8426L25.4085 23.5188C25.4257 23.5219 25.443 23.5243 25.4602 23.5243Z" fill="#8C8C8C"/>
<path d="M21.5735 26.4812C21.5852 26.4812 21.5977 26.4796 21.6095 26.4781C21.7433 26.4585 21.8357 26.3341 21.8153 26.201L21.3934 23.3404C21.3739 23.2073 21.2494 23.1149 21.1156 23.1345C20.9825 23.1541 20.8902 23.2785 20.9098 23.4124L21.3324 26.2722C21.3504 26.3935 21.4545 26.4812 21.5735 26.4812Z" fill="#8C8C8C"/>
<path d="M16.9274 24.4532C16.9619 24.4532 16.9963 24.4462 17.0292 24.4313L20.1551 22.9951C20.278 22.9388 20.3312 22.7932 20.2749 22.6711C20.2185 22.5482 20.0738 22.4942 19.9509 22.5506L16.8257 23.9868C16.7028 24.0431 16.6488 24.1879 16.7051 24.3108C16.7466 24.4008 16.8351 24.4532 16.9274 24.4532Z" fill="#8C8C8C"/>
<path d="M19.9204 20.079L21.6211 19.8661L21.9851 17.2308C22.0031 17.097 21.9099 16.9734 21.7761 16.9554C21.6423 16.9366 21.5194 17.0305 21.5006 17.1635L21.1883 19.4278L20.1857 19.553L19.0837 17.5846C19.018 17.4672 18.8693 17.425 18.7511 17.4907C18.6337 17.5572 18.5914 17.7059 18.6572 17.8233L19.9204 20.079Z" fill="#AAAAAC"/>
<path d="M16.3359 23.1862C16.343 23.1862 16.35 23.1862 16.3579 23.1854L18.4852 22.9999L18.8914 20.8663L16.7875 19.7682C16.6678 19.7056 16.5199 19.7526 16.4573 19.8723C16.3954 19.9913 16.4416 20.1392 16.5614 20.2018L18.3435 21.1317L18.0743 22.5451L16.3148 22.6986C16.181 22.7103 16.0816 22.8285 16.0925 22.9631C16.1043 23.0899 16.2107 23.1862 16.3359 23.1862Z" fill="#AAAAAC"/>
<path d="M20.307 27.2412C20.4237 27.2412 20.527 27.1575 20.5473 27.0385L20.9207 24.8948L18.9773 24.1794L17.5998 25.5569C17.5043 25.6524 17.5043 25.8074 17.5998 25.9021C17.6953 25.9976 17.8495 25.9976 17.945 25.9021L19.1017 24.7461L20.3689 25.2125L20.066 26.9548C20.0425 27.0878 20.1317 27.2146 20.2648 27.2373C20.2789 27.2396 20.293 27.2412 20.307 27.2412Z" fill="#AAAAAC"/>
<path d="M23.3477 26.8185C23.3814 26.8185 23.4158 26.8122 23.4479 26.7974C23.5716 26.7418 23.6264 26.597 23.5708 26.4741L22.8797 24.9385L23.7391 24.0791L25.4429 24.854C25.5658 24.9096 25.7106 24.8556 25.767 24.7327C25.8225 24.6098 25.7685 24.465 25.6457 24.4087L23.6326 23.4937L22.2958 24.8313L23.1247 26.6745C23.1654 26.7653 23.2546 26.8185 23.3477 26.8185Z" fill="#AAAAAC"/>
<path d="M23.8988 22.1132L26.0088 21.7461C26.1419 21.7234 26.2303 21.5966 26.2076 21.4635C26.1842 21.3305 26.0581 21.242 25.9251 21.2647L24.1484 21.5739L23.4918 20.4562L24.8622 19.2384C24.9632 19.1484 24.9718 18.9942 24.8826 18.8933C24.7926 18.7923 24.6384 18.7837 24.5374 18.8729L22.8664 20.3584L23.8988 22.1132Z" fill="#AAAAAC"/>
<path d="M22.292 22.3502C22.292 21.7374 21.7817 21.2396 21.1516 21.2396C20.5216 21.2396 20.0113 21.7374 20.0113 22.3502C20.0113 22.9638 20.5216 23.4608 21.1516 23.4608C21.7817 23.4608 22.292 22.9638 22.292 22.3502Z" fill="#3C3E40"/>
<path d="M21.1517 22.0396C21.2824 22.0396 21.3888 22.1414 21.3888 22.2658C21.3888 22.391 21.2824 22.492 21.1517 22.492C21.021 22.492 20.9145 22.391 20.9145 22.2658C20.9145 22.1414 21.021 22.0396 21.1517 22.0396ZM21.1517 22.8622C21.4867 22.8622 21.759 22.5945 21.759 22.2658C21.759 21.9371 21.4867 21.6694 21.1517 21.6694C20.8167 21.6694 20.5443 21.9371 20.5443 22.2658C20.5443 22.5945 20.8167 22.8622 21.1517 22.8622Z" fill="black"/>
<path d="M35.3945 9.76343C35.3945 9.76343 26.5942 8.09478 24.2728 8.21688C21.9514 8.33976 6.21979 9.40418 6.21979 9.40418C6.21979 9.40418 22.8069 6.99513 25.6167 6.99513C28.4272 6.99513 34.442 8.30219 34.442 8.30219L35.3945 9.76343Z" fill="#163687"/>
<path d="M62.1357 9.80249L62.8662 9.60682C59.1744 6.70156 54.8079 3.17642 54.6128 2.59646C54.6249 1.99068 55.0669 1.75119 55.0787 1.74101L54.5308 1.42794C54.5119 1.4436 54.1343 1.74727 54.1238 2.60664C54.1213 2.8117 54.1167 3.19443 58.202 6.60451C60.1799 8.25516 62.1157 9.78684 62.1357 9.80249Z" fill="#EAEAEA"/>
</svg>
