<svg width="100" height="37" viewBox="0 0 100 37" fill="none" xmlns="http://www.w3.org/2000/svg">
<path d="M32.7637 28.3354H10.1676V17.972H32.7637V28.3354Z" fill="#004E75"/>
<path d="M93.5696 28.4128H70.9733V18.0493H93.5696V28.4128Z" fill="#004E75"/>
<path d="M22.0585 11.548C22.0585 11.548 23.7118 10.6086 33.6469 11.2723C33.6469 11.2723 60.0903 13.3166 65.4728 12.2952C70.8554 11.2739 66.1626 16.6838 65.4728 16.6838C64.783 16.6838 21.9539 14.0304 22.0585 11.548Z" fill="#F9DCB1"/>
<path d="M70.2124 14.2056C70.2124 14.2056 61.8571 6.84534 54.4608 3.09134C54.4608 3.09134 51.4969 3.33055 52.7118 4.32428C53.9268 5.31802 58.8954 7.80215 65.2059 13.8193C65.7021 14.5532 70.2124 14.2056 70.2124 14.2056Z" fill="#0A2B5A"/>
<mask id="mask0_1_1622" style="mask-type:luminance" maskUnits="userSpaceOnUse" x="52" y="3" width="19" height="12">
<path d="M70.2124 14.2056C70.2124 14.2056 61.8571 6.84534 54.4608 3.09134C54.4608 3.09134 51.4969 3.33055 52.7118 4.32428C53.9268 5.31802 58.8954 7.80215 65.2059 13.8193C65.7021 14.5532 70.2124 14.2056 70.2124 14.2056Z" fill="white"/>
</mask>
<g mask="url(#mask0_1_1622)">
<path d="M71.0735 13.9925C71.0735 13.9925 67.4599 14.2274 65.4729 12.2954C63.4858 10.3633 53.9623 3.8793 52.2512 3.09139C50.5401 2.30369 54.5698 1.86201 55.867 2.16552C57.1643 2.46924 71.0156 12.7362 71.0735 13.9925Z" fill="#C0E8FA"/>
</g>
<path d="M41.5617 12.653C41.5617 12.653 47.0711 13.0237 48.1926 13.0522C49.314 13.0809 53.4349 10.7928 53.4349 10.7928L53.5417 9.60863C53.5417 9.60863 48.5575 10.9292 48.2104 10.9722C47.8633 11.0151 40.9275 10.9984 40.9275 10.9984C40.9275 10.9984 38.9005 12.5322 41.5617 12.653Z" fill="#004359"/>
<path d="M41.8175 9.55871L45.6292 11.0124L45.173 12.3285C45.173 12.3285 40.1843 12.5384 39.9529 12.0566C39.7214 11.5751 41.8175 9.55871 41.8175 9.55871Z" fill="#00536E"/>
<path d="M39.9062 10.2025C39.9062 10.2025 39.3188 12.2314 39.3455 13.0311C39.3722 13.8308 41.8643 18.0251 42.0178 18.4946C42.1736 18.9641 46.793 17.6807 46.793 17.6807C46.793 17.6807 46.0698 14.1109 45.8651 13.7522C45.6626 13.3935 45.4067 11.8929 43.522 10.3371C41.6374 8.7813 39.9062 10.2025 39.9062 10.2025Z" fill="#005C79"/>
<path d="M39.9952 13.9365C40.4313 14.9627 40.1265 16.0757 39.3121 16.4222L38.8493 16.6191C38.0349 16.9656 37.0202 16.4144 36.5841 15.3882L35.8587 13.6846C35.4226 12.6584 35.7297 11.5456 36.544 11.1992L37.0047 11.0022C37.819 10.6556 38.8337 11.2067 39.2698 12.2332L39.9952 13.9365Z" fill="#F0D1A3"/>
<path d="M39.7592 15.2564L39.2964 15.4534C38.482 15.7998 37.4674 15.2487 37.0312 14.2224L36.3059 12.5189C36.1612 12.1789 36.1011 11.83 36.11 11.5022C35.6361 11.9989 35.5115 12.8684 35.8586 13.6846L36.584 15.3882C37.0201 16.4144 38.0348 16.9656 38.8492 16.6191L39.312 16.4222C39.8572 16.1905 40.1731 15.6156 40.1909 14.9534C40.0708 15.0811 39.9261 15.1857 39.7592 15.2564Z" fill="#C4A77A"/>
<path d="M38.9805 8.74711C39.0896 9.857 38.4666 10.828 37.5854 10.9159L37.087 10.9658C36.2058 11.0537 35.4025 10.2253 35.2913 9.11537L35.1066 7.27341C34.9954 6.16352 35.6206 5.19247 36.4995 5.10458L37.0002 5.05452C37.8813 4.96685 38.6846 5.79526 38.7959 6.90493L38.9805 8.74711Z" fill="#F9DCB1"/>
<path d="M38.3596 9.93643L37.8612 9.9865C36.9801 10.0744 36.1768 9.24598 36.0655 8.13609L35.8808 6.29391C35.8452 5.92632 35.8898 5.57498 35.9966 5.2648C35.3958 5.59745 35.0197 6.39071 35.1065 7.27341L35.2912 9.11537C35.4024 10.2253 36.2057 11.0537 37.0869 10.9658L37.5853 10.9159C38.175 10.857 38.6467 10.4024 38.8647 9.77623C38.709 9.86189 38.5399 9.91841 38.3596 9.93643Z" fill="#E3C9A1"/>
<mask id="mask1_1_1622" style="mask-type:luminance" maskUnits="userSpaceOnUse" x="39" y="5" width="5" height="7">
<path d="M39.9061 10.2024C39.9061 10.2024 40.34 8.97146 40.2554 8.82193C40.1708 8.6724 39.2229 5.68451 39.2229 5.68451C39.2229 5.68451 41.1143 7.26857 41.813 7.26857C41.813 7.26857 42.0088 9.3682 42.1645 9.66013C42.3203 9.95207 43.1837 10.2298 43.2927 10.4897C43.4017 10.7493 43.5753 11.5337 43.4395 11.3161C43.3261 11.1309 43.2037 11.1979 42.6118 10.8012C42.0199 10.4047 40.4668 10.0057 39.9061 10.2024Z" fill="white"/>
</mask>
<g mask="url(#mask1_1_1622)">
<path d="M39.9061 10.2024C39.9061 10.2024 40.34 8.97146 40.2554 8.82193C40.1708 8.6724 39.2229 5.68451 39.2229 5.68451C39.2229 5.68451 41.1143 7.26857 41.813 7.26857C41.813 7.26857 42.0088 9.3682 42.1645 9.66013C42.3203 9.95207 43.1837 10.2298 43.2927 10.4897C43.4017 10.7493 43.5753 11.5337 43.4395 11.3161C43.3261 11.1309 43.2037 11.1979 42.6118 10.8012C42.0199 10.4047 40.4668 10.0057 39.9061 10.2024Z" fill="url(#paint0_linear_1_1622)"/>
</g>
<path d="M53.5416 9.71552L54.2158 9.6234L53.8376 10.5813L53.4393 10.7397C53.4393 10.7397 53.4437 9.72264 53.5416 9.71552Z" fill="#F0A77F"/>
<path d="M69.5271 18.4775C69.5271 18.4775 69.5627 18.4099 69.6339 18.2768L69.6472 18.2519L69.6539 18.2361L69.6695 18.2023C69.6806 18.1782 69.6939 18.1522 69.7073 18.1235C69.7251 18.089 69.7273 18.0799 69.734 18.0603C69.7429 18.0396 69.7451 18.0294 69.7451 18.0212C69.7229 17.9985 69.6806 17.9802 69.6316 17.9484C69.5293 17.8879 69.378 17.7989 69.1866 17.6856C68.8039 17.4604 68.261 17.1333 67.6023 16.7511C67.2752 16.5588 66.9192 16.351 66.5409 16.1309C66.1649 15.9131 65.7666 15.6832 65.3527 15.4456C64.9411 15.2099 64.5138 14.9663 64.08 14.7186C63.6438 14.4734 63.201 14.2244 62.7582 13.9752C61.8726 13.4795 60.9826 12.9904 60.1459 12.5358C59.7276 12.3106 59.3227 12.0897 58.9355 11.8872C58.5505 11.6831 58.1856 11.4902 57.8474 11.3122C57.5092 11.1371 57.1999 10.9766 56.924 10.8342C56.6481 10.6918 56.4077 10.5692 56.2075 10.4702C55.8114 10.2697 55.5822 10.1589 55.5822 10.1589C55.2996 10.023 54.9636 10.1404 54.8257 10.4215C54.7055 10.6725 54.7856 10.9686 55.0037 11.1262C55.0037 11.1262 55.2106 11.2753 55.5756 11.5296C55.758 11.6582 55.9805 11.8117 56.2364 11.9862C56.4923 12.1606 56.7816 12.3576 57.0953 12.5723C57.4135 12.7843 57.7562 13.0137 58.1189 13.2567C58.4816 13.5008 58.8665 13.7511 59.2648 14.0135C60.0614 14.5337 60.9158 15.0847 61.7725 15.6285C62.202 15.8993 62.6314 16.1701 63.0542 16.4366C63.4792 16.701 63.8953 16.9609 64.3002 17.2125C64.7052 17.4624 65.0946 17.7039 65.4662 17.9328C65.84 18.1596 66.1916 18.3741 66.5165 18.5719C67.1662 18.9693 67.7114 19.2921 68.0919 19.5218C68.2832 19.6361 68.4323 19.726 68.5346 19.7872C68.5858 19.8164 68.6214 19.8446 68.6526 19.8538L68.6815 19.8253C68.6949 19.8095 68.7015 19.8035 68.7238 19.7719C68.7438 19.7463 68.7594 19.7229 68.775 19.7016L68.7972 19.6711L68.8083 19.6571L68.8239 19.6335C68.9085 19.5084 68.9507 19.4448 68.9507 19.4448C69.1599 19.133 69.3557 18.8017 69.5271 18.4775Z" fill="#42210B"/>
<path d="M55.8047 7.84499C55.8536 7.84499 55.8937 7.86234 55.9315 7.89795C56.2519 8.21191 56.1963 9.80732 55.6044 11.595C55.0882 13.1548 54.4451 13.9961 54.1025 13.9961C54.0535 13.9961 54.0112 13.9788 53.9756 13.9432C53.653 13.6292 53.7086 12.034 54.3027 10.2461C54.8189 8.68653 55.462 7.84499 55.8047 7.84499ZM54.1025 14.5137C54.6543 14.5137 55.3819 13.4329 55.9159 11.8242C56.4678 10.1544 56.7281 8.05949 56.1206 7.46538C56.0272 7.37393 55.9204 7.32743 55.8047 7.32743C55.2528 7.32743 54.523 8.40817 53.9912 10.0169C53.4371 11.6867 53.1768 13.7818 53.7843 14.3757C53.8777 14.4674 53.9845 14.5137 54.1025 14.5137Z" fill="#42210B"/>
<path d="M55.5132 7.32763C55.5132 7.32763 55.5043 7.44623 55.4798 7.64693C55.4664 7.74729 55.4509 7.86766 55.4286 8.00451C55.4086 8.14135 55.3819 8.29399 55.3507 8.45932C55.3196 8.6242 55.2818 8.8011 55.2417 8.98668C55.2195 9.07902 55.1994 9.17381 55.1772 9.2706C55.1527 9.36651 55.1282 9.46441 55.1038 9.56387C55.0526 9.76169 54.9992 9.96528 54.9391 10.1693C54.8812 10.3736 54.8189 10.5796 54.7544 10.7832C54.6899 10.9875 54.6209 11.1893 54.5542 11.3874C54.4852 11.5843 54.4162 11.7779 54.345 11.9623C54.276 12.1475 54.2048 12.3244 54.1358 12.4906C54.0691 12.6572 54.0001 12.8126 53.9378 12.955C53.8087 13.2398 53.693 13.4707 53.6085 13.6296C53.5662 13.7097 53.5306 13.77 53.5083 13.8123C53.4839 13.8537 53.4705 13.8759 53.4705 13.8759L54.2894 14.4431C54.2894 14.4431 54.2916 14.414 54.2983 14.3595C54.3049 14.3058 54.3116 14.2255 54.325 14.1265C54.3517 13.9273 54.3962 13.6467 54.4607 13.3176C54.4918 13.153 54.5297 12.9759 54.5697 12.7907C54.612 12.6054 54.6565 12.4114 54.7077 12.2129C54.7566 12.0135 54.81 11.8108 54.8679 11.6048C54.9257 11.4 54.9858 11.1924 55.0481 10.9877C55.1104 10.7819 55.1772 10.5787 55.2439 10.38C55.3107 10.1813 55.3797 9.98842 55.4487 9.8024C55.4843 9.71028 55.5176 9.6195 55.551 9.53072C55.5866 9.44283 55.6222 9.35694 55.6556 9.27349C55.7246 9.10728 55.7913 8.95174 55.8558 8.80956C55.9204 8.66804 55.9827 8.53921 56.0383 8.42662C56.0962 8.31425 56.1451 8.21723 56.1896 8.13846C56.2764 7.98114 56.332 7.89482 56.332 7.89482L55.5132 7.32763Z" fill="#42210B"/>
<path d="M54.4606 9.32199C54.4606 9.32199 53.7642 10.86 53.8265 10.9663C53.8888 11.0729 54.3761 10.9532 54.4873 10.6715C54.6008 10.39 54.9524 9.46083 54.9524 9.46083C54.9524 9.46083 54.6142 9.04718 54.4606 9.32199Z" fill="#F0A77F"/>
<path d="M40.4601 13.3218C40.4601 13.3218 44.0403 16.8435 45.0861 17.6526C46.1342 18.4616 51.9751 15.008 51.9751 15.008L51.2786 13.5986C51.2786 13.5986 46.548 15.761 46.1831 15.5683C45.8182 15.3759 43.0457 12.8461 42.011 11.1555C41.6795 10.613 38.0147 11.3399 40.4601 13.3218Z" fill="#00536E"/>
<mask id="mask2_1_1622" style="mask-type:luminance" maskUnits="userSpaceOnUse" x="39" y="7" width="4" height="4">
<path d="M42.0735 8.8577L42.2827 10.2747C42.2827 10.2747 40.3068 10.1581 40.1266 9.88615C39.9463 9.61424 39.7372 7.42272 39.7372 7.42272L42.0735 8.8577Z" fill="white"/>
</mask>
<g mask="url(#mask2_1_1622)">
<path d="M42.0735 8.8577L42.2827 10.2747C42.2827 10.2747 40.3068 10.1581 40.1266 9.88615C39.9463 9.61424 39.7372 7.42272 39.7372 7.42272L42.0735 8.8577Z" fill="url(#paint1_linear_1_1622)"/>
</g>
<path d="M42.4785 1.63913C42.4785 1.63913 43.1683 2.0955 43.4531 2.84492C43.7379 3.59456 43.6645 4.3511 43.6267 4.69599C43.5888 5.04111 43.5888 5.59962 43.7958 6.08558C44.0027 6.57199 43.9493 6.91778 43.7802 7.29316C43.6089 7.66853 43.1638 8.798 43.086 9.09328C43.0081 9.38855 42.2671 9.33715 42.2671 9.33715C42.2671 9.33715 40.111 8.2039 39.8061 7.82808C39.4991 7.45225 38.9762 4.98237 38.8961 4.67441C38.8182 4.36646 38.4421 2.36407 38.9539 1.97512C39.4657 1.58617 41.3392 1.0537 42.4785 1.63913Z" fill="#FFB890"/>
<path d="M39.5723 4.08185C39.5723 4.08185 39.9462 5.0974 40.0485 5.31458C40.1531 5.53175 39.9684 5.62119 39.8683 5.62742C39.8127 5.63076 39.7081 5.28097 39.5924 4.95521C39.4967 4.68975 39.3943 4.44055 39.3009 4.41117C39.0962 4.34553 39.5723 4.08185 39.5723 4.08185Z" fill="#621E02"/>
<path d="M43.137 2.27956C43.3661 2.38303 42.3493 0.936484 40.8428 0.936484C39.3387 0.936484 39.5679 1.28494 38.2995 1.2193C37.0334 1.15365 38.3952 1.12495 36.1701 1.61515C33.945 2.10556 35.6984 1.15299 34.4545 1.37928C33.2107 1.60557 35.6405 2.89348 35.6606 3.32893C35.6806 3.76461 33.5689 4.33045 34.8884 4.38697C36.2079 4.44349 35.8052 3.74659 37.0423 4.18938C38.2817 4.63196 36.4972 3.96087 37.1937 4.24168C37.8879 4.52249 38.1505 4.71139 37.5274 4.80374C36.9044 4.89586 36.3592 4.70205 36.6418 5.1384C36.9244 5.57474 37.4162 5.53513 37.9279 5.62748C38.4375 5.71982 39.1451 6.32884 39.3453 6.06472C39.5456 5.80082 39.3186 4.68848 39.5456 4.29263C39.7703 3.89656 39.5389 3.2179 40.0796 2.80314C40.6203 2.38838 43.1125 2.2691 43.137 2.27956Z" fill="#621E02"/>
<mask id="mask3_1_1622" style="mask-type:luminance" maskUnits="userSpaceOnUse" x="38" y="4" width="2" height="3">
<path d="M39.6103 5.00612C39.6103 5.00612 39.4145 4.38198 38.8961 4.67458C38.3798 4.96696 38.302 5.66431 38.5623 5.9983C38.8204 6.33251 39.5992 6.45579 39.7438 6.16407C39.8863 5.87214 39.6103 5.00612 39.6103 5.00612Z" fill="white"/>
</mask>
<g mask="url(#mask3_1_1622)">
<path d="M39.6103 5.00612C39.6103 5.00612 39.4145 4.38198 38.8961 4.67458C38.3798 4.96696 38.302 5.66431 38.5623 5.9983C38.8204 6.33251 39.5992 6.45579 39.7438 6.16407C39.8863 5.87214 39.6103 5.00612 39.6103 5.00612Z" fill="url(#paint2_linear_1_1622)"/>
</g>
<path d="M43.4932 6.97948C43.4932 6.97948 42.9035 7.95765 42.7411 7.96766C42.5786 7.97789 42.1247 7.76717 41.831 7.5916C41.5373 7.41627 40.9432 6.93743 40.8542 6.82083C40.7652 6.70423 41.3148 6.93832 41.564 6.9826C41.811 7.0271 42.5141 7.16995 42.6098 7.16416C42.7055 7.15815 43.264 6.90783 43.4932 6.97948Z" fill="white"/>
<mask id="mask4_1_1622" style="mask-type:luminance" maskUnits="userSpaceOnUse" x="42" y="4" width="2" height="3">
<path d="M42.5162 4.1911C42.5162 4.1911 42.4828 5.46654 43.1103 6.03105C43.315 6.28649 43.1971 6.46139 42.643 6.40599C42.0912 6.3508 42.2314 6.28628 42.3092 6.1027C42.3871 5.91913 42.3582 5.0609 42.2514 4.79923C42.1468 4.53755 42.2914 4.16017 42.5162 4.1911Z" fill="white"/>
</mask>
<g mask="url(#mask4_1_1622)">
<path d="M42.5162 4.1911C42.5162 4.1911 42.4828 5.46654 43.1103 6.03105C43.315 6.28649 43.1971 6.46139 42.643 6.40599C42.0912 6.3508 42.2314 6.28628 42.3092 6.1027C42.3871 5.91913 42.3582 5.0609 42.2514 4.79923C42.1468 4.53755 42.2914 4.16017 42.5162 4.1911Z" fill="url(#paint3_linear_1_1622)"/>
</g>
<path d="M43.927 3.59591C43.927 3.59591 43.1326 3.4159 42.7877 3.33646C42.4428 3.25725 42.7722 3.82889 42.7722 3.82889C42.7722 3.82889 43.7334 3.89831 43.7979 3.88874C43.8647 3.87895 43.927 3.59591 43.927 3.59591Z" fill="#692506"/>
<path d="M41.8911 3.93902C41.8911 3.93902 41.7331 3.43436 41.6909 3.39253C41.6486 3.3507 40.8586 3.95838 40.6206 4.08433C40.3847 4.21049 40.4314 4.51733 40.4314 4.51733C40.4314 4.51733 41.8177 4.08321 41.8911 3.93902Z" fill="#692506"/>
<path d="M43.5597 4.54005C43.5597 4.54005 43.5731 4.9824 43.4307 5.103C43.286 5.22338 42.614 5.03358 42.7542 4.58566C42.7542 4.58566 43.0947 4.31932 43.5597 4.54005Z" fill="white"/>
<path d="M42.1868 4.6321C42.1868 4.6321 42.2936 5.19906 42.0689 5.2894C41.8464 5.37996 41.0587 5.29518 41.0453 5.0048C41.0453 5.0048 41.5282 4.57958 42.1868 4.6321Z" fill="white"/>
<mask id="mask5_1_1622" style="mask-type:luminance" maskUnits="userSpaceOnUse" x="42" y="4" width="2" height="2">
<path d="M43.5597 4.54005C43.5597 4.54005 43.5731 4.9824 43.4307 5.103C43.286 5.22338 42.614 5.03358 42.7542 4.58566C42.7542 4.58566 43.0947 4.31932 43.5597 4.54005Z" fill="white"/>
</mask>
<g mask="url(#mask5_1_1622)">
<path d="M42.959 4.84436C42.9701 5.04307 43.0814 5.19794 43.2082 5.19015C43.3328 5.18258 43.424 5.01525 43.4129 4.81655C43.3995 4.61762 43.2883 4.46297 43.1637 4.47054C43.0369 4.47833 42.9456 4.64566 42.959 4.84436Z" fill="#381B0B"/>
</g>
<path d="M43.5598 4.53998L43.5309 4.51083L43.4953 4.48189L43.4441 4.45074C43.4241 4.43984 43.4018 4.43138 43.3774 4.42159L43.3395 4.41002L43.2995 4.40023L43.2594 4.39244L43.2149 4.38844C43.186 4.38511 43.1548 4.38778 43.1259 4.38844C43.097 4.39045 43.0658 4.39623 43.0369 4.40112L42.9968 4.41248L42.9546 4.42493C42.9301 4.43472 42.9056 4.44652 42.8834 4.4572C42.8589 4.46766 42.8411 4.48234 42.8211 4.49414L42.7743 4.53019L42.741 4.56245L42.7209 4.58403L42.7143 4.59204L42.7254 4.5907L42.7543 4.58559L42.7966 4.57646L42.8522 4.56534L42.8834 4.55866L42.9167 4.55221C42.939 4.54865 42.9612 4.54398 42.9857 4.53953C43.0102 4.53686 43.0347 4.53285 43.0592 4.52907C43.0859 4.52773 43.1103 4.52284 43.1348 4.52195C43.1615 4.52084 43.186 4.51773 43.2127 4.51817L43.2483 4.51705L43.2861 4.51773C43.3106 4.51706 43.3328 4.51995 43.3573 4.51972C43.3796 4.52195 43.4018 4.52218 43.4196 4.52462C43.4419 4.52596 43.4597 4.52796 43.4752 4.52996L43.5197 4.53486L43.5487 4.53864L43.5598 4.53998Z" fill="#954300"/>
<mask id="mask6_1_1622" style="mask-type:luminance" maskUnits="userSpaceOnUse" x="41" y="4" width="2" height="2">
<path d="M42.1868 4.6321C42.1868 4.6321 42.2936 5.19906 42.0689 5.2894C41.8464 5.37996 41.0587 5.29518 41.0453 5.0048C41.0453 5.0048 41.5282 4.57958 42.1868 4.6321Z" fill="white"/>
</mask>
<g mask="url(#mask6_1_1622)">
<path d="M41.5637 5.03602C41.577 5.23494 41.7016 5.3887 41.8463 5.38002C41.9887 5.37112 42.0955 5.2029 42.0821 5.0042C42.071 4.80549 41.9442 4.65151 41.8018 4.66041C41.6594 4.66909 41.5526 4.83732 41.5637 5.03602Z" fill="#381B0B"/>
</g>
<path d="M42.187 4.63223C42.187 4.63223 42.167 4.62512 42.1336 4.61799C42.1158 4.61399 42.0958 4.6102 42.0713 4.60664C42.0468 4.60375 42.0201 4.59996 41.989 4.59885L41.9422 4.59685L41.8933 4.59751C41.8577 4.59774 41.8221 4.60174 41.7843 4.60486L41.7286 4.61332L41.6708 4.624C41.6307 4.63268 41.5929 4.64158 41.5551 4.65426L41.4972 4.67318L41.4416 4.69587C41.4038 4.71011 41.3704 4.72836 41.337 4.7466L41.2881 4.7742L41.2436 4.80401L41.2035 4.83293L41.1657 4.86342C41.1434 4.88345 41.1234 4.90169 41.1056 4.91905L41.0655 4.96711L41.0388 4.99893L41.0299 5.0105L41.0455 5.00494L41.0811 4.98803C41.0967 4.98069 41.1167 4.97178 41.1368 4.96088C41.159 4.95131 41.1813 4.94064 41.208 4.92862L41.248 4.90992L41.2925 4.89213L41.3392 4.87255L41.386 4.85408L41.4371 4.83472L41.4883 4.81692L41.5395 4.79845L41.5951 4.78198C41.6285 4.76952 41.6663 4.76062 41.7019 4.74994C41.7353 4.73948 41.7709 4.73125 41.8065 4.72123C41.8399 4.71367 41.8733 4.70388 41.9044 4.69698C41.9378 4.68919 41.9667 4.68185 41.9956 4.67584C42.0246 4.66872 42.049 4.66361 42.0735 4.65804C42.0958 4.6527 42.1158 4.64825 42.1336 4.64424L42.1714 4.63557L42.187 4.63223Z" fill="#954300"/>
<mask id="mask7_1_1622" style="mask-type:luminance" maskUnits="userSpaceOnUse" x="40" y="6" width="4" height="2">
<path d="M43.4907 6.97948C43.4907 6.97948 42.9033 7.95765 42.7409 7.96766C42.5784 7.97789 42.1245 7.76717 41.8308 7.5916C41.5371 7.41604 40.943 6.93743 40.854 6.82083C40.765 6.70424 41.3146 6.93831 41.5638 6.98282C41.8108 7.0271 42.5139 7.16995 42.6096 7.16416C42.7053 7.15815 43.2638 6.90783 43.4907 6.97948Z" fill="white"/>
</mask>
<g mask="url(#mask7_1_1622)">
<path d="M43.5308 7.11483C43.5308 7.11483 42.8477 7.39518 42.6474 7.40764C42.4471 7.41988 41.3034 7.23698 40.9875 7.06275C40.6715 6.88875 41.1321 7.52313 41.6461 7.75944C42.1623 7.99597 42.8343 8.28746 43.1569 7.71138C43.4796 7.13508 43.5308 7.11483 43.5308 7.11483Z" fill="#A15A30"/>
</g>
<path d="M99.9632 24.6227C99.4554 19.3269 90.4283 14.6666 80.9284 13.9493C74.0706 13.4315 43.1837 14.0647 27.866 12.1318C12.5505 10.1986 3.92591 12.1318 3.92591 12.1318C1.00211 12.575 -0.980479 21.3513 0.505901 24.9202C1.61624 27.5846 9.02367 29.135 12.7085 29.7498C12.6284 29.2668 12.5839 28.7717 12.5839 28.2661C12.5839 23.2732 16.6336 19.2255 21.6267 19.2255C26.6177 19.2255 30.6674 23.2732 30.6674 28.2661C30.6674 28.8803 30.6051 29.4799 30.4872 30.0596H75.5903C75.4746 29.4799 75.4123 28.8803 75.4123 28.2661C75.4123 23.2732 79.4598 19.2255 84.453 19.2255C89.4466 19.2255 93.4943 23.2732 93.4943 28.2661C93.4943 28.8803 93.4322 29.4799 93.3156 30.0596H98.4761C98.4761 30.0596 100.276 27.8852 99.9632 24.6227Z" fill="#0075AE"/>
<path d="M30.0156 28.3355C30.0156 32.9842 26.2485 36.7527 21.598 36.7527C16.9497 36.7527 13.1826 32.9842 13.1826 28.3355C13.1826 23.687 16.9497 19.9185 21.598 19.9185C26.2485 19.9185 30.0156 23.687 30.0156 28.3355Z" fill="#323430"/>
<path d="M27.8682 28.3355C27.8682 31.7982 25.0623 34.6052 21.5978 34.6052C18.1355 34.6052 15.3296 31.7982 15.3296 28.3355C15.3296 24.8728 18.1355 22.0658 21.5978 22.0658C25.0623 22.0658 27.8682 24.8728 27.8682 28.3355Z" fill="#E5E5E5"/>
<path d="M26.7781 28.3355C26.7781 31.1961 24.4595 33.5149 21.598 33.5149C18.7387 33.5149 16.4201 31.1961 16.4201 28.3355C16.4201 25.4751 18.7387 23.1563 21.598 23.1563C24.4595 23.1563 26.7781 25.4751 26.7781 28.3355Z" fill="black"/>
<path d="M26.6624 27.6535C26.5867 27.6775 26.4755 27.7127 26.3331 27.7485C26.0505 27.8197 25.6455 27.8982 25.1604 27.9425C24.9179 27.965 24.6531 27.9799 24.3749 27.9868C24.0968 27.9955 23.8053 28.0046 23.5005 28.0142C23.1979 28.0213 22.8841 28.0289 22.5659 28.0364C22.4814 28.0378 22.3968 28.0391 22.3123 28.0404C22.3723 27.9817 22.4346 27.9221 22.4947 27.864C22.7239 27.6439 22.9509 27.4274 23.1711 27.218C23.3914 27.0102 23.6073 26.8093 23.8098 26.6186C24.01 26.4268 24.2081 26.2512 24.395 26.0955C24.7688 25.7835 25.1114 25.553 25.3629 25.403C25.4875 25.3282 25.5899 25.2744 25.6611 25.2377C25.7323 25.2021 25.7723 25.1849 25.7723 25.1849L25.512 24.9246L25.2605 24.6732L24.7488 24.1616C24.7488 24.1616 24.7332 24.2014 24.6976 24.2731C24.6598 24.3438 24.6064 24.4473 24.5307 24.5728C24.3816 24.8234 24.1502 25.1651 23.8387 25.5398C23.6829 25.7274 23.5071 25.9239 23.3158 26.1255C23.1244 26.3282 22.9242 26.5423 22.7172 26.7634C22.5081 26.9833 22.29 27.2102 22.0697 27.441C22.0119 27.5011 21.9518 27.5625 21.8939 27.623C21.8962 27.5384 21.8962 27.4534 21.8984 27.3696C21.9051 27.0507 21.914 26.7372 21.9206 26.4337C21.9295 26.1304 21.9384 25.8369 21.9473 25.5588C21.954 25.2806 21.9696 25.0176 21.9918 24.7746C22.0363 24.2891 22.1142 23.8846 22.1854 23.6013C22.221 23.4596 22.2566 23.3483 22.2811 23.2724C22.3056 23.1966 22.3234 23.1563 22.3234 23.1563H21.954H21.2442H20.8748C20.8748 23.1563 20.8904 23.1966 20.9171 23.2724C20.9416 23.3483 20.9772 23.4596 21.0128 23.6013C21.084 23.8846 21.1619 24.2891 21.2064 24.7746C21.2286 25.0176 21.2442 25.2806 21.2509 25.5588C21.2598 25.8369 21.2687 26.1304 21.2776 26.4337C21.2843 26.7372 21.2932 27.0507 21.2998 27.3696C21.3021 27.4534 21.3021 27.5384 21.3043 27.623C21.2442 27.5625 21.1863 27.5011 21.1285 27.441C20.9082 27.2102 20.6901 26.9833 20.481 26.7634C20.2741 26.5423 20.0738 26.3282 19.8824 26.1255C19.6911 25.9239 19.5153 25.7274 19.3595 25.5398C19.048 25.1651 18.8166 24.8234 18.6675 24.5728C18.5919 24.4473 18.5385 24.3438 18.5006 24.2731C18.465 24.2014 18.4495 24.1616 18.4495 24.1616L17.9377 24.6732L17.6862 24.9246L17.4259 25.1849C17.4259 25.1849 17.466 25.2021 17.5372 25.2377C17.6084 25.2744 17.7107 25.3282 17.8353 25.403C18.0868 25.553 18.4294 25.7835 18.8032 26.0955C18.9901 26.2512 19.1882 26.4268 19.3884 26.6186C19.5909 26.8093 19.8068 27.0102 20.0271 27.218C20.2473 27.4274 20.4743 27.6439 20.7035 27.864C20.7636 27.9221 20.8259 27.9817 20.886 28.0404C20.8014 28.0391 20.7168 28.0378 20.6323 28.0364C20.3141 28.0289 20.0004 28.0213 19.6977 28.0142C19.3929 28.0046 19.1014 27.9955 18.8233 27.9868C18.5451 27.9799 18.2803 27.965 18.0378 27.9425C17.5527 27.8982 17.1478 27.8197 16.8652 27.7485C16.7228 27.7127 16.6115 27.6775 16.5359 27.6535C16.4602 27.6281 16.4201 27.6119 16.4201 27.6119V27.9801V28.6911V29.0591C16.4201 29.0591 16.4602 29.0431 16.5359 29.0177C16.6115 28.9934 16.7228 28.9583 16.8652 28.9225C17.1478 28.8515 17.5527 28.7729 18.0378 28.7284C18.2803 28.706 18.5451 28.6911 18.8233 28.6844C19.1014 28.6757 19.3929 28.6664 19.6977 28.657C20.0004 28.6497 20.3141 28.6423 20.6323 28.6345C20.7168 28.6332 20.8014 28.6319 20.886 28.6308C20.8259 28.6893 20.7636 28.7489 20.7035 28.8072C20.4743 29.027 20.2473 29.2436 20.0271 29.4529C19.8068 29.661 19.5909 29.8619 19.3884 30.0524C19.1882 30.2444 18.9901 30.4197 18.8032 30.5755C18.4294 30.8875 18.0868 31.1182 17.8353 31.268C17.7107 31.343 17.6084 31.3968 17.5372 31.4333C17.466 31.4689 17.4259 31.4862 17.4259 31.4862L17.6862 31.7466L17.9377 31.9978L18.4495 32.5096C18.4495 32.5096 18.465 32.4695 18.5006 32.3979C18.5385 32.3273 18.5919 32.2237 18.6675 32.0982C18.8166 31.8476 19.048 31.5061 19.3595 31.1313C19.5153 30.9438 19.6911 30.7471 19.8824 30.5457C20.0738 30.3428 20.2741 30.1289 20.481 29.9075C20.6901 29.6879 20.9082 29.4609 21.1285 29.2302C21.1863 29.1701 21.2442 29.1085 21.3043 29.048C21.3021 29.1325 21.3021 29.2177 21.2998 29.3016C21.2932 29.6203 21.2843 29.9338 21.2776 30.2373C21.2687 30.5408 21.2598 30.8343 21.2509 31.1124C21.2442 31.3906 21.2286 31.6536 21.2064 31.8963C21.1619 32.3819 21.084 32.7866 21.0128 33.0699C20.9772 33.2114 20.9416 33.3226 20.9171 33.3985C20.8904 33.4744 20.8748 33.5149 20.8748 33.5149H21.2442H21.954H22.3234C22.3234 33.5149 22.3056 33.4744 22.2811 33.3985C22.2566 33.3226 22.221 33.2114 22.1854 33.0699C22.1142 32.7866 22.0363 32.3819 21.9918 31.8963C21.9696 31.6536 21.954 31.3906 21.9473 31.1124C21.9384 30.8343 21.9295 30.5408 21.9206 30.2373C21.914 29.9338 21.9051 29.6203 21.8984 29.3016C21.8962 29.2177 21.8962 29.1325 21.8939 29.048C21.9518 29.1085 22.0119 29.1701 22.0697 29.2302C22.29 29.4609 22.5081 29.6879 22.7172 29.9075C22.9242 30.1289 23.1244 30.3428 23.3158 30.5457C23.5071 30.7471 23.6829 30.9438 23.8387 31.1313C24.1502 31.5061 24.3816 31.8476 24.5307 32.0982C24.6064 32.2237 24.6598 32.3273 24.6976 32.3979C24.7332 32.4695 24.7488 32.5096 24.7488 32.5096L25.2605 31.9978L25.512 31.7466L25.7723 31.4862C25.7723 31.4862 25.7323 31.4689 25.6611 31.4333C25.5899 31.3968 25.4875 31.343 25.3629 31.268C25.1114 31.1182 24.7688 30.8875 24.395 30.5755C24.2081 30.4197 24.01 30.2444 23.8098 30.0524C23.6073 29.8619 23.3914 29.661 23.1711 29.4529C22.9509 29.2436 22.7239 29.027 22.4947 28.8072C22.4346 28.7489 22.3723 28.6893 22.3123 28.6308C22.3968 28.6319 22.4814 28.6332 22.5659 28.6345C22.8841 28.6423 23.1979 28.6497 23.5005 28.657C23.8053 28.6664 24.0968 28.6757 24.3749 28.6844C24.6531 28.6911 24.9179 28.706 25.1604 28.7284C25.6455 28.7729 26.0505 28.8515 26.3331 28.9225C26.4755 28.9583 26.5867 28.9934 26.6624 29.0177C26.738 29.0431 26.7781 29.0591 26.7781 29.0591V28.6911V27.9801V27.6119C26.7781 27.6119 26.738 27.6281 26.6624 27.6535Z" fill="#CBCBCB"/>
<path d="M92.8706 28.3355C92.8706 32.9842 89.1021 36.7527 84.453 36.7527C79.8047 36.7527 76.0354 32.9842 76.0354 28.3355C76.0354 23.687 79.8047 19.9185 84.453 19.9185C89.1021 19.9185 92.8706 23.687 92.8706 28.3355Z" fill="#323430"/>
<path d="M90.7231 28.3355C90.7231 31.7982 87.9162 34.6052 84.453 34.6052C80.9907 34.6052 78.1848 31.7982 78.1848 28.3355C78.1848 24.8728 80.9907 22.0658 84.453 22.0658C87.9162 22.0658 90.7231 24.8728 90.7231 28.3355Z" fill="#E5E5E5"/>
<path d="M89.6331 28.3355C89.6331 31.1961 87.3143 33.5149 84.4532 33.5149C81.5939 33.5149 79.2753 31.1961 79.2753 28.3355C79.2753 25.4751 81.5939 23.1563 84.4532 23.1563C87.3143 23.1563 89.6331 25.4751 89.6331 28.3355Z" fill="black"/>
<path d="M89.5167 27.6535C89.4408 27.6775 89.3296 27.7127 89.188 27.7485C88.9048 27.8197 88.5 27.8982 88.0145 27.9425C87.7717 27.965 87.5087 27.9799 87.2306 27.9868C86.9524 27.9955 86.659 28.0046 86.3555 28.0142C86.052 28.0213 85.7384 28.0289 85.4198 28.0364C85.3359 28.0378 85.2498 28.0391 85.1652 28.0404C85.2275 27.9817 85.2876 27.9221 85.3484 27.864C85.5789 27.6439 85.8061 27.4274 86.0257 27.218C86.2471 27.0102 86.4609 26.8093 86.6638 26.6186C86.8654 26.4268 87.0619 26.2512 87.2495 26.0955C87.6242 25.7835 87.9658 25.553 88.2163 25.403C88.3418 25.3282 88.4455 25.2744 88.516 25.2377C88.5877 25.2021 88.6277 25.1849 88.6277 25.1849L88.3674 24.9246L88.116 24.6732L87.6044 24.1616C87.6044 24.1616 87.5871 24.2014 87.5515 24.2731C87.515 24.3438 87.4611 24.4473 87.3861 24.5728C87.2364 24.8234 87.0056 25.1651 86.6937 25.5398C86.5379 25.7274 86.3626 25.9239 86.1705 26.1255C85.9801 26.3282 85.7792 26.5423 85.5711 26.7634C85.3617 26.9833 85.1452 27.2102 84.9249 27.441C84.8671 27.5011 84.807 27.5625 84.7491 27.623C84.7491 27.5384 84.7514 27.4534 84.7536 27.3696C84.7603 27.0507 84.7669 26.7372 84.7758 26.4337C84.7847 26.1304 84.7936 25.8369 84.8025 25.5588C84.8092 25.2806 84.8248 25.0176 84.8471 24.7746C84.8916 24.2891 84.9694 23.8846 85.0406 23.6013C85.0762 23.4596 85.1118 23.3483 85.1363 23.2724C85.1608 23.1966 85.1764 23.1563 85.1764 23.1563H84.8092H84.0972H83.73C83.73 23.1563 83.7456 23.1966 83.7723 23.2724C83.7968 23.3483 83.8302 23.4596 83.8658 23.6013C83.937 23.8846 84.0171 24.2891 84.0616 24.7746C84.0838 25.0176 84.0972 25.2806 84.1039 25.5588C84.1128 25.8369 84.1239 26.1304 84.1328 26.4337C84.1394 26.7372 84.1461 27.0507 84.155 27.3696C84.155 27.4534 84.1573 27.5384 84.1595 27.623C84.0994 27.5625 84.0393 27.5011 83.9815 27.441C83.7612 27.2102 83.5453 26.9833 83.3362 26.7634C83.1292 26.5423 82.9268 26.3282 82.7376 26.1255C82.544 25.9239 82.3705 25.7274 82.2147 25.5398C81.901 25.1651 81.6718 24.8234 81.5205 24.5728C81.4471 24.4473 81.3914 24.3438 81.3558 24.2731C81.3202 24.2014 81.3024 24.1616 81.3024 24.1616L80.7906 24.6732L80.5392 24.9246L80.2789 25.1849C80.2789 25.1849 80.3189 25.2021 80.3924 25.2377C80.4613 25.2744 80.5659 25.3282 80.6905 25.403C80.9419 25.553 81.2824 25.7835 81.6584 26.0955C81.8453 26.2512 82.0412 26.4268 82.2437 26.6186C82.4461 26.8093 82.6597 27.0102 82.8823 27.218C83.1003 27.4274 83.3295 27.6439 83.5587 27.864C83.6188 27.9221 83.6811 27.9817 83.7412 28.0404C83.6566 28.0391 83.572 28.0378 83.4875 28.0364C83.1693 28.0289 82.8556 28.0213 82.5529 28.0142C82.2481 28.0046 81.9544 27.9955 81.6763 27.9868C81.3981 27.9799 81.1355 27.965 80.893 27.9425C80.4079 27.8982 80.003 27.8197 79.7204 27.7485C79.578 27.7127 79.4667 27.6775 79.3911 27.6535C79.3154 27.6281 79.2753 27.6119 79.2753 27.6119V27.9801V28.6911V29.0591C79.2753 29.0591 79.3154 29.0431 79.3911 29.0177C79.4667 28.9934 79.578 28.9583 79.7204 28.9225C80.003 28.8515 80.4079 28.7729 80.893 28.7284C81.1355 28.706 81.3981 28.6911 81.6763 28.6844C81.9544 28.6757 82.2481 28.6664 82.5529 28.657C82.8556 28.6497 83.1693 28.6423 83.4875 28.6345C83.572 28.6332 83.6566 28.6319 83.7412 28.6308C83.6811 28.6893 83.6188 28.7489 83.5587 28.8072C83.3295 29.027 83.1003 29.2436 82.8823 29.4529C82.6597 29.661 82.4461 29.8619 82.2437 30.0524C82.0412 30.2444 81.8453 30.4197 81.6584 30.5755C81.2824 30.8875 80.9419 31.1182 80.6905 31.268C80.5659 31.343 80.4613 31.3968 80.3924 31.4333C80.3189 31.4689 80.2789 31.4862 80.2789 31.4862L80.5392 31.7466L80.7906 31.9978L81.3024 32.5096C81.3024 32.5096 81.3202 32.4695 81.3558 32.3979C81.3914 32.3273 81.4471 32.2237 81.5205 32.0982C81.6718 31.8476 81.901 31.5061 82.2147 31.1313C82.3705 30.9438 82.544 30.7471 82.7376 30.5457C82.9268 30.3428 83.1292 30.1289 83.3362 29.9075C83.5453 29.6879 83.7612 29.4609 83.9815 29.2302C84.0393 29.1701 84.0994 29.1085 84.1595 29.048C84.1573 29.1325 84.155 29.2177 84.155 29.3016C84.1461 29.6203 84.1394 29.9338 84.1328 30.2373C84.1239 30.5408 84.1128 30.8343 84.1039 31.1124C84.0972 31.3906 84.0838 31.6536 84.0616 31.8963C84.0171 32.3819 83.937 32.7866 83.8658 33.0699C83.8302 33.2114 83.7968 33.3226 83.7723 33.3985C83.7456 33.4744 83.73 33.5149 83.73 33.5149H84.0972H84.8092H85.1764C85.1764 33.5149 85.1608 33.4744 85.1363 33.3985C85.1118 33.3226 85.0762 33.2114 85.0406 33.0699C84.9694 32.7866 84.8916 32.3819 84.8471 31.8963C84.8248 31.6536 84.8092 31.3906 84.8025 31.1124C84.7936 30.8343 84.7847 30.5408 84.7758 30.2373C84.7669 29.9338 84.7603 29.6203 84.7536 29.3016C84.7514 29.2177 84.7491 29.1325 84.7491 29.048C84.807 29.1085 84.8671 29.1701 84.9249 29.2302C85.1452 29.4609 85.3617 29.6879 85.5711 29.9075C85.7792 30.1289 85.9801 30.3428 86.1705 30.5457C86.3626 30.7471 86.5379 30.9438 86.6937 31.1313C87.0056 31.5061 87.2364 31.8476 87.3861 32.0982C87.4611 32.2237 87.515 32.3273 87.5515 32.3979C87.5871 32.4695 87.6044 32.5096 87.6044 32.5096L88.116 31.9978L88.3674 31.7466L88.6277 31.4862C88.6277 31.4862 88.5877 31.4689 88.516 31.4333C88.4455 31.3968 88.3418 31.343 88.2163 31.268C87.9658 31.1182 87.6242 30.8875 87.2495 30.5755C87.0619 30.4197 86.8654 30.2444 86.6638 30.0524C86.4609 29.8619 86.2471 29.661 86.0257 29.4529C85.8061 29.2436 85.5789 29.027 85.3484 28.8072C85.2876 28.7489 85.2275 28.6893 85.1652 28.6308C85.2498 28.6319 85.3359 28.6332 85.4198 28.6345C85.7384 28.6423 86.052 28.6497 86.3555 28.657C86.659 28.6664 86.9524 28.6757 87.2306 28.6844C87.5087 28.6911 87.7717 28.706 88.0145 28.7284C88.5 28.7729 88.9048 28.8515 89.188 28.9225C89.3296 28.9583 89.4408 28.9934 89.5167 29.0177C89.5925 29.0431 89.6331 29.0591 89.6331 29.0591V28.6911V27.9801V27.6119C89.6331 27.6119 89.5925 27.6281 89.5167 27.6535Z" fill="#CBCBCB"/>
<mask id="mask8_1_1622" style="mask-type:luminance" maskUnits="userSpaceOnUse" x="0" y="11" width="100" height="20">
<path d="M99.9635 24.6227C99.4555 19.3269 90.4284 14.6666 80.9285 13.9493C74.0707 13.4315 43.1838 14.0647 27.866 12.1318C12.5506 10.1986 3.926 12.1318 3.926 12.1318C1.0022 12.575 -0.98039 21.3513 0.50599 24.9202C1.61632 27.5846 9.02376 29.1348 12.7086 29.7498C12.6284 29.267 12.5839 28.7717 12.5839 28.2661C12.5839 23.2732 16.6337 19.2255 21.6268 19.2255C26.6178 19.2255 30.6675 23.2732 30.6675 28.2661C30.6675 28.8803 30.6052 29.4799 30.4873 30.0596H75.5904C75.4747 29.4799 75.4124 28.8803 75.4124 28.2661C75.4124 23.2732 79.4599 19.2255 84.4531 19.2255C89.4467 19.2255 93.4944 23.2732 93.4944 28.2661C93.4944 28.8803 93.4325 29.4799 93.3157 30.0596H98.4762C98.4762 30.0596 100.276 27.8854 99.9635 24.6227Z" fill="white"/>
</mask>
<g mask="url(#mask8_1_1622)">
<path d="M100.848 24.4492C100.848 24.4492 93.1196 22.2561 91.206 20.6661C89.2922 19.0762 91.7948 17.1624 91.7948 17.1624C91.7948 17.1624 96.579 16.3527 100.848 24.4492Z" fill="#D4F6FA"/>
<path d="M77.6997 36.7527H30.0154V28.3355H77.6997V36.7527Z" fill="#006291"/>
</g>
<mask id="mask9_1_1622" style="mask-type:luminance" maskUnits="userSpaceOnUse" x="0" y="11" width="100" height="20">
<path d="M99.9635 24.6227C99.4555 19.3269 90.4284 14.6666 80.9285 13.9493C74.0707 13.4315 43.1838 14.0647 27.866 12.1318C12.5506 10.1986 3.926 12.1318 3.926 12.1318C1.0022 12.575 -0.98039 21.3513 0.50599 24.9202C1.61632 27.5846 9.02376 29.1348 12.7086 29.7498C12.6284 29.267 12.5839 28.7717 12.5839 28.2661C12.5839 23.2732 16.6337 19.2255 21.6268 19.2255C26.6178 19.2255 30.6675 23.2732 30.6675 28.2661C30.6675 28.8803 30.6052 29.4799 30.4873 30.0596H75.5904C75.4747 29.4799 75.4124 28.8803 75.4124 28.2661C75.4124 23.2732 79.4599 19.2255 84.4531 19.2255C89.4467 19.2255 93.4944 23.2732 93.4944 28.2661C93.4944 28.8803 93.4325 29.4799 93.3157 30.0596H98.4762C98.4762 30.0596 100.276 27.8854 99.9635 24.6227Z" fill="white"/>
</mask>
<g mask="url(#mask9_1_1622)">
<mask id="mask10_1_1622" style="mask-type:luminance" maskUnits="userSpaceOnUse" x="-4" y="12" width="15" height="9">
<path d="M0.379232 12.5989C0.379232 12.5989 3.24964 17.9719 10.241 18.708C10.241 18.708 2.29284 22.3801 -1.68122 19.9184C-5.65751 17.4568 0.379232 12.5989 0.379232 12.5989Z" fill="white"/>
</mask>
<g mask="url(#mask10_1_1622)">
<path d="M0.379232 12.5989C0.379232 12.5989 3.24964 17.9719 10.241 18.708C10.241 18.708 2.29284 22.3801 -1.68122 19.9184C-5.65751 17.4566 0.379232 12.5989 0.379232 12.5989Z" fill="#FF0000"/>
<path d="M-1.12928 15.8938C-1.12928 15.8938 4.39124 19.9039 10.2411 18.7079C16.0931 17.5117 2.22619 14.7296 1.18038 13.7686C0.132353 12.8074 -1.12928 15.8938 -1.12928 15.8938Z" fill="#E5E5E5"/>
</g>
</g>
<mask id="mask11_1_1622" style="mask-type:luminance" maskUnits="userSpaceOnUse" x="0" y="11" width="100" height="20">
<path d="M99.9635 24.6227C99.4555 19.3269 90.4284 14.6666 80.9285 13.9493C74.0707 13.4315 43.1838 14.0647 27.866 12.1318C12.5506 10.1986 3.926 12.1318 3.926 12.1318C1.0022 12.575 -0.98039 21.3513 0.50599 24.9202C1.61632 27.5846 9.02376 29.1348 12.7086 29.7498C12.6284 29.267 12.5839 28.7717 12.5839 28.2661C12.5839 23.2732 16.6337 19.2255 21.6268 19.2255C26.6178 19.2255 30.6675 23.2732 30.6675 28.2661C30.6675 28.8803 30.6052 29.4799 30.4873 30.0596H75.5904C75.4747 29.4799 75.4124 28.8803 75.4124 28.2661C75.4124 23.2732 79.4599 19.2255 84.4531 19.2255C89.4467 19.2255 93.4944 23.2732 93.4944 28.2661C93.4944 28.8803 93.4325 29.4799 93.3157 30.0596H98.4762C98.4762 30.0596 100.276 27.8854 99.9635 24.6227Z" fill="white"/>
</mask>
<g mask="url(#mask11_1_1622)">
<path d="M1.86774 13.9535C1.86774 13.9535 75.1609 16.4999 93.6348 16.2056C88.3846 13.1227 47.5361 14.0212 30.6585 13.5559C13.781 13.0906 2.37507 12.9424 1.86774 13.9535Z" fill="#00A6F7"/>
</g>
<path d="M42.1335 16.9953C42.1335 17.5347 41.6017 17.9722 40.9476 17.9722H36.9245C36.2704 17.9722 35.7408 17.5347 35.7408 16.9953C35.7408 16.4557 36.2704 16.0183 36.9245 16.0183H40.9476C41.6017 16.0183 42.1335 16.4557 42.1335 16.9953Z" fill="#006291"/>
<path d="M67.0325 28.3906H35.0865L35.082 28.3392C35.082 28.3161 34.9174 26.0073 33.6535 23.1945C32.4875 20.6003 30.1178 17.0341 25.4606 14.7762L25.4294 14.7611V13.4064L25.4339 13.3947C25.4428 13.3795 26.2105 11.8825 27.8726 12.0767L27.8615 12.1864C26.3507 12.0113 25.6119 13.2992 25.5385 13.4332V14.6921C30.209 16.9657 32.5832 20.5466 33.7559 23.1531C34.9218 25.7503 35.1577 27.922 35.1888 28.2803H66.9457C67.5332 25.8202 67.3796 21.7858 66.4896 16.2875C66.4607 16.1093 66.4406 15.9782 66.4295 15.9017C66.3116 15.0835 65.0054 13.7068 64.9921 13.6933L65.0722 13.6169C65.1278 13.6744 66.4161 15.033 66.5385 15.8861C66.5497 15.9622 66.5697 16.0926 66.5986 16.27C67.4953 21.8141 67.6444 25.878 67.0436 28.3486L67.0325 28.3906Z" fill="#0003A7"/>
<defs>
<linearGradient id="paint0_linear_1_1622" x1="41.5148" y1="10.5201" x2="40.9975" y2="3.85624" gradientUnits="userSpaceOnUse">
<stop stop-color="#FFB890"/>
<stop offset="0.750988" stop-color="#E68D76"/>
<stop offset="1" stop-color="#E68D76"/>
</linearGradient>
<linearGradient id="paint1_linear_1_1622" x1="40.872" y1="9.74931" x2="41.2863" y2="7.04296" gradientUnits="userSpaceOnUse">
<stop stop-color="#FFB890"/>
<stop offset="0.750988" stop-color="#E68D76"/>
<stop offset="1" stop-color="#E68D76"/>
</linearGradient>
<linearGradient id="paint2_linear_1_1622" x1="39.7572" y1="5.43201" x2="38.4151" y2="5.51457" gradientUnits="userSpaceOnUse">
<stop stop-color="#FFB890"/>
<stop offset="1" stop-color="#FD9B82"/>
</linearGradient>
<linearGradient id="paint3_linear_1_1622" x1="42.4761" y1="5.32969" x2="43.1585" y2="5.89092" gradientUnits="userSpaceOnUse">
<stop stop-color="#FFB890"/>
<stop offset="1" stop-color="#FD9B82"/>
</linearGradient>
</defs>
</svg>
