<svg width="39" height="35" viewBox="0 0 39 35" fill="none" xmlns="http://www.w3.org/2000/svg">
<path d="M18.8483 35C14.0294 35 2.68629 34.5766 0.536301 31.0484C-1.8361 27.0262 4.31732 16.5121 6.2449 13.3367C8.17248 10.2319 14.8449 0 19.4414 0C24.631 0 32.8603 13.1956 35.3069 17.8528C38.8655 24.627 39.9034 29.1431 38.1982 31.2601C35.381 34.8589 21.5914 35 18.8483 35ZM19.4414 2.89314C18.1069 2.89314 13.7328 7.05645 8.98799 14.8185C3.8725 23.0746 2.53802 28.4375 3.27939 29.6371C3.87249 30.625 9.2104 32.1069 18.8483 32.1069C28.931 32.1069 34.862 30.5544 35.6775 29.496C36.1965 28.8609 35.7517 25.4738 32.4896 19.1935C27.5965 9.87903 21.1466 2.89314 19.4414 2.89314ZM19.5155 23.1452C18.6259 23.1452 17.9586 22.5101 17.9586 21.6633V10.4435C17.9586 9.59677 18.6259 8.96169 19.5155 8.96169C20.4052 8.96169 21.0724 9.59677 21.0724 10.4435V21.5927C21.0724 22.4395 20.331 23.1452 19.5155 23.1452ZM21.0724 26.9556C21.0724 27.7742 20.3755 28.4375 19.5155 28.4375C18.6555 28.4375 17.9586 27.7742 17.9586 26.9556C17.9586 26.1371 18.6555 25.4738 19.5155 25.4738C20.3755 25.4738 21.0724 26.1371 21.0724 26.9556Z" fill="#5089BE"/>
</svg>
