<svg width="37" height="38" viewBox="0 0 37 38" fill="none" xmlns="http://www.w3.org/2000/svg">
<path fill-rule="evenodd" clip-rule="evenodd" d="M18.5 0C8.28273 0 0 8.50659 0 19C0 29.4935 8.28273 38 18.5 38C28.7173 38 37 29.4935 37 19C37 8.50659 28.7173 0 18.5 0ZM2.5814 19C2.5814 14.9626 4.00639 11.267 6.36803 8.41479L11.8792 14.075C10.9019 15.4584 10.3256 17.1601 10.3256 19C10.3256 20.8399 10.9019 22.5416 11.8792 23.925L6.36801 29.5852C4.00639 26.7331 2.5814 23.0374 2.5814 19ZM13.7046 12.2003L8.19335 6.54014C10.9705 4.11468 14.5688 2.65116 18.5 2.65116C22.4311 2.65116 26.0296 4.11468 28.8067 6.54014L23.2954 12.2003C21.9484 11.1965 20.2915 10.6047 18.5 10.6047C16.7085 10.6047 15.0516 11.1965 13.7046 12.2003ZM8.19333 31.4599C10.9705 33.8854 14.5688 35.3488 18.5 35.3488C22.4311 35.3488 26.0296 33.8854 28.8067 31.4599L23.2954 25.7997C21.9484 26.8034 20.2915 27.3953 18.5 27.3953C16.7085 27.3953 15.0516 26.8034 13.7046 25.7997L8.19333 31.4599ZM25.1208 23.925L30.632 29.5852C32.9937 26.7331 34.4186 23.0374 34.4186 19C34.4186 14.9626 32.9937 11.267 30.632 8.41479L25.1208 14.075C26.0981 15.4584 26.6744 17.1601 26.6744 19C26.6744 20.8399 26.0981 22.5416 25.1208 23.925ZM12.907 19C12.907 15.8276 15.4111 13.2558 18.5 13.2558C21.5889 13.2558 24.093 15.8276 24.093 19C24.093 22.1724 21.5889 24.7442 18.5 24.7442C15.4111 24.7442 12.907 22.1724 12.907 19Z" fill="#BC7431"/>
</svg>
