<svg width="23" height="23" viewBox="0 0 23 23" fill="none" xmlns="http://www.w3.org/2000/svg">
<g clip-path="url(#clip0_4_53)">
<path d="M15.4611 0.766667C15.3659 0.98833 15.3394 1.23344 15.385 1.47032C15.4305 1.70721 15.5461 1.925 15.7166 2.09556L17.4442 3.82439L13.1355 8.13944C12.9269 8.37208 12.8153 8.67584 12.8238 8.98824C12.8322 9.30064 12.9601 9.59791 13.1811 9.81889C13.4021 10.0399 13.6993 10.1677 14.0117 10.1762C14.3241 10.1847 14.6279 10.0731 14.8605 9.86444L19.182 5.54556L20.9095 7.27311C21.0801 7.4437 21.2979 7.55924 21.5348 7.6048C21.7717 7.65035 22.0168 7.62383 22.2384 7.52867C22.4612 7.43777 22.6522 7.28324 22.7877 7.08439C22.9231 6.88554 22.997 6.65119 23 6.41061V1.22667C22.9986 0.901749 22.869 0.590522 22.6392 0.360769C22.4095 0.131015 22.0982 0.00134543 21.7733 0H16.5894C16.3465 0.00142022 16.1095 0.0750803 15.9085 0.211606C15.7076 0.348131 15.5519 0.541348 15.4611 0.766667Z" fill="#5089BE"/>
<path d="M17.8889 14.0556V20.4444C17.8869 21.1216 17.617 21.7704 17.1381 22.2493C16.6593 22.7281 16.0105 22.998 15.3333 23H2.55556C1.8784 22.998 1.22956 22.7281 0.750739 22.2493C0.271917 21.7704 0.00202237 21.1216 0 20.4444L0 7.66667C0.00202237 6.98952 0.271917 6.34068 0.750739 5.86185C1.22956 5.38303 1.8784 5.11314 2.55556 5.11111H8.94444C9.28333 5.11111 9.60834 5.24574 9.84797 5.48537C10.0876 5.725 10.2222 6.05 10.2222 6.38889C10.2222 6.72778 10.0876 7.05279 9.84797 7.29242C9.60834 7.53205 9.28333 7.66667 8.94444 7.66667H2.55556V20.4444H15.3333V14.0556C15.3333 13.7167 15.468 13.3917 15.7076 13.152C15.9472 12.9124 16.2722 12.7778 16.6111 12.7778C16.95 12.7778 17.275 12.9124 17.5146 13.152C17.7543 13.3917 17.8889 13.7167 17.8889 14.0556Z" fill="#5089BE"/>
</g>
<defs>
<clipPath id="clip0_4_53">
<rect width="23" height="23" fill="white"/>
</clipPath>
</defs>
</svg>
