<svg width="100" height="37" viewBox="0 0 100 37" fill="none" xmlns="http://www.w3.org/2000/svg">
<path d="M93.5518 28.1515L64.2211 30.2467L36.9852 30.7708L8.17896 28.1515C8.17896 28.1515 9.88037 18.3273 26.3149 17.4785C42.7464 16.6288 79.4101 13.4862 84.124 16.1055C88.8379 18.724 93.5518 28.1515 93.5518 28.1515Z" fill="black"/>
<path d="M7.85034 2.5505C7.85034 2.5505 6.67111 2.94383 5.4934 5.43162C4.31417 7.91926 3.0056 11.3237 3.0056 11.3237L6.01683 12.1096L7.85034 2.5505Z" fill="#343D3A"/>
<path d="M73.9763 11.324C73.9763 11.324 63.6588 2.33867 58.2067 1.9192L71.7501 11.7173L73.9763 11.324Z" fill="#616767"/>
<path d="M31.2246 28.6757C31.2246 24.123 27.473 20.4326 22.8448 20.4326C18.2152 20.4326 14.4636 24.123 14.4636 28.6757C14.4636 33.2284 18.2152 36.9187 22.8448 36.9187C27.473 36.9187 31.2246 33.2284 31.2246 28.6757Z" fill="#1F2326"/>
<path d="M22.8444 20.4325C26.7982 20.4325 30.1112 23.1282 30.9927 26.7523C30.1112 30.3766 26.7982 33.0715 22.8444 33.0715C18.8891 33.0715 15.5762 30.3766 14.6946 26.7523C15.5762 23.1282 18.8891 20.4325 22.8444 20.4325Z" fill="#3C3E40"/>
<path d="M29.0256 28.6756C29.0256 25.3173 26.2579 22.5949 22.8445 22.5949C19.4297 22.5949 16.6619 25.3173 16.6619 28.6756C16.6619 32.0339 19.4297 34.7565 22.8445 34.7565C26.2579 34.7565 29.0256 32.0339 29.0256 28.6756Z" fill="#5D5E60"/>
<path d="M26.6909 28.6756C26.6909 26.5864 24.9685 24.8922 22.8447 24.8922C20.7194 24.8922 18.997 26.5864 18.997 28.6756C18.997 30.765 20.7194 32.4592 22.8447 32.4592C24.9685 32.4592 26.6909 30.765 26.6909 28.6756Z" fill="#3C3E40"/>
<path d="M24.8357 28.6756C24.8357 27.5936 23.9432 26.7164 22.8446 26.7164C21.7432 26.7164 20.8522 27.5936 20.8522 28.6756C20.8522 29.7577 21.7432 30.635 22.8446 30.635C23.9432 30.635 24.8357 29.7577 24.8357 28.6756Z" fill="#9EA7A6"/>
<path d="M23.8923 28.6757C23.8923 28.1071 23.4226 27.6457 22.8446 27.6457C22.2652 27.6457 21.7969 28.1071 21.7969 28.6757C21.7969 29.2444 22.2652 29.7057 22.8446 29.7057C23.4226 29.7057 23.8923 29.2444 23.8923 28.6757Z" fill="#5D5E60"/>
<path d="M23.3013 22.6795L22.908 26.1426H22.516L22.0595 22.7449L23.3013 22.6795Z" fill="#9EA7A6"/>
<path d="M22.0595 34.8319L22.4514 31.3696H22.8433L23.3013 34.7666L22.0595 34.8319Z" fill="#9EA7A6"/>
<path d="M17.7234 25.1882L20.5298 27.2548L20.3347 27.5946L17.161 26.297L17.7234 25.1882Z" fill="#9EA7A6"/>
<path d="M27.6379 32.3242L24.832 30.2575L25.0277 29.9178L28.2 31.2154L27.6379 32.3242Z" fill="#9EA7A6"/>
<path d="M20.0315 23.2515L21.509 26.4084L21.1745 26.614L19.0081 23.9568L20.0315 23.2515Z" fill="#9EA7A6"/>
<path d="M25.3277 34.2599L23.8518 31.1029L24.1862 30.8982L26.3521 33.5554L25.3277 34.2599Z" fill="#9EA7A6"/>
<path d="M16.6045 28.1355L20.0676 28.5273V28.9198L16.6693 29.377L16.6045 28.1355Z" fill="#9EA7A6"/>
<path d="M28.7563 29.3768L25.2942 28.9843V28.5927L28.6913 28.1355L28.7563 29.3768Z" fill="#9EA7A6"/>
<path d="M19.1119 33.7131L21.1792 30.9075L21.5178 31.1029L20.2203 34.2758L19.1119 33.7131Z" fill="#9EA7A6"/>
<path d="M26.2493 23.7983L24.1823 26.6048L23.8423 26.4094L25.1398 23.2365L26.2493 23.7983Z" fill="#9EA7A6"/>
<path d="M17.1775 31.4042L20.3337 29.9272L20.5388 30.2617L17.8819 32.4273L17.1775 31.4042Z" fill="#9EA7A6"/>
<path d="M28.1836 26.1083L25.0265 27.5844L24.8225 27.2507L27.48 25.0841L28.1836 26.1083Z" fill="#9EA7A6"/>
<path d="M22.8451 22.8028C26.1377 22.8028 28.8173 25.4373 28.8173 28.6757C28.8173 31.9141 26.1377 34.5486 22.8451 34.5486C19.5496 34.5486 16.8701 31.9141 16.8701 28.6757C16.8701 25.4373 19.5496 22.8028 22.8451 22.8028ZM22.8451 34.9645C26.368 34.9645 29.2346 32.143 29.2346 28.6757C29.2346 25.2084 26.368 22.3869 22.8451 22.3869C19.3208 22.3869 16.4542 25.2084 16.4542 28.6757C16.4542 32.143 19.3208 34.9645 22.8451 34.9645Z" fill="black"/>
<path d="M90.0959 28.6756C90.0959 24.123 86.3438 20.4326 81.7162 20.4326C77.0876 20.4326 73.3354 24.123 73.3354 28.6756C73.3354 33.2283 77.0876 36.9188 81.7162 36.9188C86.3438 36.9188 90.0959 33.2283 90.0959 28.6756Z" fill="#1F2326"/>
<path d="M81.7167 20.4326C85.6709 20.4326 88.9827 23.1283 89.8645 26.7524C88.9827 30.3767 85.6709 33.0715 81.7167 33.0715C77.7615 33.0715 74.4487 30.3767 73.5679 26.7524C74.4487 23.1283 77.7615 20.4326 81.7167 20.4326Z" fill="#3C3E40"/>
<path d="M87.8989 28.6757C87.8989 25.3174 85.1309 22.5948 81.7159 22.5948C78.3019 22.5948 75.5339 25.3174 75.5339 28.6757C75.5339 32.034 78.3019 34.7565 81.7159 34.7565C85.1309 34.7565 87.8989 32.034 87.8989 28.6757Z" fill="#5D5E60"/>
<path d="M85.562 28.6755C85.562 26.5862 83.84 24.892 81.7154 24.892C79.5908 24.892 77.8688 26.5862 77.8688 28.6755C77.8688 30.7648 79.5908 32.4591 81.7154 32.4591C83.84 32.4591 85.562 30.7648 85.562 28.6755Z" fill="#3C3E40"/>
<path d="M83.7083 28.6757C83.7083 27.5937 82.8171 26.7163 81.7157 26.7163C80.6154 26.7163 79.7242 27.5937 79.7242 28.6757C79.7242 29.7576 80.6154 30.6349 81.7157 30.6349C82.8171 30.6349 83.7083 29.7576 83.7083 28.6757Z" fill="#9EA7A6"/>
<path d="M82.7644 28.6757C82.7644 28.1071 82.2951 27.6457 81.7161 27.6457C81.1382 27.6457 80.6689 28.1071 80.6689 28.6757C80.6689 29.2444 81.1382 29.7057 81.7161 29.7057C82.2951 29.7057 82.7644 29.2444 82.7644 28.6757Z" fill="#5D5E60"/>
<path d="M82.1731 22.6795L81.7807 26.1426H81.3884L80.9313 22.7448L82.1731 22.6795Z" fill="#9EA7A6"/>
<path d="M80.9313 34.8319L81.3226 31.3697H81.716L82.1731 34.7665L80.9313 34.8319Z" fill="#9EA7A6"/>
<path d="M76.5953 25.1882L79.4016 27.2548L79.2062 27.5946L76.0328 26.2971L76.5953 25.1882Z" fill="#9EA7A6"/>
<path d="M86.5103 32.3242L83.7038 30.2576L83.8989 29.9179L87.0718 31.2154L86.5103 32.3242Z" fill="#9EA7A6"/>
<path d="M78.9039 23.2514L80.3804 26.4084L80.0468 26.614L77.8799 23.9568L78.9039 23.2514Z" fill="#9EA7A6"/>
<path d="M84.2001 34.2599L82.7236 31.1029L83.0571 30.8982L85.2244 33.5554L84.2001 34.2599Z" fill="#9EA7A6"/>
<path d="M75.4765 28.1354L78.939 28.5271V28.9197L75.5422 29.3768L75.4765 28.1354Z" fill="#9EA7A6"/>
<path d="M87.6292 29.3768L84.1661 28.9844V28.5926L87.5636 28.1355L87.6292 29.3768Z" fill="#9EA7A6"/>
<path d="M77.9837 33.713L80.0507 30.9074L80.3904 31.1028L79.092 34.2758L77.9837 33.713Z" fill="#9EA7A6"/>
<path d="M85.1199 23.7984L83.0537 26.6048L82.714 26.4094L84.0119 23.2365L85.1199 23.7984Z" fill="#9EA7A6"/>
<path d="M76.0478 31.4039L79.2038 29.927L79.4099 30.2616L76.752 32.4272L76.0478 31.4039Z" fill="#9EA7A6"/>
<path d="M87.0564 26.1082L83.8997 27.5844L83.6944 27.2506L86.3511 25.0841L87.0564 26.1082Z" fill="#9EA7A6"/>
<path d="M81.7158 22.8029C85.0099 22.8029 87.6895 25.4374 87.6895 28.6757C87.6895 31.9141 85.0099 34.5486 81.7158 34.5486C78.4217 34.5486 75.7421 31.9141 75.7421 28.6757C75.7421 25.4374 78.4217 22.8029 81.7158 22.8029ZM81.7158 34.9645C85.2395 34.9645 88.1067 32.143 88.1067 28.6757C88.1067 25.2083 85.2395 22.3869 81.7158 22.3869C78.1932 22.3869 75.326 25.2083 75.326 28.6757C75.326 32.143 78.1932 34.9645 81.7158 34.9645Z" fill="black"/>
<path d="M98.8547 20.3588C98.8547 20.3588 99.1163 16.4309 97.6763 14.5974C96.2363 12.7648 90.3426 12.1098 88.7716 11.9789C87.2006 11.848 74.7625 11.3239 73.9762 11.3239C73.19 11.3239 71.8811 11.193 71.0949 10.2763C70.3102 9.35946 62.7159 2.81324 56.9532 1.5039C51.192 0.193797 20.6824 -0.0678271 13.8744 0.456339C7.06486 0.979735 7.32694 3.20575 6.67173 4.77671C6.01806 6.34844 4.44711 11.3239 4.44711 11.3239H3.00565C3.00565 11.3239 1.30366 12.7648 1.30366 14.7283C1.30366 16.6925 1.4347 19.442 1.4347 19.442C1.4347 19.442 0.255331 20.4895 0.255331 21.4063C0.255331 22.323 0.386372 25.2041 0.386372 25.2041C0.386372 25.2041 -0.2673 25.8584 0.125825 27.1676C0.51895 28.4769 1.30366 29.0011 1.30366 29.0011L12.4345 30.572C12.4345 30.572 13.0881 22.9781 17.0163 20.4895C20.9445 18.0019 28.4077 19.3111 30.7649 22.0614C33.1221 24.8108 33.9083 31.7505 33.9083 31.7505L71.619 31.8813C71.619 31.8813 71.8811 23.2399 75.1541 20.883C78.4286 18.5261 86.2849 18.2635 89.0337 21.5371C91.784 24.8108 91.653 30.0486 91.653 30.0486C91.653 30.0486 95.188 30.3104 96.4984 29.6561C97.807 29.0011 99.3781 27.561 99.7714 25.9891C100.164 24.4181 100.164 21.1446 98.8547 20.3588Z" fill="#ABAEA5"/>
<path d="M88.2482 14.7284C88.6416 14.4667 95.9492 15.1712 96.7049 15.1712C97.0893 15.1712 97.4337 14.8978 97.6889 14.6144C99.1154 16.4546 98.8552 20.3589 98.8552 20.3589C98.8732 20.3706 98.8912 20.384 98.9082 20.3957C97.1023 20.1659 90.7738 19.3104 90.2122 18.5262C89.5586 17.6094 87.8558 14.9909 88.2482 14.7284Z" fill="white"/>
<path d="M96.6286 15.7607C96.6286 15.7607 97.6763 17.725 97.021 17.8559C96.3667 17.9867 93.093 17.9867 92.8311 17.5942C92.5691 17.2008 92.3072 15.6298 92.3072 15.6298L96.6286 15.7607Z" fill="#ABAEA5"/>
<path d="M95.9732 22.8464L95.8428 24.8107L97.9382 24.5491L97.2842 22.9781L95.9732 22.8464Z" fill="#646E63"/>
<path d="M73.959 11.324C73.4762 11.3231 72.8047 11.2711 72.1771 11.0228H72.1749C72.8036 11.2711 73.4762 11.3231 73.959 11.324Z" fill="#A4A9A8"/>
<path d="M96.7048 15.1713C96.8421 15.1713 96.975 15.136 97.0991 15.0781C97.467 14.8768 97.6768 14.5975 97.6768 14.5975C96.237 12.7649 90.3438 12.1098 88.7723 11.979C87.2018 11.8481 74.7621 11.3239 73.9769 11.3239C73.9703 11.3239 73.9648 11.3239 73.9593 11.3239C73.4761 11.3231 72.8029 11.2711 72.1747 11.0228L72.0121 11.0622C72.0121 11.0622 72.9291 12.2407 73.4519 12.5023C73.9769 12.7649 87.8563 13.0265 90.4745 13.5499C92.5623 13.9676 92.8193 14.6352 92.8379 14.8886C94.639 15.0236 96.3589 15.1713 96.7048 15.1713Z" fill="#CED1CB"/>
<path d="M96.2126 15.2794C96.3911 15.2794 96.5357 15.2711 96.6289 15.2527C96.8065 15.2174 96.9637 15.1528 97.0996 15.0782C96.9744 15.1361 96.8424 15.1712 96.7046 15.1712C96.3591 15.1712 94.6394 15.0236 92.8381 14.8886C92.842 14.9532 92.8323 14.9909 92.8323 14.9909C92.8323 14.9909 95.1402 15.2794 96.2126 15.2794Z" fill="#FEFFFF"/>
<path d="M70.9637 12.7647C71.2513 11.6139 61.9294 4.51493 58.6553 2.94396C55.3811 1.37213 31.027 1.76552 28.4082 1.76552C25.7895 1.76552 16.7552 1.37213 15.4458 2.55057C14.1364 3.72901 13.0884 8.96695 13.3496 9.62194C13.6124 10.2762 14.9203 11.4546 16.0998 11.3237C17.2778 11.1929 69.1317 13.1573 69.1317 13.1573C69.1317 13.1573 70.8323 13.288 70.9637 12.7647Z" fill="#343D3A"/>
<path d="M65.072 8.18109C65.072 8.18109 60.8816 3.99164 56.8232 3.33659C52.7636 2.6823 47.919 2.81326 47.919 2.81326L49.8827 12.5022L63.8933 13.0265L65.072 8.18109Z" fill="#89AEA7"/>
<path d="M45.6936 12.3715L44.907 2.81327L32.5988 2.55075L33.1227 11.848L45.6936 12.3715Z" fill="#89AEA7"/>
<path d="M32.2061 11.8481L31.8126 2.55074H29.5873L27.5361 11.6762L32.2061 11.8481Z" fill="#ABAEA5"/>
<path d="M99.5325 26.6526C98.9319 27.956 97.62 29.095 96.4981 29.6562C95.1892 30.3104 91.6532 30.0487 91.6532 30.0487C91.6532 30.0487 91.6885 28.5985 91.323 26.7474L99.5325 26.6526Z" fill="#4D544C"/>
<path d="M12.4345 30.572L1.30329 29.0011C1.30329 29.0011 0.519088 28.4769 0.126222 27.1676C-0.101794 26.4102 0.0214672 25.8735 0.166288 25.5539L12.7935 28.2991C12.5146 29.6293 12.4345 30.572 12.4345 30.572Z" fill="#4D544C"/>
<path d="M72.375 26.2635C71.7043 29.1001 71.6197 31.8814 71.6197 31.8814L33.909 31.7505C33.909 31.7505 33.4932 28.0835 32.361 25.0238L72.375 26.2635Z" fill="#4D544C"/>
<path d="M87.0698 16.1692C87.0698 16.1692 85.4989 15.3833 82.0943 14.7283C78.8146 14.0976 30.0974 12.4956 24.0637 12.4956C23.8336 12.4956 23.6646 12.4981 23.5638 12.5023C20.8139 12.6331 19.5043 13.419 19.5043 13.419L68.3451 14.9907L67.5596 16.0376L87.0698 16.1692Z" fill="#CED1CB"/>
<path d="M67.7369 27.737L68.5229 27.082L48.227 26.4277L47.9654 27.3444L67.7369 27.737Z" fill="#808680"/>
<path d="M45.3002 27.6063L45.563 26.6896L35.7419 26.0345L36.5277 27.3445L45.3002 27.6063Z" fill="#808680"/>
<path d="M53.2877 15.9069C53.2877 15.9069 53.1569 15.1218 51.5859 14.9901C50.0148 14.8593 50.1455 15.776 50.1455 15.776C50.1455 15.776 50.0148 16.8236 51.7166 17.0853C53.4196 17.3478 53.2877 15.9069 53.2877 15.9069Z" fill="#4D544C"/>
<path d="M32.4683 15.2526C32.4683 14.8591 31.6817 14.3358 30.7647 14.3358C29.8491 14.3358 29.5869 14.99 29.5869 14.99C29.5869 14.99 29.5869 16.5618 31.0282 16.5618C32.4683 16.5618 32.4683 15.2526 32.4683 15.2526Z" fill="#4D544C"/>
<path d="M54.4653 15.9068C54.4653 16.3211 53.4184 16.5618 51.5851 16.5618C49.7517 16.5618 48.835 16.5618 48.9665 15.9068C49.098 15.2524 50.5381 15.645 51.7165 15.645C52.8949 15.645 54.4653 15.1217 54.4653 15.9068Z" fill="#D4D6D1"/>
<path d="M33.7769 15.1216C33.7769 15.5351 32.7295 15.7757 30.8958 15.7757C29.0622 15.7757 28.1461 15.7757 28.2774 15.1216C28.4073 14.4665 29.8485 14.8591 31.0271 14.8591C32.2058 14.8591 33.7769 14.3356 33.7769 15.1216Z" fill="#D4D6D1"/>
<path d="M66.5115 8.05016C67.0111 8.54923 68.8685 10.8004 68.2143 11.3238C67.5591 11.848 63.5005 11.7172 63.369 11.062C63.2386 10.4071 62.9767 8.31273 63.5005 8.1811C64.0242 8.05016 66.1193 7.65768 66.5115 8.05016Z" fill="#020605"/>
<path d="M5.62336 12.67L6.67017 18.0388L1.69628 18.1696C1.69628 18.1696 1.56467 13.9793 2.4814 13.3251C3.3966 12.67 5.62336 12.67 5.62336 12.67Z" fill="#F74140"/>
<path d="M0.293284 22.8817C0.7486 22.8866 1.45772 22.9378 1.54694 23.2029C1.67769 23.5954 1.54695 24.643 1.15316 24.9048C0.97934 25.0212 0.670147 25.0666 0.382499 25.0809C0.367116 24.7454 0.325587 23.7766 0.293284 22.8817Z" fill="#A53E41"/>
<path d="M55.7235 28.6371C62.1575 28.6371 68.0921 28.5566 68.8838 28.4434C70.8381 28.1641 71.0533 20.4628 70.9319 18.5195C70.8022 16.4386 69.8906 13.1633 69.8809 13.1306L69.692 13.1834C69.7003 13.2161 70.6078 16.4713 70.736 18.5321C70.8726 20.7135 70.5526 28.0073 68.8562 28.2488C67.9942 28.3721 60.0211 28.4794 51.4094 28.4283C39.5249 28.3579 35.0218 28.0358 34.7694 27.7589C34.5363 27.4872 34.346 26.8943 34.1046 26.1427C33.5806 24.5089 32.7889 22.0388 30.6884 20.67C29.5905 19.9537 28.7023 19.5243 28.0527 19.2106C26.8928 18.6503 26.4129 18.418 26.4129 17.4786C26.4129 15.8842 26.8073 13.1742 27.057 12.6777C27.3176 12.1559 27.5811 11.4985 27.5838 11.4917L27.4018 11.4187C27.399 11.4255 27.1383 12.0755 26.8804 12.5895C26.5949 13.1616 26.2157 15.9487 26.2157 17.4786C26.2157 18.5413 26.8018 18.8239 27.9686 19.3876C28.6113 19.6987 29.494 20.1248 30.5808 20.8344C32.6234 22.1654 33.3723 24.4987 33.9171 26.2031C34.1653 26.9748 34.3612 27.5854 34.6205 27.8865C34.7101 27.9913 34.9211 28.2379 40.1041 28.4257C42.9301 28.5289 46.8319 28.5977 51.3887 28.6246C52.8245 28.6329 54.2864 28.6371 55.7235 28.6371Z" fill="#343D3A"/>
<path d="M47.3024 28.5909C47.3137 28.5171 48.5398 20.5944 48.5398 17.6093C48.5398 14.6938 47.7973 11.9881 47.7534 11.8279L46.4443 1.92069L46.2496 1.94582L47.5612 11.8673L47.5624 11.8749C47.5699 11.9025 48.3438 14.6469 48.3438 17.6093C48.3438 20.5784 47.0624 28.4761 47.0511 28.5489L47.3024 28.5909Z" fill="#343D3A"/>
</svg>
