<svg width="100" height="37" viewBox="0 0 100 37" fill="none" xmlns="http://www.w3.org/2000/svg">
<path d="M70.9253 14.2531C70.9253 14.2531 64.0782 8.45266 57.3928 3.17188C53.7338 0.28178 45.8039 0.351264 40.8694 0.936811C24.2736 2.90528 18.4287 13.5764 11.0055 13.9694C3.58206 14.3622 28.7575 18.317 36.8656 17.3172C44.9738 16.3174 70.9253 14.2531 70.9253 14.2531Z" fill="#FFB145"/>
<path d="M73.7999 28.6426C73.7999 33.042 77.3662 36.6084 81.7659 36.6084C86.1654 36.6084 89.7319 33.042 89.7319 28.6426C89.7319 24.2429 86.1654 20.6766 81.7659 20.6766C77.3662 20.6766 73.7999 24.2429 73.7999 28.6426Z" fill="#323430"/>
<path d="M75.8323 28.6426C75.8323 31.9197 78.4891 34.5762 81.7662 34.5762C85.0433 34.5762 87.7 31.9197 87.7 28.6426C87.7 25.3653 85.0433 22.7087 81.7662 22.7087C78.4891 22.7087 75.8323 25.3653 75.8323 28.6426Z" fill="#E5E5E5"/>
<path d="M76.8645 28.6426C76.8645 31.3496 79.059 33.5443 81.7662 33.5443C84.4733 33.5443 86.668 31.3496 86.668 28.6426C86.668 25.9354 84.4733 23.7406 81.7662 23.7406C79.059 23.7406 76.8645 25.9354 76.8645 28.6426Z" fill="black"/>
<path d="M76.9745 27.9969C77.0464 28.0196 77.1516 28.0529 77.2857 28.0869C77.5537 28.1542 77.9367 28.2286 78.3962 28.2705C78.626 28.2917 78.8749 28.306 79.1382 28.3123C79.4014 28.3205 79.6791 28.3292 79.9663 28.3384C80.2535 28.3451 80.5503 28.3523 80.8518 28.3593C80.9314 28.3605 81.0118 28.3619 81.0919 28.3632C81.0346 28.3077 80.9763 28.2512 80.9195 28.196C80.7012 27.988 80.4864 27.7832 80.2784 27.5849C80.0689 27.388 79.8665 27.1978 79.6745 27.0176C79.4838 26.8359 79.2977 26.67 79.1203 26.5223C78.7656 26.2273 78.4423 26.009 78.2051 25.867C78.0863 25.7963 77.9884 25.7453 77.9214 25.7108C77.8537 25.6769 77.8159 25.6605 77.8159 25.6605L78.0622 25.4142L78.3001 25.1763L78.7843 24.6921C78.7843 24.6921 78.8006 24.73 78.8344 24.7977C78.869 24.8647 78.92 24.9626 78.9908 25.0813C79.1327 25.3184 79.351 25.642 79.6462 25.9966C79.7937 26.174 79.9597 26.36 80.1413 26.5508C80.3216 26.7428 80.5118 26.9453 80.7086 27.1547C80.9068 27.3627 81.1117 27.5774 81.3199 27.7957C81.375 27.8527 81.4313 27.9108 81.4868 27.968C81.4856 27.8882 81.4844 27.8076 81.4832 27.7281C81.4759 27.4266 81.4688 27.1298 81.462 26.8425C81.453 26.5554 81.4443 26.2777 81.4361 26.0145C81.4296 25.7513 81.4156 25.5023 81.3943 25.2723C81.3523 24.813 81.278 24.4299 81.2106 24.1618C81.1767 24.028 81.1435 23.9225 81.1206 23.8509C81.0966 23.779 81.0814 23.7406 81.0814 23.7406H81.4298H82.1025H82.4509C82.4509 23.7406 82.4358 23.779 82.4117 23.8509C82.3888 23.9225 82.3557 24.028 82.3217 24.1618C82.2544 24.4299 82.1801 24.813 82.1381 25.2723C82.1168 25.5023 82.1027 25.7513 82.0962 26.0145C82.088 26.2777 82.0793 26.5554 82.0703 26.8425C82.0635 27.1298 82.0565 27.4266 82.0492 27.7281C82.048 27.8076 82.0467 27.8882 82.0455 27.968C82.101 27.9108 82.1575 27.8527 82.2125 27.7957C82.4207 27.5774 82.6256 27.3627 82.8238 27.1547C83.0206 26.9453 83.2108 26.7428 83.391 26.5508C83.5727 26.36 83.7387 26.174 83.8862 25.9966C84.1814 25.642 84.3996 25.3184 84.5416 25.0813C84.6123 24.9626 84.6633 24.8647 84.6979 24.7977C84.7318 24.73 84.748 24.6921 84.748 24.6921L85.2323 25.1763L85.4701 25.4142L85.7165 25.6605C85.7165 25.6605 85.6787 25.6769 85.6109 25.7108C85.5439 25.7453 85.446 25.7963 85.3273 25.867C85.0901 26.009 84.7667 26.2273 84.4121 26.5223C84.2345 26.67 84.0486 26.8359 83.8579 27.0176C83.6659 27.1978 83.4634 27.388 83.254 27.5849C83.046 27.7832 82.8311 27.988 82.6129 28.196C82.556 28.2512 82.4978 28.3077 82.4405 28.3632C82.5206 28.3619 82.601 28.3605 82.6804 28.3593C82.982 28.3523 83.2789 28.3451 83.566 28.3384C83.8533 28.3292 84.1309 28.3205 84.3942 28.3123C84.6575 28.306 84.9064 28.2917 85.1361 28.2705C85.5957 28.2286 85.9787 28.1542 86.2467 28.0869C86.3807 28.0529 86.4861 28.0196 86.5579 27.9969C86.6297 27.9728 86.668 27.9576 86.668 27.9576V28.306V28.9789V29.3273C86.668 29.3273 86.6297 29.3121 86.5579 29.288C86.4861 29.265 86.3807 29.232 86.2467 29.198C85.9787 29.1307 85.5957 29.0563 85.1361 29.0144C84.9064 28.9931 84.6575 28.9789 84.3942 28.9726C84.1309 28.9644 83.8533 28.9555 83.566 28.9465C83.2789 28.9398 82.982 28.9328 82.6804 28.9256C82.601 28.9241 82.5206 28.9229 82.4405 28.9217C82.4978 28.9772 82.556 29.0336 82.6129 29.0889C82.8311 29.2968 83.046 29.5017 83.254 29.7C83.4634 29.8969 83.6659 30.087 83.8579 30.2673C84.0486 30.4489 84.2345 30.6149 84.4121 30.7625C84.7667 31.0576 85.0901 31.2759 85.3273 31.4178C85.446 31.4888 85.5439 31.5397 85.6109 31.5742C85.6787 31.608 85.7165 31.6244 85.7165 31.6244L85.4701 31.8707L85.2323 32.1086L84.748 32.5928C84.748 32.5928 84.7318 32.5549 84.6979 32.4871C84.6633 32.4203 84.6123 32.3223 84.5416 32.2036C84.3996 31.9662 84.1814 31.6429 83.8862 31.2883C83.7387 31.1107 83.5727 30.9249 83.391 30.734C83.2108 30.5421 83.0206 30.3397 82.8238 30.1302C82.6256 29.9222 82.4207 29.7075 82.2125 29.4892C82.1575 29.4323 82.101 29.3741 82.0455 29.3169C82.0467 29.3967 82.048 29.4773 82.0492 29.5568C82.0565 29.8583 82.0635 30.155 82.0703 30.4424C82.0793 30.7295 82.088 31.0072 82.0962 31.2704C82.1027 31.5336 82.1168 31.7826 82.1381 32.0123C82.1801 32.4719 82.2544 32.855 82.3217 33.123C82.3557 33.257 82.3888 33.3624 82.4117 33.434C82.4358 33.506 82.4509 33.5443 82.4509 33.5443H82.1025H81.4298H81.0814C81.0814 33.5443 81.0966 33.506 81.1206 33.434C81.1435 33.3624 81.1767 33.257 81.2106 33.123C81.278 32.855 81.3523 32.4719 81.3943 32.0123C81.4156 31.7826 81.4296 31.5336 81.4361 31.2704C81.4443 31.0072 81.453 30.7295 81.462 30.4424C81.4688 30.155 81.4759 29.8583 81.4832 29.5568C81.4844 29.4773 81.4856 29.3967 81.4868 29.3169C81.4313 29.3741 81.375 29.4323 81.3199 29.4892C81.1117 29.7075 80.9068 29.9222 80.7086 30.1302C80.5118 30.3397 80.3216 30.5421 80.1413 30.734C79.9597 30.9249 79.7937 31.1107 79.6462 31.2883C79.351 31.6429 79.1327 31.9662 78.9908 32.2036C78.92 32.3223 78.869 32.4203 78.8344 32.4871C78.8006 32.5549 78.7843 32.5928 78.7843 32.5928L78.3001 32.1086L78.0622 31.8707L77.8159 31.6244C77.8159 31.6244 77.8537 31.608 77.9214 31.5742C77.9884 31.5397 78.0863 31.4888 78.2051 31.4178C78.4423 31.2759 78.7656 31.0576 79.1203 30.7625C79.2977 30.6149 79.4838 30.4489 79.6745 30.2673C79.8665 30.087 80.0689 29.8969 80.2784 29.7C80.4864 29.5017 80.7012 29.2968 80.9195 29.0889C80.9763 29.0336 81.0346 28.9772 81.0919 28.9217C81.0118 28.9229 80.9314 28.9241 80.8518 28.9256C80.5503 28.9328 80.2535 28.9398 79.9663 28.9465C79.6791 28.9555 79.4014 28.9644 79.1382 28.9726C78.8749 28.9789 78.626 28.9931 78.3962 29.0144C77.9367 29.0563 77.5537 29.1307 77.2857 29.198C77.1516 29.232 77.0464 29.265 76.9745 29.288C76.9026 29.3121 76.8645 29.3273 76.8645 29.3273V28.9789V28.306V27.9576C76.8645 27.9576 76.9026 27.9728 76.9745 27.9969Z" fill="#CBCBCB"/>
<path d="M12.7818 28.6281C12.7818 33.0276 16.3481 36.5941 20.7478 36.5941C25.1473 36.5941 28.7136 33.0276 28.7136 28.6281C28.7136 24.2286 25.1473 20.6621 20.7478 20.6621C16.3481 20.6621 12.7818 24.2286 12.7818 28.6281Z" fill="#323430"/>
<path d="M14.8139 28.6281C14.8139 31.9052 17.4704 34.562 20.7478 34.562C24.0248 34.562 26.6814 31.9052 26.6814 28.6281C26.6814 25.3511 24.0248 22.6945 20.7478 22.6945C17.4704 22.6945 14.8139 25.3511 14.8139 28.6281Z" fill="#E5E5E5"/>
<path d="M15.8459 28.6281C15.8459 31.3353 18.0407 33.5299 20.7479 33.5299C23.4549 33.5299 25.6497 31.3353 25.6497 28.6281C25.6497 25.9209 23.4549 23.7264 20.7479 23.7264C18.0407 23.7264 15.8459 25.9209 15.8459 28.6281Z" fill="black"/>
<path d="M15.9562 27.9825C16.0278 28.0054 16.1332 28.0387 16.2671 28.0724C16.5352 28.14 16.9183 28.2144 17.3777 28.2563C17.6076 28.2775 17.8566 28.2916 18.1198 28.2981C18.383 28.3063 18.6607 28.3149 18.9478 28.3239C19.2352 28.3309 19.5319 28.3378 19.8335 28.3451C19.9129 28.3463 19.9935 28.3475 20.0733 28.3488C20.0161 28.2933 19.958 28.2368 19.9011 28.1818C19.6827 27.9736 19.468 27.7687 19.26 27.5704C19.0506 27.3738 18.8479 27.1836 18.6561 27.0032C18.4653 26.8217 18.2793 26.6556 18.102 26.5081C17.7473 26.2131 17.424 25.9948 17.1866 25.8528C17.0679 25.7819 16.97 25.7311 16.9031 25.6966C16.8353 25.6627 16.7974 25.6463 16.7974 25.6463L17.0438 25.4L17.2817 25.1621L17.7659 24.6779C17.7659 24.6779 17.7823 24.7156 17.8161 24.7833C17.8506 24.8504 17.9017 24.9484 17.9724 25.0671C18.1143 25.3042 18.3326 25.6275 18.6277 25.9822C18.7751 26.1598 18.9413 26.3457 19.123 26.5366C19.3032 26.7284 19.4933 26.9308 19.6902 27.1405C19.8885 27.3482 20.0933 27.5632 20.3013 27.7815C20.3566 27.8384 20.413 27.8966 20.4685 27.9538C20.4673 27.8737 20.4661 27.7933 20.4647 27.714C20.4577 27.4124 20.4504 27.1154 20.4437 26.8283C20.4347 26.5412 20.4258 26.2635 20.4176 26C20.4113 25.7368 20.3971 25.4881 20.3759 25.2582C20.3339 24.7985 20.2596 24.4156 20.1923 24.1476C20.1582 24.0135 20.1252 23.9083 20.1023 23.8364C20.0781 23.7648 20.063 23.7264 20.063 23.7264H20.4113H21.0842H21.4326C21.4326 23.7264 21.4174 23.7648 21.3933 23.8364C21.3704 23.9083 21.3373 24.0135 21.3033 24.1476C21.236 24.4156 21.1617 24.7985 21.1197 25.2582C21.0985 25.4881 21.0842 25.7368 21.078 26C21.0695 26.2635 21.0608 26.5412 21.0519 26.8283C21.0451 27.1154 21.0381 27.4124 21.0309 27.714C21.0297 27.7933 21.0282 27.8737 21.027 27.9538C21.0825 27.8966 21.139 27.8384 21.1942 27.7815C21.4022 27.5632 21.607 27.3482 21.8054 27.1405C22.0022 26.9308 22.1923 26.7284 22.3726 26.5366C22.5542 26.3457 22.7202 26.1598 22.8676 25.9822C23.163 25.6275 23.3813 25.3042 23.5232 25.0671C23.5941 24.9484 23.645 24.8504 23.6795 24.7833C23.7133 24.7156 23.7297 24.6779 23.7297 24.6779L24.2139 25.1621L24.4518 25.4L24.6981 25.6463C24.6981 25.6463 24.6602 25.6627 24.5924 25.6966C24.5256 25.7311 24.4277 25.7819 24.309 25.8528C24.0716 25.9948 23.7483 26.2131 23.3936 26.5081C23.216 26.6556 23.0303 26.8217 22.8394 27.0032C22.6476 27.1836 22.445 27.3738 22.2355 27.5704C22.0276 27.7687 21.8128 27.9736 21.5945 28.1818C21.5376 28.2368 21.4794 28.2933 21.422 28.3488C21.5021 28.3475 21.5827 28.3463 21.662 28.3451C21.9636 28.3378 22.2604 28.3309 22.5477 28.3239C22.8348 28.3149 23.1125 28.3063 23.3757 28.2981C23.639 28.2916 23.888 28.2775 24.1179 28.2563C24.5772 28.2144 24.9604 28.14 25.2284 28.0724C25.3623 28.0387 25.4677 28.0054 25.5394 27.9825C25.6113 27.9586 25.6497 27.9434 25.6497 27.9434V28.2918V28.9645V29.3131C25.6497 29.3131 25.6113 29.2979 25.5394 29.2738C25.4677 29.2508 25.3623 29.2175 25.2284 29.1838C24.9604 29.1165 24.5772 29.0421 24.1179 29.0002C23.888 28.9787 23.639 28.9646 23.3757 28.9582C23.1125 28.9499 22.8348 28.9413 22.5477 28.9323C22.2604 28.9254 21.9636 28.9184 21.662 28.9111C21.5827 28.9099 21.5021 28.9087 21.422 28.9075C21.4794 28.963 21.5376 29.0194 21.5945 29.0744C21.8128 29.2826 22.0276 29.4875 22.2355 29.6858C22.445 29.8825 22.6476 30.0728 22.8394 30.2531C23.0303 30.4347 23.216 30.6007 23.3936 30.7481C23.7483 31.0434 24.0716 31.2615 24.309 31.4036C24.4277 31.4743 24.5256 31.5252 24.5924 31.5599C24.6602 31.5938 24.6981 31.6102 24.6981 31.6102L24.4518 31.8564L24.2139 32.0944L23.7297 32.5785C23.7297 32.5785 23.7133 32.5407 23.6795 32.4729C23.645 32.4059 23.5941 32.3079 23.5232 32.1892C23.3813 31.952 23.163 31.6287 22.8676 31.2741C22.7202 31.0964 22.5542 30.9105 22.3726 30.7198C22.1923 30.5278 22.0022 30.3254 21.8054 30.116C21.607 29.908 21.4022 29.6931 21.1942 29.4747C21.139 29.418 21.0825 29.3596 21.027 29.3024C21.0282 29.3825 21.0297 29.4629 21.0309 29.5425C21.0381 29.844 21.0451 30.1408 21.0519 30.428C21.0608 30.7153 21.0695 30.993 21.078 31.2562C21.0842 31.5194 21.0985 31.7684 21.1197 31.9981C21.1617 32.4577 21.236 32.8406 21.3033 33.1086C21.3373 33.2428 21.3704 33.3479 21.3933 33.4198C21.4174 33.4917 21.4326 33.5299 21.4326 33.5299H21.0842H20.4113H20.063C20.063 33.5299 20.0781 33.4917 20.1023 33.4198C20.1252 33.3479 20.1582 33.2428 20.1923 33.1086C20.2596 32.8406 20.3339 32.4577 20.3759 31.9981C20.3971 31.7684 20.4113 31.5194 20.4176 31.2562C20.4258 30.993 20.4347 30.7153 20.4437 30.428C20.4504 30.1408 20.4577 29.844 20.4647 29.5425C20.4661 29.4631 20.4673 29.3825 20.4685 29.3024C20.413 29.3596 20.3566 29.418 20.3013 29.4747C20.0933 29.6931 19.8885 29.908 19.6902 30.116C19.4933 30.3254 19.3032 30.5278 19.123 30.7198C18.9413 30.9105 18.7751 31.0964 18.6277 31.2741C18.3326 31.6287 18.1143 31.952 17.9724 32.1892C17.9017 32.3079 17.8506 32.4059 17.8161 32.4729C17.7823 32.5407 17.7659 32.5785 17.7659 32.5785L17.2817 32.0944L17.0438 31.8564L16.7974 31.6102C16.7974 31.6102 16.8353 31.5938 16.9031 31.5599C16.97 31.5252 17.0679 31.4743 17.1866 31.4036C17.424 31.2615 17.7473 31.0434 18.102 30.7481C18.2793 30.6007 18.4653 30.4347 18.6561 30.2531C18.8479 30.0728 19.0506 29.8825 19.26 29.6858C19.468 29.4875 19.6827 29.2826 19.9011 29.0744C19.958 29.0194 20.0161 28.963 20.0733 28.9075C19.9935 28.9087 19.9129 28.9099 19.8335 28.9111C19.5319 28.9184 19.2352 28.9254 18.9478 28.9323C18.6607 28.9413 18.383 28.9499 18.1198 28.9582C17.8566 28.9646 17.6076 28.9787 17.3777 29.0002C16.9183 29.0421 16.5352 29.1165 16.2671 29.1838C16.1332 29.2175 16.0278 29.2508 15.9562 29.2738C15.8843 29.2979 15.8459 29.3131 15.8459 29.3131V28.9645V28.2918V27.9434C15.8459 27.9434 15.8843 27.9586 15.9562 27.9825Z" fill="#CBCBCB"/>
<mask id="mask0_1_279" style="mask-type:luminance" maskUnits="userSpaceOnUse" x="9" y="0" width="63" height="18">
<path d="M71.304 14.4964C71.304 14.4964 64.0786 8.45267 57.3932 3.17189C53.7342 0.281793 45.8043 0.351277 40.8697 0.936824C24.2739 2.9053 18.5232 13.2562 11.0997 13.6493C3.67651 14.0423 28.7578 18.317 36.866 17.3172C44.9741 16.3174 71.304 14.4964 71.304 14.4964Z" fill="white"/>
</mask>
<g mask="url(#mask0_1_279)">
<path d="M57.3929 3.1719L55.3207 3.10532C55.3207 3.10532 64.943 11.9095 69.3036 14.4423C73.689 16.9898 71.6279 10.5042 70.1685 10.0375C68.7089 9.57094 57.3929 3.1719 57.3929 3.1719Z" fill="#A5CAD9"/>
<path d="M57.3326 3.38636C58.2309 3.89398 68.6713 9.78612 70.1025 10.2436C70.8449 10.481 71.9137 12.7831 71.7095 14.0917C71.6082 14.7417 71.2367 14.817 70.966 14.817C70.5763 14.817 70.0535 14.628 69.412 14.2553C65.6475 12.0687 57.8275 5.08052 55.9015 3.34028L57.3326 3.38636ZM70.966 15.2495C71.6113 15.2495 72.027 14.8618 72.1368 14.1585C72.3641 12.702 71.2437 10.1545 70.2342 9.83172C68.8124 9.37718 57.612 3.04763 57.4991 2.98393L57.4528 2.95763L54.7434 2.8703L55.1748 3.26477C55.271 3.35307 64.8642 12.1138 69.1946 14.6292C69.9032 15.0409 70.4991 15.2495 70.966 15.2495Z" fill="#E5E5E5"/>
</g>
<path d="M34.3824 4.3051C34.5057 4.25226 34.6295 4.20087 34.7535 4.15069C35.4983 6.47092 36.695 10.6877 37.1355 15.0105L28.7135 15.2509C28.7135 15.2509 25.6791 8.03793 34.3824 4.3051Z" fill="#A5CAD9"/>
<path d="M36.8966 14.8011L28.862 15.0305C28.7006 14.574 28.2299 13.029 28.5016 11.1903C28.9329 8.26645 30.9405 6.01691 34.468 4.50394C34.5184 4.48247 34.5686 4.461 34.6193 4.44001C35.3115 6.62706 36.4481 10.6617 36.8966 14.8011ZM28.572 15.4715L37.3745 15.2202L37.3509 14.9888C36.9021 10.5843 35.6601 6.26637 34.9597 4.08463L34.8885 3.86266L34.6726 3.95024C34.5474 4.00115 34.4222 4.05302 34.2977 4.10634C29.7098 6.07409 28.379 9.02112 28.0707 11.1469C27.7365 13.4498 28.4827 15.259 28.5146 15.335L28.572 15.4715Z" fill="#E5E5E5"/>
<path d="M53.1943 3.23873L67.3394 14.1482L37.1355 15.0105C36.695 10.6877 35.4983 6.47094 34.7535 4.1507C43.3703 0.647795 53.1943 3.23873 53.1943 3.23873Z" fill="#A5CAD9"/>
<path d="M66.7275 13.9491L37.3297 14.7887C36.8776 10.5796 35.7188 6.47792 35.0206 4.27639C37.9462 3.11929 41.3176 2.53253 45.0453 2.53253C49.3439 2.53253 52.6898 3.33522 53.0978 3.43727L66.7275 13.9491ZM36.9408 15.2324L67.9512 14.347L53.2917 3.04088L53.2495 3.02954C53.2143 3.02037 49.6718 2.10019 45.0453 2.10019C41.1822 2.10019 37.6924 2.72265 34.6722 3.9502L34.4864 4.02571L34.5477 4.21679C35.2428 6.38238 36.4754 10.6675 36.9205 15.0324L36.9408 15.2324Z" fill="#E5E5E5"/>
<path d="M32.599 13.6331C35.9443 13.9253 54.1137 13.7665 65.4658 13.8748C78.2233 13.0099 91.0003 14.6034 98.6569 16.4786C100.456 16.9194 98.9267 23.8843 98.9267 23.8843L95.7378 30.6685L90.6953 30.9686L89.323 25.4791C89.0784 23.4947 86.3452 22.2037 84.1915 22.1647L79.2511 22.0749C77.0385 22.0348 74.6042 23.5116 74.0068 25.4969C73.5612 26.9774 72.2176 31.2902 72.2176 31.2902L30.5808 31.137L28.7069 25.5872C28.2729 23.5599 25.4416 22.1945 23.229 22.2349L18.2884 22.3246C16.1349 22.3637 14.3283 23.5193 13.2395 25.1908C12.4959 26.3322 11.5166 30.8487 11.5166 30.8487L5.34919 29.7628L1.19173 25.605L1.52975 16.4786C1.52975 16.4786 10.6411 11.7148 32.599 13.6331Z" fill="#FF9400"/>
<mask id="mask1_1_279" style="mask-type:luminance" maskUnits="userSpaceOnUse" x="1" y="13" width="99" height="19">
<path d="M32.599 13.6331C35.9443 13.9253 54.1137 13.7665 65.4658 13.8748C78.2233 13.0099 91.0003 14.6034 98.6569 16.4786C100.456 16.9194 98.9267 23.8843 98.9267 23.8843L95.7378 30.6685L90.6953 30.9686L89.323 25.4791C89.0784 23.4947 86.3452 22.2037 84.1915 22.1647L79.2511 22.0749C77.0385 22.0348 74.6042 23.5116 74.0068 25.4969C73.5612 26.9774 72.2176 31.2902 72.2176 31.2902L30.5808 31.137L28.7069 25.5872C28.2729 23.5599 25.4416 22.1945 23.229 22.2349L18.2884 22.3246C16.1349 22.3637 14.3283 23.5193 13.2395 25.1908C12.4959 26.3322 11.5166 30.8487 11.5166 30.8487L5.34919 29.7628L1.19173 25.605L1.52975 16.4786C1.52975 16.4786 10.6411 11.7148 32.599 13.6331Z" fill="white"/>
</mask>
<g mask="url(#mask1_1_279)">
<path d="M79.9727 15.4544C79.9727 15.4544 65.2491 16.308 57.0326 15.7128C48.8156 15.1173 32.6621 15.2013 26.6814 14.6314C20.7007 14.0618 9.77362 15.4291 8.32049 14.4358C6.86735 13.4423 41.3131 12.145 50.3621 12.4692C59.411 12.7935 75.2355 11.5201 79.9727 15.4544Z" fill="#FFC578"/>
<path d="M73.2497 29.7676H29.4635C29.4635 29.7676 28.9769 32.0919 29.4635 32.2543C29.9499 32.4164 58.2759 33.8218 62.2221 33.8218C66.1682 33.8218 75.8986 35.2274 73.2497 29.7676Z" fill="#E27500"/>
<path d="M101.251 17.7669C101.251 17.7669 99.3594 17.7669 85.5208 16.1452C71.682 14.5233 67.6592 13.3747 67.6592 13.3747C67.6592 13.3747 96.5484 12.9559 101.251 17.7669Z" fill="#FFC578"/>
</g>
<path d="M-0.000146508 24.7486C-0.000146508 25.5624 0.659706 26.222 1.47325 26.222H3.59179C4.40557 26.222 5.06519 25.5624 5.06519 24.7486C5.06519 23.9351 4.40557 23.2752 3.59179 23.2752H1.47325C0.659706 23.2752 -0.000146508 23.9351 -0.000146508 24.7486Z" fill="#CBCBCB"/>
<path d="M0.485058 24.4709C0.485058 24.9988 1.40548 25.1367 2.54087 25.1367C3.67625 25.1367 4.59668 24.9988 4.59668 24.4709C4.59668 23.9428 3.67625 23.5147 2.54087 23.5147C1.40548 23.5147 0.485058 23.9428 0.485058 24.4709Z" fill="#E5E5E5"/>
<path d="M100 24.7141C100 25.5277 99.4014 26.1873 98.6629 26.1873H96.7403C96.0018 26.1873 95.4032 25.5277 95.4032 24.7141C95.4032 23.9003 96.0018 23.2407 96.7403 23.2407H98.6629C99.4014 23.2407 100 23.9003 100 24.7141Z" fill="#CBCBCB"/>
<path d="M99.5596 24.4361C99.5596 24.964 98.7243 25.1023 97.6939 25.1023C96.6635 25.1023 95.8282 24.964 95.8282 24.4361C95.8282 23.908 96.6635 23.48 97.6939 23.48C98.7243 23.48 99.5596 23.908 99.5596 24.4361Z" fill="#E5E5E5"/>
<path d="M40.334 17.4137C40.334 17.6311 40.5429 17.8072 40.8006 17.8072H44.9243C45.1819 17.8072 45.3911 17.6311 45.3911 17.4137V16.9874C45.3911 16.7703 45.1819 16.5938 44.9243 16.5938H40.8006C40.5429 16.5938 40.334 16.7703 40.334 16.9874V17.4137Z" fill="#D16F00"/>
<path d="M40.4243 16.9328C40.4243 17.1198 40.6043 17.2715 40.8263 17.2715H44.8979C45.1198 17.2715 45.2998 17.1198 45.2998 16.9328C45.2998 16.7457 45.1198 16.5938 44.8979 16.5938H40.8263C40.6043 16.5938 40.4243 16.7457 40.4243 16.9328Z" fill="#FFC578"/>
<path d="M34.4075 29.8216H70.2689L70.2757 29.7755C70.2882 29.6928 71.5143 21.4674 70.9778 19.1064C70.4397 16.7386 67.2099 13.7832 67.1774 13.7538L67.1047 13.8336C67.1371 13.863 70.3418 16.7958 70.8723 19.1303C71.3838 21.3803 70.2742 29.0448 70.1755 29.7135H34.4654C32.6419 26.9388 28.1368 13.437 28.0914 13.3007L27.9886 13.3347C28.0342 13.4717 32.5705 27.0662 34.3915 29.7975L34.4075 29.8216Z" fill="#D8600A"/>
<path d="M0.689933 21.3031C0.644817 22.0179 1.18766 22.6344 1.90277 22.6797L2.09385 22.6918C2.80895 22.7369 3.42538 22.1938 3.4705 21.479L3.65458 18.5686C3.69994 17.8535 3.15685 17.2371 2.44175 17.192L2.25067 17.1797C1.53556 17.1345 0.919131 17.6776 0.874015 18.3928L0.689933 21.3031Z" fill="#D85000"/>
<path d="M2.16749 17.2313C2.19403 17.2313 2.22057 17.232 2.24735 17.2337L2.43843 17.2457C2.76993 17.2668 3.0732 17.4157 3.29275 17.6646C3.5123 17.9138 3.62183 18.2338 3.6006 18.5651L3.41676 21.4754C3.37382 22.155 2.78706 22.6812 2.09729 22.6378L1.90621 22.6257C1.22199 22.5826 0.700606 21.9907 0.744034 21.3065L0.92788 18.3962C0.969377 17.7431 1.51391 17.2313 2.16749 17.2313ZM2.17715 22.7485C2.88791 22.7485 3.47973 22.1922 3.5246 21.4824L3.70869 18.572C3.73137 18.2118 3.61267 17.8642 3.37381 17.5932C3.13545 17.3223 2.8054 17.1606 2.44519 17.1379L2.25411 17.1259C1.50957 17.0779 0.866846 17.6506 0.820041 18.3891L0.635948 21.2995C0.589143 22.0433 1.15587 22.6865 1.89945 22.7336L2.09053 22.7456C2.11948 22.7476 2.14844 22.7485 2.17715 22.7485Z" fill="#F1F1F1"/>
</svg>
