<svg width="100" height="40" viewBox="0 0 100 40" fill="none" xmlns="http://www.w3.org/2000/svg">
<path d="M13.7278 32.0167C13.7278 32.4835 13.3107 32.8618 12.7962 32.8618H0.93179C0.417258 32.8618 1.56758e-05 32.4835 1.56758e-05 32.0167V26.303C1.56758e-05 25.8365 0.417258 25.4579 0.93179 25.4579H12.7962C13.3107 25.4579 13.7278 25.8365 13.7278 26.303V32.0167Z" fill="#821A27"/>
<path d="M1.14357 14.1205C1.14357 15.5925 1.14357 25.5324 1.14357 25.5324H28.914L32.5473 31.1965L75.7914 30.8146L79.5178 23.5762L90.6129 23.2034L94.0319 25.4765H99.0718C99.0718 25.4765 99.0718 25.4765 99.0624 25.4673C99.0065 25.2157 97.9819 20.9306 97.4788 18.7319C97.423 18.4805 97.3671 18.2661 97.3298 18.0798C96.9011 16.1795 96.3609 15.4061 94.3394 15.015C92.3272 14.6236 78.4652 12.4158 78.4652 12.4158C78.4652 12.4158 67.0158 3.5191 65.19 2.16843C63.3642 0.808174 62.6655 0.417024 60.5694 0.417024H44.9281C43.5307 0.417024 42.9158 1.66532 42.7947 3.40734C42.683 5.04679 42.301 11.4561 42.2545 12.2203C42.2545 12.2667 42.2545 12.2947 42.2545 12.2947C42.2545 12.2947 4.72081 12.3691 3.00672 12.3691C1.30181 12.3691 1.14357 12.6487 1.14357 14.1205Z" fill="#BC1B26"/>
<path d="M3.87526 30.0328V32.3991C3.87526 32.6507 4.11734 32.8649 4.43406 32.8649H98.5803C98.8782 32.8649 99.1299 32.6507 99.1299 32.3991V29.949H96.4934C96.4934 29.949 95.3104 26.0271 94.2576 24.1639C93.2049 22.3008 91.9566 22.0306 88.6588 22.0306H81.085C78.3369 22.0306 77.4704 24.4342 76.4179 26.2227C75.3558 28.0114 74.2566 29.949 74.2566 29.949L33.425 30.0328C33.425 30.0328 31.3663 26.7631 30.118 24.8441C28.8789 22.925 28.0034 22.0306 25.8048 22.0306H16.815C14.0668 22.0306 13.0979 23.931 12.1849 25.6825C11.2533 27.4245 9.97705 30.0328 9.97705 30.0328H3.87526Z" fill="#821A27"/>
<path d="M94.032 31.9302C94.032 32.4448 94.4493 32.8618 94.9636 32.8618H99.0684C99.5829 32.8618 100 32.4448 100 31.9302V26.3312C100 25.8169 99.5829 25.3996 99.0684 25.3996H94.9636C94.4493 25.3996 94.032 25.8169 94.032 26.3312V31.9302Z" fill="#821A27"/>
<path d="M77.1537 31.8774C77.1537 32.2129 77.1724 32.5388 77.2189 32.8649H93.8383C93.885 32.5388 93.9036 32.2129 93.9036 31.8774C93.9036 27.2474 90.1493 23.5026 85.5287 23.5026C80.8987 23.5026 77.1537 27.2474 77.1537 31.8774Z" fill="#414042"/>
<path d="M77.7816 31.8734C77.7816 36.1509 81.2493 39.6184 85.5267 39.6184C89.8042 39.6184 93.272 36.1509 93.272 31.8734C93.272 27.5957 89.8042 24.128 85.5267 24.128C81.2493 24.128 77.7816 27.5957 77.7816 31.8734Z" fill="#231F20"/>
<path d="M81.331 31.8733C81.331 34.1904 83.2095 36.0691 85.5266 36.0691C87.8439 36.0691 89.7224 34.1904 89.7224 31.8733C89.7224 29.556 87.8439 27.6775 85.5266 27.6775C83.2095 27.6775 81.331 29.556 81.331 31.8733Z" fill="#6D6E71"/>
<path d="M12.7996 31.8774C12.7996 32.2129 12.8183 32.5388 12.8648 32.8649H29.475C29.5215 32.5388 29.5403 32.2129 29.5403 31.8774C29.5403 27.2474 25.7952 23.5026 21.1652 23.5026C16.5446 23.5026 12.7996 27.2474 12.7996 31.8774Z" fill="#414042"/>
<path d="M13.4244 31.8734C13.4244 36.1509 16.8919 39.6184 21.1695 39.6184C25.4471 39.6184 28.9148 36.1509 28.9148 31.8734C28.9148 27.5957 25.4471 24.128 21.1695 24.128C16.8919 24.128 13.4244 27.5957 13.4244 31.8734Z" fill="#231F20"/>
<path d="M16.9741 31.8733C16.9741 34.1904 18.8526 36.0691 21.1697 36.0691C23.487 36.0691 25.3655 34.1904 25.3655 31.8733C25.3655 29.556 23.487 27.6775 21.1697 27.6775C18.8526 27.6775 16.9741 29.556 16.9741 31.8733Z" fill="#6D6E71"/>
<path d="M42.2546 12.2202L78.4653 12.4158C78.4653 12.4158 67.0159 3.51905 65.1901 2.16837C63.3643 0.808119 62.6656 0.416969 60.5695 0.416969H44.9282C43.5308 0.416969 42.9159 1.66526 42.7948 3.40729C42.6831 5.04673 42.3011 11.456 42.2546 12.2202Z" fill="#D51130"/>
<path d="M75.478 12.6295V10.9685L75.302 10.8281C75.3016 10.8281 67.8076 4.88116 66.7905 4.06704L66.6307 3.93958C65.0469 2.66783 63.4089 1.35306 60.5372 1.35306H47.2002C46.4297 1.35306 45.8028 1.97996 45.8028 2.75043V11.2321C45.8028 12.0028 46.4297 12.6295 47.2002 12.6295H75.478Z" fill="#231F20"/>
<path d="M46.2715 2.74676V11.2336C46.2715 11.4944 46.3832 11.7365 46.5603 11.9043C46.7279 12.0626 46.9516 12.1652 47.2031 12.1652H52.6902V1.81518C49.7837 1.81518 47.2031 1.81518 47.2031 1.81518C46.6814 1.81518 46.2715 2.23448 46.2715 2.74676Z" fill="#537EB3"/>
<path d="M54.0875 1.81518V12.1652H75.011V11.1963C75.011 11.1963 72.6353 9.30516 70.3716 7.51643C69.7847 7.05064 69.2072 6.58485 68.6761 6.16576C68.1359 5.73729 67.6513 5.35511 67.2696 5.04778C66.9061 4.75901 66.6359 4.54467 66.4962 4.43291C64.866 3.11936 63.3381 1.81518 60.5341 1.81518H54.0875Z" fill="#537EB3"/>
<path d="M52.6903 1.81518V12.1652H54.0876V1.81518H52.6903Z" fill="#537EB3"/>
<path d="M3.31885 25.4398H1.14509V16.2878H3.31885V25.4398Z" fill="white"/>
<path d="M3.31885 22.8344H1.14509V18.8933H3.31885V22.8344Z" fill="#FFCB05"/>
<path d="M94.7307 24.4611C94.7307 24.9736 95.15 25.3927 95.6623 25.3927H99.0625C99.0066 25.1413 97.982 20.8559 97.4789 18.6575H96.5939C96.0816 18.6575 95.6623 19.0766 95.6623 19.5891L94.7307 24.4611Z" fill="#FFCB05"/>
<path d="M75.0122 28.6246L75.478 27.8188V12.5585L75.0122 11.9202V28.6246Z" fill="#231F20"/>
<path d="M53.1587 29.989H53.6245V1.81909H53.1587V29.989Z" fill="#231F20"/>
<path d="M74.2493 29.9888V29.523H53.1586V29.9888H74.2493Z" fill="#231F20"/>
<path d="M52.6903 1.81518V12.1652H54.0876V1.81518H52.6903Z" fill="#231F20"/>
<path d="M54.0875 1.81512V11.2706L67.2695 5.04772C66.9061 4.75894 66.6359 4.54461 66.4962 4.43285C64.8659 3.11929 63.338 1.81512 60.5341 1.81512H54.0875Z" fill="#456894"/>
<path d="M55.96 12.1652H60.5153L70.3716 7.51643C69.7847 7.05064 69.2071 6.58485 68.6761 6.16576L55.96 12.1652Z" fill="#456894"/>
<path d="M46.2715 2.74682V8.11279L52.6902 5.08515V1.81524C49.7837 1.81524 47.2031 1.81524 47.2031 1.81524C46.6814 1.81524 46.2715 2.23453 46.2715 2.74682Z" fill="#456894"/>
<path d="M52.6902 6.85504L46.2715 9.89206V11.2335C46.2715 11.4944 46.3835 11.7365 46.5603 11.9043L52.6902 9.01635V6.85504Z" fill="#456894"/>
<path d="M6.1079 17.9616C6.1079 18.4761 6.52494 18.8932 7.03947 18.8932H40.6541C41.1686 18.8932 41.5857 18.4761 41.5857 17.9616V15.7642C41.5857 15.2497 41.1686 14.8326 40.6541 14.8326H7.03947C6.52494 14.8326 6.1079 15.2497 6.1079 15.7642V17.9616Z" fill="#D51130"/>
<path d="M75.0122 27.7825L73.9583 29.6021L74.2493 29.9888L75.0122 28.6246V27.7825Z" fill="#231F20"/>
<path d="M55.2585 15.2399H59.5283V14.2494H55.2585V15.2399Z" fill="#231F20"/>
<path d="M72.5316 12.5027C72.5316 12.7601 72.74 12.9685 72.9974 12.9685H75.0122C75.2696 12.9685 75.478 12.7601 75.478 12.5027V10.9889C75.478 10.7317 75.2696 10.5231 75.0122 10.5231H72.9974C72.74 10.5231 72.5316 10.7317 72.5316 10.9889V12.5027Z" fill="#231F20"/>
</svg>
