<svg width="100" height="47" viewBox="0 0 100 47" fill="none" xmlns="http://www.w3.org/2000/svg">
<path d="M95.6479 29.8222L81.3721 35.3381L62.895 29.1503L75.0208 18.4856L92.1369 21.5766L95.6479 29.8222Z" fill="#616100"/>
<path d="M30.0637 29.8222L15.7879 35.3381L0.882843 30.3465L9.43628 18.4856L26.5527 21.5766L30.0637 29.8222Z" fill="#575700"/>
<path d="M70.3131 35.3381C70.3131 41.7464 75.5081 46.9414 81.9164 46.9414C88.3248 46.9414 93.5198 41.7464 93.5198 35.3381C93.5198 28.9297 88.3248 23.7347 81.9164 23.7347C75.5081 23.7347 70.3131 28.9297 70.3131 35.3381Z" fill="#323430"/>
<path d="M75.5705 35.3381C75.5705 38.8429 78.4118 41.684 81.9166 41.684C85.4214 41.684 88.2625 38.8429 88.2625 35.3381C88.2625 31.8333 85.4214 28.9919 81.9166 28.9919C78.4118 28.9919 75.5705 31.8333 75.5705 35.3381Z" fill="#E5E5E5"/>
<path d="M76.4005 35.3381C76.4005 38.3844 78.8701 40.8538 81.9164 40.8538C84.9628 40.8538 87.4321 38.3844 87.4321 35.3381C87.4321 32.2918 84.9628 29.8221 81.9164 29.8221C78.8701 29.8221 76.4005 32.2918 76.4005 35.3381Z" fill="#989898"/>
<path d="M79.9554 35.338C79.9554 36.4209 80.8335 37.2991 81.9167 37.2991C82.9996 37.2991 83.8777 36.4209 83.8777 35.338C83.8777 34.2549 82.9996 33.3767 81.9167 33.3767C80.8335 33.3767 79.9554 34.2549 79.9554 35.338Z" fill="#4D4D4D"/>
<path d="M81.9165 27.2879C86.3552 27.2879 89.9664 30.8991 89.9664 35.3381C89.9664 39.7768 86.3552 43.388 81.9165 43.388C77.4777 43.388 73.8663 39.7768 73.8663 35.3381C73.8663 30.8991 77.4777 27.2879 81.9165 27.2879ZM81.9165 45.5583C87.5518 45.5583 92.1367 40.9734 92.1367 35.3381C92.1367 29.7025 87.5518 25.1176 81.9165 25.1176C76.2809 25.1176 71.696 29.7025 71.696 35.3381C71.696 40.9734 76.2809 45.5583 81.9165 45.5583Z" fill="#4A4D47"/>
<path d="M83.3914 32.7974L84.3622 31.1304C83.6269 30.7025 82.7865 30.4748 81.9317 30.4719L81.9256 32.4012C82.4417 32.4026 82.9486 32.5397 83.3914 32.7974ZM79.3775 33.8604C79.6374 33.4154 80.0105 33.045 80.4573 32.7884L79.497 31.1154C78.7583 31.5393 78.1408 32.1523 77.7114 32.888L79.3775 33.8604ZM86.7825 35.3462V35.3381C86.7825 34.4867 86.5591 33.6487 86.1366 32.9143L84.4645 33.8763C84.7189 34.3186 84.8534 34.824 84.8534 35.3381L86.7825 35.3462ZM77.7014 37.7707L79.3716 36.8051C79.115 36.3617 78.9796 35.8543 78.9796 35.3381V35.3216H77.0505V35.3281C77.0505 36.1928 77.2756 37.034 77.7014 37.7707ZM84.3448 39.5556C85.0825 39.13 85.6986 38.516 86.1266 37.7794L84.4583 36.8104C84.1996 37.2558 83.827 37.6272 83.3809 37.8845L84.3448 39.5556ZM81.9115 40.2041L81.9132 38.275C81.3972 38.2745 80.8901 38.1384 80.4468 37.8816L79.4796 39.5508C80.2158 39.9773 81.0567 40.2034 81.9115 40.2041Z" fill="black"/>
<path d="M4.76254 35.3381C4.76254 41.7464 9.95755 46.9414 16.3659 46.9414C22.7742 46.9414 27.9692 41.7464 27.9692 35.3381C27.9692 28.9297 22.7742 23.7347 16.3659 23.7347C9.95755 23.7347 4.76254 28.9297 4.76254 35.3381Z" fill="#323430"/>
<path d="M10.0199 35.3381C10.0199 38.8429 12.861 41.684 16.3658 41.684C19.8706 41.684 22.7117 38.8429 22.7117 35.3381C22.7117 31.8333 19.8706 28.9919 16.3658 28.9919C12.861 28.9919 10.0199 31.8333 10.0199 35.3381Z" fill="#E5E5E5"/>
<path d="M10.8502 35.3381C10.8502 38.3844 13.3196 40.8538 16.3659 40.8538C19.4122 40.8538 21.8816 38.3844 21.8816 35.3381C21.8816 32.2918 19.4122 29.8221 16.3659 29.8221C13.3196 29.8221 10.8502 32.2918 10.8502 35.3381Z" fill="#989898"/>
<path d="M14.4048 35.338C14.4048 36.4209 15.2827 37.2991 16.3659 37.2991C17.449 37.2991 18.3269 36.4209 18.3269 35.338C18.3269 34.2549 17.449 33.3767 16.3659 33.3767C15.2827 33.3767 14.4048 34.2549 14.4048 35.338Z" fill="#4D4D4D"/>
<path d="M16.3659 27.2879C20.8047 27.2879 24.4161 30.8993 24.4161 35.3381C24.4161 39.7768 20.8047 43.388 16.3659 43.388C11.9272 43.388 8.31579 39.7768 8.31579 35.3381C8.31579 30.8993 11.9272 27.2879 16.3659 27.2879ZM16.3659 45.5583C22.0015 45.5583 26.5862 40.9734 26.5862 35.3381C26.5862 29.7025 22.0015 25.1176 16.3659 25.1176C10.7303 25.1176 6.14568 29.7025 6.14568 35.3381C6.14568 40.9734 10.7303 45.5583 16.3659 45.5583Z" fill="#4A4D47"/>
<path d="M17.8408 32.7974L18.8117 31.1304C18.0764 30.7025 17.236 30.4748 16.3812 30.4719L16.3752 32.4012C16.8914 32.4029 17.3983 32.54 17.8408 32.7974ZM13.8272 33.8604C14.0869 33.4154 14.4602 33.045 14.9068 32.7887L13.9467 31.1154C13.2078 31.5393 12.5905 32.1523 12.1611 32.888L13.8272 33.8604ZM21.2319 35.3462V35.3381C21.2319 34.4867 21.0085 33.6487 20.586 32.9143L18.914 33.8763C19.1684 34.3186 19.3028 34.824 19.3028 35.3381L21.2319 35.3462ZM12.1509 37.7707L13.821 36.8051C13.5647 36.3617 13.429 35.8545 13.429 35.3381V35.3216H11.5V35.3283C11.5 36.1928 11.725 37.034 12.1509 37.7707ZM18.7943 39.5556C19.532 39.1303 20.1481 38.516 20.576 37.7796L18.9078 36.8104C18.6491 37.2558 18.2764 37.6272 17.8303 37.8847L18.7943 39.5556ZM16.3609 40.2041L16.3626 38.275C15.8467 38.2745 15.3395 38.1384 14.8963 37.8816L13.929 39.5508C14.6653 39.9773 15.5064 40.2034 16.3609 40.2041Z" fill="black"/>
<path d="M84.754 22.5185C84.754 21.499 85.995 20.6724 87.5257 20.6724H93.2996C94.8303 20.6724 96.071 21.499 96.071 22.5185V23.2371C96.071 24.2566 94.8303 25.0833 93.2996 25.0833L87.2947 23.7347C85.8224 23.1937 84.5233 22.972 84.5233 21.9523L84.754 22.5185Z" fill="#808000"/>
<path d="M93.2227 25.3865C93.2227 24.1753 93.7544 23.1937 94.4106 23.1937H96.8849C97.5408 23.1937 98.0728 24.1753 98.0728 25.3865V26.2396C98.0728 27.4506 97.5408 28.4324 96.8849 28.4324H94.4106C93.7544 28.4324 93.2227 27.4506 93.2227 26.2396V25.3865Z" fill="black"/>
<path d="M46.7415 15.0089C46.7415 15.0089 51.7095 15.3432 52.7204 15.3689C53.7313 15.3944 57.4481 13.3313 57.4481 13.3313L57.5447 12.2632C57.5447 12.2632 53.0506 13.4544 52.7373 13.493C52.4243 13.5316 46.169 13.5166 46.169 13.5166C46.169 13.5166 44.3398 14.8999 46.7415 15.0089Z" fill="#EBEBEB"/>
<path d="M46.9723 12.2182L50.4099 13.529L49.9982 14.7161C49.9982 14.7161 45.4982 14.9052 45.2893 14.4708C45.0807 14.0366 46.9723 12.2182 46.9723 12.2182Z" fill="#EBEBEB"/>
<path d="M45.2471 12.7987C45.2471 12.7987 44.7187 14.6284 44.7426 15.3496C44.7667 16.0706 47.0136 19.8532 47.1528 20.2766C47.292 20.7 51.4585 19.5425 51.4585 19.5425C51.4585 19.5425 50.8057 16.3233 50.6221 15.9998C50.4383 15.6765 50.2084 14.3229 48.5087 12.92C46.809 11.5169 45.2471 12.7987 45.2471 12.7987Z" fill="#989898"/>
<path d="M45.3283 16.1662C45.7222 17.0918 45.4463 18.0953 44.712 18.4079L44.2947 18.5852C43.5606 18.8978 42.646 18.4009 42.2522 17.4754L41.5984 15.9392C41.2045 15.0137 41.4806 14.0099 42.2147 13.6976L42.632 13.5199C43.3663 13.2076 44.2807 13.7045 44.6745 14.63L45.3283 16.1662Z" fill="#F0D1A3"/>
<path d="M45.1151 17.3566L44.6981 17.534C43.9637 17.8466 43.0491 17.3495 42.6553 16.4239L42.0015 14.8878C41.8711 14.5814 41.8155 14.2667 41.8243 13.9708C41.3966 14.4188 41.285 15.203 41.5983 15.9392L42.2521 17.4754C42.646 18.4009 43.5606 18.8978 44.2947 18.5852L44.7119 18.4079C45.2031 18.1988 45.4875 17.6802 45.5054 17.0832C45.3952 17.1986 45.2655 17.2925 45.1151 17.3566Z" fill="#C4A77A"/>
<path d="M44.4123 11.4864C44.5122 12.4871 43.9496 13.3628 43.1556 13.4422L42.7045 13.4873C41.9103 13.5664 41.1858 12.8195 41.0856 11.8186L40.9199 10.1572C40.82 9.15633 41.3827 8.28084 42.1766 8.20144L42.6277 8.15638C43.4217 8.07723 44.1465 8.82421 44.2464 9.82511L44.4123 11.4864Z" fill="#F9DCB1"/>
<path d="M43.8539 12.5589L43.4028 12.6039C42.6086 12.6833 41.8841 11.9361 41.7839 10.9352L41.6182 9.27411C41.5851 8.94246 41.6258 8.6256 41.7224 8.34593C41.1807 8.6461 40.8402 9.36137 40.9199 10.1572L41.0856 11.8186C41.1857 12.8195 41.9103 13.5664 42.7045 13.4873L43.1556 13.4422C43.6865 13.3891 44.1128 12.979 44.3079 12.4144C44.1684 12.4916 44.0165 12.5427 43.8539 12.5589Z" fill="#E3C9A1"/>
<mask id="mask0_1_1624" style="mask-type:luminance" maskUnits="userSpaceOnUse" x="44" y="8" width="5" height="6">
<path d="M45.2471 12.7987C45.2471 12.7987 45.6391 11.6886 45.5628 11.5536C45.4862 11.4189 44.6327 8.72427 44.6327 8.72427C44.6327 8.72427 46.3367 10.1529 46.968 10.1529C46.968 10.1529 47.1445 12.0465 47.2844 12.3097C47.4244 12.5729 48.2043 12.8235 48.3027 13.0576C48.4012 13.2918 48.5567 13.9992 48.4348 13.8029C48.3311 13.636 48.2207 13.6964 47.6871 13.3387C47.1535 12.9811 45.754 12.6213 45.2471 12.7987Z" fill="white"/>
</mask>
<g mask="url(#mask0_1_1624)">
<path d="M45.2471 12.7987C45.2471 12.7987 45.6391 11.6886 45.5628 11.5536C45.4862 11.4189 44.6327 8.72427 44.6327 8.72427C44.6327 8.72427 46.3367 10.1529 46.968 10.1529C46.968 10.1529 47.1445 12.0465 47.2844 12.3097C47.4244 12.5729 48.2043 12.8235 48.3027 13.0576C48.4012 13.2918 48.5567 13.9992 48.4348 13.8029C48.3311 13.636 48.2207 13.6964 47.6871 13.3387C47.1535 12.9811 45.754 12.6213 45.2471 12.7987Z" fill="url(#paint0_linear_1_1624)"/>
</g>
<path d="M57.5446 12.3598L58.1528 12.2766L57.8105 13.1404L57.4526 13.2834C57.4526 13.2834 57.4566 12.3662 57.5446 12.3598Z" fill="#F0A77F"/>
<path d="M71.9603 20.2613C71.9603 20.2613 71.9925 20.2003 72.0559 20.0804L72.0678 20.0577L72.0745 20.0436L72.0893 20.0129C72.0995 19.9914 72.1107 19.9678 72.1231 19.9421C72.1386 19.9108 72.1403 19.9025 72.1472 19.8851L72.157 19.8496C72.137 19.8293 72.0988 19.8129 72.0535 19.7842C71.9612 19.7294 71.8258 19.6493 71.6537 19.5472C71.3084 19.3441 70.8185 19.0492 70.2248 18.7042C69.9285 18.5311 69.6075 18.3434 69.268 18.1451C68.9273 17.9486 68.568 17.7414 68.1963 17.5271C67.8234 17.3144 67.4384 17.0948 67.0469 16.8717C66.6544 16.6504 66.2555 16.4258 65.8566 16.2012C65.0577 15.7539 64.2552 15.3129 63.5006 14.903C63.1222 14.6999 62.7581 14.5008 62.4091 14.3181C62.061 14.1341 61.7317 13.96 61.4279 13.7996C61.1225 13.6417 60.8424 13.4968 60.5944 13.3685C60.3462 13.24 60.129 13.1296 59.9492 13.0402C59.5909 12.8595 59.3842 12.7593 59.3842 12.7593C59.1307 12.6368 58.8258 12.7429 58.7032 12.9963C58.5936 13.2226 58.6665 13.4899 58.8637 13.6317C58.8637 13.6317 59.0499 13.7662 59.3794 13.9956C59.5434 14.1114 59.7437 14.2502 59.9747 14.4073C60.2055 14.5647 60.4659 14.7423 60.7501 14.9359C61.0357 15.1271 61.3452 15.3341 61.6723 15.5532C61.999 15.7735 62.3473 15.999 62.7057 16.2355C63.4247 16.7048 64.1944 17.2014 64.9673 17.6918C65.3545 17.9362 65.7417 18.1804 66.1227 18.4209C66.5052 18.6591 66.8814 18.8937 67.2457 19.1207C67.6107 19.3458 67.9638 19.5637 68.2986 19.7702C68.6345 19.9745 68.9521 20.1679 69.2454 20.3464C69.8307 20.7048 70.3233 20.9959 70.6659 21.2031C70.8376 21.3061 70.9723 21.3872 71.0643 21.4425C71.111 21.4687 71.1437 21.4942 71.1711 21.5023L71.1978 21.4768C71.2097 21.4625 71.2164 21.457 71.2364 21.4284C71.2531 21.4055 71.2686 21.3843 71.2827 21.365L71.3027 21.3376L71.312 21.3249L71.3261 21.3037C71.4017 21.1909 71.44 21.1337 71.44 21.1337C71.6282 20.8524 71.8048 20.5539 71.9603 20.2613Z" fill="#42210B"/>
<path d="M59.5849 10.6729C59.6291 10.6729 59.6665 10.6884 59.6994 10.7206C59.9886 11.0036 59.9385 12.4425 59.4042 14.0545C58.9381 15.4611 58.3583 16.2201 58.0495 16.2201C58.0054 16.2201 57.968 16.2043 57.9351 16.1721C57.6458 15.8891 57.6957 14.4505 58.2302 12.8383C58.6963 11.4318 59.2762 10.6729 59.5849 10.6729ZM58.0495 16.6866C58.5469 16.6866 59.2042 15.712 59.6851 14.2614C60.1841 12.7555 60.419 10.8663 59.8711 10.3305C59.7869 10.248 59.6906 10.2061 59.5849 10.2061C59.0874 10.2061 58.43 11.1807 57.9494 12.6315C57.4503 14.1372 57.2155 16.0267 57.7632 16.5622C57.8476 16.6449 57.9439 16.6866 58.0495 16.6866Z" fill="#42210B"/>
<path d="M59.3221 10.2064C59.3221 10.2064 59.3143 10.3132 59.2923 10.4944C59.2811 10.5847 59.2656 10.6932 59.2466 10.8167C59.2273 10.9402 59.2034 11.0778 59.1755 11.2268C59.1471 11.3756 59.1142 11.5351 59.0775 11.7025C59.0585 11.7857 59.0387 11.871 59.0186 11.9585C58.9972 12.0448 58.9755 12.1333 58.9533 12.2229C58.9068 12.4013 58.8582 12.5849 58.8048 12.7689C58.7518 12.9532 58.696 13.139 58.6372 13.3226C58.5792 13.5069 58.5179 13.6888 58.4569 13.8673C58.3944 14.045 58.3324 14.2197 58.2688 14.3859C58.2063 14.5531 58.1429 14.7123 58.0809 14.8623C58.0194 15.0125 57.9586 15.1527 57.9009 15.2812C57.7855 15.5377 57.6813 15.7461 57.6048 15.8897C57.5671 15.9617 57.5344 16.0163 57.5137 16.0544C57.4915 16.0916 57.4798 16.1116 57.4798 16.1116L58.2182 16.623C58.2182 16.623 58.2209 16.5968 58.2259 16.5477C58.2321 16.4993 58.239 16.4271 58.2516 16.3377C58.2759 16.1579 58.3155 15.9052 58.373 15.6081C58.4016 15.4598 58.4343 15.3 58.4717 15.1331C58.5086 14.9658 58.5497 14.7908 58.5952 14.6119C58.6393 14.4322 58.6891 14.2493 58.7399 14.0636C58.7921 13.8788 58.846 13.6916 58.9032 13.5069C58.9595 13.3214 59.0189 13.138 59.0792 12.959C59.1393 12.7797 59.202 12.6059 59.2637 12.4382C59.2954 12.355 59.3267 12.2732 59.3572 12.1931C59.3891 12.114 59.4204 12.0365 59.4507 11.9609C59.5129 11.8112 59.5737 11.671 59.6316 11.5427C59.69 11.4149 59.7453 11.2991 59.7961 11.1975C59.8472 11.0962 59.8929 11.0084 59.932 10.9376C60.0107 10.7955 60.0605 10.718 60.0605 10.718L59.3221 10.2064Z" fill="#42210B"/>
<path d="M58.3722 12.0048C58.3722 12.0048 57.744 13.3917 57.8005 13.4877C57.857 13.5836 58.2964 13.4756 58.398 13.2217C58.4996 12.9677 58.8171 12.1297 58.8171 12.1297C58.8171 12.1297 58.511 11.7568 58.3722 12.0048Z" fill="#F0A77F"/>
<mask id="mask1_1_1624" style="mask-type:luminance" maskUnits="userSpaceOnUse" x="45" y="10" width="3" height="3">
<path d="M47.2023 11.5861L47.3899 12.864C47.3899 12.864 45.6089 12.7586 45.446 12.5135C45.2832 12.2682 45.0944 10.2919 45.0944 10.2919L47.2023 11.5861Z" fill="white"/>
</mask>
<g mask="url(#mask1_1_1624)">
<path d="M47.2023 11.5861L47.3899 12.864C47.3899 12.864 45.6089 12.7586 45.446 12.5135C45.2832 12.2682 45.0944 10.2919 45.0944 10.2919L47.2023 11.5861Z" fill="url(#paint1_linear_1_1624)"/>
</g>
<path d="M47.5675 5.07624C47.5675 5.07624 48.1905 5.488 48.4468 6.16393C48.7033 6.83986 48.638 7.52223 48.6034 7.83313C48.5689 8.14427 48.5681 8.64783 48.7553 9.08629C48.9425 9.52475 48.8946 9.8366 48.7408 10.1752C48.587 10.5137 48.1862 11.5323 48.1154 11.7986C48.0443 12.0649 47.3767 12.0187 47.3767 12.0187C47.3767 12.0187 45.4334 10.9965 45.1573 10.6577C44.8814 10.3187 44.4084 8.09135 44.3376 7.81358C44.267 7.53582 43.9275 5.73 44.3893 5.37928C44.8514 5.02856 46.5411 4.54861 47.5675 5.07624Z" fill="#FFB890"/>
<path d="M47.6199 5.27461C47.6199 5.27461 48.1418 5.0276 48.4038 4.91745C48.6656 4.8073 48.4031 4.68904 47.9141 4.59844C47.4249 4.5076 48.0073 4.14949 48.056 3.85098C48.1049 3.55248 47.2339 4.02241 46.8057 4.04864C46.3775 4.0751 44.3108 4.32306 43.859 4.61942C43.4072 4.91602 42.7851 5.71975 43.1831 6.72947C43.581 7.73919 43.9732 9.3135 43.9732 9.3135C43.9732 9.3135 44.9088 9.45727 44.8966 9.25676C44.8842 9.056 44.4107 8.6936 44.4372 8.24298C44.4639 7.79236 45.0173 7.61736 45.0876 7.45189C45.1582 7.28619 45.054 5.92264 45.1734 5.57288C45.2931 5.22311 47.3278 5.00376 47.6199 5.27461Z" fill="#621E02"/>
<path d="M44.946 7.27925C44.946 7.27925 45.2845 8.19527 45.377 8.39102C45.4698 8.58676 45.3036 8.66735 45.2132 8.67307C45.1634 8.67617 45.0694 8.3605 44.9643 8.06676C44.8787 7.82763 44.7855 7.60279 44.7025 7.57633C44.5175 7.5172 44.946 7.27925 44.946 7.27925Z" fill="#621E02"/>
<mask id="mask2_1_1624" style="mask-type:luminance" maskUnits="userSpaceOnUse" x="43" y="7" width="3" height="3">
<path d="M44.9805 8.11251C44.9805 8.11251 44.8051 7.54983 44.3375 7.81353C43.8704 8.07723 43.8015 8.70619 44.0349 9.00732C44.2684 9.30868 44.9712 9.42003 45.1007 9.15681C45.2302 8.89359 44.9805 8.11251 44.9805 8.11251Z" fill="white"/>
</mask>
<g mask="url(#mask2_1_1624)">
<path d="M44.9805 8.11251C44.9805 8.11251 44.8051 7.54983 44.3375 7.81353C43.8704 8.07723 43.8015 8.70619 44.0349 9.00732C44.2684 9.30868 44.9712 9.42003 45.1007 9.15681C45.2302 8.89359 44.9805 8.11251 44.9805 8.11251Z" fill="url(#paint2_linear_1_1624)"/>
</g>
<path d="M48.4814 9.89229C48.4814 9.89229 47.9514 10.7745 47.8043 10.7835C47.657 10.7923 47.249 10.6028 46.9842 10.4442C46.7193 10.2859 46.1823 9.85438 46.102 9.74924C46.0216 9.64409 46.518 9.8551 46.7422 9.89515C46.9663 9.93497 47.5988 10.064 47.6858 10.0587C47.7729 10.0532 48.2759 9.82768 48.4814 9.89229Z" fill="white"/>
<mask id="mask3_1_1624" style="mask-type:luminance" maskUnits="userSpaceOnUse" x="47" y="7" width="2" height="3">
<path d="M47.6015 7.37766C47.6015 7.37766 47.5714 8.52782 48.1367 9.03709C48.3222 9.2674 48.2159 9.425 47.7169 9.37517C47.2176 9.32534 47.3449 9.26717 47.4153 9.1017C47.4858 8.936 47.4584 8.16207 47.3633 7.92627C47.2682 7.69023 47.3983 7.34977 47.6015 7.37766Z" fill="white"/>
</mask>
<g mask="url(#mask3_1_1624)">
<path d="M47.6015 7.37766C47.6015 7.37766 47.5714 8.52782 48.1367 9.03709C48.3222 9.2674 48.2159 9.425 47.7169 9.37517C47.2176 9.32534 47.3449 9.26717 47.4153 9.1017C47.4858 8.936 47.4584 8.16207 47.3633 7.92627C47.2682 7.69023 47.3983 7.34977 47.6015 7.37766Z" fill="url(#paint3_linear_1_1624)"/>
</g>
<path d="M48.873 6.84105C48.873 6.84105 48.1578 6.67868 47.8462 6.60716C47.5345 6.53563 47.8333 7.0511 47.8333 7.0511C47.8333 7.0511 48.6983 7.11381 48.7584 7.10498C48.8182 7.0964 48.873 6.84105 48.873 6.84105Z" fill="#692506"/>
<path d="M47.0386 7.15044C47.0386 7.15044 46.8946 6.69529 46.8571 6.65762C46.8195 6.61995 46.1059 7.16785 45.8922 7.28158C45.6786 7.3953 45.7208 7.67188 45.7208 7.67188C45.7208 7.67188 46.9709 7.28038 47.0386 7.15044Z" fill="#692506"/>
<path d="M48.5424 7.69245C48.5424 7.69245 48.5541 8.09133 48.4254 8.20005C48.2966 8.30877 47.6906 8.13735 47.8157 7.73369C47.8157 7.73369 48.1223 7.49336 48.5424 7.69245Z" fill="white"/>
<path d="M47.304 7.77536C47.304 7.77536 47.4001 8.28678 47.1986 8.36832C46.9972 8.44986 46.2881 8.37333 46.2743 8.11154C46.2743 8.11154 46.7103 7.72815 47.304 7.77536Z" fill="white"/>
<mask id="mask4_1_1624" style="mask-type:luminance" maskUnits="userSpaceOnUse" x="47" y="7" width="2" height="2">
<path d="M48.5424 7.69245C48.5424 7.69245 48.5541 8.09133 48.4254 8.20005C48.2966 8.30877 47.6906 8.13735 47.8157 7.73369C47.8157 7.73369 48.1223 7.49336 48.5424 7.69245Z" fill="white"/>
</mask>
<g mask="url(#mask4_1_1624)">
<path d="M48.0003 7.96683C48.0112 8.14588 48.1118 8.2856 48.2249 8.27868C48.3379 8.27153 48.4206 8.12061 48.4094 7.94156C48.3984 7.76226 48.2978 7.62278 48.1848 7.6297C48.0718 7.63661 47.9893 7.78753 48.0003 7.96683Z" fill="#381B0B"/>
</g>
<path d="M48.5425 7.69241L48.517 7.66619L48.4838 7.63996L48.4373 7.61182L48.3782 7.58584L48.3446 7.57511L48.3086 7.56629L48.2709 7.55937L48.2316 7.5558C48.2051 7.5527 48.1784 7.55508 48.1515 7.5558C48.1245 7.5577 48.0981 7.56271 48.0721 7.56724L48.0342 7.57725L47.9977 7.5887C47.9743 7.59752 47.9524 7.60801 47.9319 7.61778L47.8773 7.65093L47.8344 7.68359L47.8041 7.71268L47.786 7.73223L47.7798 7.73938L47.7895 7.73819L47.8158 7.73366L47.8551 7.72531L47.9049 7.7153L47.9328 7.70934L47.9624 7.70338C47.9827 7.70028 48.0037 7.69599 48.0251 7.69193C48.047 7.68955 48.0692 7.68597 48.0919 7.68264C48.1145 7.68144 48.1374 7.67692 48.1603 7.6762C48.1832 7.67501 48.2063 7.67238 48.229 7.67262L48.2628 7.67167L48.2957 7.67238C48.3179 7.67167 48.3389 7.67429 48.3594 7.67429L48.4173 7.67858L48.4674 7.68335L48.507 7.68764L48.5329 7.69122L48.5425 7.69241Z" fill="#954300"/>
<mask id="mask5_1_1624" style="mask-type:luminance" maskUnits="userSpaceOnUse" x="46" y="7" width="2" height="2">
<path d="M47.304 7.77536C47.304 7.77536 47.4001 8.28678 47.1986 8.36832C46.9972 8.44986 46.2881 8.37333 46.2743 8.11154C46.2743 8.11154 46.7103 7.72815 47.304 7.77536Z" fill="white"/>
</mask>
<g mask="url(#mask5_1_1624)">
<path d="M46.7437 8.13969C46.7547 8.31898 46.8682 8.45774 46.9972 8.44988C47.1262 8.44201 47.2218 8.29013 47.2108 8.11108C47.1998 7.93178 47.0864 7.79302 46.9574 7.80089C46.8281 7.80876 46.7325 7.96063 46.7437 8.13969Z" fill="#381B0B"/>
</g>
<path d="M47.304 7.77539C47.304 7.77539 47.2868 7.76919 47.2558 7.76252C47.2403 7.75918 47.2215 7.7556 47.1998 7.75227C47.1781 7.74988 47.1533 7.74654 47.1263 7.74535L47.0841 7.74368L47.0391 7.74416C47.0078 7.7444 46.9754 7.74798 46.9415 7.75084L46.8905 7.75846L46.8386 7.768C46.8037 7.77587 46.7685 7.78398 46.7339 7.79542L46.6821 7.81235L46.6323 7.83285C46.5989 7.84573 46.5675 7.86218 46.5377 7.87863L46.494 7.90343L46.4542 7.93037L46.417 7.9566L46.3846 7.98401L46.33 8.03408L46.2926 8.07748L46.2699 8.10632L46.262 8.11658L46.2742 8.11157L46.3076 8.09655L46.3572 8.07199C46.3765 8.06317 46.3984 8.05363 46.422 8.04291L46.4585 8.02598L46.4981 8.00976L46.5393 7.99212L46.583 7.97567L46.6278 7.95803L46.6745 7.94205L46.7217 7.92536L46.7699 7.91058C46.8016 7.89937 46.8345 7.89127 46.8664 7.88149C46.8982 7.87219 46.9303 7.8648 46.9609 7.85574C46.9921 7.84906 47.0219 7.84001 47.0507 7.83381C47.0794 7.82689 47.1065 7.82022 47.1318 7.81473C47.1573 7.80829 47.1807 7.80377 47.2014 7.79876L47.2558 7.78636L47.2911 7.77849L47.304 7.77539Z" fill="#954300"/>
<mask id="mask6_1_1624" style="mask-type:luminance" maskUnits="userSpaceOnUse" x="46" y="9" width="3" height="2">
<path d="M48.4814 9.8924C48.4814 9.8924 47.9514 10.7743 47.8043 10.7836C47.657 10.7927 47.2493 10.6029 46.9842 10.4443C46.7193 10.286 46.1823 9.85449 46.102 9.7491C46.0216 9.6442 46.5183 9.85544 46.7424 9.89526C46.9663 9.93507 47.5988 10.0641 47.6858 10.0588C47.7729 10.0533 48.2759 9.82778 48.4814 9.8924Z" fill="white"/>
</mask>
<g mask="url(#mask6_1_1624)">
<path d="M48.5159 10.0145C48.5159 10.0145 47.9003 10.2672 47.7195 10.2784C47.5388 10.2894 46.5079 10.1246 46.2229 9.9675C45.938 9.81038 46.3538 10.3826 46.818 10.5957C47.282 10.8089 47.8886 11.0719 48.1797 10.5521C48.4708 10.0328 48.5159 10.0145 48.5159 10.0145Z" fill="#A15A30"/>
</g>
<path d="M37.8298 15.5141H64.1598L56.5188 3.09985H37.8298V15.5141ZM2.37597 1.04035H55.9702C57.2825 1.04035 58.8067 2.34309 59.4958 3.81178L66.5169 14.5902H87.1407C89.5812 14.5902 93.2229 16.1914 93.2229 18.1665V22.5545C93.05 22.4853 92.8665 22.4431 92.6972 22.4431H76.2927C75.8886 22.4431 75.3969 22.6749 75.1862 22.9732L68.0525 33.0673H45.5976H29.4251L24.7205 23.5785C24.5253 23.1846 24.0696 22.8783 23.6951 22.8783H8.49176C8.1172 22.8783 7.66158 23.1846 7.46631 23.5785L2.76175 33.0673H2.37597C1.06392 33.0673 9.33181e-05 31.8265 9.33181e-05 30.2959V3.81178C9.33181e-05 2.2811 1.06392 1.04035 2.37597 1.04035Z" fill="#BABD00"/>
<path d="M35.6045 15.5142H9.27444L16.9154 3.09993H35.6045V15.5142Z" fill="#4C6063"/>
<path d="M35.3734 15.2831H9.6878L17.0443 3.33065H35.3734V15.2831ZM8.86093 15.7451H35.8352V2.86883H16.7864L8.86093 15.7451Z" fill="black"/>
<path d="M13.2297 3.0999V3.46612L7.91075 12.1073H1.93012V3.0999H13.2297Z" fill="#4C6063"/>
<path d="M7.78169 11.8766H2.16109V3.33075H12.9986V3.40084L7.78169 11.8766ZM1.69903 12.3384H8.03965L13.4604 3.5315V2.86892H1.69903V12.3384Z" fill="black"/>
<path d="M89.121 24.8393C89.121 24.8393 92.5719 24.7833 93.1518 24.7651L98.7366 24.5909C99.3165 24.5727 99.8179 25.5643 99.8567 26.8059L99.9976 31.3251C100.036 32.5664 99.5978 33.5873 99.0177 33.6054L95.6781 33.7096C95.2015 31.1568 93.5018 27.3799 89.121 24.8393Z" fill="black"/>
<path d="M92.2683 16.4304C92.8519 16.9447 93.2229 17.5364 93.2229 18.1666V18.5774L64.7869 18.5264C64.7079 17.6807 64.6379 16.959 64.5856 16.4304H92.2683Z" fill="#E4E835"/>
<path d="M-5.17682e-05 18.4102V16.4304H64.1213C64.1876 17.0972 64.2553 17.7999 64.3228 18.5256L-5.17682e-05 18.4102Z" fill="#E4E835"/>
<path d="M6.85974 23.7615L7.0922 21.7501V16.7897L16.2925 1.15751L15.8945 0.923377L6.63037 16.6639V21.7368L6.40101 23.7081L6.85974 23.7615Z" fill="#919400"/>
<path d="M64.3227 18.5256L64.7867 18.5263C65.2085 23.0516 65.8803 31.1117 65.3982 31.9369L65.3315 32.0516H29.1963V31.5895H65.0411C65.3126 30.4947 64.8246 23.9195 64.3227 18.5256Z" fill="#919400"/>
<mask id="mask7_1_1624" style="mask-type:luminance" maskUnits="userSpaceOnUse" x="0" y="1" width="94" height="33">
<path d="M24.7205 23.5783C24.5253 23.1846 24.0696 22.8783 23.6951 22.8783H8.49176C8.1172 22.8783 7.66158 23.1846 7.46631 23.5783L2.76175 33.0673H2.37597C1.06392 33.0673 9.33181e-05 31.8265 9.33181e-05 30.2959V3.81178C9.33181e-05 2.2811 1.06392 1.04035 2.37597 1.04035H55.9702C57.2825 1.04035 58.8067 2.34309 59.4958 3.81178L66.5169 14.5902H87.1407C89.5812 14.5902 93.2229 16.1914 93.2229 18.1665V22.5545C93.05 22.4853 92.8665 22.4429 92.6972 22.4429H76.2927C75.8886 22.4429 75.3969 22.6751 75.1864 22.9732L68.0525 33.0673H45.5976H29.4253L24.7205 23.5783Z" fill="white"/>
</mask>
<g mask="url(#mask7_1_1624)">
<path d="M27.7229 36.0186L32.8853 33.4324L27.3016 22.2854C26.6231 20.9173 25.1718 19.991 23.695 19.991H8.49167C7.0144 19.991 5.56264 20.9178 4.87932 22.2968L-0.33165 32.7929L5.3483 34.3501L9.60464 25.7652H22.5868L27.7229 36.0186Z" fill="#808000"/>
<path d="M68.5071 37.2335L77.0484 25.33H92.3883L96.1099 26.8192V22.3275H93.3136L94.2952 19.8739C93.7681 19.6629 93.2304 19.5561 92.6971 19.5561H76.2926C74.9398 19.5561 73.5803 20.2432 72.8285 21.3066L63.8157 33.8672L68.5071 37.2335Z" fill="#808000"/>
<path d="M93.2227 18.6707C93.2227 18.6707 91.837 16.5921 87.3716 16.4381C82.9064 16.284 63.8132 18.0548 66.1998 13.2046C68.5865 8.35431 86.6785 8.89315 90.4124 11.2028C94.1466 13.5126 93.2227 18.6707 93.2227 18.6707Z" fill="#E4E835"/>
<path d="M3.35571 20.682V23.4825H-3.3559V20.682H3.35571Z" fill="#960000"/>
<path d="M3.24015 23.3669H-3.24043V20.7974H3.24015V23.3669ZM-3.47124 23.5979H3.47119V20.5666H-3.47124V23.5979Z" fill="#E5E5E5"/>
<path d="M3.35571 23.9768C3.35571 24.9231 2.58846 25.6903 1.64216 25.6903H-1.64235C-2.58866 25.6903 -3.3559 24.9231 -3.3559 23.9768V23.4825H3.35571V23.9768Z" fill="#960000"/>
<path d="M3.24015 23.5979V23.9767C3.24015 24.8579 2.52346 25.5749 1.64225 25.5749H-1.64227C-2.52348 25.5749 -3.24043 24.8579 -3.24043 23.9767V23.5979H3.24015ZM-1.64227 25.8059H1.64225C2.65054 25.8059 3.47119 24.9853 3.47119 23.9767V23.3668H-3.47124V23.9767C-3.47124 24.9853 -2.6508 25.8059 -1.64227 25.8059Z" fill="#E5E5E5"/>
<path d="M-3.3559 20.0085C-3.3559 19.0622 -2.58866 18.2949 -1.64235 18.2949H1.64216C2.58846 18.2949 3.35571 19.0622 3.35571 20.0085V20.682H-3.3559V20.0085Z" fill="#960000"/>
<path d="M3.24015 20.5666H-3.24043V20.0084C-3.24043 19.1272 -2.52348 18.4103 -1.64227 18.4103H1.64225C2.52346 18.4103 3.24015 19.1272 3.24015 20.0084V20.5666ZM-3.47124 20.7974H3.47119V20.0084C3.47119 18.9999 2.65054 18.1795 1.64225 18.1795H-1.64227C-2.6508 18.1795 -3.47124 18.9999 -3.47124 20.0084V20.7974Z" fill="#E5E5E5"/>
</g>
<path d="M40.2315 18.7621C40.2315 19.0442 40.4599 19.2728 40.742 19.2728H45.2522C45.5343 19.2728 45.7629 19.0442 45.7629 18.7621V18.209C45.7629 17.9272 45.5343 17.6985 45.2522 17.6985H40.742C40.4599 17.6985 40.2315 17.9272 40.2315 18.209V18.7621Z" fill="#8A8C00"/>
<path d="M40.3308 18.1382C40.3308 18.3809 40.5277 18.5779 40.7704 18.5779H45.2239C45.4669 18.5779 45.6638 18.3809 45.6638 18.1382C45.6638 17.8953 45.4669 17.6986 45.2239 17.6986H40.7704C40.5277 17.6986 40.3308 17.8953 40.3308 18.1382Z" fill="#FEFFE3"/>
<path d="M29.0972 18.8544C29.0972 19.1365 29.3259 19.3651 29.6077 19.3651H34.1182C34.4 19.3651 34.6287 19.1365 34.6287 18.8544V18.3013C34.6287 18.0192 34.4 17.7906 34.1182 17.7906H29.6077C29.3259 17.7906 29.0972 18.0192 29.0972 18.3013V18.8544Z" fill="#8A8C00"/>
<path d="M29.1965 18.2305C29.1965 18.4732 29.3934 18.6702 29.6361 18.6702H34.0899C34.3326 18.6702 34.5295 18.4732 34.5295 18.2305C34.5295 17.9876 34.3326 17.7906 34.0899 17.7906H29.6361C29.3934 17.7906 29.1965 17.9876 29.1965 18.2305Z" fill="#FEFFE3"/>
<path d="M36.6366 31.8226L37.0984 31.8188L36.848 1.03855L36.3862 1.04237L36.6366 31.8226Z" fill="#919400"/>
<path d="M29.425 36.3008H68.0525V33.0673H29.425V36.3008Z" fill="#808000"/>
<path d="M64.0454 15.6725L64.5051 15.6255C64.5208 15.7807 64.549 16.0585 64.5857 16.4304H64.1215C64.096 16.1724 64.0705 15.9181 64.0454 15.6725Z" fill="#919400"/>
<path d="M64.1214 16.4304H64.5856C64.6379 16.959 64.7079 17.6807 64.7869 18.5264L64.3229 18.5257C64.2554 17.7999 64.1877 17.0973 64.1214 16.4304Z" fill="#919400"/>
<path d="M63.7464 15.2831H38.0608V3.33065H56.3898L63.7464 15.2831ZM37.5987 15.7451H64.5732L56.6478 2.86883H37.5987V15.7451Z" fill="black"/>
<path d="M47.1231 15.7506C47.1231 15.7506 48.03 15.8684 49.2319 15.2406C49.6475 15.0234 49.7145 14.2283 49.1547 13.5195C48.0954 12.1779 45.5025 10.2519 45.5025 10.2519L45.0304 10.7232C45.0304 10.7232 47.7258 13.5588 47.3901 13.8163C47.3901 13.8163 46.2743 13.6239 45.771 13.3783C45.1852 13.0922 44.5214 15.3692 47.1231 15.7506Z" fill="#EBEBEB"/>
<path d="M44.7437 10.4126C44.8889 10.6138 45.1698 10.6596 45.371 10.5144L45.7317 10.2543C45.9332 10.1093 45.9787 9.82844 45.8335 9.62697L44.7399 8.10941C44.5947 7.90794 44.3138 7.8624 44.1126 8.0076L43.7519 8.26748C43.5504 8.41268 43.5048 8.69355 43.65 8.89501L44.7437 10.4126Z" fill="#473B34"/>
<path d="M45.1751 10.8861C45.1751 10.8861 44.095 10.0907 43.8778 9.65918C43.6606 9.22763 44.4545 8.59534 44.7492 8.81993C45.0437 9.04453 45.6717 9.63415 45.6488 10.5125L45.1751 10.8861Z" fill="#FFD2BA"/>
<path d="M45.2733 10.5323C45.2733 10.5323 44.6179 10.4439 44.4877 10.4732C44.3575 10.5025 44.3039 10.7641 44.7364 10.7836C45.1689 10.8032 45.3699 10.678 45.2733 10.5323Z" fill="#FFD2BA"/>
<defs>
<linearGradient id="paint0_linear_1_1624" x1="46.6984" y1="13.0853" x2="46.2319" y2="7.07572" gradientUnits="userSpaceOnUse">
<stop stop-color="#FFB890"/>
<stop offset="0.750988" stop-color="#E68D76"/>
<stop offset="1" stop-color="#E68D76"/>
</linearGradient>
<linearGradient id="paint1_linear_1_1624" x1="46.1179" y1="12.39" x2="46.4916" y2="9.94941" gradientUnits="userSpaceOnUse">
<stop stop-color="#FFB890"/>
<stop offset="0.750988" stop-color="#E68D76"/>
<stop offset="1" stop-color="#E68D76"/>
</linearGradient>
<linearGradient id="paint2_linear_1_1624" x1="45.1129" y1="8.49661" x2="43.9026" y2="8.57107" gradientUnits="userSpaceOnUse">
<stop stop-color="#FFB890"/>
<stop offset="1" stop-color="#FD9B82"/>
</linearGradient>
<linearGradient id="paint3_linear_1_1624" x1="47.5645" y1="8.40455" x2="48.1799" y2="8.91067" gradientUnits="userSpaceOnUse">
<stop stop-color="#FFB890"/>
<stop offset="1" stop-color="#FD9B82"/>
</linearGradient>
</defs>
</svg>
