<svg width="100" height="48" viewBox="0 0 100 48" fill="none" xmlns="http://www.w3.org/2000/svg">
<path d="M3.80022 31.7725V35.5758C3.80022 35.8761 4.0448 36.1318 4.35625 36.1318H99.4408C99.741 36.1318 99.9968 35.8761 99.9968 35.5758V30.1933C99.9968 29.893 99.741 29.6373 99.4408 29.6373H95.9154C95.9154 29.6373 95.9154 29.1257 95.9154 28.3029V23.7987C95.9154 23.2316 95.8376 22.6645 95.6819 22.1307C95.0481 19.8842 93.0352 18.0604 89.5208 17.6823C85.1615 17.2262 63.4755 14.902 63.4755 14.902C63.4755 14.902 59.3052 7.77344 57.459 4.61503C55.6019 1.46773 53.8448 0.544722 47.539 0.544722C47.539 0.544722 13.8197 0.636541 12.9647 0.636541C10.6536 0.636541 10.6361 1.03615 9.22873 6.24909C7.69486 11.9299 5.83526 17.4042 5.83526 17.4042V31.2165H4.35625C4.0448 31.2165 3.80022 31.4611 3.80022 31.7725Z" fill="#56915F"/>
<path d="M3.8033 32.7492V35.574C3.8033 35.8743 4.04811 36.13 4.35933 36.13H99.444C99.7442 36.13 100 35.8743 100 35.574V32.649H95.9186C95.9186 32.649 93.7833 28.5234 92.7269 26.2991C91.6593 24.0748 90.4026 23.7523 87.0663 23.7523H78.9481C76.1789 23.7523 75.3003 26.0656 74.2327 28.2006C73.1651 30.3361 72.053 32.649 72.053 32.649L33.6412 32.7492C33.6412 32.7492 31.5615 28.8458 30.3048 26.5548C29.0482 24.2639 28.1694 23.7523 25.9453 23.7523H16.8706C14.0902 23.7523 13.1117 25.465 12.1887 27.5558C11.2546 29.6355 9.9644 32.7492 9.9644 32.7492H3.8033Z" fill="#008C48"/>
<path d="M74.0068 36.1318H93.9023C93.4353 31.0497 89.1648 27.0685 83.9601 27.0685C78.7445 27.0685 74.474 31.0497 74.0068 36.1318Z" fill="#414042"/>
<path d="M74.7093 38.1709C74.7093 43.2773 78.849 47.417 83.9554 47.417C89.0619 47.417 93.2014 43.2773 93.2014 38.1709C93.2014 33.0645 89.0619 28.9248 83.9554 28.9248C78.849 28.9248 74.7093 33.0645 74.7093 38.1709Z" fill="#231F20"/>
<path d="M78.9466 38.1709C78.9466 40.9371 81.1891 43.1796 83.9553 43.1796C86.7216 43.1796 88.9641 40.9371 88.9641 38.1709C88.9641 35.4046 86.7216 33.1621 83.9553 33.1621C81.1891 33.1621 78.9466 35.4046 78.9466 38.1709Z" fill="#6D6E71"/>
<path d="M11.7295 36.1318H31.625C31.1578 31.0497 26.8874 27.0685 21.6828 27.0685C16.4669 27.0685 12.1967 31.0497 11.7295 36.1318Z" fill="#414042"/>
<path d="M12.4319 38.1709C12.4319 43.2773 16.5713 47.417 21.6778 47.417C26.7844 47.417 30.9238 43.2773 30.9238 38.1709C30.9238 33.0645 26.7844 28.9248 21.6778 28.9248C16.5713 28.9248 12.4319 33.0645 12.4319 38.1709Z" fill="#231F20"/>
<path d="M16.6691 38.1709C16.6691 40.9371 18.9115 43.1796 21.6778 43.1796C24.4441 43.1796 26.6865 40.9371 26.6865 38.1709C26.6865 35.4046 24.4441 33.1621 21.6778 33.1621C18.9115 33.1621 16.6691 35.4046 16.6691 38.1709Z" fill="#6D6E71"/>
<path d="M34.7533 37.1457C34.7533 37.4528 35.0022 37.7019 35.3093 37.7019H64.5018C64.809 37.7019 65.0579 37.4528 65.0579 37.1457V36.1263C65.0579 35.8192 64.809 35.5703 64.5018 35.5703H35.3093C35.0022 35.5703 34.7533 35.8192 34.7533 36.1263V37.1457Z" fill="#231F20"/>
<path d="M94.4396 25.2648C94.4396 26.9886 94.9733 28.3899 95.6407 28.3899C95.7407 28.3899 95.8297 28.3564 95.9187 28.3008V23.7969C95.9187 23.2298 95.8408 22.6624 95.6851 22.1288H95.6407C94.9733 22.1288 94.4396 23.5299 94.4396 25.2648Z" fill="#FFCB05"/>
<path d="M5.83852 19.504V26.5548H6.88393C7.18404 26.5548 7.43994 26.3102 7.43994 25.9988V20.0603C7.43994 19.7488 7.18404 19.504 6.88393 19.504H5.83852Z" fill="#821A27"/>
<path d="M7.02711e-05 28.1371C7.02711e-05 28.7514 0.498064 29.2494 1.11211 29.2494H4.72658C5.34063 29.2494 5.83862 28.7514 5.83862 28.1371V11.7993C5.83862 11.185 5.34063 10.687 4.72658 10.687H1.11211C0.498064 10.687 7.02711e-05 11.185 7.02711e-05 11.7993V28.1371Z" fill="#231F20"/>
<path d="M32.3393 15.3673C33.2489 15.3673 33.9885 14.6565 33.9885 13.7827V3.1895C33.9885 2.31547 33.2489 1.60486 32.3393 1.60486H13.4076C12.8704 1.60486 12.1525 1.85192 11.7828 3.02924L9.02587 13.7149V13.7827C9.02587 14.6565 9.76549 15.3673 10.6751 15.3673H32.3393Z" fill="#231F20"/>
<path d="M9.58328 13.7788C9.58328 13.8455 9.59416 13.9234 9.6055 13.9901C9.70546 14.4683 10.1504 14.8242 10.6731 14.8242H32.3368C32.9484 14.8242 33.4377 14.3571 33.4377 13.7788V3.19155C33.4377 3.04693 33.4042 2.91342 33.3487 2.79125V2.78014C33.1821 2.41316 32.7926 2.14615 32.3368 2.14615H13.4088C12.8083 2.14615 12.4969 2.62442 12.319 3.19155L9.58328 13.7788Z" fill="#537EB3"/>
<path d="M62.6631 15.3673L62.151 14.5395C62.1068 14.4692 57.784 7.48148 56.6872 5.64477C55.4339 3.54672 53.813 1.60486 50.4615 1.60486H36.4674V15.3673H62.6631Z" fill="#231F20"/>
<path d="M37.0185 2.14615V14.8242H61.6738C61.6738 14.8242 59.4495 11.232 57.7815 8.4963C57.3032 7.72902 56.8696 7.02838 56.547 6.49457C56.4135 6.27221 56.2913 6.07184 56.2023 5.91634C55.991 5.56024 55.7686 5.20437 55.5238 4.85961C54.4784 3.3917 53.0438 2.14615 50.4639 2.14615C47.2611 2.14615 37.0185 2.14615 37.0185 2.14615Z" fill="#537EB3"/>
<path d="M62.1068 32.6744H62.6631V15.3673H62.1068V32.6744Z" fill="#231F20"/>
<path d="M62.6631 32.7411V32.1851H36.4676V32.7411H62.6631Z" fill="#231F20"/>
<path d="M36.4677 32.7411H37.0237V14.8904H36.4677V32.7411Z" fill="#231F20"/>
<path d="M37.0186 2.14608V13.5897L55.5239 4.85954C54.4785 3.39163 53.0439 2.14608 50.464 2.14608C47.2611 2.14608 37.0186 2.14608 37.0186 2.14608Z" fill="#456894"/>
<path d="M38.8979 14.8242H44.3697L57.7815 8.4963C57.3032 7.72902 56.8696 7.02838 56.5471 6.49457L38.8979 14.8242Z" fill="#456894"/>
<path d="M9.58324 13.7787C9.58324 13.8454 9.59413 13.9233 9.60546 13.99L33.3486 2.79117V2.78006C33.182 2.41308 32.7926 2.14607 32.3368 2.14607H13.4087C12.8083 2.14607 12.4969 2.62435 12.3189 3.19147L9.58324 13.7787Z" fill="#456894"/>
<path d="M12.3412 14.8242H17.8127L33.4377 7.4509V4.87094L12.3412 14.8242Z" fill="#456894"/>
<path d="M39.3597 18.3383H44.4568V17.1559H39.3597V18.3383Z" fill="#231F20"/>
<path d="M58.8676 16.1829C58.8676 16.4898 59.1164 16.7389 59.4236 16.7389H61.829C62.1361 16.7389 62.385 16.4898 62.385 16.1829V14.3756C62.385 14.0685 62.1361 13.8194 61.829 13.8194H59.4236C59.1164 13.8194 58.8676 14.0685 58.8676 14.3756V16.1829Z" fill="#231F20"/>
</svg>
