<svg width="100" height="40" viewBox="0 0 100 40" fill="none" xmlns="http://www.w3.org/2000/svg">
<path d="M9.36898 5.02466L3.92277 10.8596C3.92277 10.8596 7.94248 10.4706 8.46053 10.0817C8.97857 9.6926 12.2205 5.80262 12.2205 5.80262L9.36898 5.02466Z" fill="#5B5B5B"/>
<path d="M73.682 10.4709C73.682 10.4709 61.3635 3.72827 56.3073 2.43177L54.6215 3.46897C54.6215 3.46897 72.3855 12.8048 74.719 13.0641C77.0536 13.3234 77.8311 12.4159 77.8311 11.897C77.8311 11.3784 73.682 10.4709 73.682 10.4709Z" fill="#5B5B5B"/>
<path d="M97.1499 31.9951L71.4772 31.476H3.53318C3.53318 31.476 3.27423 17.7318 22.205 17.4726C41.1359 17.2132 82.1094 15.9166 88.8528 19.5471C95.5947 23.1777 97.1499 31.9951 97.1499 31.9951Z" fill="#090B0A"/>
<path d="M22.3701 31.5957C22.3701 27.0782 18.647 23.4162 14.0535 23.4162C9.46145 23.4162 5.73834 27.0782 5.73834 31.5957C5.73834 36.1132 9.46145 39.775 14.0535 39.775C18.647 39.775 22.3701 36.1132 22.3701 31.5957Z" fill="#1F2326"/>
<path d="M14.0537 23.4162C17.9788 23.4162 21.2651 26.0906 22.1406 29.687C21.2651 33.2835 17.9788 35.9578 14.0537 35.9578C10.1302 35.9578 6.8424 33.2835 5.96834 29.687C6.8424 26.0906 10.1302 23.4162 14.0537 23.4162Z" fill="#3C3E40"/>
<path d="M20.1877 31.5956C20.1877 28.2626 17.4419 25.5615 14.0535 25.5615C10.6666 25.5615 7.91933 28.2626 7.91933 31.5956C7.91933 34.9278 10.6666 37.6296 14.0535 37.6296C17.4419 37.6296 20.1877 34.9278 20.1877 31.5956Z" fill="#5D5E60"/>
<path d="M14.054 25.7682C17.3226 25.7682 19.9821 28.3823 19.9821 31.5957C19.9821 34.8083 17.3226 37.4229 14.054 37.4229C10.7855 37.4229 8.12598 34.8083 8.12598 31.5957C8.12598 28.3823 10.7855 25.7682 14.054 25.7682ZM14.054 37.8357C17.5503 37.8357 20.3945 35.0367 20.3945 31.5957C20.3945 28.1548 17.5503 25.3551 14.054 25.3551C10.5578 25.3551 7.71352 28.1548 7.71352 31.5957C7.71352 35.0367 10.5578 37.8357 14.054 37.8357Z" fill="black"/>
<path d="M17.8701 31.5955C17.8701 29.5217 16.163 27.8409 14.0536 27.8409C11.9456 27.8409 10.237 29.5217 10.237 31.5955C10.237 33.6685 11.9456 35.3496 14.0536 35.3496C16.163 35.3496 17.8701 33.6685 17.8701 31.5955Z" fill="#3C3E40"/>
<path d="M16.0308 31.5957C16.0308 30.5218 15.1468 29.6514 14.0538 29.6514C12.9622 29.6514 12.0782 30.5218 12.0782 31.5957C12.0782 32.6695 12.9622 33.54 14.0538 33.54C15.1468 33.54 16.0308 32.6695 16.0308 31.5957Z" fill="#9EA7A6"/>
<path d="M15.094 31.5957C15.094 31.031 14.6285 30.5734 14.0545 30.5734C13.4805 30.5734 13.0149 31.031 13.0149 31.5957C13.0149 32.1606 13.4805 32.6182 14.0545 32.6182C14.6285 32.6182 15.094 32.1606 15.094 31.5957Z" fill="#5D5E60"/>
<path d="M90.1462 31.5955C90.1462 27.0779 86.4227 23.4159 81.8308 23.4159C77.2378 23.4159 73.5153 27.0779 73.5153 31.5955C73.5153 36.1129 77.2378 39.7748 81.8308 39.7748C86.4227 39.7748 90.1462 36.1129 90.1462 31.5955Z" fill="#1F2326"/>
<path d="M81.8308 23.4156C85.7545 23.4156 89.0418 26.0901 89.9165 29.6867C89.0418 33.2829 85.7545 35.9574 81.8308 35.9574C77.9061 35.9574 74.6188 33.2829 73.7441 29.6867C74.6188 26.0901 77.9061 23.4156 81.8308 23.4156Z" fill="#3C3E40"/>
<path d="M87.9653 31.5955C87.9653 28.2624 85.2188 25.5614 81.8303 25.5614C78.4417 25.5614 75.6963 28.2624 75.6963 31.5955C75.6963 34.9277 78.4417 37.6295 81.8303 37.6295C85.2188 37.6295 87.9653 34.9277 87.9653 31.5955Z" fill="#5D5E60"/>
<path d="M81.8303 25.7677C85.0986 25.7677 87.7581 28.3819 87.7581 31.5953C87.7581 34.8079 85.0986 37.4225 81.8303 37.4225C78.5609 37.4225 75.9015 34.8079 75.9015 31.5953C75.9015 28.3819 78.5609 25.7677 81.8303 25.7677ZM81.8303 37.8353C85.326 37.8353 88.1714 35.0363 88.1714 31.5953C88.1714 28.1543 85.326 25.3547 81.8303 25.3547C78.3336 25.3547 75.4892 28.1543 75.4892 31.5953C75.4892 35.0363 78.3336 37.8353 81.8303 37.8353Z" fill="black"/>
<path d="M85.6479 31.5956C85.6479 29.5218 83.9392 27.841 81.8315 27.841C79.7239 27.841 78.0141 29.5218 78.0141 31.5956C78.0141 33.6687 79.7239 35.3499 81.8315 35.3499C83.9392 35.3499 85.6479 33.6687 85.6479 31.5956Z" fill="#3C3E40"/>
<path d="M83.8074 31.5954C83.8074 30.5214 82.9218 29.651 81.8312 29.651C80.7385 29.651 79.854 30.5214 79.854 31.5954C79.854 32.6692 80.7385 33.5397 81.8312 33.5397C82.9218 33.5397 83.8074 32.6692 83.8074 31.5954Z" fill="#9EA7A6"/>
<path d="M82.8691 31.5953C82.8691 31.0306 82.4046 30.573 81.8309 30.573C81.2562 30.573 80.7906 31.0306 80.7906 31.5953C80.7906 32.1602 81.2562 32.6178 81.8309 32.6178C82.4046 32.6178 82.8691 32.1602 82.8691 31.5953Z" fill="#5D5E60"/>
<path d="M99.4847 30.3091C99.4847 30.3091 100.263 26.1601 99.615 23.6964C98.9664 21.2328 98.4481 20.3251 98.4481 20.3251C98.4481 20.3251 97.7994 17.7319 94.4275 15.9166C91.0576 14.1013 84.0552 12.1563 80.8135 11.5079C77.5718 10.8597 73.6814 10.4707 73.6814 10.4707C73.6814 10.4707 77.0529 11.6377 75.3679 12.4157C73.6814 13.1936 64.6049 7.35886 60.8458 5.67313C57.0852 3.98756 54.6218 3.46879 54.6218 3.46879L56.3068 2.43156C56.3068 2.43156 53.3245 1.26461 44.3778 0.745843C35.431 0.227229 20.6494 1.39434 14.5552 2.43156C8.46091 3.46879 8.07173 4.24687 8.46092 4.76548C8.85011 5.2841 11.4432 6.19174 11.4432 6.19174L8.20298 9.56304L3.92343 10.8597C3.92343 10.8597 1.71954 12.8046 1.58981 14.7496C1.46008 16.6945 1.71954 18.5098 1.71954 18.5098C1.71954 18.5098 0.162786 19.9361 0.0330565 21.4921C-0.0966733 23.0481 0.162786 27.9754 0.681706 29.6612C1.1991 31.3464 4.31262 31.9952 4.31262 31.9952C4.31262 31.9952 3.92342 27.0677 7.55433 23.6964C11.1837 20.3251 18.4455 20.9735 21.2981 25.382C24.1506 29.7908 23.6317 33.6803 23.6317 33.6803L71.8667 34.1993C71.8667 34.1993 71.6073 27.5863 75.4976 24.4743C79.3865 21.3625 85.4807 20.9735 88.5942 24.6039C91.7047 28.2344 90.9279 34.0698 90.9279 34.0698C90.9279 34.0698 96.762 33.2915 98.4481 32.6429C100.133 31.9952 100.392 30.8282 99.4847 30.3091Z" fill="#AD0636"/>
<path d="M23.6317 33.6803C23.6317 33.6803 24.1506 29.7908 21.2981 25.382C18.4455 20.9735 11.1837 20.3251 7.55433 23.6964C3.92342 27.0677 4.31262 31.9952 4.31262 31.9952C4.31262 31.9952 1.1991 31.3464 0.681706 29.6612C0.162786 27.9754 -0.0966733 23.0481 0.0330565 21.4921C0.0422139 21.3843 0.0589965 21.2773 0.0803638 21.1711C0.66949 21.4489 1.3792 21.7712 1.97748 22.0108C3.27478 22.5295 3.40451 26.1601 3.40451 26.1601C3.40451 26.1601 5.99757 20.4549 12.9999 20.0658C20.0008 19.6769 22.5938 24.4743 22.5938 24.4743L73.8112 23.9557C73.8112 23.9557 77.5718 20.1954 83.7958 20.5844C90.0198 20.9735 91.4453 26.4194 91.4453 26.4194C94.7083 26.4194 98.7504 24.858 99.7637 24.4447C100.121 26.916 99.4847 30.3091 99.4847 30.3091C100.392 30.8282 100.133 31.9952 98.4481 32.6429C96.762 33.2915 90.9279 34.0698 90.9279 34.0698C90.9279 34.0698 91.7047 28.2344 88.5942 24.6041C85.4807 20.9735 79.3865 21.3625 75.4976 24.4743C71.6073 27.5863 71.8667 34.1993 71.8667 34.1993L23.6317 33.6803Z" fill="#8A0B29"/>
<path d="M97.0198 26.7672L95.1167 30.0973C95.1167 30.0973 96.7343 30.0026 97.3052 28.9553C97.8761 27.9091 97.0198 26.7672 97.0198 26.7672Z" fill="#D8640D"/>
<path d="M4.67474 17.5818C3.85746 17.5818 2.40486 17.4547 1.60729 17.3785C1.55725 16.6794 1.52389 15.7313 1.58909 14.7495C1.61335 14.3911 1.70888 14.0325 1.84686 13.6861C2.79454 13.6522 7.83621 13.5061 8.30475 14.2106C8.82332 14.9886 5.84229 17.5818 4.67474 17.5818Z" fill="#F74140"/>
<path d="M69.6555 32.5863C69.7347 32.2151 71.6044 23.4738 71.733 21.1566C71.8617 18.8299 70.9599 15.3184 70.9511 15.2832L70.7069 15.3464C70.7168 15.3812 71.6088 18.8554 71.4812 21.1427C71.3536 23.4402 69.4289 32.4427 69.4091 32.5341L69.6555 32.5863Z" fill="#510017"/>
<path d="M22.5941 24.4744L22.6528 24.4739C24.8345 27.398 27.2411 30.4744 28.1048 30.9786C29.3109 31.682 57.2735 32.2069 71.9424 32.3872C71.934 32.4736 71.9256 32.5566 71.92 32.6389C69.3485 32.6065 29.5261 32.0999 27.9776 31.1962C26.8581 30.5434 23.3363 25.8522 20.8751 22.4885C22.0756 23.5147 22.5941 24.4744 22.5941 24.4744Z" fill="#510017"/>
<path d="M8.89283 22.7181L6.18373 16.9137L6.41284 16.8073L9.1145 22.5967C9.03863 22.6362 8.96573 22.6765 8.89283 22.7181Z" fill="#510017"/>
<path d="M87.2715 17.2909L87.3125 17.0423L72.7891 14.7084L72.7492 14.957L87.2715 17.2909Z" fill="#510017"/>
<path d="M48.5271 17.8613C48.5271 17.8613 48.3972 17.2129 47.231 16.9536C46.0636 16.6943 45.5442 17.7315 45.5442 17.7315C45.5442 17.7315 45.1558 19.2875 46.7116 19.5469C48.2674 19.8062 48.3972 18.5095 48.3972 18.5095L48.5271 17.8613Z" fill="#8A0B29"/>
<path d="M50.0824 18.5096C50.2525 18.0026 47.8778 17.991 46.8411 17.8614C45.8043 17.7318 43.5997 17.4724 43.47 17.991C43.3402 18.5096 45.9328 18.7689 46.8411 18.8987C47.7493 19.0283 49.9526 18.8987 50.0824 18.5096Z" fill="#CC1B56"/>
<path d="M95.1997 16.3742C95.1987 16.3739 95.1976 16.3734 95.1976 16.3728C95.1976 16.3732 95.1987 16.3739 95.1997 16.3742ZM95.1669 16.3533C95.1669 16.3526 95.1659 16.3522 95.1648 16.3517C95.1659 16.3522 95.1669 16.3527 95.1669 16.3533ZM95.1088 16.3153C95.1056 16.3138 95.1035 16.3123 95.1014 16.3108C95.1035 16.3123 95.1056 16.3137 95.1088 16.3153ZM95.076 16.2947C95.0728 16.2929 95.0707 16.291 95.0665 16.2892C95.0707 16.291 95.0728 16.2928 95.076 16.2947ZM95.0591 16.2841C95.0559 16.2821 95.0527 16.2803 95.0506 16.2783C95.0527 16.2803 95.0559 16.2822 95.0591 16.2841ZM95.0421 16.2736C95.039 16.2714 95.0358 16.2693 95.0316 16.2671C95.0358 16.2692 95.039 16.2716 95.0421 16.2736ZM94.9734 16.2306C94.9692 16.2282 94.9649 16.2257 94.9618 16.2232C94.966 16.2257 94.9692 16.2282 94.9734 16.2306ZM94.8634 16.1641C94.8592 16.1612 94.8539 16.1582 94.8497 16.1554C94.8539 16.1583 94.8581 16.161 94.8634 16.1641ZM94.8444 16.1526C94.8401 16.15 94.8359 16.1472 94.8306 16.1446C94.8349 16.1471 94.8401 16.15 94.8444 16.1526ZM94.8264 16.1417C94.8222 16.1391 94.8179 16.1365 94.8126 16.1338C94.8179 16.1366 94.8222 16.139 94.8264 16.1417ZM94.8084 16.1312C94.8031 16.1284 94.8 16.1258 94.7947 16.1231C94.8 16.1259 94.8031 16.1284 94.8084 16.1312ZM94.7894 16.1202C94.7851 16.1176 94.7809 16.115 94.7767 16.1125C94.7809 16.115 94.7851 16.1175 94.7894 16.1202ZM94.7725 16.1095C94.7672 16.1068 94.7629 16.1043 94.7576 16.1018C94.7629 16.1042 94.7672 16.107 94.7725 16.1095ZM94.7534 16.0987C94.7492 16.0959 94.7439 16.0932 94.7386 16.0905C94.7439 16.0931 94.7492 16.0961 94.7534 16.0987ZM94.7164 16.0775C94.7101 16.0742 94.7048 16.0708 94.6995 16.0673C94.7048 16.0708 94.7101 16.0741 94.7164 16.0775ZM94.6392 16.0333C94.6339 16.0303 94.6297 16.0273 94.6233 16.0242C94.6286 16.0272 94.6339 16.0304 94.6392 16.0333ZM94.6191 16.0219C94.6138 16.0193 94.6096 16.0166 94.6053 16.014C94.6096 16.0165 94.6149 16.0193 94.6191 16.0219ZM94.581 16.0001C94.5757 15.9977 94.5726 15.9955 94.5673 15.9932C94.5715 15.9955 94.5757 15.9978 94.581 16.0001ZM94.5609 15.9893C94.5567 15.987 94.5525 15.9848 94.5482 15.9826C94.5525 15.9848 94.5567 15.9871 94.5609 15.9893ZM94.5049 15.9579C94.5006 15.9557 94.4964 15.9537 94.4932 15.9515C94.4964 15.9536 94.5006 15.9558 94.5049 15.9579ZM80.8017 11.5055C80.8006 11.5054 80.7985 11.505 80.7974 11.5048C80.7985 11.505 80.8006 11.5053 80.8017 11.5055ZM80.7065 11.4868C79.2153 11.1922 77.5982 10.9526 76.2921 10.7802C77.5982 10.9526 79.2153 11.1924 80.7065 11.4868Z" fill="white"/>
<path d="M97.5671 18.6066C97.0811 17.9241 96.3451 17.1305 95.2481 16.4056C95.2417 16.4023 95.2364 16.3988 95.2321 16.3955C95.2321 16.3952 95.231 16.3949 95.23 16.3945C95.2257 16.3914 95.2214 16.3882 95.2161 16.3851C95.215 16.3846 95.215 16.3843 95.2139 16.3838C95.2097 16.3808 95.2054 16.3778 95.2001 16.3746C95.199 16.3742 95.199 16.3736 95.1979 16.3732C95.1936 16.3701 95.1883 16.3669 95.184 16.3639C95.184 16.3637 95.183 16.3635 95.183 16.3633C95.1776 16.3601 95.1734 16.3569 95.168 16.3536C95.1669 16.3531 95.1659 16.3525 95.1659 16.352C95.1466 16.3399 95.1285 16.3277 95.1093 16.3156C95.1061 16.314 95.1039 16.3128 95.1018 16.3112C95.0986 16.3093 95.0954 16.3075 95.0932 16.3057C95.0911 16.3039 95.0879 16.3023 95.0847 16.3005C95.0826 16.2987 95.0793 16.2968 95.0761 16.295C95.0729 16.2931 95.0708 16.2914 95.0676 16.2896C95.0644 16.2878 95.0623 16.2862 95.0601 16.2845C95.0569 16.2825 95.0537 16.2806 95.0505 16.2787C95.0484 16.2772 95.0452 16.2756 95.043 16.274C95.0388 16.272 95.0356 16.2695 95.0323 16.2675C95.0302 16.2661 95.0281 16.2648 95.0259 16.2635C95.0227 16.2613 95.0195 16.2591 95.0153 16.2568C95.0131 16.2554 95.011 16.2538 95.0088 16.2524C95.0056 16.2504 95.0014 16.2481 94.9982 16.2461C94.996 16.2445 94.9939 16.2431 94.9907 16.2415C94.9875 16.2395 94.9832 16.2373 94.98 16.2352C94.9789 16.2338 94.9757 16.2324 94.9736 16.231C94.9693 16.2285 94.9661 16.226 94.9619 16.2236C94.9608 16.2225 94.9586 16.2214 94.9565 16.2205C94.9522 16.2176 94.9469 16.2147 94.9426 16.2119C94.9415 16.2112 94.9405 16.2104 94.9384 16.2098C94.9213 16.1988 94.9031 16.1878 94.8849 16.177V16.1769C94.8785 16.1733 94.8732 16.1698 94.8668 16.1663C94.8668 16.1657 94.8657 16.165 94.8636 16.1644C94.8593 16.1614 94.855 16.1587 94.8497 16.1557C94.8486 16.1549 94.8465 16.1539 94.8444 16.153C94.8411 16.1503 94.8358 16.1475 94.8315 16.1449C94.8294 16.1441 94.8283 16.143 94.8262 16.1422C94.8219 16.1394 94.8187 16.1369 94.8134 16.1342C94.8112 16.1332 94.8112 16.1323 94.8091 16.1315C94.8038 16.1287 94.7995 16.1261 94.7952 16.1235C94.7931 16.1224 94.792 16.1216 94.7899 16.1205C94.7856 16.1179 94.7813 16.1154 94.777 16.1128C94.776 16.1118 94.7739 16.1109 94.7728 16.1098C94.7674 16.1073 94.7632 16.1046 94.7589 16.1021C94.7568 16.101 94.7546 16.1001 94.7536 16.0991C94.7493 16.0963 94.7439 16.0935 94.7397 16.0908C94.7386 16.09 94.7365 16.0894 94.7365 16.0887C94.7311 16.0858 94.7258 16.0829 94.7215 16.08C94.7194 16.0794 94.7183 16.0786 94.7172 16.0779C94.7108 16.0744 94.7055 16.0711 94.6991 16.0677C94.6991 16.0676 94.6991 16.0675 94.6991 16.0674C94.6798 16.0567 94.6617 16.0458 94.6435 16.0351C94.6425 16.0346 94.6403 16.0342 94.6393 16.0336C94.635 16.0308 94.6286 16.0276 94.6243 16.0247C94.6232 16.0239 94.6211 16.0231 94.62 16.0223C94.6158 16.0197 94.6104 16.0169 94.6061 16.0143C94.604 16.0132 94.6019 16.0122 94.5997 16.0111C94.5955 16.0085 94.5912 16.0063 94.5869 16.0037C94.5848 16.0026 94.5837 16.0016 94.5816 16.0005C94.5762 15.9982 94.572 15.9958 94.5688 15.9935C94.5666 15.9922 94.5645 15.991 94.5613 15.9897C94.557 15.9875 94.5538 15.9851 94.5495 15.9829C94.5474 15.9817 94.5453 15.9804 94.5421 15.9793C94.5388 15.977 94.5346 15.9749 94.5314 15.9726C94.5282 15.9713 94.526 15.9701 94.5239 15.9687C94.5196 15.9665 94.5164 15.9643 94.5121 15.9621C94.5089 15.9608 94.5068 15.9595 94.5047 15.9583C94.5015 15.9562 94.4972 15.954 94.494 15.9518C94.4908 15.9505 94.4886 15.9491 94.4865 15.9478C94.4822 15.9456 94.478 15.9433 94.4737 15.941C94.4716 15.9399 94.4694 15.9388 94.4673 15.9376C94.4619 15.9349 94.4566 15.9323 94.4523 15.9297C94.4513 15.929 94.4491 15.9281 94.4481 15.9272C94.4416 15.9238 94.4352 15.9203 94.4288 15.9169C91.0577 14.1015 84.0557 12.1567 80.8138 11.5083C80.8106 11.5075 80.8063 11.5067 80.802 11.5058C80.801 11.5056 80.7988 11.5054 80.7988 11.5052C80.7914 11.5036 80.7839 11.5021 80.7753 11.5006C80.7743 11.5004 80.7732 11.5002 80.7721 11.4999C80.7636 11.4984 80.7551 11.4967 80.7476 11.4951C80.7422 11.494 80.7358 11.4928 80.7305 11.4916C80.7283 11.4912 80.7251 11.4908 80.723 11.4902C80.7209 11.4899 80.7198 11.4895 80.7177 11.4892C80.7145 11.4885 80.7113 11.4878 80.707 11.4871C79.2158 11.1928 77.5996 10.9529 76.2933 10.7805C75.6128 10.6907 75.0157 10.6191 74.566 10.5676C74.566 10.5676 77.9521 12.0341 74.8245 12.8369C74.8245 12.8369 83.4073 13.8423 88.7237 15.1389C94.04 16.4355 95.0772 18.2509 95.0772 18.2509L97.5671 18.6066Z" fill="#C75677"/>
<path d="M44.3772 0.745645C42.8634 0.657893 41.1831 0.618399 39.405 0.618399C41.1831 0.618399 42.8634 0.658036 44.3772 0.745645Z" fill="white"/>
<path d="M8.46146 4.76575C8.46146 4.76575 28.4306 1.65375 38.6732 1.65375C48.9172 1.65375 54.6216 3.46902 54.6216 3.46902L56.3083 2.43178C56.3083 2.43178 53.3257 1.26481 44.3791 0.746121C42.8649 0.658395 41.1826 0.618876 39.4045 0.618876C39.4015 0.618876 39.3986 0.618876 39.3956 0.618876C30.8663 0.619466 20.115 1.52799 14.9075 2.37326C14.8942 2.37547 14.881 2.37768 14.8677 2.37974C14.8618 2.38092 14.8544 2.38196 14.8485 2.38299C14.8367 2.38491 14.8249 2.38697 14.8117 2.38888C14.7453 2.39994 14.679 2.411 14.6141 2.42191C14.6023 2.42397 14.589 2.42603 14.5787 2.4281C14.5699 2.42928 14.5625 2.43046 14.5551 2.43178C9.46109 3.29887 8.35383 3.98491 8.3553 4.48944C8.3553 4.58852 8.39806 4.68067 8.46146 4.76575Z" fill="#C75677"/>
<path d="M66.731 31.2997L31.7186 30.7407L30.1622 29.342L65.1759 30.181L66.731 31.2997Z" fill="#AD0636"/>
<path d="M72.6438 14.7494C72.6438 14.7494 60.7161 6.19157 52.4164 4.24669C44.1181 2.30167 23.7616 4.11692 19.6117 5.15424C15.4619 6.19157 14.9442 8.65525 14.9442 8.65525C14.9442 8.65525 25.187 11.5078 29.2063 12.1561C33.2257 12.8044 68.6244 15.5273 70.0512 15.5273C71.4766 15.5273 72.6438 14.7494 72.6438 14.7494Z" fill="#1E0C12"/>
<path d="M72.1599 14.7254C71.7306 14.943 70.938 15.2682 70.0521 15.2682C68.6752 15.2682 33.3698 12.5649 29.249 11.9002C25.648 11.3196 16.9096 8.92882 15.2785 8.47869C15.5312 7.86818 16.4932 6.20177 19.6764 5.40604C21.6708 4.90738 27.7515 4.18574 34.4725 3.84128C39.093 3.60466 47.5629 3.37537 52.3585 4.49947C59.7429 6.23035 70.1727 13.3378 72.1599 14.7254ZM70.0521 15.7869C71.5396 15.7869 72.7385 14.999 72.7888 14.9654L73.1003 14.7574L72.7959 14.5389C72.6768 14.453 60.7293 5.92882 52.4762 3.99434C47.6189 2.85574 39.0944 3.08533 34.4452 3.32339C27.6926 3.66928 21.5688 4.39809 19.5501 4.90293C15.2929 5.96744 14.7128 8.49506 14.6912 8.60203L14.641 8.84009L14.875 8.90527C14.977 8.93384 25.1785 11.7693 29.1672 12.4124C33.2952 13.0783 68.6723 15.7869 70.0521 15.7869Z" fill="#DEDEDE"/>
<path d="M40.3408 3.65341L43.7876 13.2931L38.5427 12.8508L36.9096 3.72604L40.3408 3.65341Z" fill="#AD0636"/>
<path d="M66.0886 14.4147L67.1689 16.6572H65.258L64.476 14.4903L66.0886 14.4147Z" fill="#090B0A"/>
<path d="M62.79 10.4706C62.79 10.4706 57.0852 6.45107 52.8066 5.41372C48.5279 4.37637 42.9518 4.89511 42.9518 4.89511L44.5081 10.2113L62.79 10.4706Z" fill="#5B5B5B"/>
<path d="M36.5972 9.56272C36.5972 9.56272 36.4686 5.41349 35.1718 5.02445C33.875 4.63554 25.7057 5.41349 25.7057 5.41349L26.7425 8.39573C26.7425 8.39573 35.1718 9.82208 36.5972 9.56272Z" fill="#5B5B5B"/>
<path d="M44.0347 31.9927L44.2864 31.9661C44.2773 31.8921 43.503 24.5399 43.1184 21.5903C42.7325 18.6338 41.4418 13.8419 41.4302 13.7939L38.6437 3.69023L38.3069 3.70055L41.1863 13.8606C41.1992 13.9075 42.486 18.6832 42.868 21.6227C43.2526 24.5695 44.0283 31.9187 44.0347 31.9927Z" fill="#510017"/>
<path d="M67.626 15.1207C67.626 15.1207 67.5884 12.8463 66.4214 12.3276C65.2544 11.809 63.439 11.9387 63.1792 12.587C62.9205 13.2352 63.0572 14.8301 63.0572 14.8301L67.626 15.1207Z" fill="#5B5B5B"/>
<path d="M87.1669 17.0838C87.9222 16.8683 95.1812 18.2084 97.6095 18.667C98.2682 19.6094 98.4485 20.3254 98.4485 20.3254C98.4485 20.3254 98.6458 20.6704 98.9478 21.5102C98.4266 21.7279 94.3362 23.404 93.003 22.9187C91.5761 22.4 86.2601 17.3432 87.1669 17.0838Z" fill="#F2F2F2"/>
<path d="M94.2664 22.9562L91.1447 19.0749L96.8498 19.5936L98.0859 21.852C97.0934 22.2301 95.4881 22.7882 94.2664 22.9562Z" fill="#FF9054"/>
</svg>
