<svg width="100" height="36" viewBox="0 0 100 36" fill="none" xmlns="http://www.w3.org/2000/svg">
<path d="M49.1069 1.07153C49.1069 1.07153 43.1117 0.447125 38.7971 0.281906L38.979 0.136476C38.979 0.136476 46.9286 0.633465 49.0518 0.956343L49.1069 1.07153Z" fill="#F0C000"/>
<path d="M49.4978 1.85376L38.0203 0.853105L38.797 0.282067C38.797 0.282067 42.2662 0.416596 49.2014 1.06791L49.4978 1.85376Z" fill="#C78500"/>
<path d="M17.8463 19.1177C17.2601 19.051 16.6593 19.0154 16.0466 19.0154C15.434 19.0154 14.8332 19.051 14.247 19.1177H17.8463ZM41.6547 12.558L75.727 13.0014C75.727 13.0014 61.2237 4.52968 51.9486 2.93975C48.3791 2.3278 44.2184 1.97734 39.9681 1.80812C40.699 4.14498 41.6036 7.94614 41.6547 12.558ZM0.0426252 20.3256C0.393744 15.7174 7.23776 4.19658 8.11522 2.50703C8.76854 1.24909 23.7675 -0.504721 38.9932 0.137921L38.0203 0.853054C42.829 0.853054 49.4978 1.85371 49.4978 1.85371L49.0496 0.95712C50.8114 1.1806 52.5318 1.44722 54.1842 1.76409C72.611 5.29729 77.9609 11.2627 82.8748 12.7989C86.6539 13.9801 94.3765 14.5264 97.9815 19.1177H98.2039L98.1377 19.3214C99.1323 20.6667 99.7818 22.3473 99.8975 24.4732C99.9817 26.6897 100.004 28.0446 99.9993 28.8725C98.5375 29.4744 96.6827 29.8496 95.0554 30.0811L94.6403 30.0744L89.1576 29.9888C89.375 29.255 89.4936 28.4789 89.4936 27.6746C89.4936 23.183 85.8525 19.5417 81.3609 19.5417C76.8693 19.5417 73.228 23.183 73.228 27.6746C73.228 28.3897 73.3212 29.0831 73.4947 29.7439L67.9461 29.6572L33.7767 29.1231L24.3489 28.9759C24.4172 28.5518 24.4539 28.1175 24.4539 27.6746C24.4539 23.183 20.8129 19.5417 16.3213 19.5417C11.8297 19.5417 8.18838 23.183 8.18838 27.6746C8.18838 28.0304 8.21397 28.3804 8.25822 28.7242L2.94785 28.6412L1.62209 28.6205C1.62209 28.6205 -0.308271 24.9339 0.0426252 20.3256Z" fill="#F0C000"/>
<mask id="mask0_1_278" style="mask-type:luminance" maskUnits="userSpaceOnUse" x="0" y="0" width="100" height="31">
<path d="M99.8975 24.4732C99.3709 14.7957 87.7884 14.335 82.8748 12.7989C77.9609 11.2628 72.611 5.29729 54.1842 1.7641C35.7578 -1.76888 8.99292 0.817258 8.11546 2.50703C7.23778 4.19658 0.393744 15.7174 0.0426252 20.3256C-0.308271 24.9339 1.62209 28.6205 1.62209 28.6205L5.00742 28.6735C4.84531 28.1345 4.75814 27.5759 4.75814 27.0028C4.75814 22.5915 9.81235 19.0154 16.0466 19.0154C22.2809 19.0154 27.3349 22.5915 27.3349 27.0028C27.3349 27.6984 27.2086 28.3733 26.9725 29.0168L72.399 29.7268C72.3174 29.3392 72.2741 28.9425 72.2741 28.5387C72.2741 24.1274 77.3281 20.5515 83.5626 20.5515C89.7969 20.5515 94.8508 24.1274 94.8508 28.5387C94.8508 29.0642 94.777 29.5774 94.6403 30.0744L95.0554 30.0811C96.6827 29.8496 98.5375 29.4744 99.9993 28.8725C100.004 28.0446 99.9817 26.6897 99.8975 24.4732Z" fill="white"/>
</mask>
<g mask="url(#mask0_1_278)">
<path d="M-2.72027 25.0352C-2.72027 25.0352 10.9567 10.5349 31.6956 22.2781C31.6956 22.2781 15.1056 8.77637 -5.43494 20.5805C-3.37448 25.4201 -2.72027 25.0352 -2.72027 25.0352Z" fill="#FFDF5E"/>
</g>
<path d="M40.2498 16.8406C40.2498 17.0209 40.0045 17.1672 39.7023 17.1672H34.8658C34.5634 17.1672 34.3181 17.0209 34.3181 16.8406V16.4868C34.3181 16.3067 34.5634 16.1604 34.8658 16.1604H39.7023C40.0045 16.1604 40.2498 16.3067 40.2498 16.4868V16.8406Z" fill="#EBA100"/>
<path d="M40.1433 16.4416C40.1433 16.5968 39.9323 16.7227 39.6719 16.7227H34.8961C34.6357 16.7227 34.4247 16.5968 34.4247 16.4416C34.4247 16.2862 34.6357 16.1603 34.8961 16.1603H39.6719C39.9323 16.1603 40.1433 16.2862 40.1433 16.4416Z" fill="#FFF8DE"/>
<mask id="mask1_1_278" style="mask-type:luminance" maskUnits="userSpaceOnUse" x="0" y="0" width="100" height="31">
<path d="M17.8463 19.1177C17.2601 19.051 16.6593 19.0154 16.0466 19.0154C15.434 19.0154 14.8332 19.051 14.247 19.1177H17.8463ZM99.9993 28.8725C98.5375 29.4744 96.6827 29.8496 95.0554 30.0811L94.6403 30.0744L89.1576 29.9888C89.375 29.255 89.4936 28.4789 89.4936 27.6746C89.4936 23.1828 85.8525 19.5417 81.3609 19.5417C76.8693 19.5417 73.228 23.1828 73.228 27.6746C73.228 28.3897 73.3212 29.0831 73.4947 29.7439L67.9461 29.6572L33.7765 29.1231L24.3489 28.9759C24.4172 28.5518 24.4539 28.1175 24.4539 27.6746C24.4539 23.1828 20.8129 19.5417 16.3213 19.5417C11.8297 19.5417 8.18838 23.1828 8.18838 27.6746C8.18838 28.0304 8.21397 28.3804 8.25822 28.7244L2.94785 28.6412L1.62209 28.6205C1.62209 28.6205 -0.308271 24.9339 0.0426252 20.3256C0.393744 15.7174 7.23778 4.19658 8.11546 2.50703C8.99292 0.817258 35.7578 -1.76888 54.1842 1.7641C72.611 5.29729 77.9609 11.2628 82.8748 12.7989C86.6539 13.9801 94.3765 14.5264 97.9813 19.1177H98.2039L98.1377 19.3214C99.1323 20.6667 99.7818 22.3473 99.8975 24.4732C99.9817 26.6897 100.004 28.0446 99.9993 28.8725Z" fill="white"/>
</mask>
<g mask="url(#mask1_1_278)">
<path d="M74.7729 33.6692H22.7838V26.3544L74.7729 27.1127V33.6692Z" fill="#EBA100"/>
<path d="M101.417 15.3481H3.11054e-05L0.347155 12.6828H101.413L101.417 15.3481Z" fill="#FFDF5E"/>
<path d="M6.2939 10.8159C7.91852 6.81216 4.75043 6.6963 4.18184 6.6963C4.18184 6.6963 3.58856 7.79791 2.86431 9.286C3.6277 9.80811 4.85096 10.5221 6.26321 10.8904C6.27344 10.8653 6.28367 10.841 6.2939 10.8159Z" fill="#960000"/>
<path d="M4.27846 6.85985C4.7799 6.87274 5.789 6.99593 6.28932 7.73908C6.72894 8.39173 6.68759 9.38616 6.1668 10.6959C4.90776 10.3446 3.81125 9.72416 3.07188 9.23028C3.64514 8.05818 4.13036 7.13803 4.27846 6.85985ZM6.44431 10.8769C7.03047 9.43197 7.06916 8.31524 6.55905 7.55763C5.93665 6.63347 4.68894 6.53363 4.18172 6.53363H4.08454L4.03852 6.61902C4.03274 6.63014 3.43567 7.74064 2.71809 9.21472L2.65672 9.3408L2.77235 9.41996C3.55664 9.95654 4.79211 10.6743 6.22216 11.0475L6.35936 11.0835L6.44431 10.8769Z" fill="#F1F1F1"/>
<path d="M0.824595 17.1672C2.40496 17.1067 3.61085 16.046 4.73047 14.1201C3.33 13.7238 2.13144 13.0018 1.40586 12.4957C0.395417 14.9346 -0.261449 17.2087 0.824595 17.1672Z" fill="#960000"/>
<path d="M4.48441 14.217C3.35856 16.0893 2.22226 16.9512 0.818229 17.005L0.795536 17.0054C0.632096 17.0052 0.565163 16.9329 0.528695 16.8787C0.35636 16.6207 0.256739 15.7399 1.47932 12.7433C2.20535 13.2332 3.26138 13.8398 4.48441 14.217ZM0.830455 17.3297C2.3808 17.2703 3.66454 16.2763 4.87066 14.2018L4.97583 14.0208L4.77459 13.9639C3.41103 13.5779 2.24048 12.8801 1.49866 12.3624L1.33278 12.2468L1.25562 12.4336C0.202936 14.9748 -0.123274 16.4878 0.258531 17.0593C0.377053 17.2365 0.562722 17.3301 0.795319 17.3303L0.830455 17.3297Z" fill="#F1F1F1"/>
<path d="M2.86428 9.28584C2.39131 10.2571 1.86252 11.393 1.40578 12.4957C2.13136 13.0018 3.32992 13.7239 4.73039 14.1201C5.25028 13.2258 5.75174 12.1448 6.26318 10.8902C4.85093 10.522 3.62767 9.80796 2.86428 9.28584Z" fill="#960000"/>
<path d="M2.92864 9.52524C3.68047 10.0238 4.77963 10.6402 6.0429 10.9989C5.55169 12.1905 5.09561 13.1516 4.6531 13.9286C3.40517 13.5557 2.32757 12.9292 1.60599 12.4367C1.97201 11.5615 2.41631 10.5835 2.92864 9.52524ZM4.87058 14.2019C5.36157 13.3573 5.86634 12.2942 6.41337 10.9519L6.4834 10.7801L6.30396 10.7331C4.91928 10.372 3.71893 9.67378 2.95577 9.15188L2.80054 9.04559L2.71805 9.21482C2.14434 10.3931 1.65203 11.4761 1.25554 12.4336L1.20551 12.5543L1.3127 12.629C2.07498 13.1607 3.27908 13.8783 4.686 14.2766L4.80741 14.311L4.87058 14.2019Z" fill="#F1F1F1"/>
<path d="M89.5572 15.0405C89.5572 15.0405 97.2827 15.7398 99.9998 21.3179C102.717 26.896 91.7776 19.9099 90.7487 19.2059C89.7198 18.5018 89.5572 15.0405 89.5572 15.0405Z" fill="#EDEDED"/>
</g>
<mask id="mask2_1_278" style="mask-type:luminance" maskUnits="userSpaceOnUse" x="0" y="0" width="100" height="31">
<path d="M99.8975 24.4732C99.3709 14.7957 87.7884 14.335 82.8748 12.7989C77.9609 11.2628 72.611 5.29729 54.1842 1.7641C35.7578 -1.76888 8.99292 0.817258 8.11546 2.50703C7.23778 4.19658 0.393744 15.7174 0.0426252 20.3256C-0.308271 24.9339 1.62209 28.6205 1.62209 28.6205L5.00742 28.6735C4.84531 28.1345 4.75814 27.5759 4.75814 27.0028C4.75814 22.5915 9.81235 19.0154 16.0466 19.0154C22.2809 19.0154 27.3349 22.5915 27.3349 27.0028C27.3349 27.6984 27.2086 28.3733 26.9725 29.0168L72.399 29.7268C72.3174 29.3392 72.2741 28.9425 72.2741 28.5387C72.2741 27.909 72.3804 27.297 72.5752 26.7091C73.0094 22.6604 77.7863 19.4701 83.6197 19.4701C89.7001 19.4701 94.6345 22.9362 94.697 27.2283C94.7966 27.6548 94.8508 28.0922 94.8508 28.5387C94.8508 29.0642 94.777 29.5774 94.6403 30.0744L95.0554 30.0811C96.6827 29.8496 98.5375 29.4744 99.9993 28.8725C100.004 28.0446 99.9817 26.6897 99.8975 24.4732Z" fill="white"/>
</mask>
<g mask="url(#mask2_1_278)">
<path d="M56.92 0.677513C56.92 0.677513 71.3241 10.8673 82.7489 12.7541C88.5967 13.7198 56.92 0.677513 56.92 0.677513Z" fill="#464B4C"/>
</g>
<path d="M24.1831 27.9138C24.1831 32.181 20.724 35.6401 16.4567 35.6401C12.1895 35.6401 8.73012 32.181 8.73012 27.9138C8.73012 23.6465 12.1895 20.1871 16.4567 20.1871C20.724 20.1871 24.1831 23.6465 24.1831 27.9138Z" fill="#191B1B"/>
<path d="M22.2119 27.9139C22.2119 31.0924 19.6351 33.6692 16.4566 33.6692C13.2781 33.6692 10.7013 31.0924 10.7013 27.9139C10.7013 24.7353 13.2781 22.1586 16.4566 22.1586C19.6351 22.1586 22.2119 24.7353 22.2119 27.9139Z" fill="#E5E5E5"/>
<path d="M21.2109 27.9137C21.2109 30.5395 19.0824 32.668 16.4567 32.668C13.8308 32.668 11.7023 30.5395 11.7023 27.9137C11.7023 25.288 13.8308 23.1593 16.4567 23.1593C19.0824 23.1593 21.2109 25.288 21.2109 27.9137Z" fill="black"/>
<path d="M21.1042 27.2876C21.0346 27.3098 20.9325 27.342 20.8024 27.3747C20.5425 27.4401 20.1709 27.5122 19.7253 27.5531C19.5025 27.5735 19.261 27.5873 19.0057 27.5935C18.7502 27.6015 18.4809 27.61 18.2023 27.6187C17.9239 27.6253 17.6359 27.6322 17.3435 27.6391C17.2663 27.6405 17.1883 27.6416 17.1107 27.6427C17.1663 27.5889 17.2228 27.5342 17.2779 27.4808C17.4896 27.2789 17.698 27.0801 17.8997 26.888C18.1029 26.697 18.2992 26.5126 18.4854 26.3376C18.6704 26.1615 18.8507 26.0005 19.023 25.8575C19.3671 25.5711 19.6806 25.3594 19.9105 25.2218C20.0257 25.1531 20.1209 25.1037 20.1858 25.0701C20.2514 25.0374 20.2881 25.0214 20.2881 25.0214L20.0493 24.7826L19.8185 24.5518L19.3488 24.0821C19.3488 24.0821 19.333 24.1188 19.3001 24.1846C19.2668 24.2496 19.2172 24.3445 19.1485 24.4597C19.0108 24.6899 18.7991 25.0034 18.5129 25.3474C18.37 25.5195 18.2087 25.6999 18.0326 25.8849C17.8576 26.0712 17.6733 26.2676 17.4825 26.4706C17.2901 26.6723 17.0916 26.8806 16.8897 27.0925C16.8361 27.1477 16.7814 27.2042 16.7276 27.2595C16.7287 27.1819 16.73 27.1039 16.7311 27.0269C16.7382 26.7343 16.7451 26.4466 16.7516 26.1679C16.7605 25.8893 16.7689 25.62 16.7767 25.3648C16.7829 25.1092 16.7967 24.868 16.8174 24.6449C16.8581 24.1993 16.9301 23.828 16.9955 23.5678C17.0284 23.4379 17.0607 23.3356 17.0829 23.266C17.106 23.1964 17.1209 23.1593 17.1209 23.1593H16.7829H16.1303H15.7925C15.7925 23.1593 15.8072 23.1964 15.8305 23.266C15.8528 23.3356 15.885 23.4379 15.9177 23.5678C15.9831 23.828 16.0551 24.1993 16.096 24.6449C16.1165 24.868 16.1303 25.1092 16.1365 25.3648C16.1445 25.62 16.153 25.8893 16.1616 26.1679C16.1683 26.4466 16.1752 26.7343 16.1821 27.0269C16.1834 27.1039 16.1845 27.1819 16.1856 27.2595C16.1318 27.2042 16.0771 27.1477 16.0238 27.0925C15.8218 26.8806 15.623 26.6723 15.4309 26.4706C15.2399 26.2676 15.0556 26.0712 14.8806 25.8849C14.7044 25.6999 14.5435 25.5195 14.4005 25.3474C14.1141 25.0034 13.9024 24.6899 13.7647 24.4597C13.696 24.3445 13.6466 24.2496 13.6131 24.1846C13.5804 24.1188 13.5644 24.0821 13.5644 24.0821L13.0947 24.5518L12.8641 24.7826L12.6251 25.0214C12.6251 25.0214 12.6618 25.0374 12.7276 25.0701C12.7925 25.1037 12.8875 25.1531 13.0027 25.2218C13.2328 25.3594 13.5464 25.5711 13.8904 25.8575C14.0625 26.0005 14.2428 26.1615 14.4278 26.3376C14.6142 26.5126 14.8105 26.697 15.0135 26.888C15.2152 27.0801 15.4236 27.2789 15.6355 27.4808C15.6907 27.5342 15.7471 27.5889 15.8025 27.6427C15.7249 27.6416 15.6468 27.6405 15.5699 27.6391C15.2773 27.6322 14.9895 27.6253 14.7109 27.6187C14.4323 27.61 14.163 27.6015 13.9077 27.5935C13.6522 27.5873 13.4109 27.5735 13.1879 27.5531C12.7423 27.5122 12.3709 27.4401 12.1108 27.3747C11.9809 27.342 11.8786 27.3098 11.809 27.2876C11.7394 27.2642 11.7023 27.2495 11.7023 27.2495V27.5873V28.24V28.578C11.7023 28.578 11.7394 28.5631 11.809 28.5399C11.8786 28.5177 11.9809 28.4855 12.1108 28.4525C12.3709 28.3872 12.7423 28.3151 13.1879 28.2744C13.4109 28.2537 13.6522 28.24 13.9077 28.2337C14.163 28.226 14.4323 28.2175 14.7109 28.2086C14.9895 28.2022 15.2773 28.1953 15.5699 28.1882C15.6468 28.187 15.7249 28.1857 15.8025 28.1846C15.7471 28.2384 15.6907 28.2931 15.6355 28.3467C15.4236 28.5486 15.2152 28.7472 15.0135 28.9395C14.8105 29.1303 14.6142 29.3147 14.4278 29.4897C14.2428 29.6658 14.0625 29.827 13.8904 29.97C13.5464 30.2562 13.2328 30.4679 13.0027 30.6055C12.8875 30.6742 12.7925 30.7238 12.7276 30.7572C12.6618 30.7901 12.6251 30.8059 12.6251 30.8059L12.8641 31.0449L13.0947 31.2755L13.5644 31.7451C13.5644 31.7451 13.5804 31.7085 13.6131 31.6429C13.6466 31.5779 13.696 31.4827 13.7647 31.3676C13.9024 31.1376 14.1141 30.8241 14.4005 30.4801C14.5435 30.3078 14.7044 30.1274 14.8806 29.9424C15.0556 29.7563 15.2399 29.5599 15.4309 29.3567C15.623 29.155 15.8218 28.9466 16.0238 28.735C16.0771 28.6798 16.1318 28.6233 16.1856 28.5677C16.1845 28.6453 16.1834 28.7234 16.1821 28.8006C16.1752 29.093 16.1683 29.3809 16.1616 29.6593C16.153 29.938 16.1445 30.2073 16.1365 30.4628C16.1303 30.718 16.1165 30.9595 16.096 31.1823C16.0551 31.628 15.9831 31.9995 15.9177 32.2595C15.885 32.3896 15.8528 32.4916 15.8305 32.5612C15.8072 32.6308 15.7925 32.668 15.7925 32.668H16.1303H16.7829H17.1209C17.1209 32.668 17.106 32.6308 17.0829 32.5612C17.0607 32.4916 17.0284 32.3896 16.9955 32.2595C16.9301 31.9995 16.8581 31.628 16.8174 31.1823C16.7967 30.9595 16.7829 30.718 16.7767 30.4628C16.7689 30.2073 16.7605 29.938 16.7516 29.6593C16.7451 29.3809 16.7382 29.093 16.7311 28.8006C16.73 28.7234 16.7287 28.6453 16.7276 28.5677C16.7814 28.6233 16.8361 28.6798 16.8897 28.735C17.0916 28.9466 17.2901 29.155 17.4825 29.3567C17.6733 29.5599 17.8576 29.7563 18.0326 29.9424C18.2087 30.1274 18.37 30.3078 18.5129 30.4801C18.7991 30.8241 19.0108 31.1376 19.1485 31.3676C19.2172 31.4827 19.2668 31.5779 19.3001 31.6429C19.333 31.7085 19.3488 31.7451 19.3488 31.7451L19.8185 31.2755L20.0493 31.0449L20.2881 30.8059C20.2881 30.8059 20.2514 30.7901 20.1858 30.7572C20.1209 30.7238 20.0257 30.6742 19.9105 30.6055C19.6806 30.4679 19.3671 30.2562 19.023 29.97C18.8507 29.827 18.6704 29.6658 18.4854 29.4897C18.2992 29.3147 18.1029 29.1303 17.8997 28.9395C17.698 28.7472 17.4896 28.5486 17.2779 28.3467C17.2228 28.2931 17.1663 28.2384 17.1107 28.1846C17.1883 28.1857 17.2663 28.187 17.3435 28.1882C17.6359 28.1953 17.9239 28.2022 18.2023 28.2086C18.4809 28.2175 18.7502 28.226 19.0057 28.2337C19.261 28.24 19.5025 28.2537 19.7253 28.2744C20.1709 28.3151 20.5425 28.3872 20.8024 28.4525C20.9325 28.4855 21.0346 28.5177 21.1042 28.5399C21.1738 28.5631 21.2109 28.578 21.2109 28.578V28.24V27.5873V27.2495C21.2109 27.2495 21.1738 27.2642 21.1042 27.2876Z" fill="#CBCBCB"/>
<path d="M89.0872 27.9138C89.0872 32.181 85.628 35.6401 81.3608 35.6401C77.0935 35.6401 73.6342 32.181 73.6342 27.9138C73.6342 23.6465 77.0935 20.1871 81.3608 20.1871C85.628 20.1871 89.0872 23.6465 89.0872 27.9138Z" fill="#191B1B"/>
<path d="M87.1162 27.9139C87.1162 31.0924 84.5394 33.6692 81.3609 33.6692C78.1824 33.6692 75.6056 31.0924 75.6056 27.9139C75.6056 24.7353 78.1824 22.1586 81.3609 22.1586C84.5394 22.1586 87.1162 24.7353 87.1162 27.9139Z" fill="#E5E5E5"/>
<path d="M86.115 27.9137C86.115 30.5395 83.9865 32.668 81.3608 32.668C78.735 32.668 76.6063 30.5395 76.6063 27.9137C76.6063 25.288 78.735 23.1593 81.3608 23.1593C83.9865 23.1593 86.115 25.288 86.115 27.9137Z" fill="black"/>
<path d="M86.0082 27.2876C85.9386 27.3098 85.8366 27.342 85.7065 27.3747C85.4466 27.4401 85.075 27.5122 84.6294 27.5531C84.4065 27.5735 84.165 27.5873 83.9098 27.5935C83.6543 27.6015 83.385 27.61 83.1066 27.6187C82.828 27.6253 82.54 27.6322 82.2476 27.6391C82.1704 27.6405 82.0924 27.6416 82.0148 27.6427C82.0703 27.5889 82.1268 27.5342 82.182 27.4808C82.3937 27.2789 82.602 27.0801 82.8037 26.888C83.007 26.697 83.2033 26.5126 83.3894 26.3376C83.5744 26.1615 83.7548 26.0005 83.9271 25.8575C84.2711 25.5711 84.5847 25.3594 84.8148 25.2218C84.93 25.1531 85.0249 25.1037 85.0899 25.0701C85.1555 25.0374 85.1922 25.0214 85.1922 25.0214L84.9533 24.7826L84.7225 24.5518L84.2529 24.0821C84.2529 24.0821 84.2371 24.1188 84.2044 24.1846C84.1708 24.2496 84.1212 24.3445 84.0525 24.4597C83.9151 24.6899 83.7032 25.0034 83.417 25.3474C83.274 25.5195 83.1128 25.6999 82.9367 25.8849C82.7619 26.0712 82.5773 26.2676 82.3865 26.4706C82.1942 26.6723 81.9956 26.8806 81.7937 27.0925C81.7401 27.1477 81.6854 27.2042 81.6316 27.2595C81.6329 27.1819 81.6341 27.1039 81.6352 27.0269C81.6423 26.7343 81.6492 26.4466 81.6558 26.1679C81.6645 25.8893 81.673 25.62 81.681 25.3648C81.6872 25.1092 81.7008 24.868 81.7214 24.6449C81.7621 24.1993 81.8342 23.828 81.8996 23.5678C81.9325 23.4379 81.9647 23.3356 81.987 23.266C82.0103 23.1964 82.025 23.1593 82.025 23.1593H81.687H81.0346H80.6965C80.6965 23.1593 80.7112 23.1964 80.7346 23.266C80.7568 23.3356 80.7891 23.4379 80.822 23.5678C80.8871 23.828 80.9594 24.1993 81.0001 24.6449C81.0208 24.868 81.0343 25.1092 81.0406 25.3648C81.0486 25.62 81.057 25.8893 81.0657 26.1679C81.0724 26.4466 81.0792 26.7343 81.0861 27.0269C81.0875 27.1039 81.0886 27.1819 81.0897 27.2595C81.0359 27.2042 80.9812 27.1477 80.9278 27.0925C80.7259 26.8806 80.5271 26.6723 80.335 26.4706C80.144 26.2676 79.9596 26.0712 79.7846 25.8849C79.6085 25.6999 79.4475 25.5195 79.3045 25.3474C79.0181 25.0034 78.8064 24.6899 78.6688 24.4597C78.6001 24.3445 78.5507 24.2496 78.5171 24.1846C78.4844 24.1188 78.4686 24.0821 78.4686 24.0821L77.9988 24.5518L77.7682 24.7826L77.5291 25.0214C77.5291 25.0214 77.5658 25.0374 77.6317 25.0701C77.6966 25.1037 77.7915 25.1531 77.9067 25.2218C78.1369 25.3594 78.4504 25.5711 78.7944 25.8575C78.9665 26.0005 79.1469 26.1615 79.3319 26.3376C79.5182 26.5126 79.7146 26.697 79.9176 26.888C80.1193 27.0801 80.3277 27.2789 80.5396 27.4808C80.5947 27.5342 80.6512 27.5889 80.7066 27.6427C80.629 27.6416 80.5509 27.6405 80.474 27.6391C80.1813 27.6322 79.8936 27.6253 79.615 27.6187C79.3363 27.61 79.067 27.6015 78.8118 27.5935C78.5563 27.5873 78.315 27.5735 78.0922 27.5531C77.6463 27.5122 77.275 27.4401 77.0148 27.3747C76.8849 27.342 76.7829 27.3098 76.7131 27.2876C76.6435 27.2642 76.6063 27.2495 76.6063 27.2495V27.5873V28.24V28.578C76.6063 28.578 76.6435 28.5631 76.7131 28.5399C76.7829 28.5177 76.8849 28.4855 77.0148 28.4525C77.275 28.3872 77.6463 28.3151 78.0922 28.2744C78.315 28.2537 78.5563 28.24 78.8118 28.2337C79.067 28.226 79.3363 28.2175 79.615 28.2086C79.8936 28.2022 80.1813 28.1953 80.474 28.1882C80.5509 28.187 80.629 28.1857 80.7066 28.1846C80.6512 28.2384 80.5947 28.2931 80.5396 28.3467C80.3277 28.5486 80.1193 28.7472 79.9176 28.9395C79.7146 29.1303 79.5182 29.3147 79.3319 29.4897C79.1469 29.6658 78.9665 29.827 78.7944 29.97C78.4504 30.2562 78.1369 30.4679 77.9067 30.6055C77.7915 30.6742 77.6966 30.7238 77.6317 30.7572C77.5658 30.7901 77.5291 30.8059 77.5291 30.8059L77.7682 31.0449L77.9988 31.2755L78.4686 31.7451C78.4686 31.7451 78.4844 31.7085 78.5171 31.6429C78.5507 31.5779 78.6001 31.4827 78.6688 31.3676C78.8064 31.1376 79.0181 30.8241 79.3045 30.4801C79.4475 30.3078 79.6085 30.1274 79.7846 29.9424C79.9596 29.7563 80.144 29.5599 80.335 29.3567C80.5271 29.155 80.7259 28.9466 80.9278 28.735C80.9812 28.6798 81.0359 28.6233 81.0897 28.5677C81.0886 28.6453 81.0875 28.7234 81.0861 28.8006C81.0792 29.093 81.0724 29.3809 81.0657 29.6593C81.057 29.938 81.0486 30.2073 81.0406 30.4628C81.0343 30.718 81.0208 30.9595 81.0001 31.1823C80.9594 31.628 80.8871 31.9995 80.822 32.2595C80.7891 32.3896 80.7568 32.4916 80.7346 32.5612C80.7112 32.6308 80.6965 32.668 80.6965 32.668H81.0346H81.687H82.025C82.025 32.668 82.0103 32.6308 81.987 32.5612C81.9647 32.4916 81.9325 32.3896 81.8996 32.2595C81.8342 31.9995 81.7621 31.628 81.7214 31.1823C81.7008 30.9595 81.6872 30.718 81.681 30.4628C81.673 30.2073 81.6645 29.938 81.6558 29.6593C81.6492 29.3809 81.6423 29.093 81.6352 28.8006C81.6341 28.7234 81.6329 28.6453 81.6316 28.5677C81.6854 28.6233 81.7401 28.6798 81.7937 28.735C81.9956 28.9466 82.1942 29.155 82.3865 29.3567C82.5773 29.5599 82.7619 29.7563 82.9367 29.9424C83.1128 30.1274 83.274 30.3078 83.417 30.4801C83.7032 30.8241 83.9151 31.1376 84.0525 31.3676C84.1212 31.4827 84.1708 31.5779 84.2044 31.6429C84.2371 31.7085 84.2529 31.7451 84.2529 31.7451L84.7225 31.2755L84.9533 31.0449L85.1922 30.8059C85.1922 30.8059 85.1555 30.7901 85.0899 30.7572C85.0249 30.7238 84.93 30.6742 84.8148 30.6055C84.5847 30.4679 84.2711 30.2562 83.9271 29.97C83.7548 29.827 83.5744 29.6658 83.3894 29.4897C83.2033 29.3147 83.007 29.1303 82.8037 28.9395C82.602 28.7472 82.3937 28.5486 82.182 28.3467C82.1268 28.2931 82.0703 28.2384 82.0148 28.1846C82.0924 28.1857 82.1704 28.187 82.2476 28.1882C82.54 28.1953 82.828 28.2022 83.1066 28.2086C83.385 28.2175 83.6543 28.226 83.9098 28.2337C84.165 28.24 84.4065 28.2537 84.6294 28.2744C85.075 28.3151 85.4466 28.3872 85.7065 28.4525C85.8366 28.4855 85.9386 28.5177 86.0082 28.5399C86.0778 28.5631 86.115 28.578 86.115 28.578V28.24V27.5873V27.2495C86.115 27.2495 86.0778 27.2642 86.0082 27.2876Z" fill="#CBCBCB"/>
<path d="M13.0014 2.93982C10.4366 3.77169 8.4871 12.1265 8.4871 12.1265L41.6548 12.5581C41.6036 7.9462 40.699 4.14504 39.9681 1.80796C27.8039 1.3232 14.902 2.32319 13.0014 2.93982Z" fill="#464B4C"/>
<path d="M13.0765 3.17154C14.6084 2.67477 23.4259 1.92317 33.225 1.92317C35.4949 1.92317 37.7015 1.96409 39.7862 2.04481C40.4984 4.36321 41.3296 7.9649 41.4072 12.3113L8.79524 11.8868C9.40564 9.41318 11.1606 3.79328 13.0765 3.17154ZM41.8985 12.5555C41.8469 7.93377 40.9467 4.12038 40.2007 1.73527L40.1493 1.57139L39.9776 1.56449C37.8358 1.4791 35.5639 1.43596 33.225 1.43596C23.3795 1.43596 14.4872 2.20157 12.9262 2.7079C10.2611 3.57247 8.33051 11.7245 8.24979 12.0711L8.18084 12.3662L41.6514 12.8021L41.9011 12.8052L41.8985 12.5555Z" fill="black"/>
<path d="M59.3768 5.16657C59.3768 5.16657 53.0502 2.44524 46.1337 2.23466L39.9681 1.80793C39.9681 1.80793 41.0604 5.69358 41.3239 7.53834C41.5874 9.38332 41.6548 12.5581 41.6548 12.5581L60.0357 12.8051L75.4202 12.9741C75.4202 12.9741 62.7699 5.82544 59.3768 5.16657Z" fill="#464B4C"/>
<path d="M40.3019 2.06554C44.7975 2.25522 48.7005 2.63013 51.9073 3.17982C59.7773 4.52915 71.5917 10.9507 74.7849 12.7454L41.8948 12.3176C41.8196 8.00943 41.0128 4.42152 40.3019 2.06554ZM75.8498 12.791C75.7044 12.7061 61.2016 4.27876 51.9898 2.69951C48.6807 2.13203 44.6392 1.75022 39.9775 1.56432L39.6319 1.55054L39.7351 1.88075C40.4718 4.23451 41.3602 7.99831 41.4109 12.5608L41.4136 12.7986L76.6477 13.2571L75.8498 12.791Z" fill="black"/>
</svg>
