<svg width="100" height="46" viewBox="0 0 100 46" fill="none" xmlns="http://www.w3.org/2000/svg">
<path d="M32.9883 35.6486H3.75264V22.112H32.9883V35.6486Z" fill="#B93F00"/>
<path d="M96.5967 35.8134L68.8075 35.6486V22.112L96.5967 22.2768V35.8134Z" fill="#B93F00"/>
<path d="M58.7329 15.6184C57.7071 13.9078 51.4989 3.56078 51.4989 3.56078C37.8077 3.0548 29.3112 5.24922 24.0737 7.91428L26.1634 15.6444C38.7544 15.4665 58.4954 15.2476 58.7329 15.6184ZM51.5258 1.69176C56.4999 2.96042 71.7832 19.4518 71.7832 19.4518L6.44927 18.6061C23.3918 -2.05272 46.5515 0.42309 51.5258 1.69176Z" fill="#FF9159"/>
<mask id="mask0_1_275" style="mask-type:luminance" maskUnits="userSpaceOnUse" x="6" y="0" width="66" height="20">
<path d="M71.7832 19.4518C71.7832 19.4518 56.4999 2.96042 51.5258 1.69176C46.5515 0.42309 23.3918 -2.05272 6.44927 18.6061L71.7832 19.4518Z" fill="white"/>
</mask>
<g mask="url(#mask0_1_275)">
<path d="M53.1715 3.26857L62.6397 16.7409C62.6397 16.7409 69.1661 18.0389 71.3634 16.1146C73.5608 14.19 54.6667 1.87785 53.1715 3.26857Z" fill="#B2DAEB"/>
<path d="M53.8687 3.62035C55.3846 3.90027 59.1516 5.90988 63.1666 8.6041C67.6849 11.6361 70.9108 14.457 71.1937 15.6234C71.2179 15.7232 71.2077 15.7321 71.1741 15.7617C70.4423 16.4026 69.0136 16.7413 67.0415 16.7413H67.0408C65.1392 16.7411 63.2837 16.4271 62.8079 16.3404L53.8687 3.62035ZM71.5526 16.4671C71.8392 16.2161 71.9415 15.8163 71.8333 15.3704C71.0667 12.2097 56.549 2.73167 53.5524 2.73167C53.3016 2.73167 53.1129 2.79417 52.9745 2.92289L52.6746 3.20183L62.4701 17.1401L62.588 17.1636C62.6097 17.1678 64.7923 17.5964 67.0408 17.5967C67.041 17.5967 67.0413 17.5967 67.0413 17.5967C69.1791 17.5967 70.6971 17.2167 71.5526 16.4671Z" fill="#963D0D"/>
</g>
<path d="M84.2945 17.1883H13.5276C4.85352 17.1883 0.0703873 22.1495 0.0703873 28.1546C0.0703873 34.0985 -1.21063 38.8364 7.17467 38.9323C6.70698 37.6878 6.4493 36.3406 6.4493 34.9326C6.4493 28.651 11.5415 23.5585 17.8233 23.5585C24.1049 23.5585 29.1971 28.651 29.1971 34.9326C29.1971 36.2148 28.9819 37.4459 28.5908 38.5957L73.7125 37.8728C73.4025 36.8377 73.2337 35.7414 73.2337 34.6057C73.2337 28.3239 78.3261 23.2317 84.6077 23.2317C90.8894 23.2317 95.9817 28.3239 95.9817 34.6057C95.9817 35.607 95.8511 36.578 95.608 37.5032C98.5335 37.1477 100 33.9275 100 28.0615C100 22.0564 92.9684 17.1883 84.2945 17.1883Z" fill="#FF7C38"/>
<mask id="mask1_1_275" style="mask-type:luminance" maskUnits="userSpaceOnUse" x="0" y="17" width="100" height="22">
<path d="M100 28.0615C100 34.0666 98.4641 37.3006 95.3984 37.5255L7.43507 38.9344C-1.23879 38.9344 0.0703873 34.1597 0.0703873 28.1546C0.0703873 22.1495 4.85377 17.1883 13.5276 17.1883H84.2946C92.9684 17.1883 100 22.0564 100 28.0615Z" fill="white"/>
</mask>
<g mask="url(#mask1_1_275)">
<path d="M103.957 20.6718H4.43048V17.1882H103.957V20.6718Z" fill="#FF9B69"/>
<path d="M8.36206 17.8719C8.36206 17.8719 7.85361 21.4493 5.34271 23.8762C2.83206 26.3034 -0.850407 28.2979 -2.02198 28.6396C-3.19355 28.9813 2.84466 13.7921 8.36206 17.8719Z" fill="#FF0000"/>
<path d="M88.7815 16.3443C88.7815 16.3443 95.923 29.6229 102.73 27.0564C109.537 24.4899 89.9706 15.2592 88.7815 16.3443Z" fill="#E0E7FF"/>
</g>
<path d="M28.094 34.9326C28.094 40.6049 23.4957 45.2032 17.8234 45.2032C12.1508 45.2032 7.55248 40.6049 7.55248 34.9326C7.55248 29.2602 12.1508 24.6619 17.8234 24.6619C23.4957 24.6619 28.094 29.2602 28.094 34.9326Z" fill="#323430"/>
<path d="M25.4739 34.9325C25.4739 39.1578 22.0486 42.5831 17.8233 42.5831C13.5981 42.5831 10.1728 39.1578 10.1728 34.9325C10.1728 30.7073 13.5981 27.282 17.8233 27.282C22.0486 27.282 25.4739 30.7073 25.4739 34.9325Z" fill="#E5E5E5"/>
<path d="M24.1431 34.9325C24.1431 38.423 21.3135 41.2524 17.8232 41.2524C14.3327 41.2524 11.5031 38.423 11.5031 34.9325C11.5031 31.442 14.3327 28.6127 17.8232 28.6127C21.3135 28.6127 24.1431 31.442 24.1431 34.9325Z" fill="black"/>
<path d="M24.0013 34.1002C23.9086 34.1298 23.7727 34.1726 23.6 34.2163C23.2544 34.303 22.7605 34.3989 22.1681 34.453C21.8718 34.4804 21.5509 34.4987 21.2114 34.5068C20.872 34.5174 20.514 34.5288 20.1439 34.5404C19.7735 34.5491 19.3908 34.5582 19.0019 34.5676C18.8994 34.5691 18.7959 34.5708 18.6926 34.5723C18.7662 34.5009 18.8414 34.428 18.9147 34.3571C19.1961 34.0885 19.4733 33.8244 19.7414 33.569C20.0114 33.3152 20.2723 33.0702 20.5199 32.8374C20.766 32.6035 21.0056 32.3893 21.2346 32.1993C21.6917 31.8185 22.1088 31.5371 22.4144 31.3543C22.5675 31.2629 22.6938 31.1972 22.7803 31.1525C22.8675 31.109 22.9164 31.088 22.9164 31.088L22.5987 30.7703L22.2921 30.4637L21.6677 29.8393C21.6677 29.8393 21.6467 29.888 21.603 29.9755C21.5585 30.0617 21.4928 30.1882 21.4014 30.3411C21.2186 30.647 20.9372 31.0638 20.5565 31.5211C20.3665 31.7501 20.1523 31.9898 19.9181 32.2356C19.6856 32.4831 19.4405 32.7443 19.1867 33.0143C18.931 33.2824 18.6669 33.5593 18.3986 33.841C18.3275 33.9141 18.2548 33.9892 18.1832 34.0631C18.1849 33.9598 18.1864 33.8561 18.1881 33.7538C18.1973 33.3649 18.2064 32.9822 18.2153 32.6119C18.2269 32.2415 18.238 31.8838 18.2486 31.5443C18.257 31.2048 18.2751 30.8839 18.3025 30.5877C18.3569 29.995 18.4525 29.5013 18.5394 29.1557C18.5832 28.983 18.6259 28.8471 18.6556 28.7545C18.6864 28.6618 18.706 28.6127 18.706 28.6127H18.2568H17.3894H16.9402C16.9402 28.6127 16.9597 28.6618 16.9909 28.7545C17.0203 28.8471 17.0632 28.983 17.1067 29.1557C17.1937 29.5013 17.2896 29.995 17.3437 30.5877C17.3711 30.8839 17.3894 31.2048 17.3975 31.5443C17.4081 31.8838 17.4193 32.2415 17.4309 32.6119C17.4398 32.9822 17.4489 33.3649 17.4583 33.7538C17.4598 33.8561 17.4615 33.9598 17.463 34.0631C17.3913 33.9892 17.3187 33.9141 17.2476 33.841C16.9792 33.5593 16.7151 33.2824 16.4594 33.0143C16.2059 32.7443 15.9606 32.4831 15.7281 32.2356C15.4939 31.9898 15.2799 31.7501 15.0897 31.5211C14.7092 31.0638 14.4278 30.647 14.2448 30.3411C14.1536 30.1882 14.0879 30.0617 14.0432 29.9755C13.9997 29.888 13.9787 29.8393 13.9787 29.8393L13.3541 30.4637L13.0475 30.7703L12.73 31.088C12.73 31.088 12.7787 31.109 12.8661 31.1525C12.9524 31.1972 13.0786 31.2629 13.2318 31.3543C13.5377 31.5371 13.9545 31.8185 14.4118 32.1993C14.6406 32.3893 14.8804 32.6035 15.1263 32.8374C15.3738 33.0702 15.635 33.3152 15.9048 33.569C16.1731 33.8244 16.45 34.0885 16.7314 34.3571C16.8048 34.428 16.8799 34.5009 16.9535 34.5723C16.8505 34.5708 16.7468 34.5691 16.6442 34.5676C16.2553 34.5582 15.8729 34.5491 15.5026 34.5404C15.1322 34.5288 14.7742 34.5174 14.4347 34.5068C14.0953 34.4987 13.7744 34.4804 13.4781 34.453C12.8857 34.3989 12.3918 34.303 12.0464 34.2163C11.8735 34.1726 11.7376 34.1298 11.6452 34.1002C11.5525 34.0693 11.5031 34.0495 11.5031 34.0495V34.4989V35.3664V35.8155C11.5031 35.8155 11.5525 35.7957 11.6452 35.7649C11.7376 35.7355 11.8735 35.6925 12.0464 35.6488C12.3918 35.562 12.8857 35.4662 13.4781 35.4121C13.7744 35.3846 14.0953 35.3664 14.4347 35.3582C14.7742 35.3476 15.1322 35.3362 15.5026 35.3246C15.8729 35.316 16.2553 35.3068 16.6442 35.2974C16.7468 35.2959 16.8505 35.2942 16.9535 35.2927C16.8799 35.3641 16.8048 35.437 16.7314 35.5079C16.45 35.7765 16.1731 36.0406 15.9048 36.2961C15.635 36.5498 15.3738 36.7951 15.1263 37.0276C14.8804 37.2618 14.6406 37.4758 14.4118 37.6658C13.9545 38.0465 13.5377 38.3279 13.2318 38.511C13.0786 38.6021 12.9524 38.6679 12.8661 38.7126C12.7787 38.7561 12.73 38.7771 12.73 38.7771L13.0475 39.0948L13.3541 39.4014L13.9787 40.0257C13.9787 40.0257 13.9997 39.977 14.0432 39.8896C14.0879 39.8034 14.1536 39.6771 14.2448 39.5239C14.4278 39.2181 14.7092 38.8013 15.0897 38.344C15.2799 38.1149 15.4939 37.8753 15.7281 37.6295C15.9606 37.3819 16.2059 37.1208 16.4594 36.8507C16.7151 36.5826 16.9792 36.3057 17.2476 36.024C17.3187 35.9509 17.3913 35.8758 17.463 35.8019C17.4615 35.9052 17.4598 36.009 17.4583 36.1112C17.4489 36.5001 17.4398 36.8828 17.4309 37.2532C17.4193 37.6235 17.4081 37.9815 17.3975 38.321C17.3894 38.6602 17.3711 38.9814 17.3437 39.2776C17.2896 39.8701 17.1937 40.3637 17.1067 40.7093C17.0632 40.8823 17.0203 41.0179 16.9909 41.1106C16.9597 41.2032 16.9402 41.2524 16.9402 41.2524H17.3894H18.2568H18.706C18.706 41.2524 18.6864 41.2032 18.6556 41.1106C18.6259 41.0179 18.5832 40.8823 18.5394 40.7093C18.4525 40.3637 18.3569 39.8701 18.3025 39.2776C18.2751 38.9814 18.257 38.6602 18.2486 38.321C18.238 37.9815 18.2269 37.6235 18.2153 37.2532C18.2064 36.8828 18.1973 36.5001 18.1881 36.1112C18.1864 36.009 18.1849 35.9052 18.1832 35.8019C18.2548 35.8758 18.3275 35.9509 18.3986 36.024C18.6669 36.3057 18.931 36.5826 19.1867 36.8507C19.4405 37.1208 19.6856 37.3819 19.9181 37.6295C20.1523 37.8753 20.3665 38.1149 20.5565 38.344C20.9372 38.8013 21.2186 39.2181 21.4014 39.5239C21.4928 39.6771 21.5585 39.8034 21.603 39.8896C21.6467 39.977 21.6677 40.0257 21.6677 40.0257L22.2921 39.4014L22.5987 39.0948L22.9164 38.7771C22.9164 38.7771 22.8675 38.7561 22.7803 38.7126C22.6938 38.6679 22.5675 38.6021 22.4144 38.511C22.1088 38.3279 21.6917 38.0465 21.2346 37.6658C21.0056 37.4758 20.766 37.2618 20.5199 37.0276C20.2723 36.7951 20.0114 36.5498 19.7414 36.2961C19.4733 36.0406 19.1961 35.7765 18.9147 35.5079C18.8414 35.437 18.7662 35.3641 18.6926 35.2927C18.7959 35.2942 18.8994 35.2959 19.0019 35.2974C19.3908 35.3068 19.7735 35.316 20.1439 35.3246C20.514 35.3362 20.872 35.3476 21.2114 35.3582C21.5509 35.3664 21.8718 35.3846 22.1681 35.4121C22.7605 35.4662 23.2544 35.562 23.6 35.6488C23.7727 35.6925 23.9086 35.7355 24.0013 35.7649C24.0937 35.7957 24.1431 35.8155 24.1431 35.8155V35.3664V34.4989V34.0495C24.1431 34.0495 24.0937 34.0693 24.0013 34.1002Z" fill="#CBCBCB"/>
<path d="M94.8784 34.6057C94.8784 40.278 90.2801 44.8763 84.6077 44.8763C78.9354 44.8763 74.3371 40.278 74.3371 34.6057C74.3371 28.9332 78.9354 24.3348 84.6077 24.3348C90.2801 24.3348 94.8784 28.9332 94.8784 34.6057Z" fill="#323430"/>
<path d="M92.2583 34.6057C92.2583 38.8309 88.833 42.2562 84.6078 42.2562C80.3825 42.2562 76.9573 38.8309 76.9573 34.6057C76.9573 30.3804 80.3825 26.9552 84.6078 26.9552C88.833 26.9552 92.2583 30.3804 92.2583 34.6057Z" fill="#E5E5E5"/>
<path d="M90.9277 34.6057C90.9277 38.0959 88.0982 40.9255 84.6078 40.9255C81.1173 40.9255 78.2878 38.0959 78.2878 34.6057C78.2878 31.1152 81.1173 28.2856 84.6078 28.2856C88.0982 28.2856 90.9277 31.1152 90.9277 34.6057Z" fill="black"/>
<path d="M90.7858 33.7733C90.6932 33.8027 90.5574 33.8455 90.3847 33.8892C90.039 33.9762 89.5452 34.072 88.9528 34.1261C88.6565 34.1536 88.3356 34.1718 87.9961 34.18C87.6567 34.1906 87.2987 34.2017 86.9284 34.2133C86.5581 34.2222 86.1755 34.2314 85.7866 34.2408C85.6842 34.2422 85.5805 34.244 85.4772 34.2455C85.551 34.1738 85.6261 34.1012 85.6994 34.03C85.9809 33.7617 86.258 33.4976 86.5261 33.2419C86.7961 32.9884 87.0571 32.7431 87.3046 32.5106C87.5505 32.2764 87.7903 32.0624 88.0192 31.8722C88.4764 31.4917 88.8933 31.2103 89.1992 31.0272C89.3522 30.9361 89.4786 30.8703 89.5648 30.8256C89.6523 30.7821 89.701 30.7611 89.701 30.7611L89.3834 30.4434L89.0767 30.1368L88.4524 29.5125C88.4524 29.5125 88.4312 29.5612 88.3877 29.6486C88.3431 29.7348 88.2774 29.8611 88.1861 30.0143C88.0031 30.3201 87.7218 30.7369 87.3411 31.1942C87.1511 31.423 86.9369 31.6629 86.7028 31.9087C86.4703 32.1563 86.2251 32.4174 85.9714 32.6872C85.7158 32.9555 85.4517 33.2325 85.1833 33.5139C85.1122 33.5873 85.0394 33.6624 84.9679 33.7363C84.9695 33.633 84.9711 33.5292 84.9727 33.4267C84.982 33.0381 84.9911 32.6554 85 32.285C85.0116 31.9147 85.0227 31.5567 85.0334 31.2172C85.0417 30.8777 85.0598 30.5568 85.0872 30.2606C85.1415 29.6681 85.2372 29.1745 85.3242 28.8289C85.3678 28.6559 85.4106 28.52 85.4402 28.4276C85.4711 28.335 85.4907 28.2856 85.4907 28.2856H85.0415H84.1741H83.7248C83.7248 28.2856 83.7444 28.335 83.7754 28.4276C83.8049 28.52 83.8478 28.6559 83.8915 28.8289C83.9783 29.1745 84.0742 29.6681 84.1283 30.2606C84.1557 30.5568 84.174 30.8777 84.1822 31.2172C84.1929 31.5567 84.2041 31.9147 84.2156 32.285C84.2244 32.6554 84.2336 33.0381 84.2429 33.4267C84.2444 33.5292 84.2461 33.633 84.2477 33.7363C84.1761 33.6624 84.1033 33.5873 84.0323 33.5139C83.7639 33.2325 83.4999 32.9555 83.2442 32.6872C82.9906 32.4174 82.7453 32.1563 82.5129 31.9087C82.2786 31.6629 82.0646 31.423 81.8745 31.1942C81.4938 30.7369 81.2124 30.3201 81.0294 30.0143C80.9381 29.8611 80.8724 29.7348 80.8278 29.6486C80.7843 29.5612 80.7632 29.5125 80.7632 29.5125L80.1389 30.1368L79.8322 30.4434L79.5145 30.7611C79.5145 30.7611 79.5634 30.7821 79.6507 30.8256C79.7371 30.8703 79.8633 30.9361 80.0165 31.0272C80.3223 31.2103 80.7391 31.4917 81.1964 31.8722C81.4253 32.0624 81.665 32.2764 81.9109 32.5106C82.1585 32.7431 82.4195 32.9884 82.6896 33.2419C82.9577 33.4976 83.2347 33.7617 83.5162 34.03C83.5895 34.1012 83.6646 34.1738 83.7383 34.2455C83.6351 34.244 83.5314 34.2422 83.429 34.2408C83.0402 34.2314 82.6575 34.2222 82.2872 34.2133C81.9169 34.2017 81.5589 34.1906 81.2194 34.18C80.88 34.1718 80.559 34.1536 80.2628 34.1261C79.6703 34.072 79.1766 33.9762 78.8309 33.8892C78.6581 33.8455 78.5223 33.8027 78.4298 33.7733C78.3372 33.7422 78.2878 33.7227 78.2878 33.7227V34.1718V35.0393V35.4884C78.2878 35.4884 78.3372 35.4689 78.4298 35.438C78.5223 35.4084 78.6581 35.3656 78.8309 35.3219C79.1766 35.2349 79.6703 35.1393 80.2628 35.085C80.559 35.0576 80.88 35.0395 81.2194 35.0311C81.5589 35.0205 81.9169 35.0094 82.2872 34.9978C82.6575 34.9889 83.0402 34.9797 83.429 34.9706C83.5314 34.9689 83.6351 34.9674 83.7383 34.9657C83.6646 35.0373 83.5895 35.1102 83.5162 35.1811C83.2347 35.4494 82.9577 35.7135 82.6896 35.9692C82.4195 36.2229 82.1585 36.468 81.9109 36.7005C81.665 36.9347 81.4253 37.1489 81.1964 37.3389C80.7391 37.7197 80.3223 38.0011 80.0165 38.1839C79.8633 38.2753 79.7371 38.341 79.6507 38.3855C79.5634 38.429 79.5145 38.4502 79.5145 38.4502L79.8322 38.7677L80.1389 39.0745L80.7632 39.6989C80.7632 39.6989 80.7843 39.6499 80.8278 39.5627C80.8724 39.4763 80.9381 39.35 81.0294 39.1968C81.2124 38.8912 81.4938 38.4742 81.8745 38.0169C82.0646 37.7881 82.2786 37.5484 82.5129 37.3024C82.7453 37.0548 82.9906 36.7939 83.2442 36.5239C83.4999 36.2558 83.7639 35.9786 84.0323 35.6972C84.1033 35.6238 84.1761 35.5487 84.2477 35.4751C84.2461 35.5781 84.2444 35.6819 84.2429 35.7844C84.2336 36.1733 84.2244 36.556 84.2156 36.9263C84.2041 37.2964 84.1929 37.6544 84.1822 37.9939C84.174 38.3334 84.1557 38.6543 84.1283 38.9505C84.0742 39.543 83.9783 40.0369 83.8915 40.3825C83.8478 40.5552 83.8049 40.6911 83.7754 40.7837C83.7444 40.8761 83.7248 40.9255 83.7248 40.9255H84.1741H85.0415H85.4907C85.4907 40.9255 85.4711 40.8761 85.4402 40.7837C85.4106 40.6911 85.3678 40.5552 85.3242 40.3825C85.2372 40.0369 85.1415 39.543 85.0872 38.9505C85.0598 38.6543 85.0417 38.3334 85.0334 37.9939C85.0227 37.6544 85.0116 37.2964 85 36.9263C84.9911 36.556 84.982 36.1733 84.9727 35.7844C84.9711 35.6819 84.9695 35.5781 84.9679 35.4751C85.0394 35.5487 85.1122 35.6238 85.1833 35.6972C85.4517 35.9786 85.7158 36.2558 85.9714 36.5239C86.2251 36.7939 86.4703 37.0548 86.7028 37.3024C86.9369 37.5484 87.1511 37.7881 87.3411 38.0169C87.7218 38.4742 88.0031 38.8912 88.1861 39.1968C88.2774 39.35 88.3431 39.4763 88.3877 39.5627C88.4312 39.6499 88.4524 39.6989 88.4524 39.6989L89.0767 39.0745L89.3834 38.7677L89.701 38.4502C89.701 38.4502 89.6523 38.429 89.5648 38.3855C89.4786 38.341 89.3522 38.2753 89.1992 38.1839C88.8933 38.0011 88.4764 37.7197 88.0192 37.3389C87.7903 37.1489 87.5505 36.9347 87.3046 36.7005C87.0571 36.468 86.7961 36.2229 86.5261 35.9692C86.258 35.7135 85.9809 35.4494 85.6994 35.1811C85.6261 35.1102 85.551 35.0373 85.4772 34.9657C85.5805 34.9674 85.6842 34.9689 85.7866 34.9706C86.1755 34.9797 86.5581 34.9889 86.9284 34.9978C87.2987 35.0094 87.6567 35.0205 87.9961 35.0311C88.3356 35.0395 88.6565 35.0576 88.9528 35.085C89.5452 35.1393 90.039 35.2349 90.3847 35.3219C90.5574 35.3656 90.6932 35.4084 90.7858 35.438C90.8784 35.4689 90.9277 35.4884 90.9277 35.4884V35.0393V34.1718V33.7227C90.9277 33.7227 90.8784 33.7422 90.7858 33.7733Z" fill="#CBCBCB"/>
<path d="M15.9154 15.8025C15.9154 15.8025 20.2514 15.7279 26.1633 15.6444L24.0737 7.91428C17.1347 11.4451 15.9154 15.8025 15.9154 15.8025Z" fill="#B2DAEB"/>
<path d="M25.6955 15.2234C21.2787 15.2864 17.7779 15.3435 16.4679 15.3655C17.0569 14.1181 18.9119 11.0913 23.8724 8.47983L25.6955 15.2234ZM15.9202 16.2302C15.9634 16.2294 20.3233 16.1548 26.1671 16.0721L26.6313 16.0656L24.2754 7.35126L23.9497 7.51704C16.9507 11.0784 15.6524 15.4732 15.6003 15.6585L15.4382 16.2383L15.9202 16.2302Z" fill="#963D0D"/>
<path d="M58.5811 15.3655L51.2818 3.48769C51.2818 3.48769 41.2126 3.05336 32.9881 4.87199C24.7639 6.69037 24.143 8.1715 24.143 8.1715L26.1632 15.6444L58.5811 15.3655Z" fill="#B2DAEB"/>
<path d="M47.6366 3.91533C48.8341 3.91533 50.0761 3.93807 51.3305 3.98254C52.0336 5.1546 56.37 12.3822 57.9955 15.0922C57.0171 15.0243 55.0097 14.9884 50.7971 14.9884C43.8741 14.9884 33.7584 15.11 26.4011 15.2135L24.4948 8.16234C30.2019 5.34385 37.9849 3.91533 47.6366 3.91533ZM26.1671 16.0721C33.5417 15.968 43.801 15.8438 50.7971 15.8438C57.1587 15.8438 58.2902 15.8924 58.4735 15.889C58.4706 15.8882 58.5348 15.9846 58.4735 15.889L58.9985 15.3583C57.973 13.6476 51.7648 3.30065 51.7648 3.30065L51.6679 3.13907L51.5088 3.13338C50.194 3.08471 48.8912 3.06 47.6366 3.06C37.7314 3.06 29.7617 4.55943 23.9498 7.51702L23.653 7.66797L25.9258 16.0755L26.1671 16.0721Z" fill="#963D0D"/>
<path d="M66.4239 34.6892H34.8449L34.8197 34.6578C27.5254 25.4901 25.9736 16.1605 25.9608 16.075L26.1307 16.0755C26.1436 16.1605 27.683 25.4034 34.9257 34.5219H66.2786C66.357 33.7763 66.3157 26.565 58.2126 15.8855L58.4734 15.889C67.0949 27.2516 66.4462 34.5516 66.4353 34.6188L66.4239 34.6892Z" fill="#CC4B08"/>
<path d="M31.3346 23.395C31.3346 23.626 31.5569 23.8135 31.8314 23.8135H36.2185C36.4927 23.8135 36.7151 23.626 36.7151 23.395V22.9414C36.7151 22.7101 36.4927 22.5228 36.2185 22.5228H31.8314C31.5569 22.5228 31.3346 22.7101 31.3346 22.9414V23.395Z" fill="#C24200"/>
<path d="M31.4313 22.8833C31.4313 23.0824 31.6228 23.2438 31.859 23.2438H36.191C36.4272 23.2438 36.6187 23.0824 36.6187 22.8833C36.6187 22.6842 36.4272 22.5228 36.191 22.5228H31.859C31.6228 22.5228 31.4313 22.6842 31.4313 22.8833Z" fill="#FFDDCC"/>
</svg>
