<svg width="100" height="54" viewBox="0 0 100 54" fill="none" xmlns="http://www.w3.org/2000/svg">
<path d="M45.5043 19.0874C45.4945 21.736 49.6251 22.0093 51.7246 22.0168L62.2961 22.0553C64.3956 22.0628 68.4304 20.1411 68.4399 17.4925C68.4399 17.4925 66.6658 11.887 64.5663 11.8795L51.7593 12.4257C49.6598 12.4182 45.5043 19.0874 45.5043 19.0874Z" fill="#275D72"/>
<path d="M16.9695 25.7641C22.6904 25.785 27.328 30.4563 27.3071 36.1773C27.2863 41.8983 22.6149 46.5355 16.8942 46.5149C11.1733 46.4941 6.53579 41.8227 6.55664 36.102C6.57748 30.3811 11.2488 25.7436 16.9695 25.7641ZM16.8829 49.6203C24.3161 49.6475 30.3858 43.622 30.4128 36.1889C30.4397 28.7555 24.4142 22.6857 16.9808 22.6588C9.54765 22.6316 3.47819 28.6573 3.45098 36.0907C3.42406 43.5242 9.44953 49.5933 16.8829 49.6203Z" fill="#71EEFF"/>
<path d="M12.6216 36.1238C12.6132 38.5043 14.5358 40.4411 16.9164 40.4498C19.2969 40.4585 21.2337 38.5359 21.2424 36.1553C21.2511 33.7748 19.3282 31.838 16.9476 31.8293C14.5671 31.8206 12.6303 33.7432 12.6216 36.1238Z" fill="#3D899B"/>
<path d="M16.9729 24.8906C23.2141 24.9135 28.273 30.0092 28.2501 36.25C28.2276 42.4909 23.1315 47.5498 16.8907 47.5272C10.6499 47.5044 5.59092 42.4087 5.6135 36.1678C5.63637 29.9267 10.7321 24.868 16.9729 24.8906ZM16.8705 53.1405C26.2065 53.1744 33.8295 45.6066 33.8634 36.2703C33.8976 26.9342 26.3296 19.3112 16.9935 19.2773C7.65713 19.2432 0.0340917 26.8112 0.000224482 36.1473C-0.0336427 45.4836 7.53411 53.1066 16.8705 53.1405Z" fill="#281F33"/>
<path d="M17.0212 35.172L31.9558 27.0343C32.2166 27.6679 32.6363 28.228 33.2141 28.6318L17.9802 36.9325C17.8355 37.0115 17.6798 37.0509 17.5255 37.0546C17.1619 37.0633 16.8064 36.8732 16.6203 36.5319C16.3558 36.0459 16.5349 35.4371 17.0212 35.172Z" fill="#645B6D"/>
<path d="M83.1063 26.0047C88.8269 26.0256 93.4644 30.6969 93.4436 36.4179C93.4227 42.1386 88.7514 46.7761 83.0307 46.7552C77.3097 46.7344 72.6723 42.063 72.6931 36.3426C72.7139 30.6214 77.3853 25.9839 83.1063 26.0047ZM83.0194 49.8609C90.4526 49.8878 96.5223 43.8623 96.5492 36.4292C96.5761 28.9961 90.5507 22.9263 83.1173 22.8991C75.6841 22.8722 69.6147 28.8979 69.5874 36.3314C69.5605 43.7645 75.586 49.8337 83.0194 49.8609Z" fill="#71EEFF"/>
<path d="M39.8198 35.922L45.0061 21.6172L34.7125 28.4827L39.8198 35.922ZM43.4222 19.0798L58.9945 19.1365L65.0439 19.1585L60.2449 34.5924C60.2449 34.5924 59.1123 37.5916 56.8898 39.7886C54.6673 41.9859 49.8075 41.4721 49.8075 41.4721L39.3662 41.4666L31.3099 28.2431L43.4222 19.0798Z" fill="#403354"/>
<path d="M78.1631 36.4314C78.1545 38.8119 80.0774 40.7487 82.4576 40.7574C84.8382 40.7658 86.775 38.8432 86.7837 36.4626C86.7923 34.0821 84.8697 32.1453 82.4889 32.1366C80.1086 32.1279 78.1718 34.0508 78.1631 36.4314Z" fill="#3D899B"/>
<path d="M83.1091 25.1311C89.3502 25.1537 94.4092 30.2494 94.3863 36.4905C94.3638 42.7313 89.2677 47.79 83.0269 47.7674C76.7861 47.7448 71.7271 42.6488 71.75 36.408C71.7726 30.1672 76.8683 25.1082 83.1091 25.1311ZM83.0067 53.381C92.3427 53.4149 99.9657 45.8468 99.9999 36.5108C100.034 27.1747 92.4657 19.5517 83.1297 19.5175C73.7936 19.4837 66.1703 27.0514 66.1364 36.3877C66.1026 45.7238 73.6703 53.3471 83.0067 53.381Z" fill="#281F33"/>
<path d="M82.0075 37.849C82.2689 37.8499 82.534 37.7778 82.7705 37.6255C83.4224 37.2064 83.6108 36.338 83.1914 35.6861L65.0371 7.46604C64.6177 6.81474 63.7496 6.62515 63.0974 7.04516C62.4456 7.4643 62.2571 8.33269 62.6765 8.98457L80.8308 37.2046C81.098 37.62 81.5478 37.8473 82.0075 37.849Z" fill="#7F7789"/>
<path d="M39.1597 38.1706L53.6589 38.2233C52.4131 35.1448 53.8367 25.407 58.5419 20.7718C61.8684 17.4948 66.9925 16.5552 79.3274 17.1156C79.3274 17.1156 69.558 20.6187 66.1832 30.2509C64.1714 35.9932 65.1275 39.7904 65.1275 39.7904L65.1095 39.7907C65.1171 39.8556 65.1292 39.9189 65.1289 39.9858C65.1255 40.9361 64.3329 41.7038 63.3586 41.7003L39.1473 41.6123C38.1729 41.6088 37.3859 40.8354 37.3894 39.8848C37.3928 38.9345 38.1854 38.1671 39.1597 38.1706Z" fill="#366C87"/>
<path d="M28.2582 22.9989L30.4552 25.3364L31.3042 19.8956L26.6597 21.2714L28.2582 22.9989ZM33.1371 19.5404L32.2056 25.5086L40.3499 19.5665L33.1371 19.5404ZM26.8161 16.2987L26.2617 19.5581L30.2375 18.3803L26.8161 16.2987ZM21.7777 15.9954L24.5727 19.0162L25.1048 15.8883L21.7777 15.9954ZM16.8692 12.2422C17.2965 11.8465 17.9634 11.8728 18.3582 12.3001L20.41 14.5177C20.5619 14.368 20.7663 14.271 20.9958 14.2635L23.3471 14.188L20.7214 12.5907C20.3072 12.3386 20.1758 11.7982 20.4279 11.3842C20.68 10.9694 21.2202 10.8386 21.6344 11.0901L32.6334 17.7825L43.033 17.8202C43.4124 17.8216 43.7479 18.0665 43.8652 18.4274C43.9821 18.7887 43.8539 19.1838 43.5473 19.4076L32.4754 27.4856L33.5004 28.576C33.8987 29.0001 33.8781 29.6667 33.454 30.0656C33.2494 30.2575 32.9889 30.3522 32.7289 30.3513C32.4493 30.3502 32.1708 30.2387 31.9645 30.0193L26.7168 24.4364L16.8116 13.7312C16.4165 13.3042 16.4423 12.6373 16.8692 12.2422Z" fill="#A297B2"/>
<path d="M17.407 6.13241L23.5239 11.9987L30.5828 12.0244C31.9832 12.0296 33.1153 12.8815 33.1116 13.9277C33.1075 14.9735 31.9693 15.8173 30.5692 15.8124L22.4295 15.7828C21.1955 15.7782 20.1711 15.1156 19.9473 14.2426C17.057 13.9198 14.5639 12.9316 12.5185 11.7489C8.33145 9.32693 6.02095 6.09101 6.02095 6.09101L17.407 6.13241Z" fill="#281F33"/>
<path d="M46.3922 36.3325C46.3803 39.6642 49.0715 42.3753 52.4035 42.3872C55.7355 42.3993 58.4463 39.7082 58.4585 36.3762C58.4703 33.0441 55.7792 30.3333 52.4472 30.3212C49.1154 30.309 46.4043 33.0004 46.3922 36.3325Z" fill="#D9CCED"/>
<path d="M48.5771 36.2581C48.5699 38.3101 50.2931 39.98 52.4261 39.9875C54.5592 39.9953 56.2945 38.3382 56.3017 36.2862C56.3093 34.2344 54.5861 32.5645 52.453 32.557C50.32 32.5492 48.5846 34.2064 48.5771 36.2581Z" fill="#7F7789"/>
<path d="M52.4416 35.6696C52.4384 36.5759 53.1236 37.3131 53.9723 37.316C54.8213 37.3192 55.5119 36.5869 55.5151 35.6809C55.5183 34.7745 54.8332 34.0376 53.9844 34.0344C53.1357 34.0312 52.4448 34.7635 52.4416 35.6696Z" fill="#A297B2"/>
<path d="M57.1924 36.7351C57.4205 36.736 57.6153 36.5626 57.6373 36.331C57.6463 36.2338 57.8385 33.9235 55.8128 32.2264C53.8604 30.591 51.4599 31.0037 49.9975 31.8536C49.7847 31.9769 49.7124 32.2499 49.8363 32.4626C49.9596 32.6754 50.2328 32.7475 50.4453 32.6241C51.6585 31.9193 53.6421 31.5711 55.2403 32.9096C56.9113 34.3094 56.7516 36.2285 56.7498 36.2479C56.727 36.4928 56.9067 36.7102 57.1519 36.7334C57.1652 36.7345 57.1791 36.7351 57.1924 36.7351Z" fill="#878999"/>
<path d="M47.6847 36.7441C47.7018 36.7444 47.7185 36.7435 47.7359 36.7415C47.9805 36.7146 48.1568 36.4943 48.1299 36.2497C47.9278 34.424 48.8072 33.8813 48.8446 33.859C49.0538 33.7354 49.1288 33.4648 49.009 33.2534C48.8891 33.0424 48.6257 32.9637 48.4121 33.0798C48.353 33.1119 46.9726 33.8932 47.2438 36.3475C47.269 36.575 47.4612 36.7435 47.6847 36.7441Z" fill="#878999"/>
<path d="M52.1843 41.403C55.7913 41.4163 56.9196 39.0424 56.9659 38.9417C57.0681 38.718 56.97 38.4534 56.7462 38.3509C56.5228 38.249 56.2596 38.3463 56.1566 38.5683C56.1175 38.6502 55.1947 40.5228 52.1875 40.5118C49.6509 40.5025 48.9886 38.8789 48.9822 38.8627C48.8928 38.6334 48.6349 38.5197 48.405 38.6091C48.1758 38.6986 48.0623 38.9571 48.1518 39.1863C48.1868 39.2763 49.0474 41.3917 52.1843 41.403Z" fill="#878999"/>
<path d="M73.483 1.73777C73.6729 1.88627 73.8636 2.04027 74.0547 2.20237C79.6929 6.98054 81.9929 15.7203 81.9929 15.7203L68.926 15.8569C69.7657 11.9625 70.837 8.06284 72.2175 4.15508C72.5089 3.37006 72.9087 2.50167 73.483 1.73777Z" fill="#3D899B"/>
<path d="M58.1199 6.73016C58.1118 8.89303 59.8587 10.6527 62.0215 10.6605C64.1841 10.6683 65.9438 8.9214 65.9519 6.75882C65.9597 4.59595 64.2128 2.8363 62.0499 2.82848C59.887 2.82067 58.1277 4.56758 58.1199 6.73016Z" fill="#5F5A75"/>
<path d="M60.0898 6.73741C60.086 7.81218 60.9541 8.68665 62.0289 8.69042C63.1037 8.69447 63.9782 7.82637 63.9819 6.75159C63.986 5.67681 63.1179 4.80234 62.0428 4.79829C60.968 4.79453 60.0936 5.66263 60.0898 6.73741Z" fill="#281F33"/>
<path d="M28.0925 28.4159C28.0853 30.4268 29.7095 32.0625 31.7201 32.07C33.7307 32.0773 35.3668 30.4531 35.374 28.4425C35.3815 26.4316 33.7573 24.7955 31.7464 24.7883C29.7358 24.7811 28.0998 26.4052 28.0925 28.4159Z" fill="#366C87"/>
<path d="M52.6475 15.8934C52.6455 16.4426 53.0889 16.8892 53.638 16.8909L61.4275 16.9193C61.9766 16.9213 62.4233 16.4779 62.4253 15.9288C62.4273 15.3799 61.9838 14.933 61.4347 14.9313L53.645 14.9029C53.0962 14.9009 52.6495 15.3443 52.6475 15.8934Z" fill="#5ABCCC"/>
<path d="M31.7945 17.32C31.7907 18.3774 32.6446 19.2374 33.702 19.2414L47.6235 19.2921C48.6806 19.2959 49.5409 18.442 49.5447 17.3845C49.5487 16.3271 48.6945 15.4668 47.6374 15.4631L33.7159 15.4124C32.6585 15.4087 31.7985 16.2626 31.7945 17.32Z" fill="#281F33"/>
<path d="M43.8197 20.718L55.8151 20.7617C56.2406 20.7634 56.5842 21.1093 56.5828 21.5348C56.581 21.9603 56.2351 22.3039 55.8096 22.3025L43.8142 22.2588C43.3887 22.2573 43.0451 21.9111 43.0469 21.4856C43.0483 21.0601 43.3945 20.7165 43.8197 20.718Z" fill="#7F7789"/>
<path d="M45.8219 24.4792L52.3757 24.5029C52.8773 24.5046 53.2825 24.9128 53.2805 25.4144C53.2788 25.9161 52.8706 26.3213 52.369 26.3196L45.8152 26.2955C45.3136 26.2938 44.9084 25.8857 44.9104 25.384C44.9121 24.8824 45.3203 24.4771 45.8219 24.4792Z" fill="#7F7789"/>
<path d="M78.5045 13.9037C78.602 13.904 78.7013 13.8892 78.7989 13.8574C79.2944 13.6964 79.5662 13.1664 79.4067 12.6706C79.3905 12.6202 78.996 11.4129 77.8451 9.37532C76.2435 6.54031 74.7962 5.23772 74.7354 5.18359C74.3449 4.83624 73.7483 4.87271 73.4021 5.26204C73.0556 5.65224 73.0907 6.24911 73.4806 6.5956C73.491 6.60486 74.7693 7.77053 76.2004 10.3042C77.2447 12.1533 77.606 13.2408 77.6095 13.2518C77.7394 13.649 78.1079 13.9022 78.5045 13.9037Z" fill="#71EEFF"/>
<path d="M62.4955 39.9433C62.4958 39.8764 62.4833 39.813 62.4761 39.7482L62.494 39.7479C62.494 39.7479 61.5379 35.9507 63.5497 30.2083C66.9245 20.5761 76.6939 17.0728 76.6939 17.0728C75.1598 17.0033 76.6262 16.9662 79.1694 17.0817C79.1694 17.0817 69.4 20.5851 66.0252 30.2173C64.0134 35.9597 64.9695 39.7569 64.9695 39.7569L64.9516 39.7571C64.9588 39.822 64.9712 39.8854 64.971 39.9522C64.9675 40.9026 64.1749 41.6702 63.2006 41.6667L60.7251 41.6578C61.6994 41.6612 62.492 40.8936 62.4955 39.9433Z" fill="#275D72"/>
<path d="M79.9756 36.6283C79.9704 38.0084 81.0854 39.1315 82.4656 39.1365C83.8461 39.1414 84.9692 38.0267 84.9741 36.6462C84.979 35.266 83.864 34.1429 82.4838 34.138C81.1037 34.1331 79.9806 35.2478 79.9756 36.6283Z" fill="#403354"/>
<path d="M89.2993 35.9773C89.3676 35.9773 89.4371 35.9704 89.5066 35.9547C90.0146 35.8424 90.3364 35.3428 90.2262 34.8345C90.2073 34.7479 89.7454 32.689 88.01 30.9117C86.9393 29.8149 85.6193 29.0588 84.0872 28.664C83.5827 28.5326 83.0671 28.838 82.9369 29.3428C82.8066 29.8485 83.1108 30.3632 83.6157 30.4931C84.8088 30.8005 85.8327 31.3852 86.6585 32.2314C88.0002 33.6054 88.3774 35.2227 88.3808 35.2389C88.4795 35.6763 88.8683 35.9756 89.2993 35.9773Z" fill="#D9CCED"/>
<path d="M82.5972 44.4638C83.142 44.4658 83.7282 44.4094 84.3482 44.2684C85.812 43.9353 87.0084 43.3039 87.9048 42.3933C89.0728 41.205 89.4005 39.9531 89.4341 39.8142C89.5565 39.3073 89.2448 38.797 88.7376 38.6743C88.2311 38.5547 87.7245 38.861 87.5995 39.3643C87.5914 39.395 87.3531 40.2602 86.558 41.069C85.9194 41.718 85.0345 42.1747 83.9291 42.4269C81.4405 42.9936 79.7041 41.7727 79.6314 41.7209C79.2099 41.4172 78.6197 41.511 78.3146 41.9304C78.0092 42.3504 78.0975 42.9363 78.5152 43.2446C78.5966 43.3042 80.1909 44.4551 82.5972 44.4638Z" fill="#D9CCED"/>
<path d="M76.1119 40.4918C76.2716 40.4927 76.4334 40.4524 76.5822 40.3676C77.0347 40.1097 77.1927 39.5348 76.9363 39.0818C76.9125 39.0399 75.8748 37.1366 76.4291 35.2508C76.5762 34.7503 76.2896 34.2255 75.7894 34.0785C75.2895 33.9317 74.7641 34.2177 74.6168 34.7185C73.8289 37.3995 75.2339 39.91 75.2938 40.0153C75.4675 40.3199 75.7848 40.4906 76.1119 40.4918Z" fill="#D9CCED"/>
<path d="M20.0201 42.3261C20.0465 42.3892 20.0798 42.4506 20.1209 42.5088C20.421 42.9337 21.0063 43.0371 21.4324 42.7389C21.5051 42.6883 23.2251 41.4659 24.193 39.1785C24.7905 37.7668 24.9775 36.2572 24.7488 34.6918C24.675 34.1757 24.1942 33.8182 23.6781 33.8935C23.1617 33.9687 22.8045 34.4481 22.8797 34.9642C23.0577 36.1831 22.9142 37.3534 22.4536 38.4424C21.7051 40.211 20.3597 41.1842 20.3461 41.1938C19.9808 41.454 19.8551 41.9281 20.0201 42.3261Z" fill="#D9CCED"/>
<path d="M9.60201 39.4274C9.81101 39.9308 10.0898 40.4495 10.4597 40.9668C11.333 42.1877 12.3777 43.0471 13.5642 43.5216C15.1117 44.1393 16.3928 43.9575 16.5341 43.9346C17.0488 43.8516 17.399 43.3667 17.3159 42.8515C17.23 42.3382 16.7518 41.9894 16.2394 42.0688C16.2079 42.0731 15.3178 42.188 14.2647 41.7674C13.4192 41.4293 12.6556 40.7902 11.9959 39.868C10.5106 37.7925 10.9654 35.7188 10.9851 35.6319C11.102 35.1257 10.7874 34.6177 10.2825 34.4984C9.77715 34.3792 9.27088 34.6871 9.14814 35.1917C9.12441 35.2895 8.67978 37.2052 9.60201 39.4274Z" fill="#D9CCED"/>
<path d="M10.7572 31.9109C10.8186 32.0582 10.9179 32.1919 11.0536 32.2964C11.4664 32.614 12.0578 32.5373 12.3762 32.1256C12.406 32.0877 13.7598 30.3947 15.7134 30.1764C16.2315 30.1185 16.605 29.6513 16.5471 29.1332C16.4889 28.6156 16.0223 28.2416 15.5035 28.2992C12.7264 28.6095 10.9543 30.876 10.8802 30.9721C10.6666 31.25 10.6319 31.6087 10.7572 31.9109Z" fill="#D9CCED"/>
<path d="M14.8355 36.1319C14.8314 37.2897 15.7664 38.2317 16.9242 38.2357C18.0818 38.24 19.0237 37.3048 19.0281 36.1472C19.0321 34.9894 18.0971 34.0475 16.9393 34.0434C15.7817 34.0391 14.8398 34.9743 14.8355 36.1319Z" fill="#645B6D"/>
<path d="M68.9179 16.0437C68.9147 16.8834 69.5929 17.5662 70.4327 17.5694L85.4642 17.6241C86.3037 17.627 86.9868 16.9491 86.99 16.1094C86.9932 15.2696 86.3149 14.5868 85.4752 14.5836L70.4437 14.5289C69.6039 14.526 68.9211 15.2039 68.9179 16.0437Z" fill="#3D899B"/>
<path d="M30.1741 28.433C30.171 29.2944 30.8668 29.9952 31.7283 29.9984C32.5897 30.0016 33.2905 29.3057 33.2937 28.4443C33.2969 27.5828 32.601 26.882 31.7396 26.8789C30.8781 26.876 30.1773 27.5715 30.1741 28.433Z" fill="#71EEFF"/>
<path d="M58.2735 29.7529C58.6376 29.7544 58.9722 29.5043 59.0747 29.1219C60.8806 22.3838 65.0483 21.2864 65.2249 21.2433C65.6684 21.1341 65.9468 20.6727 65.8449 20.2108C65.7431 19.7482 65.3048 19.4576 64.8599 19.5612C64.6445 19.6113 59.565 20.8716 57.478 28.6588C57.355 29.1175 57.6129 29.5931 58.0537 29.7211C58.127 29.7422 58.2011 29.7526 58.2735 29.7529Z" fill="#71EEFF"/>
<path d="M68.8581 16.8098C68.9467 16.8295 69.0399 16.8371 69.1354 16.8298C69.6556 16.7907 70.0455 16.3372 70.0064 15.817C69.7989 13.0564 70.2559 10.0749 71.3646 6.95536C72.3965 4.05117 73.6215 2.1219 73.634 2.1025C73.9154 1.6631 73.7871 1.07925 73.3477 0.797891C72.908 0.517401 72.3242 0.645051 72.0431 1.08446C71.9881 1.16985 70.6881 3.21722 69.5847 6.32288C68.3875 9.69194 67.8954 12.9336 68.1229 15.9585C68.1547 16.3835 68.463 16.7213 68.8581 16.8098Z" fill="#D9CCED"/>
</svg>
